%TF.GenerationSoftware,KiCad,Pcbnew,(6.0.7)*%
%TF.CreationDate,2022-11-25T21:32:08+05:30*%
%TF.ProjectId,GPI-Tally-Interface-Board,4750492d-5461-46c6-9c79-2d496e746572,rev?*%
%TF.SameCoordinates,Original*%
%TF.FileFunction,Drillmap*%
%TF.FilePolarity,Positive*%
%FSLAX45Y45*%
G04 Gerber Fmt 4.5, Leading zero omitted, Abs format (unit mm)*
G04 Created by KiCad (PCBNEW (6.0.7)) date 2022-11-25 21:32:08*
%MOMM*%
%LPD*%
G01*
G04 APERTURE LIST*
%ADD10C,0.050000*%
%ADD11C,0.200000*%
%ADD12C,0.025000*%
%ADD13C,0.080000*%
%ADD14C,0.090000*%
%ADD15C,0.100000*%
%ADD16C,0.110000*%
%ADD17C,0.320000*%
G04 APERTURE END LIST*
D10*
X6102500Y-5320000D02*
X6102500Y-13620000D01*
X21252500Y-4970000D02*
X6452500Y-4970000D01*
X21602500Y-5320000D02*
G75*
G03*
X21252500Y-4970000I-350000J0D01*
G01*
X21252500Y-13970000D02*
G75*
G03*
X21602500Y-13620000I0J350000D01*
G01*
X6452500Y-13970000D02*
X21252500Y-13970000D01*
X21602500Y-13620000D02*
X21602500Y-5320000D01*
X6452500Y-4970000D02*
G75*
G03*
X6102500Y-5320000I0J-350000D01*
G01*
X6102500Y-13620000D02*
G75*
G03*
X6452500Y-13970000I350000J0D01*
G01*
D11*
D12*
X6787500Y-10887500D02*
X6812500Y-10912500D01*
X6812500Y-10887500D02*
X6787500Y-10912500D01*
X7567500Y-5487500D02*
X7592500Y-5512500D01*
X7592500Y-5487500D02*
X7567500Y-5512500D01*
X7587500Y-10947500D02*
X7612500Y-10972500D01*
X7612500Y-10947500D02*
X7587500Y-10972500D01*
X7787500Y-8317500D02*
X7812500Y-8342500D01*
X7812500Y-8317500D02*
X7787500Y-8342500D01*
X8987500Y-8317500D02*
X9012500Y-8342500D01*
X9012500Y-8317500D02*
X8987500Y-8342500D01*
X9197500Y-10947500D02*
X9222500Y-10972500D01*
X9222500Y-10947500D02*
X9197500Y-10972500D01*
X9987500Y-10947500D02*
X10012500Y-10972500D01*
X10012500Y-10947500D02*
X9987500Y-10972500D01*
X10187500Y-8317500D02*
X10212500Y-8342500D01*
X10212500Y-8317500D02*
X10187500Y-8342500D01*
X10787500Y-10947500D02*
X10812500Y-10972500D01*
X10812500Y-10947500D02*
X10787500Y-10972500D01*
X11387500Y-8317500D02*
X11412500Y-8342500D01*
X11412500Y-8317500D02*
X11387500Y-8342500D01*
X11587500Y-10947500D02*
X11612500Y-10972500D01*
X11612500Y-10947500D02*
X11587500Y-10972500D01*
X12387500Y-10947500D02*
X12412500Y-10972500D01*
X12412500Y-10947500D02*
X12387500Y-10972500D01*
X12587500Y-8317500D02*
X12612500Y-8342500D01*
X12612500Y-8317500D02*
X12587500Y-8342500D01*
X13317500Y-10947500D02*
X13342500Y-10972500D01*
X13342500Y-10947500D02*
X13317500Y-10972500D01*
X13787500Y-8317500D02*
X13812500Y-8342500D01*
X13812500Y-8317500D02*
X13787500Y-8342500D01*
X14987500Y-8317500D02*
X15012500Y-8342500D01*
X15012500Y-8317500D02*
X14987500Y-8342500D01*
X16187500Y-8317500D02*
X16212500Y-8342500D01*
X16212500Y-8317500D02*
X16187500Y-8342500D01*
X18777500Y-9337500D02*
X18802500Y-9362500D01*
X18802500Y-9337500D02*
X18777500Y-9362500D01*
X19712500Y-9717500D02*
X19737500Y-9742500D01*
X19737500Y-9717500D02*
X19712500Y-9742500D01*
D13*
X6612500Y-11418000D02*
G75*
G03*
X6612500Y-11418000I-40000J0D01*
G01*
X6612500Y-12180000D02*
G75*
G03*
X6612500Y-12180000I-40000J0D01*
G01*
X6866500Y-11418000D02*
G75*
G03*
X6866500Y-11418000I-40000J0D01*
G01*
X6866500Y-12180000D02*
G75*
G03*
X6866500Y-12180000I-40000J0D01*
G01*
X7412500Y-11418000D02*
G75*
G03*
X7412500Y-11418000I-40000J0D01*
G01*
X7412500Y-12180000D02*
G75*
G03*
X7412500Y-12180000I-40000J0D01*
G01*
X7666500Y-11418000D02*
G75*
G03*
X7666500Y-11418000I-40000J0D01*
G01*
X7666500Y-12180000D02*
G75*
G03*
X7666500Y-12180000I-40000J0D01*
G01*
X9012500Y-11418000D02*
G75*
G03*
X9012500Y-11418000I-40000J0D01*
G01*
X9012500Y-12180000D02*
G75*
G03*
X9012500Y-12180000I-40000J0D01*
G01*
X9266500Y-11418000D02*
G75*
G03*
X9266500Y-11418000I-40000J0D01*
G01*
X9266500Y-12180000D02*
G75*
G03*
X9266500Y-12180000I-40000J0D01*
G01*
X9812500Y-11418000D02*
G75*
G03*
X9812500Y-11418000I-40000J0D01*
G01*
X9812500Y-12180000D02*
G75*
G03*
X9812500Y-12180000I-40000J0D01*
G01*
X10066500Y-11418000D02*
G75*
G03*
X10066500Y-11418000I-40000J0D01*
G01*
X10066500Y-12180000D02*
G75*
G03*
X10066500Y-12180000I-40000J0D01*
G01*
X10612500Y-11418000D02*
G75*
G03*
X10612500Y-11418000I-40000J0D01*
G01*
X10612500Y-12180000D02*
G75*
G03*
X10612500Y-12180000I-40000J0D01*
G01*
X10866500Y-11418000D02*
G75*
G03*
X10866500Y-11418000I-40000J0D01*
G01*
X10866500Y-12180000D02*
G75*
G03*
X10866500Y-12180000I-40000J0D01*
G01*
X11412500Y-11418000D02*
G75*
G03*
X11412500Y-11418000I-40000J0D01*
G01*
X11412500Y-12180000D02*
G75*
G03*
X11412500Y-12180000I-40000J0D01*
G01*
X11666500Y-11418000D02*
G75*
G03*
X11666500Y-11418000I-40000J0D01*
G01*
X11666500Y-12180000D02*
G75*
G03*
X11666500Y-12180000I-40000J0D01*
G01*
X12212500Y-11418000D02*
G75*
G03*
X12212500Y-11418000I-40000J0D01*
G01*
X12212500Y-12180000D02*
G75*
G03*
X12212500Y-12180000I-40000J0D01*
G01*
X12466500Y-11418000D02*
G75*
G03*
X12466500Y-11418000I-40000J0D01*
G01*
X12466500Y-12180000D02*
G75*
G03*
X12466500Y-12180000I-40000J0D01*
G01*
X13012500Y-11418000D02*
G75*
G03*
X13012500Y-11418000I-40000J0D01*
G01*
X13012500Y-12180000D02*
G75*
G03*
X13012500Y-12180000I-40000J0D01*
G01*
X13266500Y-11418000D02*
G75*
G03*
X13266500Y-11418000I-40000J0D01*
G01*
X13266500Y-12180000D02*
G75*
G03*
X13266500Y-12180000I-40000J0D01*
G01*
X13812500Y-11418000D02*
G75*
G03*
X13812500Y-11418000I-40000J0D01*
G01*
X13812500Y-12180000D02*
G75*
G03*
X13812500Y-12180000I-40000J0D01*
G01*
X14066500Y-11418000D02*
G75*
G03*
X14066500Y-11418000I-40000J0D01*
G01*
X14066500Y-12180000D02*
G75*
G03*
X14066500Y-12180000I-40000J0D01*
G01*
X14612500Y-11418000D02*
G75*
G03*
X14612500Y-11418000I-40000J0D01*
G01*
X14612500Y-12180000D02*
G75*
G03*
X14612500Y-12180000I-40000J0D01*
G01*
X14866500Y-11418000D02*
G75*
G03*
X14866500Y-11418000I-40000J0D01*
G01*
X14866500Y-12180000D02*
G75*
G03*
X14866500Y-12180000I-40000J0D01*
G01*
X15412500Y-11418000D02*
G75*
G03*
X15412500Y-11418000I-40000J0D01*
G01*
X15412500Y-12180000D02*
G75*
G03*
X15412500Y-12180000I-40000J0D01*
G01*
X15666500Y-11418000D02*
G75*
G03*
X15666500Y-11418000I-40000J0D01*
G01*
X15666500Y-12180000D02*
G75*
G03*
X15666500Y-12180000I-40000J0D01*
G01*
X16212500Y-11418000D02*
G75*
G03*
X16212500Y-11418000I-40000J0D01*
G01*
X16212500Y-12180000D02*
G75*
G03*
X16212500Y-12180000I-40000J0D01*
G01*
X16466500Y-11418000D02*
G75*
G03*
X16466500Y-11418000I-40000J0D01*
G01*
X16466500Y-12180000D02*
G75*
G03*
X16466500Y-12180000I-40000J0D01*
G01*
X17012500Y-11418000D02*
G75*
G03*
X17012500Y-11418000I-40000J0D01*
G01*
X17012500Y-12180000D02*
G75*
G03*
X17012500Y-12180000I-40000J0D01*
G01*
X17266500Y-11418000D02*
G75*
G03*
X17266500Y-11418000I-40000J0D01*
G01*
X17266500Y-12180000D02*
G75*
G03*
X17266500Y-12180000I-40000J0D01*
G01*
X18712500Y-11418000D02*
G75*
G03*
X18712500Y-11418000I-40000J0D01*
G01*
X18712500Y-12180000D02*
G75*
G03*
X18712500Y-12180000I-40000J0D01*
G01*
X18966500Y-11418000D02*
G75*
G03*
X18966500Y-11418000I-40000J0D01*
G01*
X18966500Y-12180000D02*
G75*
G03*
X18966500Y-12180000I-40000J0D01*
G01*
X19612500Y-11418000D02*
G75*
G03*
X19612500Y-11418000I-40000J0D01*
G01*
X19612500Y-12180000D02*
G75*
G03*
X19612500Y-12180000I-40000J0D01*
G01*
X19866500Y-11418000D02*
G75*
G03*
X19866500Y-11418000I-40000J0D01*
G01*
X19866500Y-12180000D02*
G75*
G03*
X19866500Y-12180000I-40000J0D01*
G01*
X20412500Y-11418000D02*
G75*
G03*
X20412500Y-11418000I-40000J0D01*
G01*
X20412500Y-12180000D02*
G75*
G03*
X20412500Y-12180000I-40000J0D01*
G01*
X20666500Y-11418000D02*
G75*
G03*
X20666500Y-11418000I-40000J0D01*
G01*
X20666500Y-12180000D02*
G75*
G03*
X20666500Y-12180000I-40000J0D01*
G01*
D14*
X7700000Y-6701000D02*
X7700000Y-6791000D01*
X7655000Y-6746000D02*
X7745000Y-6746000D01*
X7700000Y-6955000D02*
X7700000Y-7045000D01*
X7655000Y-7000000D02*
X7745000Y-7000000D01*
X7700000Y-9001000D02*
X7700000Y-9091000D01*
X7655000Y-9046000D02*
X7745000Y-9046000D01*
X7700000Y-9255000D02*
X7700000Y-9345000D01*
X7655000Y-9300000D02*
X7745000Y-9300000D01*
X8077500Y-6100000D02*
X8077500Y-6190000D01*
X8032500Y-6145000D02*
X8122500Y-6145000D01*
X8327500Y-6100000D02*
X8327500Y-6190000D01*
X8282500Y-6145000D02*
X8372500Y-6145000D01*
X8577500Y-6100000D02*
X8577500Y-6190000D01*
X8532500Y-6145000D02*
X8622500Y-6145000D01*
X8827500Y-6100000D02*
X8827500Y-6190000D01*
X8782500Y-6145000D02*
X8872500Y-6145000D01*
X8900000Y-6701000D02*
X8900000Y-6791000D01*
X8855000Y-6746000D02*
X8945000Y-6746000D01*
X8900000Y-6955000D02*
X8900000Y-7045000D01*
X8855000Y-7000000D02*
X8945000Y-7000000D01*
X8900000Y-9001000D02*
X8900000Y-9091000D01*
X8855000Y-9046000D02*
X8945000Y-9046000D01*
X8900000Y-9255000D02*
X8900000Y-9345000D01*
X8855000Y-9300000D02*
X8945000Y-9300000D01*
X10100000Y-6701000D02*
X10100000Y-6791000D01*
X10055000Y-6746000D02*
X10145000Y-6746000D01*
X10100000Y-6955000D02*
X10100000Y-7045000D01*
X10055000Y-7000000D02*
X10145000Y-7000000D01*
X10100000Y-9001000D02*
X10100000Y-9091000D01*
X10055000Y-9046000D02*
X10145000Y-9046000D01*
X10100000Y-9255000D02*
X10100000Y-9345000D01*
X10055000Y-9300000D02*
X10145000Y-9300000D01*
X11300000Y-6701000D02*
X11300000Y-6791000D01*
X11255000Y-6746000D02*
X11345000Y-6746000D01*
X11300000Y-6955000D02*
X11300000Y-7045000D01*
X11255000Y-7000000D02*
X11345000Y-7000000D01*
X11300000Y-9001000D02*
X11300000Y-9091000D01*
X11255000Y-9046000D02*
X11345000Y-9046000D01*
X11300000Y-9255000D02*
X11300000Y-9345000D01*
X11255000Y-9300000D02*
X11345000Y-9300000D01*
X12500000Y-6701000D02*
X12500000Y-6791000D01*
X12455000Y-6746000D02*
X12545000Y-6746000D01*
X12500000Y-6955000D02*
X12500000Y-7045000D01*
X12455000Y-7000000D02*
X12545000Y-7000000D01*
X12500000Y-9001000D02*
X12500000Y-9091000D01*
X12455000Y-9046000D02*
X12545000Y-9046000D01*
X12500000Y-9255000D02*
X12500000Y-9345000D01*
X12455000Y-9300000D02*
X12545000Y-9300000D01*
X13700000Y-6701000D02*
X13700000Y-6791000D01*
X13655000Y-6746000D02*
X13745000Y-6746000D01*
X13700000Y-6955000D02*
X13700000Y-7045000D01*
X13655000Y-7000000D02*
X13745000Y-7000000D01*
X13700000Y-9001000D02*
X13700000Y-9091000D01*
X13655000Y-9046000D02*
X13745000Y-9046000D01*
X13700000Y-9255000D02*
X13700000Y-9345000D01*
X13655000Y-9300000D02*
X13745000Y-9300000D01*
X14900000Y-6701000D02*
X14900000Y-6791000D01*
X14855000Y-6746000D02*
X14945000Y-6746000D01*
X14900000Y-6955000D02*
X14900000Y-7045000D01*
X14855000Y-7000000D02*
X14945000Y-7000000D01*
X14900000Y-9001000D02*
X14900000Y-9091000D01*
X14855000Y-9046000D02*
X14945000Y-9046000D01*
X14900000Y-9255000D02*
X14900000Y-9345000D01*
X14855000Y-9300000D02*
X14945000Y-9300000D01*
X16100000Y-6701000D02*
X16100000Y-6791000D01*
X16055000Y-6746000D02*
X16145000Y-6746000D01*
X16100000Y-6955000D02*
X16100000Y-7045000D01*
X16055000Y-7000000D02*
X16145000Y-7000000D01*
X16100000Y-9001000D02*
X16100000Y-9091000D01*
X16055000Y-9046000D02*
X16145000Y-9046000D01*
X16100000Y-9255000D02*
X16100000Y-9345000D01*
X16055000Y-9300000D02*
X16145000Y-9300000D01*
X19600000Y-6101000D02*
X19600000Y-6191000D01*
X19555000Y-6146000D02*
X19645000Y-6146000D01*
X19600000Y-6355000D02*
X19600000Y-6445000D01*
X19555000Y-6400000D02*
X19645000Y-6400000D01*
X19600000Y-7201000D02*
X19600000Y-7291000D01*
X19555000Y-7246000D02*
X19645000Y-7246000D01*
X19600000Y-7455000D02*
X19600000Y-7545000D01*
X19555000Y-7500000D02*
X19645000Y-7500000D01*
D15*
X8473856Y-13177323D02*
X8473856Y-13106611D01*
X8403144Y-13106611D01*
X8403144Y-13177323D01*
X8473856Y-13177323D01*
X8612356Y-13461323D02*
X8612356Y-13390611D01*
X8541644Y-13390611D01*
X8541644Y-13461323D01*
X8612356Y-13461323D01*
X8750856Y-13177323D02*
X8750856Y-13106611D01*
X8680144Y-13106611D01*
X8680144Y-13177323D01*
X8750856Y-13177323D01*
X8889356Y-13461323D02*
X8889356Y-13390611D01*
X8818644Y-13390611D01*
X8818644Y-13461323D01*
X8889356Y-13461323D01*
X9027856Y-13177323D02*
X9027856Y-13106611D01*
X8957144Y-13106611D01*
X8957144Y-13177323D01*
X9027856Y-13177323D01*
X9166356Y-13461323D02*
X9166356Y-13390611D01*
X9095644Y-13390611D01*
X9095644Y-13461323D01*
X9166356Y-13461323D01*
X9304856Y-13177323D02*
X9304856Y-13106611D01*
X9234144Y-13106611D01*
X9234144Y-13177323D01*
X9304856Y-13177323D01*
X9443356Y-13461323D02*
X9443356Y-13390611D01*
X9372644Y-13390611D01*
X9372644Y-13461323D01*
X9443356Y-13461323D01*
X9581856Y-13177323D02*
X9581856Y-13106611D01*
X9511144Y-13106611D01*
X9511144Y-13177323D01*
X9581856Y-13177323D01*
X9720356Y-13461323D02*
X9720356Y-13390611D01*
X9649644Y-13390611D01*
X9649644Y-13461323D01*
X9720356Y-13461323D01*
X9858856Y-13177323D02*
X9858856Y-13106611D01*
X9788144Y-13106611D01*
X9788144Y-13177323D01*
X9858856Y-13177323D01*
X9997356Y-13461323D02*
X9997356Y-13390611D01*
X9926644Y-13390611D01*
X9926644Y-13461323D01*
X9997356Y-13461323D01*
X10135856Y-13177323D02*
X10135856Y-13106611D01*
X10065144Y-13106611D01*
X10065144Y-13177323D01*
X10135856Y-13177323D01*
X10274356Y-13461323D02*
X10274356Y-13390611D01*
X10203644Y-13390611D01*
X10203644Y-13461323D01*
X10274356Y-13461323D01*
X10412856Y-13177323D02*
X10412856Y-13106611D01*
X10342144Y-13106611D01*
X10342144Y-13177323D01*
X10412856Y-13177323D01*
X10551356Y-13461323D02*
X10551356Y-13390611D01*
X10480644Y-13390611D01*
X10480644Y-13461323D01*
X10551356Y-13461323D01*
X10689856Y-13177323D02*
X10689856Y-13106611D01*
X10619144Y-13106611D01*
X10619144Y-13177323D01*
X10689856Y-13177323D01*
X10828356Y-13461323D02*
X10828356Y-13390611D01*
X10757644Y-13390611D01*
X10757644Y-13461323D01*
X10828356Y-13461323D01*
X10966856Y-13177323D02*
X10966856Y-13106611D01*
X10896144Y-13106611D01*
X10896144Y-13177323D01*
X10966856Y-13177323D01*
X11105356Y-13461323D02*
X11105356Y-13390611D01*
X11034644Y-13390611D01*
X11034644Y-13461323D01*
X11105356Y-13461323D01*
X11243856Y-13177323D02*
X11243856Y-13106611D01*
X11173144Y-13106611D01*
X11173144Y-13177323D01*
X11243856Y-13177323D01*
X11382356Y-13461323D02*
X11382356Y-13390611D01*
X11311644Y-13390611D01*
X11311644Y-13461323D01*
X11382356Y-13461323D01*
X11520856Y-13177323D02*
X11520856Y-13106611D01*
X11450144Y-13106611D01*
X11450144Y-13177323D01*
X11520856Y-13177323D01*
X11659356Y-13461323D02*
X11659356Y-13390611D01*
X11588644Y-13390611D01*
X11588644Y-13461323D01*
X11659356Y-13461323D01*
X11797856Y-13177323D02*
X11797856Y-13106611D01*
X11727144Y-13106611D01*
X11727144Y-13177323D01*
X11797856Y-13177323D01*
X15573856Y-13177323D02*
X15573856Y-13106611D01*
X15503144Y-13106611D01*
X15503144Y-13177323D01*
X15573856Y-13177323D01*
X15712356Y-13461323D02*
X15712356Y-13390611D01*
X15641644Y-13390611D01*
X15641644Y-13461323D01*
X15712356Y-13461323D01*
X15850856Y-13177323D02*
X15850856Y-13106611D01*
X15780144Y-13106611D01*
X15780144Y-13177323D01*
X15850856Y-13177323D01*
X15989356Y-13461323D02*
X15989356Y-13390611D01*
X15918644Y-13390611D01*
X15918644Y-13461323D01*
X15989356Y-13461323D01*
X16127856Y-13177323D02*
X16127856Y-13106611D01*
X16057144Y-13106611D01*
X16057144Y-13177323D01*
X16127856Y-13177323D01*
X16266356Y-13461323D02*
X16266356Y-13390611D01*
X16195644Y-13390611D01*
X16195644Y-13461323D01*
X16266356Y-13461323D01*
X16404856Y-13177323D02*
X16404856Y-13106611D01*
X16334144Y-13106611D01*
X16334144Y-13177323D01*
X16404856Y-13177323D01*
X16543356Y-13461323D02*
X16543356Y-13390611D01*
X16472644Y-13390611D01*
X16472644Y-13461323D01*
X16543356Y-13461323D01*
X16681856Y-13177323D02*
X16681856Y-13106611D01*
X16611144Y-13106611D01*
X16611144Y-13177323D01*
X16681856Y-13177323D01*
X16820356Y-13461323D02*
X16820356Y-13390611D01*
X16749644Y-13390611D01*
X16749644Y-13461323D01*
X16820356Y-13461323D01*
X16958856Y-13177323D02*
X16958856Y-13106611D01*
X16888144Y-13106611D01*
X16888144Y-13177323D01*
X16958856Y-13177323D01*
X17097356Y-13461323D02*
X17097356Y-13390611D01*
X17026644Y-13390611D01*
X17026644Y-13461323D01*
X17097356Y-13461323D01*
X17235856Y-13177323D02*
X17235856Y-13106611D01*
X17165144Y-13106611D01*
X17165144Y-13177323D01*
X17235856Y-13177323D01*
X17374356Y-13461323D02*
X17374356Y-13390611D01*
X17303644Y-13390611D01*
X17303644Y-13461323D01*
X17374356Y-13461323D01*
X17512856Y-13177323D02*
X17512856Y-13106611D01*
X17442144Y-13106611D01*
X17442144Y-13177323D01*
X17512856Y-13177323D01*
X17651356Y-13461323D02*
X17651356Y-13390611D01*
X17580644Y-13390611D01*
X17580644Y-13461323D01*
X17651356Y-13461323D01*
X17683856Y-6205356D02*
X17683856Y-6134644D01*
X17613144Y-6134644D01*
X17613144Y-6205356D01*
X17683856Y-6205356D01*
X17683856Y-6459356D02*
X17683856Y-6388644D01*
X17613144Y-6388644D01*
X17613144Y-6459356D01*
X17683856Y-6459356D01*
X17683856Y-6713356D02*
X17683856Y-6642644D01*
X17613144Y-6642644D01*
X17613144Y-6713356D01*
X17683856Y-6713356D01*
X17683856Y-6967356D02*
X17683856Y-6896644D01*
X17613144Y-6896644D01*
X17613144Y-6967356D01*
X17683856Y-6967356D01*
X17683856Y-7221356D02*
X17683856Y-7150644D01*
X17613144Y-7150644D01*
X17613144Y-7221356D01*
X17683856Y-7221356D01*
X17683856Y-7475356D02*
X17683856Y-7404644D01*
X17613144Y-7404644D01*
X17613144Y-7475356D01*
X17683856Y-7475356D01*
X17683856Y-7729356D02*
X17683856Y-7658644D01*
X17613144Y-7658644D01*
X17613144Y-7729356D01*
X17683856Y-7729356D01*
X17683856Y-7983356D02*
X17683856Y-7912644D01*
X17613144Y-7912644D01*
X17613144Y-7983356D01*
X17683856Y-7983356D01*
X17683856Y-8237356D02*
X17683856Y-8166644D01*
X17613144Y-8166644D01*
X17613144Y-8237356D01*
X17683856Y-8237356D01*
X17683856Y-8491356D02*
X17683856Y-8420644D01*
X17613144Y-8420644D01*
X17613144Y-8491356D01*
X17683856Y-8491356D01*
X17683856Y-8745356D02*
X17683856Y-8674644D01*
X17613144Y-8674644D01*
X17613144Y-8745356D01*
X17683856Y-8745356D01*
X17683856Y-8999356D02*
X17683856Y-8928644D01*
X17613144Y-8928644D01*
X17613144Y-8999356D01*
X17683856Y-8999356D01*
X17683856Y-9253356D02*
X17683856Y-9182644D01*
X17613144Y-9182644D01*
X17613144Y-9253356D01*
X17683856Y-9253356D01*
X17683856Y-9507356D02*
X17683856Y-9436644D01*
X17613144Y-9436644D01*
X17613144Y-9507356D01*
X17683856Y-9507356D01*
X17683856Y-9761356D02*
X17683856Y-9690644D01*
X17613144Y-9690644D01*
X17613144Y-9761356D01*
X17683856Y-9761356D01*
X17683856Y-10015356D02*
X17683856Y-9944644D01*
X17613144Y-9944644D01*
X17613144Y-10015356D01*
X17683856Y-10015356D01*
X17683856Y-10269356D02*
X17683856Y-10198644D01*
X17613144Y-10198644D01*
X17613144Y-10269356D01*
X17683856Y-10269356D01*
X17683856Y-10523356D02*
X17683856Y-10452644D01*
X17613144Y-10452644D01*
X17613144Y-10523356D01*
X17683856Y-10523356D01*
X17683856Y-10777356D02*
X17683856Y-10706644D01*
X17613144Y-10706644D01*
X17613144Y-10777356D01*
X17683856Y-10777356D01*
X17683856Y-11031356D02*
X17683856Y-10960644D01*
X17613144Y-10960644D01*
X17613144Y-11031356D01*
X17683856Y-11031356D01*
X17789856Y-13177323D02*
X17789856Y-13106611D01*
X17719144Y-13106611D01*
X17719144Y-13177323D01*
X17789856Y-13177323D01*
X17928356Y-13461323D02*
X17928356Y-13390611D01*
X17857644Y-13390611D01*
X17857644Y-13461323D01*
X17928356Y-13461323D01*
X17937856Y-6205356D02*
X17937856Y-6134644D01*
X17867144Y-6134644D01*
X17867144Y-6205356D01*
X17937856Y-6205356D01*
X17937856Y-6459356D02*
X17937856Y-6388644D01*
X17867144Y-6388644D01*
X17867144Y-6459356D01*
X17937856Y-6459356D01*
X17937856Y-6713356D02*
X17937856Y-6642644D01*
X17867144Y-6642644D01*
X17867144Y-6713356D01*
X17937856Y-6713356D01*
X17937856Y-6967356D02*
X17937856Y-6896644D01*
X17867144Y-6896644D01*
X17867144Y-6967356D01*
X17937856Y-6967356D01*
X17937856Y-7221356D02*
X17937856Y-7150644D01*
X17867144Y-7150644D01*
X17867144Y-7221356D01*
X17937856Y-7221356D01*
X17937856Y-7475356D02*
X17937856Y-7404644D01*
X17867144Y-7404644D01*
X17867144Y-7475356D01*
X17937856Y-7475356D01*
X17937856Y-7729356D02*
X17937856Y-7658644D01*
X17867144Y-7658644D01*
X17867144Y-7729356D01*
X17937856Y-7729356D01*
X17937856Y-7983356D02*
X17937856Y-7912644D01*
X17867144Y-7912644D01*
X17867144Y-7983356D01*
X17937856Y-7983356D01*
X17937856Y-8237356D02*
X17937856Y-8166644D01*
X17867144Y-8166644D01*
X17867144Y-8237356D01*
X17937856Y-8237356D01*
X17937856Y-8491356D02*
X17937856Y-8420644D01*
X17867144Y-8420644D01*
X17867144Y-8491356D01*
X17937856Y-8491356D01*
X17937856Y-8745356D02*
X17937856Y-8674644D01*
X17867144Y-8674644D01*
X17867144Y-8745356D01*
X17937856Y-8745356D01*
X17937856Y-8999356D02*
X17937856Y-8928644D01*
X17867144Y-8928644D01*
X17867144Y-8999356D01*
X17937856Y-8999356D01*
X17937856Y-9253356D02*
X17937856Y-9182644D01*
X17867144Y-9182644D01*
X17867144Y-9253356D01*
X17937856Y-9253356D01*
X17937856Y-9507356D02*
X17937856Y-9436644D01*
X17867144Y-9436644D01*
X17867144Y-9507356D01*
X17937856Y-9507356D01*
X17937856Y-9761356D02*
X17937856Y-9690644D01*
X17867144Y-9690644D01*
X17867144Y-9761356D01*
X17937856Y-9761356D01*
X17937856Y-10015356D02*
X17937856Y-9944644D01*
X17867144Y-9944644D01*
X17867144Y-10015356D01*
X17937856Y-10015356D01*
X17937856Y-10269356D02*
X17937856Y-10198644D01*
X17867144Y-10198644D01*
X17867144Y-10269356D01*
X17937856Y-10269356D01*
X17937856Y-10523356D02*
X17937856Y-10452644D01*
X17867144Y-10452644D01*
X17867144Y-10523356D01*
X17937856Y-10523356D01*
X17937856Y-10777356D02*
X17937856Y-10706644D01*
X17867144Y-10706644D01*
X17867144Y-10777356D01*
X17937856Y-10777356D01*
X17937856Y-11031356D02*
X17937856Y-10960644D01*
X17867144Y-10960644D01*
X17867144Y-11031356D01*
X17937856Y-11031356D01*
X18066856Y-13177323D02*
X18066856Y-13106611D01*
X17996144Y-13106611D01*
X17996144Y-13177323D01*
X18066856Y-13177323D01*
X18205356Y-13461323D02*
X18205356Y-13390611D01*
X18134644Y-13390611D01*
X18134644Y-13461323D01*
X18205356Y-13461323D01*
X18343856Y-13177323D02*
X18343856Y-13106611D01*
X18273144Y-13106611D01*
X18273144Y-13177323D01*
X18343856Y-13177323D01*
X18482356Y-13461323D02*
X18482356Y-13390611D01*
X18411644Y-13390611D01*
X18411644Y-13461323D01*
X18482356Y-13461323D01*
X18620856Y-13177323D02*
X18620856Y-13106611D01*
X18550144Y-13106611D01*
X18550144Y-13177323D01*
X18620856Y-13177323D01*
X18759356Y-13461323D02*
X18759356Y-13390611D01*
X18688644Y-13390611D01*
X18688644Y-13461323D01*
X18759356Y-13461323D01*
X18897856Y-13177323D02*
X18897856Y-13106611D01*
X18827144Y-13106611D01*
X18827144Y-13177323D01*
X18897856Y-13177323D01*
D16*
X7375000Y-7630000D02*
X7430000Y-7575000D01*
X7375000Y-7520000D01*
X7320000Y-7575000D01*
X7375000Y-7630000D01*
X7375000Y-8080000D02*
X7430000Y-8025000D01*
X7375000Y-7970000D01*
X7320000Y-8025000D01*
X7375000Y-8080000D01*
X7375000Y-9930000D02*
X7430000Y-9875000D01*
X7375000Y-9820000D01*
X7320000Y-9875000D01*
X7375000Y-9930000D01*
X7375000Y-10380000D02*
X7430000Y-10325000D01*
X7375000Y-10270000D01*
X7320000Y-10325000D01*
X7375000Y-10380000D01*
X8025000Y-7630000D02*
X8080000Y-7575000D01*
X8025000Y-7520000D01*
X7970000Y-7575000D01*
X8025000Y-7630000D01*
X8025000Y-8080000D02*
X8080000Y-8025000D01*
X8025000Y-7970000D01*
X7970000Y-8025000D01*
X8025000Y-8080000D01*
X8025000Y-9930000D02*
X8080000Y-9875000D01*
X8025000Y-9820000D01*
X7970000Y-9875000D01*
X8025000Y-9930000D01*
X8025000Y-10380000D02*
X8080000Y-10325000D01*
X8025000Y-10270000D01*
X7970000Y-10325000D01*
X8025000Y-10380000D01*
X8575000Y-7630000D02*
X8630000Y-7575000D01*
X8575000Y-7520000D01*
X8520000Y-7575000D01*
X8575000Y-7630000D01*
X8575000Y-8080000D02*
X8630000Y-8025000D01*
X8575000Y-7970000D01*
X8520000Y-8025000D01*
X8575000Y-8080000D01*
X8575000Y-9930000D02*
X8630000Y-9875000D01*
X8575000Y-9820000D01*
X8520000Y-9875000D01*
X8575000Y-9930000D01*
X8575000Y-10380000D02*
X8630000Y-10325000D01*
X8575000Y-10270000D01*
X8520000Y-10325000D01*
X8575000Y-10380000D01*
X9225000Y-7630000D02*
X9280000Y-7575000D01*
X9225000Y-7520000D01*
X9170000Y-7575000D01*
X9225000Y-7630000D01*
X9225000Y-8080000D02*
X9280000Y-8025000D01*
X9225000Y-7970000D01*
X9170000Y-8025000D01*
X9225000Y-8080000D01*
X9225000Y-9930000D02*
X9280000Y-9875000D01*
X9225000Y-9820000D01*
X9170000Y-9875000D01*
X9225000Y-9930000D01*
X9225000Y-10380000D02*
X9280000Y-10325000D01*
X9225000Y-10270000D01*
X9170000Y-10325000D01*
X9225000Y-10380000D01*
X9761000Y-7630000D02*
X9816000Y-7575000D01*
X9761000Y-7520000D01*
X9706000Y-7575000D01*
X9761000Y-7630000D01*
X9761000Y-8080000D02*
X9816000Y-8025000D01*
X9761000Y-7970000D01*
X9706000Y-8025000D01*
X9761000Y-8080000D01*
X9775000Y-9930000D02*
X9830000Y-9875000D01*
X9775000Y-9820000D01*
X9720000Y-9875000D01*
X9775000Y-9930000D01*
X9775000Y-10380000D02*
X9830000Y-10325000D01*
X9775000Y-10270000D01*
X9720000Y-10325000D01*
X9775000Y-10380000D01*
X10411000Y-7630000D02*
X10466000Y-7575000D01*
X10411000Y-7520000D01*
X10356000Y-7575000D01*
X10411000Y-7630000D01*
X10411000Y-8080000D02*
X10466000Y-8025000D01*
X10411000Y-7970000D01*
X10356000Y-8025000D01*
X10411000Y-8080000D01*
X10425000Y-9930000D02*
X10480000Y-9875000D01*
X10425000Y-9820000D01*
X10370000Y-9875000D01*
X10425000Y-9930000D01*
X10425000Y-10380000D02*
X10480000Y-10325000D01*
X10425000Y-10270000D01*
X10370000Y-10325000D01*
X10425000Y-10380000D01*
X10975000Y-7630000D02*
X11030000Y-7575000D01*
X10975000Y-7520000D01*
X10920000Y-7575000D01*
X10975000Y-7630000D01*
X10975000Y-8080000D02*
X11030000Y-8025000D01*
X10975000Y-7970000D01*
X10920000Y-8025000D01*
X10975000Y-8080000D01*
X10975000Y-9930000D02*
X11030000Y-9875000D01*
X10975000Y-9820000D01*
X10920000Y-9875000D01*
X10975000Y-9930000D01*
X10975000Y-10380000D02*
X11030000Y-10325000D01*
X10975000Y-10270000D01*
X10920000Y-10325000D01*
X10975000Y-10380000D01*
X11625000Y-7630000D02*
X11680000Y-7575000D01*
X11625000Y-7520000D01*
X11570000Y-7575000D01*
X11625000Y-7630000D01*
X11625000Y-8080000D02*
X11680000Y-8025000D01*
X11625000Y-7970000D01*
X11570000Y-8025000D01*
X11625000Y-8080000D01*
X11625000Y-9930000D02*
X11680000Y-9875000D01*
X11625000Y-9820000D01*
X11570000Y-9875000D01*
X11625000Y-9930000D01*
X11625000Y-10380000D02*
X11680000Y-10325000D01*
X11625000Y-10270000D01*
X11570000Y-10325000D01*
X11625000Y-10380000D01*
X12175000Y-7630000D02*
X12230000Y-7575000D01*
X12175000Y-7520000D01*
X12120000Y-7575000D01*
X12175000Y-7630000D01*
X12175000Y-8080000D02*
X12230000Y-8025000D01*
X12175000Y-7970000D01*
X12120000Y-8025000D01*
X12175000Y-8080000D01*
X12175000Y-9930000D02*
X12230000Y-9875000D01*
X12175000Y-9820000D01*
X12120000Y-9875000D01*
X12175000Y-9930000D01*
X12175000Y-10380000D02*
X12230000Y-10325000D01*
X12175000Y-10270000D01*
X12120000Y-10325000D01*
X12175000Y-10380000D01*
X12825000Y-7630000D02*
X12880000Y-7575000D01*
X12825000Y-7520000D01*
X12770000Y-7575000D01*
X12825000Y-7630000D01*
X12825000Y-8080000D02*
X12880000Y-8025000D01*
X12825000Y-7970000D01*
X12770000Y-8025000D01*
X12825000Y-8080000D01*
X12825000Y-9930000D02*
X12880000Y-9875000D01*
X12825000Y-9820000D01*
X12770000Y-9875000D01*
X12825000Y-9930000D01*
X12825000Y-10380000D02*
X12880000Y-10325000D01*
X12825000Y-10270000D01*
X12770000Y-10325000D01*
X12825000Y-10380000D01*
X13375000Y-7630000D02*
X13430000Y-7575000D01*
X13375000Y-7520000D01*
X13320000Y-7575000D01*
X13375000Y-7630000D01*
X13375000Y-8080000D02*
X13430000Y-8025000D01*
X13375000Y-7970000D01*
X13320000Y-8025000D01*
X13375000Y-8080000D01*
X13375000Y-9930000D02*
X13430000Y-9875000D01*
X13375000Y-9820000D01*
X13320000Y-9875000D01*
X13375000Y-9930000D01*
X13375000Y-10380000D02*
X13430000Y-10325000D01*
X13375000Y-10270000D01*
X13320000Y-10325000D01*
X13375000Y-10380000D01*
X14025000Y-7630000D02*
X14080000Y-7575000D01*
X14025000Y-7520000D01*
X13970000Y-7575000D01*
X14025000Y-7630000D01*
X14025000Y-8080000D02*
X14080000Y-8025000D01*
X14025000Y-7970000D01*
X13970000Y-8025000D01*
X14025000Y-8080000D01*
X14025000Y-9930000D02*
X14080000Y-9875000D01*
X14025000Y-9820000D01*
X13970000Y-9875000D01*
X14025000Y-9930000D01*
X14025000Y-10380000D02*
X14080000Y-10325000D01*
X14025000Y-10270000D01*
X13970000Y-10325000D01*
X14025000Y-10380000D01*
X14575000Y-7630000D02*
X14630000Y-7575000D01*
X14575000Y-7520000D01*
X14520000Y-7575000D01*
X14575000Y-7630000D01*
X14575000Y-8080000D02*
X14630000Y-8025000D01*
X14575000Y-7970000D01*
X14520000Y-8025000D01*
X14575000Y-8080000D01*
X14575000Y-9930000D02*
X14630000Y-9875000D01*
X14575000Y-9820000D01*
X14520000Y-9875000D01*
X14575000Y-9930000D01*
X14575000Y-10380000D02*
X14630000Y-10325000D01*
X14575000Y-10270000D01*
X14520000Y-10325000D01*
X14575000Y-10380000D01*
X15225000Y-7630000D02*
X15280000Y-7575000D01*
X15225000Y-7520000D01*
X15170000Y-7575000D01*
X15225000Y-7630000D01*
X15225000Y-8080000D02*
X15280000Y-8025000D01*
X15225000Y-7970000D01*
X15170000Y-8025000D01*
X15225000Y-8080000D01*
X15225000Y-9930000D02*
X15280000Y-9875000D01*
X15225000Y-9820000D01*
X15170000Y-9875000D01*
X15225000Y-9930000D01*
X15225000Y-10380000D02*
X15280000Y-10325000D01*
X15225000Y-10270000D01*
X15170000Y-10325000D01*
X15225000Y-10380000D01*
X15775000Y-7630000D02*
X15830000Y-7575000D01*
X15775000Y-7520000D01*
X15720000Y-7575000D01*
X15775000Y-7630000D01*
X15775000Y-8080000D02*
X15830000Y-8025000D01*
X15775000Y-7970000D01*
X15720000Y-8025000D01*
X15775000Y-8080000D01*
X15775000Y-9930000D02*
X15830000Y-9875000D01*
X15775000Y-9820000D01*
X15720000Y-9875000D01*
X15775000Y-9930000D01*
X15775000Y-10380000D02*
X15830000Y-10325000D01*
X15775000Y-10270000D01*
X15720000Y-10325000D01*
X15775000Y-10380000D01*
X16425000Y-7630000D02*
X16480000Y-7575000D01*
X16425000Y-7520000D01*
X16370000Y-7575000D01*
X16425000Y-7630000D01*
X16425000Y-8080000D02*
X16480000Y-8025000D01*
X16425000Y-7970000D01*
X16370000Y-8025000D01*
X16425000Y-8080000D01*
X16425000Y-9930000D02*
X16480000Y-9875000D01*
X16425000Y-9820000D01*
X16370000Y-9875000D01*
X16425000Y-9930000D01*
X16425000Y-10380000D02*
X16480000Y-10325000D01*
X16425000Y-10270000D01*
X16370000Y-10325000D01*
X16425000Y-10380000D01*
D17*
X7585500Y-13011967D02*
X7905500Y-13331967D01*
X7905500Y-13011967D02*
X7585500Y-13331967D01*
X7905500Y-13171967D02*
G75*
G03*
X7905500Y-13171967I-160000J0D01*
G01*
X12295500Y-13011967D02*
X12615500Y-13331967D01*
X12615500Y-13011967D02*
X12295500Y-13331967D01*
X12615500Y-13171967D02*
G75*
G03*
X12615500Y-13171967I-160000J0D01*
G01*
X14685500Y-13011967D02*
X15005500Y-13331967D01*
X15005500Y-13011967D02*
X14685500Y-13331967D01*
X15005500Y-13171967D02*
G75*
G03*
X15005500Y-13171967I-160000J0D01*
G01*
X19395500Y-13011967D02*
X19715500Y-13331967D01*
X19715500Y-13011967D02*
X19395500Y-13331967D01*
X19715500Y-13171967D02*
G75*
G03*
X19715500Y-13171967I-160000J0D01*
G01*
D11*
X6357619Y-14282976D02*
X6357619Y-14082976D01*
X6405238Y-14082976D01*
X6433809Y-14092500D01*
X6452857Y-14111548D01*
X6462381Y-14130595D01*
X6471905Y-14168690D01*
X6471905Y-14197262D01*
X6462381Y-14235357D01*
X6452857Y-14254405D01*
X6433809Y-14273452D01*
X6405238Y-14282976D01*
X6357619Y-14282976D01*
X6557619Y-14282976D02*
X6557619Y-14149643D01*
X6557619Y-14187738D02*
X6567143Y-14168690D01*
X6576667Y-14159167D01*
X6595714Y-14149643D01*
X6614762Y-14149643D01*
X6681428Y-14282976D02*
X6681428Y-14149643D01*
X6681428Y-14082976D02*
X6671905Y-14092500D01*
X6681428Y-14102024D01*
X6690952Y-14092500D01*
X6681428Y-14082976D01*
X6681428Y-14102024D01*
X6805238Y-14282976D02*
X6786190Y-14273452D01*
X6776667Y-14254405D01*
X6776667Y-14082976D01*
X6910000Y-14282976D02*
X6890952Y-14273452D01*
X6881428Y-14254405D01*
X6881428Y-14082976D01*
X7138571Y-14282976D02*
X7138571Y-14082976D01*
X7205238Y-14225833D01*
X7271905Y-14082976D01*
X7271905Y-14282976D01*
X7452857Y-14282976D02*
X7452857Y-14178214D01*
X7443333Y-14159167D01*
X7424286Y-14149643D01*
X7386190Y-14149643D01*
X7367143Y-14159167D01*
X7452857Y-14273452D02*
X7433809Y-14282976D01*
X7386190Y-14282976D01*
X7367143Y-14273452D01*
X7357619Y-14254405D01*
X7357619Y-14235357D01*
X7367143Y-14216309D01*
X7386190Y-14206786D01*
X7433809Y-14206786D01*
X7452857Y-14197262D01*
X7548095Y-14149643D02*
X7548095Y-14349643D01*
X7548095Y-14159167D02*
X7567143Y-14149643D01*
X7605238Y-14149643D01*
X7624286Y-14159167D01*
X7633809Y-14168690D01*
X7643333Y-14187738D01*
X7643333Y-14244881D01*
X7633809Y-14263928D01*
X7624286Y-14273452D01*
X7605238Y-14282976D01*
X7567143Y-14282976D01*
X7548095Y-14273452D01*
X7729048Y-14263928D02*
X7738571Y-14273452D01*
X7729048Y-14282976D01*
X7719524Y-14273452D01*
X7729048Y-14263928D01*
X7729048Y-14282976D01*
X7729048Y-14159167D02*
X7738571Y-14168690D01*
X7729048Y-14178214D01*
X7719524Y-14168690D01*
X7729048Y-14159167D01*
X7729048Y-14178214D01*
D12*
X6075000Y-14600000D02*
X6100000Y-14625000D01*
X6100000Y-14600000D02*
X6075000Y-14625000D01*
D11*
X6395714Y-14502976D02*
X6414762Y-14502976D01*
X6433809Y-14512500D01*
X6443333Y-14522024D01*
X6452857Y-14541071D01*
X6462381Y-14579167D01*
X6462381Y-14626786D01*
X6452857Y-14664881D01*
X6443333Y-14683928D01*
X6433809Y-14693452D01*
X6414762Y-14702976D01*
X6395714Y-14702976D01*
X6376667Y-14693452D01*
X6367143Y-14683928D01*
X6357619Y-14664881D01*
X6348095Y-14626786D01*
X6348095Y-14579167D01*
X6357619Y-14541071D01*
X6367143Y-14522024D01*
X6376667Y-14512500D01*
X6395714Y-14502976D01*
X6548095Y-14683928D02*
X6557619Y-14693452D01*
X6548095Y-14702976D01*
X6538571Y-14693452D01*
X6548095Y-14683928D01*
X6548095Y-14702976D01*
X6633809Y-14522024D02*
X6643333Y-14512500D01*
X6662381Y-14502976D01*
X6710000Y-14502976D01*
X6729048Y-14512500D01*
X6738571Y-14522024D01*
X6748095Y-14541071D01*
X6748095Y-14560119D01*
X6738571Y-14588690D01*
X6624286Y-14702976D01*
X6748095Y-14702976D01*
X6929048Y-14502976D02*
X6833809Y-14502976D01*
X6824286Y-14598214D01*
X6833809Y-14588690D01*
X6852857Y-14579167D01*
X6900476Y-14579167D01*
X6919524Y-14588690D01*
X6929048Y-14598214D01*
X6938571Y-14617262D01*
X6938571Y-14664881D01*
X6929048Y-14683928D01*
X6919524Y-14693452D01*
X6900476Y-14702976D01*
X6852857Y-14702976D01*
X6833809Y-14693452D01*
X6824286Y-14683928D01*
X7062381Y-14502976D02*
X7081428Y-14502976D01*
X7100476Y-14512500D01*
X7110000Y-14522024D01*
X7119524Y-14541071D01*
X7129048Y-14579167D01*
X7129048Y-14626786D01*
X7119524Y-14664881D01*
X7110000Y-14683928D01*
X7100476Y-14693452D01*
X7081428Y-14702976D01*
X7062381Y-14702976D01*
X7043333Y-14693452D01*
X7033809Y-14683928D01*
X7024286Y-14664881D01*
X7014762Y-14626786D01*
X7014762Y-14579167D01*
X7024286Y-14541071D01*
X7033809Y-14522024D01*
X7043333Y-14512500D01*
X7062381Y-14502976D01*
X7214762Y-14702976D02*
X7214762Y-14569643D01*
X7214762Y-14588690D02*
X7224286Y-14579167D01*
X7243333Y-14569643D01*
X7271905Y-14569643D01*
X7290952Y-14579167D01*
X7300476Y-14598214D01*
X7300476Y-14702976D01*
X7300476Y-14598214D02*
X7310000Y-14579167D01*
X7329048Y-14569643D01*
X7357619Y-14569643D01*
X7376667Y-14579167D01*
X7386190Y-14598214D01*
X7386190Y-14702976D01*
X7481428Y-14702976D02*
X7481428Y-14569643D01*
X7481428Y-14588690D02*
X7490952Y-14579167D01*
X7510000Y-14569643D01*
X7538571Y-14569643D01*
X7557619Y-14579167D01*
X7567143Y-14598214D01*
X7567143Y-14702976D01*
X7567143Y-14598214D02*
X7576667Y-14579167D01*
X7595714Y-14569643D01*
X7624286Y-14569643D01*
X7643333Y-14579167D01*
X7652857Y-14598214D01*
X7652857Y-14702976D01*
X8043333Y-14493452D02*
X7871905Y-14750595D01*
X8300476Y-14502976D02*
X8319524Y-14502976D01*
X8338571Y-14512500D01*
X8348095Y-14522024D01*
X8357619Y-14541071D01*
X8367143Y-14579167D01*
X8367143Y-14626786D01*
X8357619Y-14664881D01*
X8348095Y-14683928D01*
X8338571Y-14693452D01*
X8319524Y-14702976D01*
X8300476Y-14702976D01*
X8281428Y-14693452D01*
X8271905Y-14683928D01*
X8262381Y-14664881D01*
X8252857Y-14626786D01*
X8252857Y-14579167D01*
X8262381Y-14541071D01*
X8271905Y-14522024D01*
X8281428Y-14512500D01*
X8300476Y-14502976D01*
X8452857Y-14683928D02*
X8462381Y-14693452D01*
X8452857Y-14702976D01*
X8443333Y-14693452D01*
X8452857Y-14683928D01*
X8452857Y-14702976D01*
X8586190Y-14502976D02*
X8605238Y-14502976D01*
X8624286Y-14512500D01*
X8633810Y-14522024D01*
X8643333Y-14541071D01*
X8652857Y-14579167D01*
X8652857Y-14626786D01*
X8643333Y-14664881D01*
X8633810Y-14683928D01*
X8624286Y-14693452D01*
X8605238Y-14702976D01*
X8586190Y-14702976D01*
X8567143Y-14693452D01*
X8557619Y-14683928D01*
X8548095Y-14664881D01*
X8538571Y-14626786D01*
X8538571Y-14579167D01*
X8548095Y-14541071D01*
X8557619Y-14522024D01*
X8567143Y-14512500D01*
X8586190Y-14502976D01*
X8776667Y-14502976D02*
X8795714Y-14502976D01*
X8814762Y-14512500D01*
X8824286Y-14522024D01*
X8833810Y-14541071D01*
X8843333Y-14579167D01*
X8843333Y-14626786D01*
X8833810Y-14664881D01*
X8824286Y-14683928D01*
X8814762Y-14693452D01*
X8795714Y-14702976D01*
X8776667Y-14702976D01*
X8757619Y-14693452D01*
X8748095Y-14683928D01*
X8738571Y-14664881D01*
X8729048Y-14626786D01*
X8729048Y-14579167D01*
X8738571Y-14541071D01*
X8748095Y-14522024D01*
X8757619Y-14512500D01*
X8776667Y-14502976D01*
X8938571Y-14702976D02*
X8976667Y-14702976D01*
X8995714Y-14693452D01*
X9005238Y-14683928D01*
X9024286Y-14655357D01*
X9033810Y-14617262D01*
X9033810Y-14541071D01*
X9024286Y-14522024D01*
X9014762Y-14512500D01*
X8995714Y-14502976D01*
X8957619Y-14502976D01*
X8938571Y-14512500D01*
X8929048Y-14522024D01*
X8919524Y-14541071D01*
X8919524Y-14588690D01*
X8929048Y-14607738D01*
X8938571Y-14617262D01*
X8957619Y-14626786D01*
X8995714Y-14626786D01*
X9014762Y-14617262D01*
X9024286Y-14607738D01*
X9033810Y-14588690D01*
X9148095Y-14588690D02*
X9129048Y-14579167D01*
X9119524Y-14569643D01*
X9110000Y-14550595D01*
X9110000Y-14541071D01*
X9119524Y-14522024D01*
X9129048Y-14512500D01*
X9148095Y-14502976D01*
X9186190Y-14502976D01*
X9205238Y-14512500D01*
X9214762Y-14522024D01*
X9224286Y-14541071D01*
X9224286Y-14550595D01*
X9214762Y-14569643D01*
X9205238Y-14579167D01*
X9186190Y-14588690D01*
X9148095Y-14588690D01*
X9129048Y-14598214D01*
X9119524Y-14607738D01*
X9110000Y-14626786D01*
X9110000Y-14664881D01*
X9119524Y-14683928D01*
X9129048Y-14693452D01*
X9148095Y-14702976D01*
X9186190Y-14702976D01*
X9205238Y-14693452D01*
X9214762Y-14683928D01*
X9224286Y-14664881D01*
X9224286Y-14626786D01*
X9214762Y-14607738D01*
X9205238Y-14598214D01*
X9186190Y-14588690D01*
X9300476Y-14502976D02*
X9300476Y-14541071D01*
X9376667Y-14502976D02*
X9376667Y-14541071D01*
X9671905Y-14779167D02*
X9662381Y-14769643D01*
X9643333Y-14741071D01*
X9633810Y-14722024D01*
X9624286Y-14693452D01*
X9614762Y-14645833D01*
X9614762Y-14607738D01*
X9624286Y-14560119D01*
X9633810Y-14531548D01*
X9643333Y-14512500D01*
X9662381Y-14483928D01*
X9671905Y-14474405D01*
X9852857Y-14702976D02*
X9738571Y-14702976D01*
X9795714Y-14702976D02*
X9795714Y-14502976D01*
X9776667Y-14531548D01*
X9757619Y-14550595D01*
X9738571Y-14560119D01*
X9948095Y-14702976D02*
X9986190Y-14702976D01*
X10005238Y-14693452D01*
X10014762Y-14683928D01*
X10033810Y-14655357D01*
X10043333Y-14617262D01*
X10043333Y-14541071D01*
X10033810Y-14522024D01*
X10024286Y-14512500D01*
X10005238Y-14502976D01*
X9967143Y-14502976D01*
X9948095Y-14512500D01*
X9938571Y-14522024D01*
X9929048Y-14541071D01*
X9929048Y-14588690D01*
X9938571Y-14607738D01*
X9948095Y-14617262D01*
X9967143Y-14626786D01*
X10005238Y-14626786D01*
X10024286Y-14617262D01*
X10033810Y-14607738D01*
X10043333Y-14588690D01*
X10281429Y-14702976D02*
X10281429Y-14502976D01*
X10367143Y-14702976D02*
X10367143Y-14598214D01*
X10357619Y-14579167D01*
X10338571Y-14569643D01*
X10310000Y-14569643D01*
X10290952Y-14579167D01*
X10281429Y-14588690D01*
X10490952Y-14702976D02*
X10471905Y-14693452D01*
X10462381Y-14683928D01*
X10452857Y-14664881D01*
X10452857Y-14607738D01*
X10462381Y-14588690D01*
X10471905Y-14579167D01*
X10490952Y-14569643D01*
X10519524Y-14569643D01*
X10538571Y-14579167D01*
X10548095Y-14588690D01*
X10557619Y-14607738D01*
X10557619Y-14664881D01*
X10548095Y-14683928D01*
X10538571Y-14693452D01*
X10519524Y-14702976D01*
X10490952Y-14702976D01*
X10671905Y-14702976D02*
X10652857Y-14693452D01*
X10643333Y-14674405D01*
X10643333Y-14502976D01*
X10824286Y-14693452D02*
X10805238Y-14702976D01*
X10767143Y-14702976D01*
X10748095Y-14693452D01*
X10738571Y-14674405D01*
X10738571Y-14598214D01*
X10748095Y-14579167D01*
X10767143Y-14569643D01*
X10805238Y-14569643D01*
X10824286Y-14579167D01*
X10833810Y-14598214D01*
X10833810Y-14617262D01*
X10738571Y-14636309D01*
X10910000Y-14693452D02*
X10929048Y-14702976D01*
X10967143Y-14702976D01*
X10986190Y-14693452D01*
X10995714Y-14674405D01*
X10995714Y-14664881D01*
X10986190Y-14645833D01*
X10967143Y-14636309D01*
X10938571Y-14636309D01*
X10919524Y-14626786D01*
X10910000Y-14607738D01*
X10910000Y-14598214D01*
X10919524Y-14579167D01*
X10938571Y-14569643D01*
X10967143Y-14569643D01*
X10986190Y-14579167D01*
X11062381Y-14779167D02*
X11071905Y-14769643D01*
X11090952Y-14741071D01*
X11100476Y-14722024D01*
X11110000Y-14693452D01*
X11119524Y-14645833D01*
X11119524Y-14607738D01*
X11110000Y-14560119D01*
X11100476Y-14531548D01*
X11090952Y-14512500D01*
X11071905Y-14483928D01*
X11062381Y-14474405D01*
D13*
X6100000Y-14876500D02*
G75*
G03*
X6100000Y-14876500I-40000J0D01*
G01*
D11*
X6395714Y-14766976D02*
X6414762Y-14766976D01*
X6433809Y-14776500D01*
X6443333Y-14786024D01*
X6452857Y-14805071D01*
X6462381Y-14843167D01*
X6462381Y-14890786D01*
X6452857Y-14928881D01*
X6443333Y-14947928D01*
X6433809Y-14957452D01*
X6414762Y-14966976D01*
X6395714Y-14966976D01*
X6376667Y-14957452D01*
X6367143Y-14947928D01*
X6357619Y-14928881D01*
X6348095Y-14890786D01*
X6348095Y-14843167D01*
X6357619Y-14805071D01*
X6367143Y-14786024D01*
X6376667Y-14776500D01*
X6395714Y-14766976D01*
X6548095Y-14947928D02*
X6557619Y-14957452D01*
X6548095Y-14966976D01*
X6538571Y-14957452D01*
X6548095Y-14947928D01*
X6548095Y-14966976D01*
X6671905Y-14852690D02*
X6652857Y-14843167D01*
X6643333Y-14833643D01*
X6633809Y-14814595D01*
X6633809Y-14805071D01*
X6643333Y-14786024D01*
X6652857Y-14776500D01*
X6671905Y-14766976D01*
X6710000Y-14766976D01*
X6729048Y-14776500D01*
X6738571Y-14786024D01*
X6748095Y-14805071D01*
X6748095Y-14814595D01*
X6738571Y-14833643D01*
X6729048Y-14843167D01*
X6710000Y-14852690D01*
X6671905Y-14852690D01*
X6652857Y-14862214D01*
X6643333Y-14871738D01*
X6633809Y-14890786D01*
X6633809Y-14928881D01*
X6643333Y-14947928D01*
X6652857Y-14957452D01*
X6671905Y-14966976D01*
X6710000Y-14966976D01*
X6729048Y-14957452D01*
X6738571Y-14947928D01*
X6748095Y-14928881D01*
X6748095Y-14890786D01*
X6738571Y-14871738D01*
X6729048Y-14862214D01*
X6710000Y-14852690D01*
X6871905Y-14766976D02*
X6890952Y-14766976D01*
X6910000Y-14776500D01*
X6919524Y-14786024D01*
X6929048Y-14805071D01*
X6938571Y-14843167D01*
X6938571Y-14890786D01*
X6929048Y-14928881D01*
X6919524Y-14947928D01*
X6910000Y-14957452D01*
X6890952Y-14966976D01*
X6871905Y-14966976D01*
X6852857Y-14957452D01*
X6843333Y-14947928D01*
X6833809Y-14928881D01*
X6824286Y-14890786D01*
X6824286Y-14843167D01*
X6833809Y-14805071D01*
X6843333Y-14786024D01*
X6852857Y-14776500D01*
X6871905Y-14766976D01*
X7062381Y-14766976D02*
X7081428Y-14766976D01*
X7100476Y-14776500D01*
X7110000Y-14786024D01*
X7119524Y-14805071D01*
X7129048Y-14843167D01*
X7129048Y-14890786D01*
X7119524Y-14928881D01*
X7110000Y-14947928D01*
X7100476Y-14957452D01*
X7081428Y-14966976D01*
X7062381Y-14966976D01*
X7043333Y-14957452D01*
X7033809Y-14947928D01*
X7024286Y-14928881D01*
X7014762Y-14890786D01*
X7014762Y-14843167D01*
X7024286Y-14805071D01*
X7033809Y-14786024D01*
X7043333Y-14776500D01*
X7062381Y-14766976D01*
X7214762Y-14966976D02*
X7214762Y-14833643D01*
X7214762Y-14852690D02*
X7224286Y-14843167D01*
X7243333Y-14833643D01*
X7271905Y-14833643D01*
X7290952Y-14843167D01*
X7300476Y-14862214D01*
X7300476Y-14966976D01*
X7300476Y-14862214D02*
X7310000Y-14843167D01*
X7329048Y-14833643D01*
X7357619Y-14833643D01*
X7376667Y-14843167D01*
X7386190Y-14862214D01*
X7386190Y-14966976D01*
X7481428Y-14966976D02*
X7481428Y-14833643D01*
X7481428Y-14852690D02*
X7490952Y-14843167D01*
X7510000Y-14833643D01*
X7538571Y-14833643D01*
X7557619Y-14843167D01*
X7567143Y-14862214D01*
X7567143Y-14966976D01*
X7567143Y-14862214D02*
X7576667Y-14843167D01*
X7595714Y-14833643D01*
X7624286Y-14833643D01*
X7643333Y-14843167D01*
X7652857Y-14862214D01*
X7652857Y-14966976D01*
X8043333Y-14757452D02*
X7871905Y-15014595D01*
X8300476Y-14766976D02*
X8319524Y-14766976D01*
X8338571Y-14776500D01*
X8348095Y-14786024D01*
X8357619Y-14805071D01*
X8367143Y-14843167D01*
X8367143Y-14890786D01*
X8357619Y-14928881D01*
X8348095Y-14947928D01*
X8338571Y-14957452D01*
X8319524Y-14966976D01*
X8300476Y-14966976D01*
X8281428Y-14957452D01*
X8271905Y-14947928D01*
X8262381Y-14928881D01*
X8252857Y-14890786D01*
X8252857Y-14843167D01*
X8262381Y-14805071D01*
X8271905Y-14786024D01*
X8281428Y-14776500D01*
X8300476Y-14766976D01*
X8452857Y-14947928D02*
X8462381Y-14957452D01*
X8452857Y-14966976D01*
X8443333Y-14957452D01*
X8452857Y-14947928D01*
X8452857Y-14966976D01*
X8586190Y-14766976D02*
X8605238Y-14766976D01*
X8624286Y-14776500D01*
X8633810Y-14786024D01*
X8643333Y-14805071D01*
X8652857Y-14843167D01*
X8652857Y-14890786D01*
X8643333Y-14928881D01*
X8633810Y-14947928D01*
X8624286Y-14957452D01*
X8605238Y-14966976D01*
X8586190Y-14966976D01*
X8567143Y-14957452D01*
X8557619Y-14947928D01*
X8548095Y-14928881D01*
X8538571Y-14890786D01*
X8538571Y-14843167D01*
X8548095Y-14805071D01*
X8557619Y-14786024D01*
X8567143Y-14776500D01*
X8586190Y-14766976D01*
X8719524Y-14766976D02*
X8843333Y-14766976D01*
X8776667Y-14843167D01*
X8805238Y-14843167D01*
X8824286Y-14852690D01*
X8833810Y-14862214D01*
X8843333Y-14881262D01*
X8843333Y-14928881D01*
X8833810Y-14947928D01*
X8824286Y-14957452D01*
X8805238Y-14966976D01*
X8748095Y-14966976D01*
X8729048Y-14957452D01*
X8719524Y-14947928D01*
X9033810Y-14966976D02*
X8919524Y-14966976D01*
X8976667Y-14966976D02*
X8976667Y-14766976D01*
X8957619Y-14795548D01*
X8938571Y-14814595D01*
X8919524Y-14824119D01*
X9214762Y-14766976D02*
X9119524Y-14766976D01*
X9110000Y-14862214D01*
X9119524Y-14852690D01*
X9138571Y-14843167D01*
X9186190Y-14843167D01*
X9205238Y-14852690D01*
X9214762Y-14862214D01*
X9224286Y-14881262D01*
X9224286Y-14928881D01*
X9214762Y-14947928D01*
X9205238Y-14957452D01*
X9186190Y-14966976D01*
X9138571Y-14966976D01*
X9119524Y-14957452D01*
X9110000Y-14947928D01*
X9300476Y-14766976D02*
X9300476Y-14805071D01*
X9376667Y-14766976D02*
X9376667Y-14805071D01*
X9671905Y-15043167D02*
X9662381Y-15033643D01*
X9643333Y-15005071D01*
X9633810Y-14986024D01*
X9624286Y-14957452D01*
X9614762Y-14909833D01*
X9614762Y-14871738D01*
X9624286Y-14824119D01*
X9633810Y-14795548D01*
X9643333Y-14776500D01*
X9662381Y-14747928D01*
X9671905Y-14738405D01*
X9833810Y-14766976D02*
X9795714Y-14766976D01*
X9776667Y-14776500D01*
X9767143Y-14786024D01*
X9748095Y-14814595D01*
X9738571Y-14852690D01*
X9738571Y-14928881D01*
X9748095Y-14947928D01*
X9757619Y-14957452D01*
X9776667Y-14966976D01*
X9814762Y-14966976D01*
X9833810Y-14957452D01*
X9843333Y-14947928D01*
X9852857Y-14928881D01*
X9852857Y-14881262D01*
X9843333Y-14862214D01*
X9833810Y-14852690D01*
X9814762Y-14843167D01*
X9776667Y-14843167D01*
X9757619Y-14852690D01*
X9748095Y-14862214D01*
X9738571Y-14881262D01*
X10024286Y-14833643D02*
X10024286Y-14966976D01*
X9976667Y-14757452D02*
X9929048Y-14900309D01*
X10052857Y-14900309D01*
X10281429Y-14966976D02*
X10281429Y-14766976D01*
X10367143Y-14966976D02*
X10367143Y-14862214D01*
X10357619Y-14843167D01*
X10338571Y-14833643D01*
X10310000Y-14833643D01*
X10290952Y-14843167D01*
X10281429Y-14852690D01*
X10490952Y-14966976D02*
X10471905Y-14957452D01*
X10462381Y-14947928D01*
X10452857Y-14928881D01*
X10452857Y-14871738D01*
X10462381Y-14852690D01*
X10471905Y-14843167D01*
X10490952Y-14833643D01*
X10519524Y-14833643D01*
X10538571Y-14843167D01*
X10548095Y-14852690D01*
X10557619Y-14871738D01*
X10557619Y-14928881D01*
X10548095Y-14947928D01*
X10538571Y-14957452D01*
X10519524Y-14966976D01*
X10490952Y-14966976D01*
X10671905Y-14966976D02*
X10652857Y-14957452D01*
X10643333Y-14938405D01*
X10643333Y-14766976D01*
X10824286Y-14957452D02*
X10805238Y-14966976D01*
X10767143Y-14966976D01*
X10748095Y-14957452D01*
X10738571Y-14938405D01*
X10738571Y-14862214D01*
X10748095Y-14843167D01*
X10767143Y-14833643D01*
X10805238Y-14833643D01*
X10824286Y-14843167D01*
X10833810Y-14862214D01*
X10833810Y-14881262D01*
X10738571Y-14900309D01*
X10910000Y-14957452D02*
X10929048Y-14966976D01*
X10967143Y-14966976D01*
X10986190Y-14957452D01*
X10995714Y-14938405D01*
X10995714Y-14928881D01*
X10986190Y-14909833D01*
X10967143Y-14900309D01*
X10938571Y-14900309D01*
X10919524Y-14890786D01*
X10910000Y-14871738D01*
X10910000Y-14862214D01*
X10919524Y-14843167D01*
X10938571Y-14833643D01*
X10967143Y-14833643D01*
X10986190Y-14843167D01*
X11062381Y-15043167D02*
X11071905Y-15033643D01*
X11090952Y-15005071D01*
X11100476Y-14986024D01*
X11110000Y-14957452D01*
X11119524Y-14909833D01*
X11119524Y-14871738D01*
X11110000Y-14824119D01*
X11100476Y-14795548D01*
X11090952Y-14776500D01*
X11071905Y-14747928D01*
X11062381Y-14738405D01*
D14*
X6055000Y-15095500D02*
X6055000Y-15185500D01*
X6010000Y-15140500D02*
X6100000Y-15140500D01*
D11*
X6395714Y-15030976D02*
X6414762Y-15030976D01*
X6433809Y-15040500D01*
X6443333Y-15050024D01*
X6452857Y-15069071D01*
X6462381Y-15107167D01*
X6462381Y-15154786D01*
X6452857Y-15192881D01*
X6443333Y-15211928D01*
X6433809Y-15221452D01*
X6414762Y-15230976D01*
X6395714Y-15230976D01*
X6376667Y-15221452D01*
X6367143Y-15211928D01*
X6357619Y-15192881D01*
X6348095Y-15154786D01*
X6348095Y-15107167D01*
X6357619Y-15069071D01*
X6367143Y-15050024D01*
X6376667Y-15040500D01*
X6395714Y-15030976D01*
X6548095Y-15211928D02*
X6557619Y-15221452D01*
X6548095Y-15230976D01*
X6538571Y-15221452D01*
X6548095Y-15211928D01*
X6548095Y-15230976D01*
X6652857Y-15230976D02*
X6690952Y-15230976D01*
X6710000Y-15221452D01*
X6719524Y-15211928D01*
X6738571Y-15183357D01*
X6748095Y-15145262D01*
X6748095Y-15069071D01*
X6738571Y-15050024D01*
X6729048Y-15040500D01*
X6710000Y-15030976D01*
X6671905Y-15030976D01*
X6652857Y-15040500D01*
X6643333Y-15050024D01*
X6633809Y-15069071D01*
X6633809Y-15116690D01*
X6643333Y-15135738D01*
X6652857Y-15145262D01*
X6671905Y-15154786D01*
X6710000Y-15154786D01*
X6729048Y-15145262D01*
X6738571Y-15135738D01*
X6748095Y-15116690D01*
X6871905Y-15030976D02*
X6890952Y-15030976D01*
X6910000Y-15040500D01*
X6919524Y-15050024D01*
X6929048Y-15069071D01*
X6938571Y-15107167D01*
X6938571Y-15154786D01*
X6929048Y-15192881D01*
X6919524Y-15211928D01*
X6910000Y-15221452D01*
X6890952Y-15230976D01*
X6871905Y-15230976D01*
X6852857Y-15221452D01*
X6843333Y-15211928D01*
X6833809Y-15192881D01*
X6824286Y-15154786D01*
X6824286Y-15107167D01*
X6833809Y-15069071D01*
X6843333Y-15050024D01*
X6852857Y-15040500D01*
X6871905Y-15030976D01*
X7062381Y-15030976D02*
X7081428Y-15030976D01*
X7100476Y-15040500D01*
X7110000Y-15050024D01*
X7119524Y-15069071D01*
X7129048Y-15107167D01*
X7129048Y-15154786D01*
X7119524Y-15192881D01*
X7110000Y-15211928D01*
X7100476Y-15221452D01*
X7081428Y-15230976D01*
X7062381Y-15230976D01*
X7043333Y-15221452D01*
X7033809Y-15211928D01*
X7024286Y-15192881D01*
X7014762Y-15154786D01*
X7014762Y-15107167D01*
X7024286Y-15069071D01*
X7033809Y-15050024D01*
X7043333Y-15040500D01*
X7062381Y-15030976D01*
X7214762Y-15230976D02*
X7214762Y-15097643D01*
X7214762Y-15116690D02*
X7224286Y-15107167D01*
X7243333Y-15097643D01*
X7271905Y-15097643D01*
X7290952Y-15107167D01*
X7300476Y-15126214D01*
X7300476Y-15230976D01*
X7300476Y-15126214D02*
X7310000Y-15107167D01*
X7329048Y-15097643D01*
X7357619Y-15097643D01*
X7376667Y-15107167D01*
X7386190Y-15126214D01*
X7386190Y-15230976D01*
X7481428Y-15230976D02*
X7481428Y-15097643D01*
X7481428Y-15116690D02*
X7490952Y-15107167D01*
X7510000Y-15097643D01*
X7538571Y-15097643D01*
X7557619Y-15107167D01*
X7567143Y-15126214D01*
X7567143Y-15230976D01*
X7567143Y-15126214D02*
X7576667Y-15107167D01*
X7595714Y-15097643D01*
X7624286Y-15097643D01*
X7643333Y-15107167D01*
X7652857Y-15126214D01*
X7652857Y-15230976D01*
X8043333Y-15021452D02*
X7871905Y-15278595D01*
X8300476Y-15030976D02*
X8319524Y-15030976D01*
X8338571Y-15040500D01*
X8348095Y-15050024D01*
X8357619Y-15069071D01*
X8367143Y-15107167D01*
X8367143Y-15154786D01*
X8357619Y-15192881D01*
X8348095Y-15211928D01*
X8338571Y-15221452D01*
X8319524Y-15230976D01*
X8300476Y-15230976D01*
X8281428Y-15221452D01*
X8271905Y-15211928D01*
X8262381Y-15192881D01*
X8252857Y-15154786D01*
X8252857Y-15107167D01*
X8262381Y-15069071D01*
X8271905Y-15050024D01*
X8281428Y-15040500D01*
X8300476Y-15030976D01*
X8452857Y-15211928D02*
X8462381Y-15221452D01*
X8452857Y-15230976D01*
X8443333Y-15221452D01*
X8452857Y-15211928D01*
X8452857Y-15230976D01*
X8586190Y-15030976D02*
X8605238Y-15030976D01*
X8624286Y-15040500D01*
X8633810Y-15050024D01*
X8643333Y-15069071D01*
X8652857Y-15107167D01*
X8652857Y-15154786D01*
X8643333Y-15192881D01*
X8633810Y-15211928D01*
X8624286Y-15221452D01*
X8605238Y-15230976D01*
X8586190Y-15230976D01*
X8567143Y-15221452D01*
X8557619Y-15211928D01*
X8548095Y-15192881D01*
X8538571Y-15154786D01*
X8538571Y-15107167D01*
X8548095Y-15069071D01*
X8557619Y-15050024D01*
X8567143Y-15040500D01*
X8586190Y-15030976D01*
X8719524Y-15030976D02*
X8843333Y-15030976D01*
X8776667Y-15107167D01*
X8805238Y-15107167D01*
X8824286Y-15116690D01*
X8833810Y-15126214D01*
X8843333Y-15145262D01*
X8843333Y-15192881D01*
X8833810Y-15211928D01*
X8824286Y-15221452D01*
X8805238Y-15230976D01*
X8748095Y-15230976D01*
X8729048Y-15221452D01*
X8719524Y-15211928D01*
X9024286Y-15030976D02*
X8929048Y-15030976D01*
X8919524Y-15126214D01*
X8929048Y-15116690D01*
X8948095Y-15107167D01*
X8995714Y-15107167D01*
X9014762Y-15116690D01*
X9024286Y-15126214D01*
X9033810Y-15145262D01*
X9033810Y-15192881D01*
X9024286Y-15211928D01*
X9014762Y-15221452D01*
X8995714Y-15230976D01*
X8948095Y-15230976D01*
X8929048Y-15221452D01*
X8919524Y-15211928D01*
X9205238Y-15097643D02*
X9205238Y-15230976D01*
X9157619Y-15021452D02*
X9110000Y-15164309D01*
X9233810Y-15164309D01*
X9300476Y-15030976D02*
X9300476Y-15069071D01*
X9376667Y-15030976D02*
X9376667Y-15069071D01*
X9671905Y-15307167D02*
X9662381Y-15297643D01*
X9643333Y-15269071D01*
X9633810Y-15250024D01*
X9624286Y-15221452D01*
X9614762Y-15173833D01*
X9614762Y-15135738D01*
X9624286Y-15088119D01*
X9633810Y-15059548D01*
X9643333Y-15040500D01*
X9662381Y-15011928D01*
X9671905Y-15002405D01*
X9833810Y-15097643D02*
X9833810Y-15230976D01*
X9786190Y-15021452D02*
X9738571Y-15164309D01*
X9862381Y-15164309D01*
X9976667Y-15030976D02*
X9995714Y-15030976D01*
X10014762Y-15040500D01*
X10024286Y-15050024D01*
X10033810Y-15069071D01*
X10043333Y-15107167D01*
X10043333Y-15154786D01*
X10033810Y-15192881D01*
X10024286Y-15211928D01*
X10014762Y-15221452D01*
X9995714Y-15230976D01*
X9976667Y-15230976D01*
X9957619Y-15221452D01*
X9948095Y-15211928D01*
X9938571Y-15192881D01*
X9929048Y-15154786D01*
X9929048Y-15107167D01*
X9938571Y-15069071D01*
X9948095Y-15050024D01*
X9957619Y-15040500D01*
X9976667Y-15030976D01*
X10281429Y-15230976D02*
X10281429Y-15030976D01*
X10367143Y-15230976D02*
X10367143Y-15126214D01*
X10357619Y-15107167D01*
X10338571Y-15097643D01*
X10310000Y-15097643D01*
X10290952Y-15107167D01*
X10281429Y-15116690D01*
X10490952Y-15230976D02*
X10471905Y-15221452D01*
X10462381Y-15211928D01*
X10452857Y-15192881D01*
X10452857Y-15135738D01*
X10462381Y-15116690D01*
X10471905Y-15107167D01*
X10490952Y-15097643D01*
X10519524Y-15097643D01*
X10538571Y-15107167D01*
X10548095Y-15116690D01*
X10557619Y-15135738D01*
X10557619Y-15192881D01*
X10548095Y-15211928D01*
X10538571Y-15221452D01*
X10519524Y-15230976D01*
X10490952Y-15230976D01*
X10671905Y-15230976D02*
X10652857Y-15221452D01*
X10643333Y-15202405D01*
X10643333Y-15030976D01*
X10824286Y-15221452D02*
X10805238Y-15230976D01*
X10767143Y-15230976D01*
X10748095Y-15221452D01*
X10738571Y-15202405D01*
X10738571Y-15126214D01*
X10748095Y-15107167D01*
X10767143Y-15097643D01*
X10805238Y-15097643D01*
X10824286Y-15107167D01*
X10833810Y-15126214D01*
X10833810Y-15145262D01*
X10738571Y-15164309D01*
X10910000Y-15221452D02*
X10929048Y-15230976D01*
X10967143Y-15230976D01*
X10986190Y-15221452D01*
X10995714Y-15202405D01*
X10995714Y-15192881D01*
X10986190Y-15173833D01*
X10967143Y-15164309D01*
X10938571Y-15164309D01*
X10919524Y-15154786D01*
X10910000Y-15135738D01*
X10910000Y-15126214D01*
X10919524Y-15107167D01*
X10938571Y-15097643D01*
X10967143Y-15097643D01*
X10986190Y-15107167D01*
X11062381Y-15307167D02*
X11071905Y-15297643D01*
X11090952Y-15269071D01*
X11100476Y-15250024D01*
X11110000Y-15221452D01*
X11119524Y-15173833D01*
X11119524Y-15135738D01*
X11110000Y-15088119D01*
X11100476Y-15059548D01*
X11090952Y-15040500D01*
X11071905Y-15011928D01*
X11062381Y-15002405D01*
D15*
X6085356Y-15439856D02*
X6085356Y-15369144D01*
X6014644Y-15369144D01*
X6014644Y-15439856D01*
X6085356Y-15439856D01*
D11*
X6462381Y-15494976D02*
X6348095Y-15494976D01*
X6405238Y-15494976D02*
X6405238Y-15294976D01*
X6386190Y-15323548D01*
X6367143Y-15342595D01*
X6348095Y-15352119D01*
X6548095Y-15475928D02*
X6557619Y-15485452D01*
X6548095Y-15494976D01*
X6538571Y-15485452D01*
X6548095Y-15475928D01*
X6548095Y-15494976D01*
X6681428Y-15294976D02*
X6700476Y-15294976D01*
X6719524Y-15304500D01*
X6729048Y-15314024D01*
X6738571Y-15333071D01*
X6748095Y-15371167D01*
X6748095Y-15418786D01*
X6738571Y-15456881D01*
X6729048Y-15475928D01*
X6719524Y-15485452D01*
X6700476Y-15494976D01*
X6681428Y-15494976D01*
X6662381Y-15485452D01*
X6652857Y-15475928D01*
X6643333Y-15456881D01*
X6633809Y-15418786D01*
X6633809Y-15371167D01*
X6643333Y-15333071D01*
X6652857Y-15314024D01*
X6662381Y-15304500D01*
X6681428Y-15294976D01*
X6871905Y-15294976D02*
X6890952Y-15294976D01*
X6910000Y-15304500D01*
X6919524Y-15314024D01*
X6929048Y-15333071D01*
X6938571Y-15371167D01*
X6938571Y-15418786D01*
X6929048Y-15456881D01*
X6919524Y-15475928D01*
X6910000Y-15485452D01*
X6890952Y-15494976D01*
X6871905Y-15494976D01*
X6852857Y-15485452D01*
X6843333Y-15475928D01*
X6833809Y-15456881D01*
X6824286Y-15418786D01*
X6824286Y-15371167D01*
X6833809Y-15333071D01*
X6843333Y-15314024D01*
X6852857Y-15304500D01*
X6871905Y-15294976D01*
X7062381Y-15294976D02*
X7081428Y-15294976D01*
X7100476Y-15304500D01*
X7110000Y-15314024D01*
X7119524Y-15333071D01*
X7129048Y-15371167D01*
X7129048Y-15418786D01*
X7119524Y-15456881D01*
X7110000Y-15475928D01*
X7100476Y-15485452D01*
X7081428Y-15494976D01*
X7062381Y-15494976D01*
X7043333Y-15485452D01*
X7033809Y-15475928D01*
X7024286Y-15456881D01*
X7014762Y-15418786D01*
X7014762Y-15371167D01*
X7024286Y-15333071D01*
X7033809Y-15314024D01*
X7043333Y-15304500D01*
X7062381Y-15294976D01*
X7214762Y-15494976D02*
X7214762Y-15361643D01*
X7214762Y-15380690D02*
X7224286Y-15371167D01*
X7243333Y-15361643D01*
X7271905Y-15361643D01*
X7290952Y-15371167D01*
X7300476Y-15390214D01*
X7300476Y-15494976D01*
X7300476Y-15390214D02*
X7310000Y-15371167D01*
X7329048Y-15361643D01*
X7357619Y-15361643D01*
X7376667Y-15371167D01*
X7386190Y-15390214D01*
X7386190Y-15494976D01*
X7481428Y-15494976D02*
X7481428Y-15361643D01*
X7481428Y-15380690D02*
X7490952Y-15371167D01*
X7510000Y-15361643D01*
X7538571Y-15361643D01*
X7557619Y-15371167D01*
X7567143Y-15390214D01*
X7567143Y-15494976D01*
X7567143Y-15390214D02*
X7576667Y-15371167D01*
X7595714Y-15361643D01*
X7624286Y-15361643D01*
X7643333Y-15371167D01*
X7652857Y-15390214D01*
X7652857Y-15494976D01*
X8043333Y-15285452D02*
X7871905Y-15542595D01*
X8300476Y-15294976D02*
X8319524Y-15294976D01*
X8338571Y-15304500D01*
X8348095Y-15314024D01*
X8357619Y-15333071D01*
X8367143Y-15371167D01*
X8367143Y-15418786D01*
X8357619Y-15456881D01*
X8348095Y-15475928D01*
X8338571Y-15485452D01*
X8319524Y-15494976D01*
X8300476Y-15494976D01*
X8281428Y-15485452D01*
X8271905Y-15475928D01*
X8262381Y-15456881D01*
X8252857Y-15418786D01*
X8252857Y-15371167D01*
X8262381Y-15333071D01*
X8271905Y-15314024D01*
X8281428Y-15304500D01*
X8300476Y-15294976D01*
X8452857Y-15475928D02*
X8462381Y-15485452D01*
X8452857Y-15494976D01*
X8443333Y-15485452D01*
X8452857Y-15475928D01*
X8452857Y-15494976D01*
X8586190Y-15294976D02*
X8605238Y-15294976D01*
X8624286Y-15304500D01*
X8633810Y-15314024D01*
X8643333Y-15333071D01*
X8652857Y-15371167D01*
X8652857Y-15418786D01*
X8643333Y-15456881D01*
X8633810Y-15475928D01*
X8624286Y-15485452D01*
X8605238Y-15494976D01*
X8586190Y-15494976D01*
X8567143Y-15485452D01*
X8557619Y-15475928D01*
X8548095Y-15456881D01*
X8538571Y-15418786D01*
X8538571Y-15371167D01*
X8548095Y-15333071D01*
X8557619Y-15314024D01*
X8567143Y-15304500D01*
X8586190Y-15294976D01*
X8719524Y-15294976D02*
X8843333Y-15294976D01*
X8776667Y-15371167D01*
X8805238Y-15371167D01*
X8824286Y-15380690D01*
X8833810Y-15390214D01*
X8843333Y-15409262D01*
X8843333Y-15456881D01*
X8833810Y-15475928D01*
X8824286Y-15485452D01*
X8805238Y-15494976D01*
X8748095Y-15494976D01*
X8729048Y-15485452D01*
X8719524Y-15475928D01*
X8938571Y-15494976D02*
X8976667Y-15494976D01*
X8995714Y-15485452D01*
X9005238Y-15475928D01*
X9024286Y-15447357D01*
X9033810Y-15409262D01*
X9033810Y-15333071D01*
X9024286Y-15314024D01*
X9014762Y-15304500D01*
X8995714Y-15294976D01*
X8957619Y-15294976D01*
X8938571Y-15304500D01*
X8929048Y-15314024D01*
X8919524Y-15333071D01*
X8919524Y-15380690D01*
X8929048Y-15399738D01*
X8938571Y-15409262D01*
X8957619Y-15418786D01*
X8995714Y-15418786D01*
X9014762Y-15409262D01*
X9024286Y-15399738D01*
X9033810Y-15380690D01*
X9205238Y-15361643D02*
X9205238Y-15494976D01*
X9157619Y-15285452D02*
X9110000Y-15428309D01*
X9233810Y-15428309D01*
X9300476Y-15294976D02*
X9300476Y-15333071D01*
X9376667Y-15294976D02*
X9376667Y-15333071D01*
X9671905Y-15571167D02*
X9662381Y-15561643D01*
X9643333Y-15533071D01*
X9633810Y-15514024D01*
X9624286Y-15485452D01*
X9614762Y-15437833D01*
X9614762Y-15399738D01*
X9624286Y-15352119D01*
X9633810Y-15323548D01*
X9643333Y-15304500D01*
X9662381Y-15275928D01*
X9671905Y-15266405D01*
X9757619Y-15494976D02*
X9795714Y-15494976D01*
X9814762Y-15485452D01*
X9824286Y-15475928D01*
X9843333Y-15447357D01*
X9852857Y-15409262D01*
X9852857Y-15333071D01*
X9843333Y-15314024D01*
X9833810Y-15304500D01*
X9814762Y-15294976D01*
X9776667Y-15294976D01*
X9757619Y-15304500D01*
X9748095Y-15314024D01*
X9738571Y-15333071D01*
X9738571Y-15380690D01*
X9748095Y-15399738D01*
X9757619Y-15409262D01*
X9776667Y-15418786D01*
X9814762Y-15418786D01*
X9833810Y-15409262D01*
X9843333Y-15399738D01*
X9852857Y-15380690D01*
X9976667Y-15294976D02*
X9995714Y-15294976D01*
X10014762Y-15304500D01*
X10024286Y-15314024D01*
X10033810Y-15333071D01*
X10043333Y-15371167D01*
X10043333Y-15418786D01*
X10033810Y-15456881D01*
X10024286Y-15475928D01*
X10014762Y-15485452D01*
X9995714Y-15494976D01*
X9976667Y-15494976D01*
X9957619Y-15485452D01*
X9948095Y-15475928D01*
X9938571Y-15456881D01*
X9929048Y-15418786D01*
X9929048Y-15371167D01*
X9938571Y-15333071D01*
X9948095Y-15314024D01*
X9957619Y-15304500D01*
X9976667Y-15294976D01*
X10281429Y-15494976D02*
X10281429Y-15294976D01*
X10367143Y-15494976D02*
X10367143Y-15390214D01*
X10357619Y-15371167D01*
X10338571Y-15361643D01*
X10310000Y-15361643D01*
X10290952Y-15371167D01*
X10281429Y-15380690D01*
X10490952Y-15494976D02*
X10471905Y-15485452D01*
X10462381Y-15475928D01*
X10452857Y-15456881D01*
X10452857Y-15399738D01*
X10462381Y-15380690D01*
X10471905Y-15371167D01*
X10490952Y-15361643D01*
X10519524Y-15361643D01*
X10538571Y-15371167D01*
X10548095Y-15380690D01*
X10557619Y-15399738D01*
X10557619Y-15456881D01*
X10548095Y-15475928D01*
X10538571Y-15485452D01*
X10519524Y-15494976D01*
X10490952Y-15494976D01*
X10671905Y-15494976D02*
X10652857Y-15485452D01*
X10643333Y-15466405D01*
X10643333Y-15294976D01*
X10824286Y-15485452D02*
X10805238Y-15494976D01*
X10767143Y-15494976D01*
X10748095Y-15485452D01*
X10738571Y-15466405D01*
X10738571Y-15390214D01*
X10748095Y-15371167D01*
X10767143Y-15361643D01*
X10805238Y-15361643D01*
X10824286Y-15371167D01*
X10833810Y-15390214D01*
X10833810Y-15409262D01*
X10738571Y-15428309D01*
X10910000Y-15485452D02*
X10929048Y-15494976D01*
X10967143Y-15494976D01*
X10986190Y-15485452D01*
X10995714Y-15466405D01*
X10995714Y-15456881D01*
X10986190Y-15437833D01*
X10967143Y-15428309D01*
X10938571Y-15428309D01*
X10919524Y-15418786D01*
X10910000Y-15399738D01*
X10910000Y-15390214D01*
X10919524Y-15371167D01*
X10938571Y-15361643D01*
X10967143Y-15361643D01*
X10986190Y-15371167D01*
X11062381Y-15571167D02*
X11071905Y-15561643D01*
X11090952Y-15533071D01*
X11100476Y-15514024D01*
X11110000Y-15485452D01*
X11119524Y-15437833D01*
X11119524Y-15399738D01*
X11110000Y-15352119D01*
X11100476Y-15323548D01*
X11090952Y-15304500D01*
X11071905Y-15275928D01*
X11062381Y-15266405D01*
D16*
X6045000Y-15723500D02*
X6100000Y-15668500D01*
X6045000Y-15613500D01*
X5990000Y-15668500D01*
X6045000Y-15723500D01*
D11*
X6462381Y-15758976D02*
X6348095Y-15758976D01*
X6405238Y-15758976D02*
X6405238Y-15558976D01*
X6386190Y-15587548D01*
X6367143Y-15606595D01*
X6348095Y-15616119D01*
X6548095Y-15739928D02*
X6557619Y-15749452D01*
X6548095Y-15758976D01*
X6538571Y-15749452D01*
X6548095Y-15739928D01*
X6548095Y-15758976D01*
X6748095Y-15758976D02*
X6633809Y-15758976D01*
X6690952Y-15758976D02*
X6690952Y-15558976D01*
X6671905Y-15587548D01*
X6652857Y-15606595D01*
X6633809Y-15616119D01*
X6871905Y-15558976D02*
X6890952Y-15558976D01*
X6910000Y-15568500D01*
X6919524Y-15578024D01*
X6929048Y-15597071D01*
X6938571Y-15635167D01*
X6938571Y-15682786D01*
X6929048Y-15720881D01*
X6919524Y-15739928D01*
X6910000Y-15749452D01*
X6890952Y-15758976D01*
X6871905Y-15758976D01*
X6852857Y-15749452D01*
X6843333Y-15739928D01*
X6833809Y-15720881D01*
X6824286Y-15682786D01*
X6824286Y-15635167D01*
X6833809Y-15597071D01*
X6843333Y-15578024D01*
X6852857Y-15568500D01*
X6871905Y-15558976D01*
X7062381Y-15558976D02*
X7081428Y-15558976D01*
X7100476Y-15568500D01*
X7110000Y-15578024D01*
X7119524Y-15597071D01*
X7129048Y-15635167D01*
X7129048Y-15682786D01*
X7119524Y-15720881D01*
X7110000Y-15739928D01*
X7100476Y-15749452D01*
X7081428Y-15758976D01*
X7062381Y-15758976D01*
X7043333Y-15749452D01*
X7033809Y-15739928D01*
X7024286Y-15720881D01*
X7014762Y-15682786D01*
X7014762Y-15635167D01*
X7024286Y-15597071D01*
X7033809Y-15578024D01*
X7043333Y-15568500D01*
X7062381Y-15558976D01*
X7214762Y-15758976D02*
X7214762Y-15625643D01*
X7214762Y-15644690D02*
X7224286Y-15635167D01*
X7243333Y-15625643D01*
X7271905Y-15625643D01*
X7290952Y-15635167D01*
X7300476Y-15654214D01*
X7300476Y-15758976D01*
X7300476Y-15654214D02*
X7310000Y-15635167D01*
X7329048Y-15625643D01*
X7357619Y-15625643D01*
X7376667Y-15635167D01*
X7386190Y-15654214D01*
X7386190Y-15758976D01*
X7481428Y-15758976D02*
X7481428Y-15625643D01*
X7481428Y-15644690D02*
X7490952Y-15635167D01*
X7510000Y-15625643D01*
X7538571Y-15625643D01*
X7557619Y-15635167D01*
X7567143Y-15654214D01*
X7567143Y-15758976D01*
X7567143Y-15654214D02*
X7576667Y-15635167D01*
X7595714Y-15625643D01*
X7624286Y-15625643D01*
X7643333Y-15635167D01*
X7652857Y-15654214D01*
X7652857Y-15758976D01*
X8043333Y-15549452D02*
X7871905Y-15806595D01*
X8300476Y-15558976D02*
X8319524Y-15558976D01*
X8338571Y-15568500D01*
X8348095Y-15578024D01*
X8357619Y-15597071D01*
X8367143Y-15635167D01*
X8367143Y-15682786D01*
X8357619Y-15720881D01*
X8348095Y-15739928D01*
X8338571Y-15749452D01*
X8319524Y-15758976D01*
X8300476Y-15758976D01*
X8281428Y-15749452D01*
X8271905Y-15739928D01*
X8262381Y-15720881D01*
X8252857Y-15682786D01*
X8252857Y-15635167D01*
X8262381Y-15597071D01*
X8271905Y-15578024D01*
X8281428Y-15568500D01*
X8300476Y-15558976D01*
X8452857Y-15739928D02*
X8462381Y-15749452D01*
X8452857Y-15758976D01*
X8443333Y-15749452D01*
X8452857Y-15739928D01*
X8452857Y-15758976D01*
X8586190Y-15558976D02*
X8605238Y-15558976D01*
X8624286Y-15568500D01*
X8633810Y-15578024D01*
X8643333Y-15597071D01*
X8652857Y-15635167D01*
X8652857Y-15682786D01*
X8643333Y-15720881D01*
X8633810Y-15739928D01*
X8624286Y-15749452D01*
X8605238Y-15758976D01*
X8586190Y-15758976D01*
X8567143Y-15749452D01*
X8557619Y-15739928D01*
X8548095Y-15720881D01*
X8538571Y-15682786D01*
X8538571Y-15635167D01*
X8548095Y-15597071D01*
X8557619Y-15578024D01*
X8567143Y-15568500D01*
X8586190Y-15558976D01*
X8824286Y-15625643D02*
X8824286Y-15758976D01*
X8776667Y-15549452D02*
X8729048Y-15692309D01*
X8852857Y-15692309D01*
X8910000Y-15558976D02*
X9033810Y-15558976D01*
X8967143Y-15635167D01*
X8995714Y-15635167D01*
X9014762Y-15644690D01*
X9024286Y-15654214D01*
X9033810Y-15673262D01*
X9033810Y-15720881D01*
X9024286Y-15739928D01*
X9014762Y-15749452D01*
X8995714Y-15758976D01*
X8938571Y-15758976D01*
X8919524Y-15749452D01*
X8910000Y-15739928D01*
X9100476Y-15558976D02*
X9224286Y-15558976D01*
X9157619Y-15635167D01*
X9186190Y-15635167D01*
X9205238Y-15644690D01*
X9214762Y-15654214D01*
X9224286Y-15673262D01*
X9224286Y-15720881D01*
X9214762Y-15739928D01*
X9205238Y-15749452D01*
X9186190Y-15758976D01*
X9129048Y-15758976D01*
X9110000Y-15749452D01*
X9100476Y-15739928D01*
X9300476Y-15558976D02*
X9300476Y-15597071D01*
X9376667Y-15558976D02*
X9376667Y-15597071D01*
X9671905Y-15835167D02*
X9662381Y-15825643D01*
X9643333Y-15797071D01*
X9633810Y-15778024D01*
X9624286Y-15749452D01*
X9614762Y-15701833D01*
X9614762Y-15663738D01*
X9624286Y-15616119D01*
X9633810Y-15587548D01*
X9643333Y-15568500D01*
X9662381Y-15539928D01*
X9671905Y-15530405D01*
X9833810Y-15558976D02*
X9795714Y-15558976D01*
X9776667Y-15568500D01*
X9767143Y-15578024D01*
X9748095Y-15606595D01*
X9738571Y-15644690D01*
X9738571Y-15720881D01*
X9748095Y-15739928D01*
X9757619Y-15749452D01*
X9776667Y-15758976D01*
X9814762Y-15758976D01*
X9833810Y-15749452D01*
X9843333Y-15739928D01*
X9852857Y-15720881D01*
X9852857Y-15673262D01*
X9843333Y-15654214D01*
X9833810Y-15644690D01*
X9814762Y-15635167D01*
X9776667Y-15635167D01*
X9757619Y-15644690D01*
X9748095Y-15654214D01*
X9738571Y-15673262D01*
X10024286Y-15625643D02*
X10024286Y-15758976D01*
X9976667Y-15549452D02*
X9929048Y-15692309D01*
X10052857Y-15692309D01*
X10281429Y-15758976D02*
X10281429Y-15558976D01*
X10367143Y-15758976D02*
X10367143Y-15654214D01*
X10357619Y-15635167D01*
X10338571Y-15625643D01*
X10310000Y-15625643D01*
X10290952Y-15635167D01*
X10281429Y-15644690D01*
X10490952Y-15758976D02*
X10471905Y-15749452D01*
X10462381Y-15739928D01*
X10452857Y-15720881D01*
X10452857Y-15663738D01*
X10462381Y-15644690D01*
X10471905Y-15635167D01*
X10490952Y-15625643D01*
X10519524Y-15625643D01*
X10538571Y-15635167D01*
X10548095Y-15644690D01*
X10557619Y-15663738D01*
X10557619Y-15720881D01*
X10548095Y-15739928D01*
X10538571Y-15749452D01*
X10519524Y-15758976D01*
X10490952Y-15758976D01*
X10671905Y-15758976D02*
X10652857Y-15749452D01*
X10643333Y-15730405D01*
X10643333Y-15558976D01*
X10824286Y-15749452D02*
X10805238Y-15758976D01*
X10767143Y-15758976D01*
X10748095Y-15749452D01*
X10738571Y-15730405D01*
X10738571Y-15654214D01*
X10748095Y-15635167D01*
X10767143Y-15625643D01*
X10805238Y-15625643D01*
X10824286Y-15635167D01*
X10833810Y-15654214D01*
X10833810Y-15673262D01*
X10738571Y-15692309D01*
X10910000Y-15749452D02*
X10929048Y-15758976D01*
X10967143Y-15758976D01*
X10986190Y-15749452D01*
X10995714Y-15730405D01*
X10995714Y-15720881D01*
X10986190Y-15701833D01*
X10967143Y-15692309D01*
X10938571Y-15692309D01*
X10919524Y-15682786D01*
X10910000Y-15663738D01*
X10910000Y-15654214D01*
X10919524Y-15635167D01*
X10938571Y-15625643D01*
X10967143Y-15625643D01*
X10986190Y-15635167D01*
X11062381Y-15835167D02*
X11071905Y-15825643D01*
X11090952Y-15797071D01*
X11100476Y-15778024D01*
X11110000Y-15749452D01*
X11119524Y-15701833D01*
X11119524Y-15663738D01*
X11110000Y-15616119D01*
X11100476Y-15587548D01*
X11090952Y-15568500D01*
X11071905Y-15539928D01*
X11062381Y-15530405D01*
X5900000Y-15832500D02*
X6100000Y-16032500D01*
X6100000Y-15832500D02*
X5900000Y-16032500D01*
X6100000Y-15932500D02*
G75*
G03*
X6100000Y-15932500I-100000J0D01*
G01*
X6338571Y-15822976D02*
X6462381Y-15822976D01*
X6395714Y-15899167D01*
X6424286Y-15899167D01*
X6443333Y-15908690D01*
X6452857Y-15918214D01*
X6462381Y-15937262D01*
X6462381Y-15984881D01*
X6452857Y-16003928D01*
X6443333Y-16013452D01*
X6424286Y-16022976D01*
X6367143Y-16022976D01*
X6348095Y-16013452D01*
X6338571Y-16003928D01*
X6548095Y-16003928D02*
X6557619Y-16013452D01*
X6548095Y-16022976D01*
X6538571Y-16013452D01*
X6548095Y-16003928D01*
X6548095Y-16022976D01*
X6633809Y-15842024D02*
X6643333Y-15832500D01*
X6662381Y-15822976D01*
X6710000Y-15822976D01*
X6729048Y-15832500D01*
X6738571Y-15842024D01*
X6748095Y-15861071D01*
X6748095Y-15880119D01*
X6738571Y-15908690D01*
X6624286Y-16022976D01*
X6748095Y-16022976D01*
X6871905Y-15822976D02*
X6890952Y-15822976D01*
X6910000Y-15832500D01*
X6919524Y-15842024D01*
X6929048Y-15861071D01*
X6938571Y-15899167D01*
X6938571Y-15946786D01*
X6929048Y-15984881D01*
X6919524Y-16003928D01*
X6910000Y-16013452D01*
X6890952Y-16022976D01*
X6871905Y-16022976D01*
X6852857Y-16013452D01*
X6843333Y-16003928D01*
X6833809Y-15984881D01*
X6824286Y-15946786D01*
X6824286Y-15899167D01*
X6833809Y-15861071D01*
X6843333Y-15842024D01*
X6852857Y-15832500D01*
X6871905Y-15822976D01*
X7062381Y-15822976D02*
X7081428Y-15822976D01*
X7100476Y-15832500D01*
X7110000Y-15842024D01*
X7119524Y-15861071D01*
X7129048Y-15899167D01*
X7129048Y-15946786D01*
X7119524Y-15984881D01*
X7110000Y-16003928D01*
X7100476Y-16013452D01*
X7081428Y-16022976D01*
X7062381Y-16022976D01*
X7043333Y-16013452D01*
X7033809Y-16003928D01*
X7024286Y-15984881D01*
X7014762Y-15946786D01*
X7014762Y-15899167D01*
X7024286Y-15861071D01*
X7033809Y-15842024D01*
X7043333Y-15832500D01*
X7062381Y-15822976D01*
X7214762Y-16022976D02*
X7214762Y-15889643D01*
X7214762Y-15908690D02*
X7224286Y-15899167D01*
X7243333Y-15889643D01*
X7271905Y-15889643D01*
X7290952Y-15899167D01*
X7300476Y-15918214D01*
X7300476Y-16022976D01*
X7300476Y-15918214D02*
X7310000Y-15899167D01*
X7329048Y-15889643D01*
X7357619Y-15889643D01*
X7376667Y-15899167D01*
X7386190Y-15918214D01*
X7386190Y-16022976D01*
X7481428Y-16022976D02*
X7481428Y-15889643D01*
X7481428Y-15908690D02*
X7490952Y-15899167D01*
X7510000Y-15889643D01*
X7538571Y-15889643D01*
X7557619Y-15899167D01*
X7567143Y-15918214D01*
X7567143Y-16022976D01*
X7567143Y-15918214D02*
X7576667Y-15899167D01*
X7595714Y-15889643D01*
X7624286Y-15889643D01*
X7643333Y-15899167D01*
X7652857Y-15918214D01*
X7652857Y-16022976D01*
X8043333Y-15813452D02*
X7871905Y-16070595D01*
X8300476Y-15822976D02*
X8319524Y-15822976D01*
X8338571Y-15832500D01*
X8348095Y-15842024D01*
X8357619Y-15861071D01*
X8367143Y-15899167D01*
X8367143Y-15946786D01*
X8357619Y-15984881D01*
X8348095Y-16003928D01*
X8338571Y-16013452D01*
X8319524Y-16022976D01*
X8300476Y-16022976D01*
X8281428Y-16013452D01*
X8271905Y-16003928D01*
X8262381Y-15984881D01*
X8252857Y-15946786D01*
X8252857Y-15899167D01*
X8262381Y-15861071D01*
X8271905Y-15842024D01*
X8281428Y-15832500D01*
X8300476Y-15822976D01*
X8452857Y-16003928D02*
X8462381Y-16013452D01*
X8452857Y-16022976D01*
X8443333Y-16013452D01*
X8452857Y-16003928D01*
X8452857Y-16022976D01*
X8652857Y-16022976D02*
X8538571Y-16022976D01*
X8595714Y-16022976D02*
X8595714Y-15822976D01*
X8576667Y-15851548D01*
X8557619Y-15870595D01*
X8538571Y-15880119D01*
X8729048Y-15842024D02*
X8738571Y-15832500D01*
X8757619Y-15822976D01*
X8805238Y-15822976D01*
X8824286Y-15832500D01*
X8833810Y-15842024D01*
X8843333Y-15861071D01*
X8843333Y-15880119D01*
X8833810Y-15908690D01*
X8719524Y-16022976D01*
X8843333Y-16022976D01*
X9014762Y-15822976D02*
X8976667Y-15822976D01*
X8957619Y-15832500D01*
X8948095Y-15842024D01*
X8929048Y-15870595D01*
X8919524Y-15908690D01*
X8919524Y-15984881D01*
X8929048Y-16003928D01*
X8938571Y-16013452D01*
X8957619Y-16022976D01*
X8995714Y-16022976D01*
X9014762Y-16013452D01*
X9024286Y-16003928D01*
X9033810Y-15984881D01*
X9033810Y-15937262D01*
X9024286Y-15918214D01*
X9014762Y-15908690D01*
X8995714Y-15899167D01*
X8957619Y-15899167D01*
X8938571Y-15908690D01*
X8929048Y-15918214D01*
X8919524Y-15937262D01*
X9157619Y-15822976D02*
X9176667Y-15822976D01*
X9195714Y-15832500D01*
X9205238Y-15842024D01*
X9214762Y-15861071D01*
X9224286Y-15899167D01*
X9224286Y-15946786D01*
X9214762Y-15984881D01*
X9205238Y-16003928D01*
X9195714Y-16013452D01*
X9176667Y-16022976D01*
X9157619Y-16022976D01*
X9138571Y-16013452D01*
X9129048Y-16003928D01*
X9119524Y-15984881D01*
X9110000Y-15946786D01*
X9110000Y-15899167D01*
X9119524Y-15861071D01*
X9129048Y-15842024D01*
X9138571Y-15832500D01*
X9157619Y-15822976D01*
X9300476Y-15822976D02*
X9300476Y-15861071D01*
X9376667Y-15822976D02*
X9376667Y-15861071D01*
X9671905Y-16099167D02*
X9662381Y-16089643D01*
X9643333Y-16061071D01*
X9633810Y-16042024D01*
X9624286Y-16013452D01*
X9614762Y-15965833D01*
X9614762Y-15927738D01*
X9624286Y-15880119D01*
X9633810Y-15851548D01*
X9643333Y-15832500D01*
X9662381Y-15803928D01*
X9671905Y-15794405D01*
X9833810Y-15889643D02*
X9833810Y-16022976D01*
X9786190Y-15813452D02*
X9738571Y-15956309D01*
X9862381Y-15956309D01*
X10090952Y-16022976D02*
X10090952Y-15822976D01*
X10176667Y-16022976D02*
X10176667Y-15918214D01*
X10167143Y-15899167D01*
X10148095Y-15889643D01*
X10119524Y-15889643D01*
X10100476Y-15899167D01*
X10090952Y-15908690D01*
X10300476Y-16022976D02*
X10281429Y-16013452D01*
X10271905Y-16003928D01*
X10262381Y-15984881D01*
X10262381Y-15927738D01*
X10271905Y-15908690D01*
X10281429Y-15899167D01*
X10300476Y-15889643D01*
X10329048Y-15889643D01*
X10348095Y-15899167D01*
X10357619Y-15908690D01*
X10367143Y-15927738D01*
X10367143Y-15984881D01*
X10357619Y-16003928D01*
X10348095Y-16013452D01*
X10329048Y-16022976D01*
X10300476Y-16022976D01*
X10481429Y-16022976D02*
X10462381Y-16013452D01*
X10452857Y-15994405D01*
X10452857Y-15822976D01*
X10633810Y-16013452D02*
X10614762Y-16022976D01*
X10576667Y-16022976D01*
X10557619Y-16013452D01*
X10548095Y-15994405D01*
X10548095Y-15918214D01*
X10557619Y-15899167D01*
X10576667Y-15889643D01*
X10614762Y-15889643D01*
X10633810Y-15899167D01*
X10643333Y-15918214D01*
X10643333Y-15937262D01*
X10548095Y-15956309D01*
X10719524Y-16013452D02*
X10738571Y-16022976D01*
X10776667Y-16022976D01*
X10795714Y-16013452D01*
X10805238Y-15994405D01*
X10805238Y-15984881D01*
X10795714Y-15965833D01*
X10776667Y-15956309D01*
X10748095Y-15956309D01*
X10729048Y-15946786D01*
X10719524Y-15927738D01*
X10719524Y-15918214D01*
X10729048Y-15899167D01*
X10748095Y-15889643D01*
X10776667Y-15889643D01*
X10795714Y-15899167D01*
X10871905Y-16099167D02*
X10881429Y-16089643D01*
X10900476Y-16061071D01*
X10910000Y-16042024D01*
X10919524Y-16013452D01*
X10929048Y-15965833D01*
X10929048Y-15927738D01*
X10919524Y-15880119D01*
X10910000Y-15851548D01*
X10900476Y-15832500D01*
X10881429Y-15803928D01*
X10871905Y-15794405D01*
M02*
