G04 #@! TF.GenerationSoftware,KiCad,Pcbnew,(6.0.7)*
G04 #@! TF.CreationDate,2022-11-25T21:32:16+05:30*
G04 #@! TF.ProjectId,GPI-Tally-Interface-Board,4750492d-5461-46c6-9c79-2d496e746572,rev?*
G04 #@! TF.SameCoordinates,Original*
G04 #@! TF.FileFunction,Legend,Bot*
G04 #@! TF.FilePolarity,Positive*
%FSLAX46Y46*%
G04 Gerber Fmt 4.6, Leading zero omitted, Abs format (unit mm)*
G04 Created by KiCad (PCBNEW (6.0.7)) date 2022-11-25 21:32:16*
%MOMM*%
%LPD*%
G01*
G04 APERTURE LIST*
%ADD10C,0.150000*%
%ADD11C,0.050000*%
%ADD12C,0.120000*%
%ADD13C,0.200000*%
G04 APERTURE END LIST*
D10*
X179528333Y-57872380D02*
X179528333Y-58586666D01*
X179575952Y-58729523D01*
X179671190Y-58824761D01*
X179814047Y-58872380D01*
X179909285Y-58872380D01*
X178909285Y-58300952D02*
X179004523Y-58253333D01*
X179052142Y-58205714D01*
X179099761Y-58110476D01*
X179099761Y-58062857D01*
X179052142Y-57967619D01*
X179004523Y-57920000D01*
X178909285Y-57872380D01*
X178718809Y-57872380D01*
X178623571Y-57920000D01*
X178575952Y-57967619D01*
X178528333Y-58062857D01*
X178528333Y-58110476D01*
X178575952Y-58205714D01*
X178623571Y-58253333D01*
X178718809Y-58300952D01*
X178909285Y-58300952D01*
X179004523Y-58348571D01*
X179052142Y-58396190D01*
X179099761Y-58491428D01*
X179099761Y-58681904D01*
X179052142Y-58777142D01*
X179004523Y-58824761D01*
X178909285Y-58872380D01*
X178718809Y-58872380D01*
X178623571Y-58824761D01*
X178575952Y-58777142D01*
X178528333Y-58681904D01*
X178528333Y-58491428D01*
X178575952Y-58396190D01*
X178623571Y-58348571D01*
X178718809Y-58300952D01*
D11*
X88338029Y-58450009D02*
X88338029Y-59167388D01*
X88385854Y-59310864D01*
X88481504Y-59406514D01*
X88624980Y-59454339D01*
X88720630Y-59454339D01*
X87907601Y-58545660D02*
X87859776Y-58497835D01*
X87764126Y-58450009D01*
X87525000Y-58450009D01*
X87429349Y-58497835D01*
X87381524Y-58545660D01*
X87333699Y-58641310D01*
X87333699Y-58736961D01*
X87381524Y-58880436D01*
X87955427Y-59454339D01*
X87333699Y-59454339D01*
X86711970Y-58450009D02*
X86616320Y-58450009D01*
X86520670Y-58497835D01*
X86472844Y-58545660D01*
X86425019Y-58641310D01*
X86377194Y-58832611D01*
X86377194Y-59071737D01*
X86425019Y-59263038D01*
X86472844Y-59358689D01*
X86520670Y-59406514D01*
X86616320Y-59454339D01*
X86711970Y-59454339D01*
X86807621Y-59406514D01*
X86855446Y-59358689D01*
X86903271Y-59263038D01*
X86951097Y-59071737D01*
X86951097Y-58832611D01*
X86903271Y-58641310D01*
X86855446Y-58545660D01*
X86807621Y-58497835D01*
X86711970Y-58450009D01*
D12*
X175155000Y-60370000D02*
X175155000Y-111290000D01*
X180355000Y-111290000D02*
X175155000Y-111290000D01*
X180355000Y-60370000D02*
X179025000Y-60370000D01*
X180355000Y-61700000D02*
X180355000Y-60370000D01*
X180355000Y-62970000D02*
X177755000Y-62970000D01*
X180355000Y-62970000D02*
X180355000Y-111290000D01*
X177755000Y-60370000D02*
X175155000Y-60370000D01*
X177755000Y-62970000D02*
X177755000Y-60370000D01*
D13*
X80805000Y-62940000D02*
G75*
G03*
X80805000Y-62940000I-100000J0D01*
G01*
M02*
