M48
; DRILL file {KiCad (6.0.7)} date Fri Nov 25 21:32:09 2022
; FORMAT={-:-/ absolute / inch / decimal}
; #@! TF.CreationDate,2022-11-25T21:32:09+05:30
; #@! TF.GenerationSoftware,Kicad,Pcbnew,(6.0.7)
; #@! TF.FileFunction,Plated,1,2,PTH
FMAT,2
INCH
; #@! TA.AperFunction,Plated,PTH,ViaDrill
T1C0.0098
; #@! TA.AperFunction,Plated,PTH,ComponentDrill
T2C0.0315
; #@! TA.AperFunction,Plated,PTH,ComponentDrill
T3C0.0354
; #@! TA.AperFunction,Plated,PTH,ComponentDrill
T4C0.0394
; #@! TA.AperFunction,Plated,PTH,ComponentDrill
T5C0.0433
; #@! TA.AperFunction,Plated,PTH,ComponentDrill
T6C0.1260
%
G90
G05
T1
X2.6772Y-4.2913
X2.9843Y-2.1654
X2.9921Y-4.315
X3.0709Y-3.2795
X3.5433Y-3.2795
X3.626Y-4.315
X3.937Y-4.315
X4.0157Y-3.2795
X4.252Y-4.315
X4.4882Y-3.2795
X4.5669Y-4.315
X4.8819Y-4.315
X4.9606Y-3.2795
X5.248Y-4.315
X5.4331Y-3.2795
X5.9055Y-3.2795
X6.378Y-3.2795
X7.3976Y-3.6811
X7.7657Y-3.8307
T2
X2.5876Y-4.4953
X2.5876Y-4.7953
X2.6876Y-4.4953
X2.6876Y-4.7953
X2.9026Y-4.4953
X2.9026Y-4.7953
X3.0026Y-4.4953
X3.0026Y-4.7953
X3.5325Y-4.4953
X3.5325Y-4.7953
X3.6325Y-4.4953
X3.6325Y-4.7953
X3.8474Y-4.4953
X3.8474Y-4.7953
X3.9474Y-4.4953
X3.9474Y-4.7953
X4.1624Y-4.4953
X4.1624Y-4.7953
X4.2624Y-4.4953
X4.2624Y-4.7953
X4.4774Y-4.4953
X4.4774Y-4.7953
X4.5774Y-4.4953
X4.5774Y-4.7953
X4.7923Y-4.4953
X4.7923Y-4.7953
X4.8923Y-4.4953
X4.8923Y-4.7953
X5.1073Y-4.4953
X5.1073Y-4.7953
X5.2073Y-4.4953
X5.2073Y-4.7953
X5.4222Y-4.4953
X5.4222Y-4.7953
X5.5222Y-4.4953
X5.5222Y-4.7953
X5.7372Y-4.4953
X5.7372Y-4.7953
X5.8372Y-4.4953
X5.8372Y-4.7953
X6.0522Y-4.4953
X6.0522Y-4.7953
X6.1522Y-4.4953
X6.1522Y-4.7953
X6.3671Y-4.4953
X6.3671Y-4.7953
X6.4671Y-4.4953
X6.4671Y-4.7953
X6.6821Y-4.4953
X6.6821Y-4.7953
X6.7821Y-4.4953
X6.7821Y-4.7953
X7.3514Y-4.4953
X7.3514Y-4.7953
X7.4514Y-4.4953
X7.4514Y-4.7953
X7.7057Y-4.4953
X7.7057Y-4.7953
X7.8057Y-4.4953
X7.8057Y-4.7953
X8.0207Y-4.4953
X8.0207Y-4.7953
X8.1207Y-4.4953
X8.1207Y-4.7953
T3
X3.0315Y-2.6559
X3.0315Y-2.7559
X3.0315Y-3.5614
X3.0315Y-3.6614
X3.1801Y-2.4193
X3.2785Y-2.4193
X3.377Y-2.4193
X3.4754Y-2.4193
X3.5039Y-2.6559
X3.5039Y-2.7559
X3.5039Y-3.5614
X3.5039Y-3.6614
X3.9764Y-2.6559
X3.9764Y-2.7559
X3.9764Y-3.5614
X3.9764Y-3.6614
X4.4488Y-2.6559
X4.4488Y-2.7559
X4.4488Y-3.5614
X4.4488Y-3.6614
X4.9213Y-2.6559
X4.9213Y-2.7559
X4.9213Y-3.5614
X4.9213Y-3.6614
X5.3937Y-2.6559
X5.3937Y-2.7559
X5.3937Y-3.5614
X5.3937Y-3.6614
X5.8661Y-2.6559
X5.8661Y-2.7559
X5.8661Y-3.5614
X5.8661Y-3.6614
X6.3386Y-2.6559
X6.3386Y-2.7559
X6.3386Y-3.5614
X6.3386Y-3.6614
X7.7165Y-2.4197
X7.7165Y-2.5197
X7.7165Y-2.8528
X7.7165Y-2.9528
T4
X3.3222Y-5.174
X3.3768Y-5.2858
X3.4313Y-5.174
X3.4858Y-5.2858
X3.5404Y-5.174
X3.5949Y-5.2858
X3.6494Y-5.174
X3.7039Y-5.2858
X3.7585Y-5.174
X3.813Y-5.2858
X3.8675Y-5.174
X3.922Y-5.2858
X3.9766Y-5.174
X4.0311Y-5.2858
X4.0856Y-5.174
X4.1402Y-5.2858
X4.1947Y-5.174
X4.2492Y-5.2858
X4.3037Y-5.174
X4.3583Y-5.2858
X4.4128Y-5.174
X4.4673Y-5.2858
X4.5219Y-5.174
X4.5764Y-5.2858
X4.6309Y-5.174
X6.1175Y-5.174
X6.172Y-5.2858
X6.2266Y-5.174
X6.2811Y-5.2858
X6.3356Y-5.174
X6.3902Y-5.2858
X6.4447Y-5.174
X6.4992Y-5.2858
X6.5537Y-5.174
X6.6083Y-5.2858
X6.6628Y-5.174
X6.7173Y-5.2858
X6.7719Y-5.174
X6.8264Y-5.2858
X6.8809Y-5.174
X6.9354Y-5.2858
X6.9482Y-2.4291
X6.9482Y-2.5291
X6.9482Y-2.6291
X6.9482Y-2.7291
X6.9482Y-2.8291
X6.9482Y-2.9291
X6.9482Y-3.0291
X6.9482Y-3.1291
X6.9482Y-3.2291
X6.9482Y-3.3291
X6.9482Y-3.4291
X6.9482Y-3.5291
X6.9482Y-3.6291
X6.9482Y-3.7291
X6.9482Y-3.8291
X6.9482Y-3.9291
X6.9482Y-4.0291
X6.9482Y-4.1291
X6.9482Y-4.2291
X6.9482Y-4.3291
X6.99Y-5.174
X7.0445Y-5.2858
X7.0482Y-2.4291
X7.0482Y-2.5291
X7.0482Y-2.6291
X7.0482Y-2.7291
X7.0482Y-2.8291
X7.0482Y-2.9291
X7.0482Y-3.0291
X7.0482Y-3.1291
X7.0482Y-3.2291
X7.0482Y-3.3291
X7.0482Y-3.4291
X7.0482Y-3.5291
X7.0482Y-3.6291
X7.0482Y-3.7291
X7.0482Y-3.8291
X7.0482Y-3.9291
X7.0482Y-4.0291
X7.0482Y-4.1291
X7.0482Y-4.2291
X7.0482Y-4.3291
X7.099Y-5.174
X7.1535Y-5.2858
X7.2081Y-5.174
X7.2626Y-5.2858
X7.3171Y-5.174
X7.3717Y-5.2858
X7.4262Y-5.174
T5
X2.9035Y-2.9823
X2.9035Y-3.1594
X2.9035Y-3.8878
X2.9035Y-4.065
X3.1594Y-2.9823
X3.1594Y-3.1594
X3.1594Y-3.8878
X3.1594Y-4.065
X3.376Y-2.9823
X3.376Y-3.1594
X3.376Y-3.8878
X3.376Y-4.065
X3.6319Y-2.9823
X3.6319Y-3.1594
X3.6319Y-3.8878
X3.6319Y-4.065
X3.8429Y-2.9823
X3.8429Y-3.1594
X3.8484Y-3.8878
X3.8484Y-4.065
X4.0988Y-2.9823
X4.0988Y-3.1594
X4.1043Y-3.8878
X4.1043Y-4.065
X4.3209Y-2.9823
X4.3209Y-3.1594
X4.3209Y-3.8878
X4.3209Y-4.065
X4.5768Y-2.9823
X4.5768Y-3.1594
X4.5768Y-3.8878
X4.5768Y-4.065
X4.7933Y-2.9823
X4.7933Y-3.1594
X4.7933Y-3.8878
X4.7933Y-4.065
X5.0492Y-2.9823
X5.0492Y-3.1594
X5.0492Y-3.8878
X5.0492Y-4.065
X5.2657Y-2.9823
X5.2657Y-3.1594
X5.2657Y-3.8878
X5.2657Y-4.065
X5.5217Y-2.9823
X5.5217Y-3.1594
X5.5217Y-3.8878
X5.5217Y-4.065
X5.7382Y-2.9823
X5.7382Y-3.1594
X5.7382Y-3.8878
X5.7382Y-4.065
X5.9941Y-2.9823
X5.9941Y-3.1594
X5.9941Y-3.8878
X5.9941Y-4.065
X6.2106Y-2.9823
X6.2106Y-3.1594
X6.2106Y-3.8878
X6.2106Y-4.065
X6.4665Y-2.9823
X6.4665Y-3.1594
X6.4665Y-3.8878
X6.4665Y-4.065
T6
X3.0494Y-5.1858
X4.9037Y-5.1858
X5.8447Y-5.1858
X7.699Y-5.1858
T0
M30
