%TF.GenerationSoftware,KiCad,Pcbnew,(6.0.7)*%
%TF.CreationDate,2022-11-19T09:32:56+05:30*%
%TF.ProjectId,ESP32_Drive,45535033-325f-4447-9269-76652e6b6963,rev?*%
%TF.SameCoordinates,Original*%
%TF.FileFunction,Drillmap*%
%TF.FilePolarity,Positive*%
%FSLAX45Y45*%
G04 Gerber Fmt 4.5, Leading zero omitted, Abs format (unit mm)*
G04 Created by KiCad (PCBNEW (6.0.7)) date 2022-11-19 09:32:56*
%MOMM*%
%LPD*%
G01*
G04 APERTURE LIST*
%ADD10C,0.100000*%
%ADD11C,0.200000*%
%ADD12C,0.300000*%
%ADD13C,0.350000*%
G04 APERTURE END LIST*
D10*
X10600000Y-6400000D02*
X10900000Y-6400000D01*
X5000000Y-14600000D02*
G75*
G03*
X5400000Y-15000000I400000J0D01*
G01*
X5400000Y-6000000D02*
G75*
G03*
X5000000Y-6400000I0J-400000D01*
G01*
X13600000Y-15000000D02*
G75*
G03*
X14000000Y-14600000I0J400000D01*
G01*
X13600000Y-9200000D02*
X13600000Y-9500000D01*
X10900000Y-6400000D02*
X10900000Y-9200000D01*
X10600000Y-9500000D02*
X10600000Y-6400000D01*
X5400000Y-6000000D02*
X13600000Y-6000000D01*
X13600000Y-15000000D02*
X5400000Y-15000000D01*
X5000000Y-14600000D02*
X5000000Y-6400000D01*
X14000000Y-6400000D02*
X14000000Y-14600000D01*
X10900000Y-9200000D02*
X13600000Y-9200000D01*
X14000000Y-6400000D02*
G75*
G03*
X13600000Y-6000000I-400000J0D01*
G01*
X13600000Y-9500000D02*
X10600000Y-9500000D01*
D11*
D12*
X5102500Y-11249750D02*
X5402500Y-11549750D01*
X5402500Y-11249750D02*
X5102500Y-11549750D01*
X5102500Y-13700750D02*
X5402500Y-14000750D01*
X5402500Y-13700750D02*
X5102500Y-14000750D01*
X9797500Y-11249750D02*
X10097500Y-11549750D01*
X10097500Y-11249750D02*
X9797500Y-11549750D01*
X9797500Y-13700750D02*
X10097500Y-14000750D01*
X10097500Y-13700750D02*
X9797500Y-14000750D01*
D13*
X5575000Y-6400000D02*
G75*
G03*
X5575000Y-6400000I-175000J0D01*
G01*
X5575000Y-14600000D02*
G75*
G03*
X5575000Y-14600000I-175000J0D01*
G01*
X13775000Y-6400000D02*
G75*
G03*
X13775000Y-6400000I-175000J0D01*
G01*
X13775000Y-14600000D02*
G75*
G03*
X13775000Y-14600000I-175000J0D01*
G01*
D11*
X5252619Y-15315476D02*
X5252619Y-15115476D01*
X5300238Y-15115476D01*
X5328810Y-15125000D01*
X5347857Y-15144048D01*
X5357381Y-15163095D01*
X5366905Y-15201190D01*
X5366905Y-15229762D01*
X5357381Y-15267857D01*
X5347857Y-15286905D01*
X5328810Y-15305952D01*
X5300238Y-15315476D01*
X5252619Y-15315476D01*
X5452619Y-15315476D02*
X5452619Y-15182143D01*
X5452619Y-15220238D02*
X5462143Y-15201190D01*
X5471667Y-15191667D01*
X5490714Y-15182143D01*
X5509762Y-15182143D01*
X5576429Y-15315476D02*
X5576429Y-15182143D01*
X5576429Y-15115476D02*
X5566905Y-15125000D01*
X5576429Y-15134524D01*
X5585952Y-15125000D01*
X5576429Y-15115476D01*
X5576429Y-15134524D01*
X5700238Y-15315476D02*
X5681190Y-15305952D01*
X5671667Y-15286905D01*
X5671667Y-15115476D01*
X5805000Y-15315476D02*
X5785952Y-15305952D01*
X5776428Y-15286905D01*
X5776428Y-15115476D01*
X6033571Y-15315476D02*
X6033571Y-15115476D01*
X6100238Y-15258333D01*
X6166905Y-15115476D01*
X6166905Y-15315476D01*
X6347857Y-15315476D02*
X6347857Y-15210714D01*
X6338333Y-15191667D01*
X6319286Y-15182143D01*
X6281190Y-15182143D01*
X6262143Y-15191667D01*
X6347857Y-15305952D02*
X6328809Y-15315476D01*
X6281190Y-15315476D01*
X6262143Y-15305952D01*
X6252619Y-15286905D01*
X6252619Y-15267857D01*
X6262143Y-15248809D01*
X6281190Y-15239286D01*
X6328809Y-15239286D01*
X6347857Y-15229762D01*
X6443095Y-15182143D02*
X6443095Y-15382143D01*
X6443095Y-15191667D02*
X6462143Y-15182143D01*
X6500238Y-15182143D01*
X6519286Y-15191667D01*
X6528809Y-15201190D01*
X6538333Y-15220238D01*
X6538333Y-15277381D01*
X6528809Y-15296428D01*
X6519286Y-15305952D01*
X6500238Y-15315476D01*
X6462143Y-15315476D01*
X6443095Y-15305952D01*
X6624048Y-15296428D02*
X6633571Y-15305952D01*
X6624048Y-15315476D01*
X6614524Y-15305952D01*
X6624048Y-15296428D01*
X6624048Y-15315476D01*
X6624048Y-15191667D02*
X6633571Y-15201190D01*
X6624048Y-15210714D01*
X6614524Y-15201190D01*
X6624048Y-15191667D01*
X6624048Y-15210714D01*
X4795000Y-15545000D02*
X4995000Y-15745000D01*
X4995000Y-15545000D02*
X4795000Y-15745000D01*
X5233571Y-15535476D02*
X5357381Y-15535476D01*
X5290714Y-15611667D01*
X5319286Y-15611667D01*
X5338333Y-15621190D01*
X5347857Y-15630714D01*
X5357381Y-15649762D01*
X5357381Y-15697381D01*
X5347857Y-15716428D01*
X5338333Y-15725952D01*
X5319286Y-15735476D01*
X5262143Y-15735476D01*
X5243095Y-15725952D01*
X5233571Y-15716428D01*
X5443095Y-15716428D02*
X5452619Y-15725952D01*
X5443095Y-15735476D01*
X5433571Y-15725952D01*
X5443095Y-15716428D01*
X5443095Y-15735476D01*
X5576429Y-15535476D02*
X5595476Y-15535476D01*
X5614524Y-15545000D01*
X5624048Y-15554524D01*
X5633571Y-15573571D01*
X5643095Y-15611667D01*
X5643095Y-15659286D01*
X5633571Y-15697381D01*
X5624048Y-15716428D01*
X5614524Y-15725952D01*
X5595476Y-15735476D01*
X5576429Y-15735476D01*
X5557381Y-15725952D01*
X5547857Y-15716428D01*
X5538333Y-15697381D01*
X5528810Y-15659286D01*
X5528810Y-15611667D01*
X5538333Y-15573571D01*
X5547857Y-15554524D01*
X5557381Y-15545000D01*
X5576429Y-15535476D01*
X5766905Y-15535476D02*
X5785952Y-15535476D01*
X5805000Y-15545000D01*
X5814524Y-15554524D01*
X5824048Y-15573571D01*
X5833571Y-15611667D01*
X5833571Y-15659286D01*
X5824048Y-15697381D01*
X5814524Y-15716428D01*
X5805000Y-15725952D01*
X5785952Y-15735476D01*
X5766905Y-15735476D01*
X5747857Y-15725952D01*
X5738333Y-15716428D01*
X5728809Y-15697381D01*
X5719286Y-15659286D01*
X5719286Y-15611667D01*
X5728809Y-15573571D01*
X5738333Y-15554524D01*
X5747857Y-15545000D01*
X5766905Y-15535476D01*
X5957381Y-15535476D02*
X5976428Y-15535476D01*
X5995476Y-15545000D01*
X6005000Y-15554524D01*
X6014524Y-15573571D01*
X6024048Y-15611667D01*
X6024048Y-15659286D01*
X6014524Y-15697381D01*
X6005000Y-15716428D01*
X5995476Y-15725952D01*
X5976428Y-15735476D01*
X5957381Y-15735476D01*
X5938333Y-15725952D01*
X5928809Y-15716428D01*
X5919286Y-15697381D01*
X5909762Y-15659286D01*
X5909762Y-15611667D01*
X5919286Y-15573571D01*
X5928809Y-15554524D01*
X5938333Y-15545000D01*
X5957381Y-15535476D01*
X6109762Y-15735476D02*
X6109762Y-15602143D01*
X6109762Y-15621190D02*
X6119286Y-15611667D01*
X6138333Y-15602143D01*
X6166905Y-15602143D01*
X6185952Y-15611667D01*
X6195476Y-15630714D01*
X6195476Y-15735476D01*
X6195476Y-15630714D02*
X6205000Y-15611667D01*
X6224048Y-15602143D01*
X6252619Y-15602143D01*
X6271667Y-15611667D01*
X6281190Y-15630714D01*
X6281190Y-15735476D01*
X6376428Y-15735476D02*
X6376428Y-15602143D01*
X6376428Y-15621190D02*
X6385952Y-15611667D01*
X6405000Y-15602143D01*
X6433571Y-15602143D01*
X6452619Y-15611667D01*
X6462143Y-15630714D01*
X6462143Y-15735476D01*
X6462143Y-15630714D02*
X6471667Y-15611667D01*
X6490714Y-15602143D01*
X6519286Y-15602143D01*
X6538333Y-15611667D01*
X6547857Y-15630714D01*
X6547857Y-15735476D01*
X6938333Y-15525952D02*
X6766905Y-15783095D01*
X7195476Y-15535476D02*
X7214524Y-15535476D01*
X7233571Y-15545000D01*
X7243095Y-15554524D01*
X7252619Y-15573571D01*
X7262143Y-15611667D01*
X7262143Y-15659286D01*
X7252619Y-15697381D01*
X7243095Y-15716428D01*
X7233571Y-15725952D01*
X7214524Y-15735476D01*
X7195476Y-15735476D01*
X7176428Y-15725952D01*
X7166905Y-15716428D01*
X7157381Y-15697381D01*
X7147857Y-15659286D01*
X7147857Y-15611667D01*
X7157381Y-15573571D01*
X7166905Y-15554524D01*
X7176428Y-15545000D01*
X7195476Y-15535476D01*
X7347857Y-15716428D02*
X7357381Y-15725952D01*
X7347857Y-15735476D01*
X7338333Y-15725952D01*
X7347857Y-15716428D01*
X7347857Y-15735476D01*
X7547857Y-15735476D02*
X7433571Y-15735476D01*
X7490714Y-15735476D02*
X7490714Y-15535476D01*
X7471667Y-15564048D01*
X7452619Y-15583095D01*
X7433571Y-15592619D01*
X7738333Y-15735476D02*
X7624048Y-15735476D01*
X7681190Y-15735476D02*
X7681190Y-15535476D01*
X7662143Y-15564048D01*
X7643095Y-15583095D01*
X7624048Y-15592619D01*
X7852619Y-15621190D02*
X7833571Y-15611667D01*
X7824048Y-15602143D01*
X7814524Y-15583095D01*
X7814524Y-15573571D01*
X7824048Y-15554524D01*
X7833571Y-15545000D01*
X7852619Y-15535476D01*
X7890714Y-15535476D01*
X7909762Y-15545000D01*
X7919286Y-15554524D01*
X7928809Y-15573571D01*
X7928809Y-15583095D01*
X7919286Y-15602143D01*
X7909762Y-15611667D01*
X7890714Y-15621190D01*
X7852619Y-15621190D01*
X7833571Y-15630714D01*
X7824048Y-15640238D01*
X7814524Y-15659286D01*
X7814524Y-15697381D01*
X7824048Y-15716428D01*
X7833571Y-15725952D01*
X7852619Y-15735476D01*
X7890714Y-15735476D01*
X7909762Y-15725952D01*
X7919286Y-15716428D01*
X7928809Y-15697381D01*
X7928809Y-15659286D01*
X7919286Y-15640238D01*
X7909762Y-15630714D01*
X7890714Y-15621190D01*
X8119286Y-15735476D02*
X8005000Y-15735476D01*
X8062143Y-15735476D02*
X8062143Y-15535476D01*
X8043095Y-15564048D01*
X8024048Y-15583095D01*
X8005000Y-15592619D01*
X8195476Y-15535476D02*
X8195476Y-15573571D01*
X8271667Y-15535476D02*
X8271667Y-15573571D01*
X8566905Y-15811667D02*
X8557381Y-15802143D01*
X8538333Y-15773571D01*
X8528810Y-15754524D01*
X8519286Y-15725952D01*
X8509762Y-15678333D01*
X8509762Y-15640238D01*
X8519286Y-15592619D01*
X8528810Y-15564048D01*
X8538333Y-15545000D01*
X8557381Y-15516428D01*
X8566905Y-15506905D01*
X8728810Y-15602143D02*
X8728810Y-15735476D01*
X8681190Y-15525952D02*
X8633571Y-15668809D01*
X8757381Y-15668809D01*
X8985952Y-15735476D02*
X8985952Y-15535476D01*
X9071667Y-15735476D02*
X9071667Y-15630714D01*
X9062143Y-15611667D01*
X9043095Y-15602143D01*
X9014524Y-15602143D01*
X8995476Y-15611667D01*
X8985952Y-15621190D01*
X9195476Y-15735476D02*
X9176429Y-15725952D01*
X9166905Y-15716428D01*
X9157381Y-15697381D01*
X9157381Y-15640238D01*
X9166905Y-15621190D01*
X9176429Y-15611667D01*
X9195476Y-15602143D01*
X9224048Y-15602143D01*
X9243095Y-15611667D01*
X9252619Y-15621190D01*
X9262143Y-15640238D01*
X9262143Y-15697381D01*
X9252619Y-15716428D01*
X9243095Y-15725952D01*
X9224048Y-15735476D01*
X9195476Y-15735476D01*
X9376429Y-15735476D02*
X9357381Y-15725952D01*
X9347857Y-15706905D01*
X9347857Y-15535476D01*
X9528810Y-15725952D02*
X9509762Y-15735476D01*
X9471667Y-15735476D01*
X9452619Y-15725952D01*
X9443095Y-15706905D01*
X9443095Y-15630714D01*
X9452619Y-15611667D01*
X9471667Y-15602143D01*
X9509762Y-15602143D01*
X9528810Y-15611667D01*
X9538333Y-15630714D01*
X9538333Y-15649762D01*
X9443095Y-15668809D01*
X9614524Y-15725952D02*
X9633571Y-15735476D01*
X9671667Y-15735476D01*
X9690714Y-15725952D01*
X9700238Y-15706905D01*
X9700238Y-15697381D01*
X9690714Y-15678333D01*
X9671667Y-15668809D01*
X9643095Y-15668809D01*
X9624048Y-15659286D01*
X9614524Y-15640238D01*
X9614524Y-15630714D01*
X9624048Y-15611667D01*
X9643095Y-15602143D01*
X9671667Y-15602143D01*
X9690714Y-15611667D01*
X9766905Y-15811667D02*
X9776429Y-15802143D01*
X9795476Y-15773571D01*
X9805000Y-15754524D01*
X9814524Y-15725952D01*
X9824048Y-15678333D01*
X9824048Y-15640238D01*
X9814524Y-15592619D01*
X9805000Y-15564048D01*
X9795476Y-15545000D01*
X9776429Y-15516428D01*
X9766905Y-15506905D01*
X10128810Y-15811667D02*
X10119286Y-15802143D01*
X10100238Y-15773571D01*
X10090714Y-15754524D01*
X10081190Y-15725952D01*
X10071667Y-15678333D01*
X10071667Y-15640238D01*
X10081190Y-15592619D01*
X10090714Y-15564048D01*
X10100238Y-15545000D01*
X10119286Y-15516428D01*
X10128810Y-15506905D01*
X10205000Y-15602143D02*
X10205000Y-15735476D01*
X10205000Y-15621190D02*
X10214524Y-15611667D01*
X10233571Y-15602143D01*
X10262143Y-15602143D01*
X10281190Y-15611667D01*
X10290714Y-15630714D01*
X10290714Y-15735476D01*
X10414524Y-15735476D02*
X10395476Y-15725952D01*
X10385952Y-15716428D01*
X10376429Y-15697381D01*
X10376429Y-15640238D01*
X10385952Y-15621190D01*
X10395476Y-15611667D01*
X10414524Y-15602143D01*
X10443095Y-15602143D01*
X10462143Y-15611667D01*
X10471667Y-15621190D01*
X10481190Y-15640238D01*
X10481190Y-15697381D01*
X10471667Y-15716428D01*
X10462143Y-15725952D01*
X10443095Y-15735476D01*
X10414524Y-15735476D01*
X10538333Y-15602143D02*
X10614524Y-15602143D01*
X10566905Y-15535476D02*
X10566905Y-15706905D01*
X10576429Y-15725952D01*
X10595476Y-15735476D01*
X10614524Y-15735476D01*
X10833571Y-15602143D02*
X10833571Y-15802143D01*
X10833571Y-15611667D02*
X10852619Y-15602143D01*
X10890714Y-15602143D01*
X10909762Y-15611667D01*
X10919286Y-15621190D01*
X10928810Y-15640238D01*
X10928810Y-15697381D01*
X10919286Y-15716428D01*
X10909762Y-15725952D01*
X10890714Y-15735476D01*
X10852619Y-15735476D01*
X10833571Y-15725952D01*
X11043095Y-15735476D02*
X11024048Y-15725952D01*
X11014524Y-15706905D01*
X11014524Y-15535476D01*
X11205000Y-15735476D02*
X11205000Y-15630714D01*
X11195476Y-15611667D01*
X11176429Y-15602143D01*
X11138333Y-15602143D01*
X11119286Y-15611667D01*
X11205000Y-15725952D02*
X11185952Y-15735476D01*
X11138333Y-15735476D01*
X11119286Y-15725952D01*
X11109762Y-15706905D01*
X11109762Y-15687857D01*
X11119286Y-15668809D01*
X11138333Y-15659286D01*
X11185952Y-15659286D01*
X11205000Y-15649762D01*
X11271667Y-15602143D02*
X11347857Y-15602143D01*
X11300238Y-15535476D02*
X11300238Y-15706905D01*
X11309762Y-15725952D01*
X11328809Y-15735476D01*
X11347857Y-15735476D01*
X11490714Y-15725952D02*
X11471667Y-15735476D01*
X11433571Y-15735476D01*
X11414524Y-15725952D01*
X11405000Y-15706905D01*
X11405000Y-15630714D01*
X11414524Y-15611667D01*
X11433571Y-15602143D01*
X11471667Y-15602143D01*
X11490714Y-15611667D01*
X11500238Y-15630714D01*
X11500238Y-15649762D01*
X11405000Y-15668809D01*
X11671667Y-15735476D02*
X11671667Y-15535476D01*
X11671667Y-15725952D02*
X11652619Y-15735476D01*
X11614524Y-15735476D01*
X11595476Y-15725952D01*
X11585952Y-15716428D01*
X11576428Y-15697381D01*
X11576428Y-15640238D01*
X11585952Y-15621190D01*
X11595476Y-15611667D01*
X11614524Y-15602143D01*
X11652619Y-15602143D01*
X11671667Y-15611667D01*
X11747857Y-15811667D02*
X11757381Y-15802143D01*
X11776428Y-15773571D01*
X11785952Y-15754524D01*
X11795476Y-15725952D01*
X11805000Y-15678333D01*
X11805000Y-15640238D01*
X11795476Y-15592619D01*
X11785952Y-15564048D01*
X11776428Y-15545000D01*
X11757381Y-15516428D01*
X11747857Y-15506905D01*
X4995000Y-15965000D02*
G75*
G03*
X4995000Y-15965000I-100000J0D01*
G01*
X5233571Y-15855476D02*
X5357381Y-15855476D01*
X5290714Y-15931667D01*
X5319286Y-15931667D01*
X5338333Y-15941190D01*
X5347857Y-15950714D01*
X5357381Y-15969762D01*
X5357381Y-16017381D01*
X5347857Y-16036428D01*
X5338333Y-16045952D01*
X5319286Y-16055476D01*
X5262143Y-16055476D01*
X5243095Y-16045952D01*
X5233571Y-16036428D01*
X5443095Y-16036428D02*
X5452619Y-16045952D01*
X5443095Y-16055476D01*
X5433571Y-16045952D01*
X5443095Y-16036428D01*
X5443095Y-16055476D01*
X5633571Y-15855476D02*
X5538333Y-15855476D01*
X5528810Y-15950714D01*
X5538333Y-15941190D01*
X5557381Y-15931667D01*
X5605000Y-15931667D01*
X5624048Y-15941190D01*
X5633571Y-15950714D01*
X5643095Y-15969762D01*
X5643095Y-16017381D01*
X5633571Y-16036428D01*
X5624048Y-16045952D01*
X5605000Y-16055476D01*
X5557381Y-16055476D01*
X5538333Y-16045952D01*
X5528810Y-16036428D01*
X5766905Y-15855476D02*
X5785952Y-15855476D01*
X5805000Y-15865000D01*
X5814524Y-15874524D01*
X5824048Y-15893571D01*
X5833571Y-15931667D01*
X5833571Y-15979286D01*
X5824048Y-16017381D01*
X5814524Y-16036428D01*
X5805000Y-16045952D01*
X5785952Y-16055476D01*
X5766905Y-16055476D01*
X5747857Y-16045952D01*
X5738333Y-16036428D01*
X5728809Y-16017381D01*
X5719286Y-15979286D01*
X5719286Y-15931667D01*
X5728809Y-15893571D01*
X5738333Y-15874524D01*
X5747857Y-15865000D01*
X5766905Y-15855476D01*
X5957381Y-15855476D02*
X5976428Y-15855476D01*
X5995476Y-15865000D01*
X6005000Y-15874524D01*
X6014524Y-15893571D01*
X6024048Y-15931667D01*
X6024048Y-15979286D01*
X6014524Y-16017381D01*
X6005000Y-16036428D01*
X5995476Y-16045952D01*
X5976428Y-16055476D01*
X5957381Y-16055476D01*
X5938333Y-16045952D01*
X5928809Y-16036428D01*
X5919286Y-16017381D01*
X5909762Y-15979286D01*
X5909762Y-15931667D01*
X5919286Y-15893571D01*
X5928809Y-15874524D01*
X5938333Y-15865000D01*
X5957381Y-15855476D01*
X6109762Y-16055476D02*
X6109762Y-15922143D01*
X6109762Y-15941190D02*
X6119286Y-15931667D01*
X6138333Y-15922143D01*
X6166905Y-15922143D01*
X6185952Y-15931667D01*
X6195476Y-15950714D01*
X6195476Y-16055476D01*
X6195476Y-15950714D02*
X6205000Y-15931667D01*
X6224048Y-15922143D01*
X6252619Y-15922143D01*
X6271667Y-15931667D01*
X6281190Y-15950714D01*
X6281190Y-16055476D01*
X6376428Y-16055476D02*
X6376428Y-15922143D01*
X6376428Y-15941190D02*
X6385952Y-15931667D01*
X6405000Y-15922143D01*
X6433571Y-15922143D01*
X6452619Y-15931667D01*
X6462143Y-15950714D01*
X6462143Y-16055476D01*
X6462143Y-15950714D02*
X6471667Y-15931667D01*
X6490714Y-15922143D01*
X6519286Y-15922143D01*
X6538333Y-15931667D01*
X6547857Y-15950714D01*
X6547857Y-16055476D01*
X6938333Y-15845952D02*
X6766905Y-16103095D01*
X7195476Y-15855476D02*
X7214524Y-15855476D01*
X7233571Y-15865000D01*
X7243095Y-15874524D01*
X7252619Y-15893571D01*
X7262143Y-15931667D01*
X7262143Y-15979286D01*
X7252619Y-16017381D01*
X7243095Y-16036428D01*
X7233571Y-16045952D01*
X7214524Y-16055476D01*
X7195476Y-16055476D01*
X7176428Y-16045952D01*
X7166905Y-16036428D01*
X7157381Y-16017381D01*
X7147857Y-15979286D01*
X7147857Y-15931667D01*
X7157381Y-15893571D01*
X7166905Y-15874524D01*
X7176428Y-15865000D01*
X7195476Y-15855476D01*
X7347857Y-16036428D02*
X7357381Y-16045952D01*
X7347857Y-16055476D01*
X7338333Y-16045952D01*
X7347857Y-16036428D01*
X7347857Y-16055476D01*
X7547857Y-16055476D02*
X7433571Y-16055476D01*
X7490714Y-16055476D02*
X7490714Y-15855476D01*
X7471667Y-15884048D01*
X7452619Y-15903095D01*
X7433571Y-15912619D01*
X7614524Y-15855476D02*
X7738333Y-15855476D01*
X7671667Y-15931667D01*
X7700238Y-15931667D01*
X7719286Y-15941190D01*
X7728809Y-15950714D01*
X7738333Y-15969762D01*
X7738333Y-16017381D01*
X7728809Y-16036428D01*
X7719286Y-16045952D01*
X7700238Y-16055476D01*
X7643095Y-16055476D01*
X7624048Y-16045952D01*
X7614524Y-16036428D01*
X7805000Y-15855476D02*
X7938333Y-15855476D01*
X7852619Y-16055476D01*
X8043095Y-15941190D02*
X8024048Y-15931667D01*
X8014524Y-15922143D01*
X8005000Y-15903095D01*
X8005000Y-15893571D01*
X8014524Y-15874524D01*
X8024048Y-15865000D01*
X8043095Y-15855476D01*
X8081190Y-15855476D01*
X8100238Y-15865000D01*
X8109762Y-15874524D01*
X8119286Y-15893571D01*
X8119286Y-15903095D01*
X8109762Y-15922143D01*
X8100238Y-15931667D01*
X8081190Y-15941190D01*
X8043095Y-15941190D01*
X8024048Y-15950714D01*
X8014524Y-15960238D01*
X8005000Y-15979286D01*
X8005000Y-16017381D01*
X8014524Y-16036428D01*
X8024048Y-16045952D01*
X8043095Y-16055476D01*
X8081190Y-16055476D01*
X8100238Y-16045952D01*
X8109762Y-16036428D01*
X8119286Y-16017381D01*
X8119286Y-15979286D01*
X8109762Y-15960238D01*
X8100238Y-15950714D01*
X8081190Y-15941190D01*
X8195476Y-15855476D02*
X8195476Y-15893571D01*
X8271667Y-15855476D02*
X8271667Y-15893571D01*
X8566905Y-16131667D02*
X8557381Y-16122143D01*
X8538333Y-16093571D01*
X8528810Y-16074524D01*
X8519286Y-16045952D01*
X8509762Y-15998333D01*
X8509762Y-15960238D01*
X8519286Y-15912619D01*
X8528810Y-15884048D01*
X8538333Y-15865000D01*
X8557381Y-15836428D01*
X8566905Y-15826905D01*
X8728810Y-15922143D02*
X8728810Y-16055476D01*
X8681190Y-15845952D02*
X8633571Y-15988809D01*
X8757381Y-15988809D01*
X8985952Y-16055476D02*
X8985952Y-15855476D01*
X9071667Y-16055476D02*
X9071667Y-15950714D01*
X9062143Y-15931667D01*
X9043095Y-15922143D01*
X9014524Y-15922143D01*
X8995476Y-15931667D01*
X8985952Y-15941190D01*
X9195476Y-16055476D02*
X9176429Y-16045952D01*
X9166905Y-16036428D01*
X9157381Y-16017381D01*
X9157381Y-15960238D01*
X9166905Y-15941190D01*
X9176429Y-15931667D01*
X9195476Y-15922143D01*
X9224048Y-15922143D01*
X9243095Y-15931667D01*
X9252619Y-15941190D01*
X9262143Y-15960238D01*
X9262143Y-16017381D01*
X9252619Y-16036428D01*
X9243095Y-16045952D01*
X9224048Y-16055476D01*
X9195476Y-16055476D01*
X9376429Y-16055476D02*
X9357381Y-16045952D01*
X9347857Y-16026905D01*
X9347857Y-15855476D01*
X9528810Y-16045952D02*
X9509762Y-16055476D01*
X9471667Y-16055476D01*
X9452619Y-16045952D01*
X9443095Y-16026905D01*
X9443095Y-15950714D01*
X9452619Y-15931667D01*
X9471667Y-15922143D01*
X9509762Y-15922143D01*
X9528810Y-15931667D01*
X9538333Y-15950714D01*
X9538333Y-15969762D01*
X9443095Y-15988809D01*
X9614524Y-16045952D02*
X9633571Y-16055476D01*
X9671667Y-16055476D01*
X9690714Y-16045952D01*
X9700238Y-16026905D01*
X9700238Y-16017381D01*
X9690714Y-15998333D01*
X9671667Y-15988809D01*
X9643095Y-15988809D01*
X9624048Y-15979286D01*
X9614524Y-15960238D01*
X9614524Y-15950714D01*
X9624048Y-15931667D01*
X9643095Y-15922143D01*
X9671667Y-15922143D01*
X9690714Y-15931667D01*
X9766905Y-16131667D02*
X9776429Y-16122143D01*
X9795476Y-16093571D01*
X9805000Y-16074524D01*
X9814524Y-16045952D01*
X9824048Y-15998333D01*
X9824048Y-15960238D01*
X9814524Y-15912619D01*
X9805000Y-15884048D01*
X9795476Y-15865000D01*
X9776429Y-15836428D01*
X9766905Y-15826905D01*
X10128810Y-16131667D02*
X10119286Y-16122143D01*
X10100238Y-16093571D01*
X10090714Y-16074524D01*
X10081190Y-16045952D01*
X10071667Y-15998333D01*
X10071667Y-15960238D01*
X10081190Y-15912619D01*
X10090714Y-15884048D01*
X10100238Y-15865000D01*
X10119286Y-15836428D01*
X10128810Y-15826905D01*
X10205000Y-15922143D02*
X10205000Y-16055476D01*
X10205000Y-15941190D02*
X10214524Y-15931667D01*
X10233571Y-15922143D01*
X10262143Y-15922143D01*
X10281190Y-15931667D01*
X10290714Y-15950714D01*
X10290714Y-16055476D01*
X10414524Y-16055476D02*
X10395476Y-16045952D01*
X10385952Y-16036428D01*
X10376429Y-16017381D01*
X10376429Y-15960238D01*
X10385952Y-15941190D01*
X10395476Y-15931667D01*
X10414524Y-15922143D01*
X10443095Y-15922143D01*
X10462143Y-15931667D01*
X10471667Y-15941190D01*
X10481190Y-15960238D01*
X10481190Y-16017381D01*
X10471667Y-16036428D01*
X10462143Y-16045952D01*
X10443095Y-16055476D01*
X10414524Y-16055476D01*
X10538333Y-15922143D02*
X10614524Y-15922143D01*
X10566905Y-15855476D02*
X10566905Y-16026905D01*
X10576429Y-16045952D01*
X10595476Y-16055476D01*
X10614524Y-16055476D01*
X10833571Y-15922143D02*
X10833571Y-16122143D01*
X10833571Y-15931667D02*
X10852619Y-15922143D01*
X10890714Y-15922143D01*
X10909762Y-15931667D01*
X10919286Y-15941190D01*
X10928810Y-15960238D01*
X10928810Y-16017381D01*
X10919286Y-16036428D01*
X10909762Y-16045952D01*
X10890714Y-16055476D01*
X10852619Y-16055476D01*
X10833571Y-16045952D01*
X11043095Y-16055476D02*
X11024048Y-16045952D01*
X11014524Y-16026905D01*
X11014524Y-15855476D01*
X11205000Y-16055476D02*
X11205000Y-15950714D01*
X11195476Y-15931667D01*
X11176429Y-15922143D01*
X11138333Y-15922143D01*
X11119286Y-15931667D01*
X11205000Y-16045952D02*
X11185952Y-16055476D01*
X11138333Y-16055476D01*
X11119286Y-16045952D01*
X11109762Y-16026905D01*
X11109762Y-16007857D01*
X11119286Y-15988809D01*
X11138333Y-15979286D01*
X11185952Y-15979286D01*
X11205000Y-15969762D01*
X11271667Y-15922143D02*
X11347857Y-15922143D01*
X11300238Y-15855476D02*
X11300238Y-16026905D01*
X11309762Y-16045952D01*
X11328809Y-16055476D01*
X11347857Y-16055476D01*
X11490714Y-16045952D02*
X11471667Y-16055476D01*
X11433571Y-16055476D01*
X11414524Y-16045952D01*
X11405000Y-16026905D01*
X11405000Y-15950714D01*
X11414524Y-15931667D01*
X11433571Y-15922143D01*
X11471667Y-15922143D01*
X11490714Y-15931667D01*
X11500238Y-15950714D01*
X11500238Y-15969762D01*
X11405000Y-15988809D01*
X11671667Y-16055476D02*
X11671667Y-15855476D01*
X11671667Y-16045952D02*
X11652619Y-16055476D01*
X11614524Y-16055476D01*
X11595476Y-16045952D01*
X11585952Y-16036428D01*
X11576428Y-16017381D01*
X11576428Y-15960238D01*
X11585952Y-15941190D01*
X11595476Y-15931667D01*
X11614524Y-15922143D01*
X11652619Y-15922143D01*
X11671667Y-15931667D01*
X11747857Y-16131667D02*
X11757381Y-16122143D01*
X11776428Y-16093571D01*
X11785952Y-16074524D01*
X11795476Y-16045952D01*
X11805000Y-15998333D01*
X11805000Y-15960238D01*
X11795476Y-15912619D01*
X11785952Y-15884048D01*
X11776428Y-15865000D01*
X11757381Y-15836428D01*
X11747857Y-15826905D01*
M02*
