%TF.GenerationSoftware,KiCad,Pcbnew,(6.0.7)*%
%TF.CreationDate,2022-11-19T09:32:58+05:30*%
%TF.ProjectId,ESP32_Drive,45535033-325f-4447-9269-76652e6b6963,rev?*%
%TF.SameCoordinates,Original*%
%TF.FileFunction,Copper,L1,Top*%
%TF.FilePolarity,Positive*%
%FSLAX46Y46*%
G04 Gerber Fmt 4.6, Leading zero omitted, Abs format (unit mm)*
G04 Created by KiCad (PCBNEW (6.0.7)) date 2022-11-19 09:32:58*
%MOMM*%
%LPD*%
G01*
G04 APERTURE LIST*
G04 Aperture macros list*
%AMRoundRect*
0 Rectangle with rounded corners*
0 $1 Rounding radius*
0 $2 $3 $4 $5 $6 $7 $8 $9 X,Y pos of 4 corners*
0 Add a 4 corners polygon primitive as box body*
4,1,4,$2,$3,$4,$5,$6,$7,$8,$9,$2,$3,0*
0 Add four circle primitives for the rounded corners*
1,1,$1+$1,$2,$3*
1,1,$1+$1,$4,$5*
1,1,$1+$1,$6,$7*
1,1,$1+$1,$8,$9*
0 Add four rect primitives between the rounded corners*
20,1,$1+$1,$2,$3,$4,$5,0*
20,1,$1+$1,$4,$5,$6,$7,0*
20,1,$1+$1,$6,$7,$8,$9,0*
20,1,$1+$1,$8,$9,$2,$3,0*%
G04 Aperture macros list end*
%TA.AperFunction,EtchedComponent*%
%ADD10C,0.381000*%
%TD*%
%TA.AperFunction,ComponentPad*%
%ADD11R,3.000000X3.000000*%
%TD*%
%TA.AperFunction,ComponentPad*%
%ADD12C,3.000000*%
%TD*%
%TA.AperFunction,ComponentPad*%
%ADD13R,2.000000X2.000000*%
%TD*%
%TA.AperFunction,ComponentPad*%
%ADD14C,2.000000*%
%TD*%
%TA.AperFunction,SMDPad,CuDef*%
%ADD15RoundRect,0.250001X0.462499X0.624999X-0.462499X0.624999X-0.462499X-0.624999X0.462499X-0.624999X0*%
%TD*%
%TA.AperFunction,SMDPad,CuDef*%
%ADD16RoundRect,0.250000X0.450000X-0.350000X0.450000X0.350000X-0.450000X0.350000X-0.450000X-0.350000X0*%
%TD*%
%TA.AperFunction,SMDPad,CuDef*%
%ADD17RoundRect,0.250000X0.350000X0.450000X-0.350000X0.450000X-0.350000X-0.450000X0.350000X-0.450000X0*%
%TD*%
%TA.AperFunction,SMDPad,CuDef*%
%ADD18RoundRect,0.250001X-0.462499X-0.624999X0.462499X-0.624999X0.462499X0.624999X-0.462499X0.624999X0*%
%TD*%
%TA.AperFunction,ComponentPad*%
%ADD19R,1.700000X1.700000*%
%TD*%
%TA.AperFunction,ComponentPad*%
%ADD20O,1.700000X1.700000*%
%TD*%
%TA.AperFunction,SMDPad,CuDef*%
%ADD21RoundRect,0.250000X-0.350000X-0.450000X0.350000X-0.450000X0.350000X0.450000X-0.350000X0.450000X0*%
%TD*%
%TA.AperFunction,ComponentPad*%
%ADD22R,1.600000X1.600000*%
%TD*%
%TA.AperFunction,ComponentPad*%
%ADD23C,1.600000*%
%TD*%
%TA.AperFunction,ComponentPad*%
%ADD24C,1.800000*%
%TD*%
%TA.AperFunction,SMDPad,CuDef*%
%ADD25RoundRect,0.150000X0.150000X-0.825000X0.150000X0.825000X-0.150000X0.825000X-0.150000X-0.825000X0*%
%TD*%
%TA.AperFunction,ViaPad*%
%ADD26C,0.800000*%
%TD*%
%TA.AperFunction,Conductor*%
%ADD27C,0.500000*%
%TD*%
%TA.AperFunction,Conductor*%
%ADD28C,2.000000*%
%TD*%
G04 APERTURE END LIST*
D10*
%TO.C,REF\u002A\u002A*%
X132549720Y-72150560D02*
X131752160Y-74949640D01*
X131752160Y-74949640D02*
X132951040Y-71850840D01*
X131752160Y-74949640D02*
X131650560Y-74050480D01*
X131350840Y-72950660D02*
X132549720Y-72150560D01*
X132951040Y-71850840D02*
X132351600Y-72249620D01*
X132150940Y-69950920D02*
X131350840Y-72950660D01*
X131752160Y-74949640D02*
X132351600Y-74251140D01*
X132250000Y-68559000D02*
X136949000Y-75544000D01*
X131350840Y-72950660D02*
X132651320Y-70149040D01*
X136949000Y-75544000D02*
X127551000Y-75544000D01*
X127551000Y-75544000D02*
X132250000Y-68559000D01*
%TD*%
D11*
%TO.P,J2,1,Pin_1*%
%TO.N,GND*%
X54500000Y-75750000D03*
D12*
%TO.P,J2,2,Pin_2*%
%TO.N,Net-(J2-Pad2)*%
X54500000Y-80830000D03*
%TO.P,J2,3,Pin_3*%
%TO.N,Net-(J2-Pad3)*%
X54500000Y-85910000D03*
%TO.P,J2,4,Pin_4*%
%TO.N,+3V3*%
X54500000Y-90990000D03*
%TO.P,J2,5,Pin_5*%
%TO.N,+5V*%
X54500000Y-96070000D03*
%TD*%
D13*
%TO.P,U1,1,3V3*%
%TO.N,+3V3*%
X60485000Y-138927500D03*
D14*
%TO.P,U1,2,GND*%
%TO.N,GND*%
X63025000Y-138927500D03*
%TO.P,U1,3,D15*%
%TO.N,Net-(R6-Pad2)*%
X65565000Y-138927500D03*
%TO.P,U1,4,D2*%
%TO.N,unconnected-(U1-Pad4)*%
X68105000Y-138927500D03*
%TO.P,U1,5,D4*%
%TO.N,Net-(U1-Pad5)*%
X70645000Y-138927500D03*
%TO.P,U1,6,RX2*%
%TO.N,unconnected-(U1-Pad6)*%
X73185000Y-138927500D03*
%TO.P,U1,7,TX2*%
%TO.N,unconnected-(U1-Pad7)*%
X75725000Y-138927500D03*
%TO.P,U1,8,D5*%
%TO.N,CS*%
X78265000Y-138927500D03*
%TO.P,U1,9,D18*%
%TO.N,SCK*%
X80805000Y-138927500D03*
%TO.P,U1,10,D19*%
%TO.N,MISO*%
X83345000Y-138927500D03*
%TO.P,U1,11,D21*%
%TO.N,SDA*%
X85885000Y-138927500D03*
%TO.P,U1,12,RX0*%
%TO.N,unconnected-(U1-Pad12)*%
X88425000Y-138927500D03*
%TO.P,U1,13,TX0*%
%TO.N,unconnected-(U1-Pad13)*%
X90965000Y-138927500D03*
%TO.P,U1,14,D22*%
%TO.N,SCL*%
X93505000Y-138927500D03*
%TO.P,U1,15,D23*%
%TO.N,MOSI*%
X96045000Y-138927500D03*
%TO.P,U1,16,EN*%
%TO.N,unconnected-(U1-Pad16)*%
X96045000Y-113527500D03*
%TO.P,U1,17,VP*%
%TO.N,unconnected-(U1-Pad17)*%
X93505000Y-113527500D03*
%TO.P,U1,18,VN*%
%TO.N,unconnected-(U1-Pad18)*%
X90965000Y-113527500D03*
%TO.P,U1,19,D34*%
%TO.N,unconnected-(U1-Pad19)*%
X88425000Y-113527500D03*
%TO.P,U1,20,D35*%
%TO.N,unconnected-(U1-Pad20)*%
X85885000Y-113527500D03*
%TO.P,U1,21,D32*%
%TO.N,Relay2*%
X83345000Y-113527500D03*
%TO.P,U1,22,D33*%
%TO.N,Relay1*%
X80805000Y-113527500D03*
%TO.P,U1,23,D25*%
%TO.N,Buzz*%
X78265000Y-113527500D03*
%TO.P,U1,24,D26*%
%TO.N,Inp{slash}Out_Pin*%
X75725000Y-113527500D03*
%TO.P,U1,25,D27*%
%TO.N,motorDrive_Input*%
X73185000Y-113527500D03*
%TO.P,U1,26,D14*%
%TO.N,unconnected-(U1-Pad26)*%
X70645000Y-113527500D03*
%TO.P,U1,27,D12*%
%TO.N,unconnected-(U1-Pad27)*%
X68105000Y-113527500D03*
%TO.P,U1,28,D13*%
%TO.N,unconnected-(U1-Pad28)*%
X65565000Y-113527500D03*
%TO.P,U1,29,GND*%
%TO.N,GND*%
X63025000Y-113527500D03*
%TO.P,U1,30,VIN*%
%TO.N,+5V*%
X60485000Y-113527500D03*
%TD*%
D15*
%TO.P,D4,1,K*%
%TO.N,GND*%
X108750000Y-145750000D03*
%TO.P,D4,2,A*%
%TO.N,Net-(R6-Pad1)*%
X105775000Y-145750000D03*
%TD*%
%TO.P,D3,1,K*%
%TO.N,GND*%
X101750000Y-145750000D03*
%TO.P,D3,2,A*%
%TO.N,Net-(R5-Pad1)*%
X98775000Y-145750000D03*
%TD*%
D16*
%TO.P,R6,1*%
%TO.N,Net-(R6-Pad1)*%
X65500000Y-145500000D03*
%TO.P,R6,2*%
%TO.N,Net-(R6-Pad2)*%
X65500000Y-143500000D03*
%TD*%
%TO.P,R5,1*%
%TO.N,Net-(R5-Pad1)*%
X70750000Y-145500000D03*
%TO.P,R5,2*%
%TO.N,Net-(U1-Pad5)*%
X70750000Y-143500000D03*
%TD*%
D13*
%TO.P,BZ1,1,-*%
%TO.N,+5V*%
X101750000Y-103250000D03*
D14*
%TO.P,BZ1,2,+*%
%TO.N,O3*%
X94150000Y-103250000D03*
%TD*%
D17*
%TO.P,R4,1*%
%TO.N,Inp{slash}Out_Pin*%
X71000000Y-102000000D03*
%TO.P,R4,2*%
%TO.N,Net-(J2-Pad2)*%
X69000000Y-102000000D03*
%TD*%
D11*
%TO.P,J1,1,Pin_1*%
%TO.N,/L*%
X124080000Y-64250000D03*
D12*
%TO.P,J1,2,Pin_2*%
%TO.N,/N*%
X119000000Y-64250000D03*
%TO.P,J1,3,Pin_3*%
%TO.N,Earth_Clean*%
X113920000Y-64250000D03*
%TD*%
D18*
%TO.P,D1,1,K*%
%TO.N,O1*%
X71012500Y-95000000D03*
%TO.P,D1,2,A*%
%TO.N,Net-(D1-Pad2)*%
X73987500Y-95000000D03*
%TD*%
D19*
%TO.P,J5,1,Pin_1*%
%TO.N,+3V3*%
X76550000Y-144100000D03*
D20*
%TO.P,J5,2,Pin_2*%
%TO.N,CS*%
X79090000Y-144100000D03*
%TO.P,J5,3,Pin_3*%
%TO.N,SCK*%
X81630000Y-144100000D03*
%TO.P,J5,4,Pin_4*%
%TO.N,MISO*%
X84170000Y-144100000D03*
%TO.P,J5,5,Pin_5*%
%TO.N,MOSI*%
X86710000Y-144100000D03*
%TO.P,J5,6,Pin_6*%
%TO.N,GND*%
X89250000Y-144100000D03*
%TD*%
D21*
%TO.P,R2,1*%
%TO.N,Net-(D2-Pad2)*%
X97000000Y-95000000D03*
%TO.P,R2,2*%
%TO.N,+5V*%
X99000000Y-95000000D03*
%TD*%
D22*
%TO.P,C1,1*%
%TO.N,+5V*%
X111097349Y-137250000D03*
D23*
%TO.P,C1,2*%
%TO.N,GND*%
X114597349Y-137250000D03*
%TD*%
D24*
%TO.P,RV1,1*%
%TO.N,/L*%
X125750000Y-79700000D03*
%TO.P,RV1,2*%
%TO.N,/N*%
X118250000Y-78300000D03*
%TD*%
D12*
%TO.P,K2,11*%
%TO.N,Net-(J4-Pad2)*%
X94500000Y-90050000D03*
%TO.P,K2,12*%
%TO.N,unconnected-(K2-Pad12)*%
X88500000Y-75850000D03*
%TO.P,K2,14*%
%TO.N,Net-(J4-Pad1)*%
X100500000Y-75850000D03*
%TO.P,K2,A1*%
%TO.N,+5V*%
X100500000Y-88050000D03*
%TO.P,K2,A2*%
%TO.N,O2*%
X88500000Y-88050000D03*
%TD*%
D18*
%TO.P,D2,1,K*%
%TO.N,O2*%
X89512500Y-95000000D03*
%TO.P,D2,2,A*%
%TO.N,Net-(D2-Pad2)*%
X92487500Y-95000000D03*
%TD*%
D17*
%TO.P,R3,1*%
%TO.N,motorDrive_Input*%
X71000000Y-106000000D03*
%TO.P,R3,2*%
%TO.N,Net-(J2-Pad3)*%
X69000000Y-106000000D03*
%TD*%
D25*
%TO.P,U2,1,I1*%
%TO.N,Relay1*%
X79555000Y-106475000D03*
%TO.P,U2,2,I2*%
%TO.N,Relay2*%
X80825000Y-106475000D03*
%TO.P,U2,3,I3*%
%TO.N,Buzz*%
X82095000Y-106475000D03*
%TO.P,U2,4,I4*%
%TO.N,unconnected-(U2-Pad4)*%
X83365000Y-106475000D03*
%TO.P,U2,5,I5*%
%TO.N,unconnected-(U2-Pad5)*%
X84635000Y-106475000D03*
%TO.P,U2,6,I6*%
%TO.N,unconnected-(U2-Pad6)*%
X85905000Y-106475000D03*
%TO.P,U2,7,I7*%
%TO.N,unconnected-(U2-Pad7)*%
X87175000Y-106475000D03*
%TO.P,U2,8,GND*%
%TO.N,GND*%
X88445000Y-106475000D03*
%TO.P,U2,9,COM*%
%TO.N,+5V*%
X88445000Y-101525000D03*
%TO.P,U2,10,O7*%
%TO.N,unconnected-(U2-Pad10)*%
X87175000Y-101525000D03*
%TO.P,U2,11,O6*%
%TO.N,unconnected-(U2-Pad11)*%
X85905000Y-101525000D03*
%TO.P,U2,12,O5*%
%TO.N,unconnected-(U2-Pad12)*%
X84635000Y-101525000D03*
%TO.P,U2,13,O4*%
%TO.N,unconnected-(U2-Pad13)*%
X83365000Y-101525000D03*
%TO.P,U2,14,O3*%
%TO.N,O3*%
X82095000Y-101525000D03*
%TO.P,U2,15,O2*%
%TO.N,O2*%
X80825000Y-101525000D03*
%TO.P,U2,16,O1*%
%TO.N,O1*%
X79555000Y-101525000D03*
%TD*%
D21*
%TO.P,R1,1*%
%TO.N,Net-(D1-Pad2)*%
X78500000Y-95000000D03*
%TO.P,R1,2*%
%TO.N,+5V*%
X80500000Y-95000000D03*
%TD*%
D12*
%TO.P,K1,11*%
%TO.N,Net-(J3-Pad2)*%
X76000000Y-90050000D03*
%TO.P,K1,12*%
%TO.N,unconnected-(K1-Pad12)*%
X70000000Y-75850000D03*
%TO.P,K1,14*%
%TO.N,Net-(J3-Pad1)*%
X82000000Y-75850000D03*
%TO.P,K1,A1*%
%TO.N,+5V*%
X82000000Y-88050000D03*
%TO.P,K1,A2*%
%TO.N,O1*%
X70000000Y-88050000D03*
%TD*%
D11*
%TO.P,J4,1,Pin_1*%
%TO.N,Net-(J4-Pad1)*%
X97040000Y-64250000D03*
D12*
%TO.P,J4,2,Pin_2*%
%TO.N,Net-(J4-Pad2)*%
X91960000Y-64250000D03*
%TD*%
D14*
%TO.P,PS1,1,AC/L*%
%TO.N,/L*%
X126400000Y-87050000D03*
%TO.P,PS1,2,AC/N*%
%TO.N,/N*%
X118600000Y-87050000D03*
%TO.P,PS1,3,-Vout*%
%TO.N,GND*%
X133900000Y-129550000D03*
%TO.P,PS1,4,+Vout*%
%TO.N,+5V*%
X111100000Y-129550000D03*
%TD*%
D11*
%TO.P,J3,1,Pin_1*%
%TO.N,Net-(J3-Pad1)*%
X78540000Y-64250000D03*
D12*
%TO.P,J3,2,Pin_2*%
%TO.N,Net-(J3-Pad2)*%
X73460000Y-64250000D03*
%TD*%
D26*
%TO.N,+5V*%
X88500000Y-99750000D03*
%TD*%
D27*
%TO.N,Net-(J2-Pad2)*%
X60830000Y-80830000D02*
X54500000Y-80830000D01*
X64000000Y-84000000D02*
X60830000Y-80830000D01*
%TO.N,Net-(J2-Pad3)*%
X62000000Y-89250000D02*
X58660000Y-85910000D01*
X58660000Y-85910000D02*
X54500000Y-85910000D01*
X69000000Y-106000000D02*
X64750000Y-106000000D01*
X64750000Y-106000000D02*
X62000000Y-103250000D01*
X62000000Y-103250000D02*
X62000000Y-89250000D01*
D28*
%TO.N,+5V*%
X54500000Y-102250000D02*
X54500000Y-96070000D01*
X60485000Y-108235000D02*
X54500000Y-102250000D01*
X60485000Y-113527500D02*
X60485000Y-108235000D01*
D27*
%TO.N,Net-(J2-Pad2)*%
X69000000Y-102000000D02*
X66000000Y-102000000D01*
X64000000Y-100000000D02*
X64000000Y-84000000D01*
X66000000Y-102000000D02*
X64000000Y-100000000D01*
%TO.N,Net-(R6-Pad1)*%
X103025000Y-148500000D02*
X105775000Y-145750000D01*
X66500000Y-148500000D02*
X103025000Y-148500000D01*
%TO.N,Net-(R5-Pad1)*%
X71250000Y-147250000D02*
X70750000Y-146750000D01*
X70750000Y-146750000D02*
X70750000Y-145500000D01*
X92750000Y-147250000D02*
X71250000Y-147250000D01*
X94250000Y-145750000D02*
X92750000Y-147250000D01*
X98775000Y-145750000D02*
X94250000Y-145750000D01*
%TO.N,Net-(R6-Pad1)*%
X65500000Y-147500000D02*
X66500000Y-148500000D01*
X65500000Y-145500000D02*
X65500000Y-147500000D01*
%TO.N,Net-(U1-Pad5)*%
X70645000Y-143395000D02*
X70750000Y-143500000D01*
X70645000Y-138927500D02*
X70645000Y-143395000D01*
%TO.N,Net-(R6-Pad2)*%
X65500000Y-138992500D02*
X65565000Y-138927500D01*
X65500000Y-143500000D02*
X65500000Y-138992500D01*
%TO.N,+5V*%
X101750000Y-101750000D02*
X99000000Y-99000000D01*
X101750000Y-103250000D02*
X101750000Y-101750000D01*
%TO.N,O3*%
X83000000Y-104000000D02*
X93400000Y-104000000D01*
X93400000Y-104000000D02*
X94150000Y-103250000D01*
X82095000Y-103095000D02*
X83000000Y-104000000D01*
X82095000Y-101525000D02*
X82095000Y-103095000D01*
%TO.N,Buzz*%
X82095000Y-105095000D02*
X82095000Y-106475000D01*
X81000000Y-104000000D02*
X82095000Y-105095000D01*
X78250000Y-104000000D02*
X81000000Y-104000000D01*
X77500000Y-104750000D02*
X78250000Y-104000000D01*
X77500000Y-110750000D02*
X77500000Y-104750000D01*
X78265000Y-111515000D02*
X77500000Y-110750000D01*
X78265000Y-113527500D02*
X78265000Y-111515000D01*
D28*
%TO.N,+5V*%
X111100000Y-137247349D02*
X111097349Y-137250000D01*
X111100000Y-129550000D02*
X111100000Y-137247349D01*
D27*
X99000000Y-95000000D02*
X99000000Y-99000000D01*
X88445000Y-99805000D02*
X88500000Y-99750000D01*
X80500000Y-95000000D02*
X82000000Y-93500000D01*
X96475000Y-101525000D02*
X88445000Y-101525000D01*
X100500000Y-93500000D02*
X100500000Y-88050000D01*
X82000000Y-93500000D02*
X82000000Y-88050000D01*
X99000000Y-99000000D02*
X96475000Y-101525000D01*
X88445000Y-101525000D02*
X88445000Y-99805000D01*
X99000000Y-95000000D02*
X100500000Y-93500000D01*
%TO.N,O2*%
X89512500Y-95000000D02*
X88500000Y-93987500D01*
X88500000Y-93987500D02*
X88500000Y-88050000D01*
X81750000Y-98250000D02*
X88500000Y-98250000D01*
X80825000Y-99175000D02*
X81750000Y-98250000D01*
X80825000Y-101525000D02*
X80825000Y-99175000D01*
X88500000Y-98250000D02*
X89512500Y-97237500D01*
X89512500Y-97237500D02*
X89512500Y-95000000D01*
%TO.N,Net-(D1-Pad2)*%
X73987500Y-95000000D02*
X78500000Y-95000000D01*
%TO.N,O1*%
X71012500Y-95000000D02*
X71012500Y-91262500D01*
X70000000Y-90250000D02*
X70000000Y-88050000D01*
X71012500Y-97012500D02*
X71012500Y-95000000D01*
X71012500Y-91262500D02*
X70000000Y-90250000D01*
X79555000Y-99305000D02*
X78500000Y-98250000D01*
X79555000Y-101525000D02*
X79555000Y-99305000D01*
X72250000Y-98250000D02*
X71012500Y-97012500D01*
X78500000Y-98250000D02*
X72250000Y-98250000D01*
%TO.N,Net-(D2-Pad2)*%
X92487500Y-95000000D02*
X97000000Y-95000000D01*
D28*
%TO.N,Net-(J3-Pad1)*%
X82000000Y-75850000D02*
X82000000Y-67710000D01*
X82000000Y-67710000D02*
X78540000Y-64250000D01*
%TO.N,Net-(J3-Pad2)*%
X76000000Y-90050000D02*
X76000000Y-74250000D01*
X76000000Y-74250000D02*
X73460000Y-71710000D01*
X73460000Y-71710000D02*
X73460000Y-64250000D01*
%TO.N,Net-(J4-Pad1)*%
X100500000Y-67710000D02*
X97040000Y-64250000D01*
X100500000Y-75850000D02*
X100500000Y-67710000D01*
%TO.N,Net-(J4-Pad2)*%
X94500000Y-90050000D02*
X94500000Y-74500000D01*
X91960000Y-71960000D02*
X91960000Y-64250000D01*
X94500000Y-74500000D02*
X91960000Y-71960000D01*
D27*
%TO.N,motorDrive_Input*%
X73185000Y-108185000D02*
X73185000Y-113527500D01*
X71000000Y-106000000D02*
X73185000Y-108185000D01*
%TO.N,Relay1*%
X79555000Y-109805000D02*
X80805000Y-111055000D01*
X80805000Y-111055000D02*
X80805000Y-113527500D01*
X79555000Y-106475000D02*
X79555000Y-109805000D01*
%TO.N,Relay2*%
X80825000Y-106475000D02*
X80825000Y-108325000D01*
X83345000Y-110845000D02*
X83345000Y-113527500D01*
X80825000Y-108325000D02*
X83345000Y-110845000D01*
%TO.N,Inp{slash}Out_Pin*%
X75725000Y-106725000D02*
X75725000Y-113527500D01*
X71000000Y-102000000D02*
X75725000Y-106725000D01*
%TO.N,CS*%
X79090000Y-144100000D02*
X79090000Y-139752500D01*
X79090000Y-139752500D02*
X78265000Y-138927500D01*
%TO.N,SCK*%
X81630000Y-139752500D02*
X80805000Y-138927500D01*
X81630000Y-144100000D02*
X81630000Y-139752500D01*
%TO.N,MISO*%
X84170000Y-144100000D02*
X84170000Y-139752500D01*
X84170000Y-139752500D02*
X83345000Y-138927500D01*
%TO.N,MOSI*%
X86710000Y-144100000D02*
X86710000Y-142290000D01*
X96045000Y-140205000D02*
X96045000Y-138927500D01*
X94750000Y-141500000D02*
X96045000Y-140205000D01*
X86710000Y-142290000D02*
X87500000Y-141500000D01*
X87500000Y-141500000D02*
X94750000Y-141500000D01*
D28*
%TO.N,/N*%
X119000000Y-77550000D02*
X118250000Y-78300000D01*
X118250000Y-78300000D02*
X118250000Y-86700000D01*
X118250000Y-86700000D02*
X118600000Y-87050000D01*
X119000000Y-64250000D02*
X119000000Y-77550000D01*
%TO.N,/L*%
X124080000Y-64250000D02*
X124080000Y-78030000D01*
X124080000Y-78030000D02*
X125750000Y-79700000D01*
X125750000Y-86400000D02*
X126400000Y-87050000D01*
X125750000Y-79700000D02*
X125750000Y-86400000D01*
%TD*%
%TA.AperFunction,Conductor*%
%TO.N,GND*%
G36*
X65942121Y-71020002D02*
G01*
X65988614Y-71073658D01*
X66000000Y-71126000D01*
X66000000Y-93000000D01*
X70128000Y-93000000D01*
X70196121Y-93020002D01*
X70242614Y-93073658D01*
X70254000Y-93126000D01*
X70254000Y-93595955D01*
X70233998Y-93664076D01*
X70194307Y-93703096D01*
X70075652Y-93776522D01*
X70070479Y-93781704D01*
X70050456Y-93801762D01*
X69950695Y-93901697D01*
X69946855Y-93907927D01*
X69946854Y-93907928D01*
X69866514Y-94038264D01*
X69857885Y-94052262D01*
X69802203Y-94220139D01*
X69801503Y-94226975D01*
X69801502Y-94226978D01*
X69800014Y-94241500D01*
X69791500Y-94324600D01*
X69791500Y-95675400D01*
X69791837Y-95678646D01*
X69791837Y-95678650D01*
X69801600Y-95772738D01*
X69802474Y-95781165D01*
X69804655Y-95787701D01*
X69804655Y-95787703D01*
X69823715Y-95844833D01*
X69858450Y-95948945D01*
X69951522Y-96099348D01*
X70076697Y-96224305D01*
X70194117Y-96296684D01*
X70241609Y-96349455D01*
X70254000Y-96403943D01*
X70254000Y-96945430D01*
X70252567Y-96964380D01*
X70249301Y-96985849D01*
X70249894Y-96993141D01*
X70249894Y-96993144D01*
X70253585Y-97038518D01*
X70254000Y-97048733D01*
X70254000Y-97056793D01*
X70254425Y-97060437D01*
X70257289Y-97085007D01*
X70257722Y-97089382D01*
X70263640Y-97162137D01*
X70265896Y-97169101D01*
X70267087Y-97175060D01*
X70268471Y-97180915D01*
X70269318Y-97188181D01*
X70294235Y-97256827D01*
X70295652Y-97260955D01*
X70315019Y-97320736D01*
X70318149Y-97330399D01*
X70321945Y-97336654D01*
X70324451Y-97342128D01*
X70327170Y-97347558D01*
X70329667Y-97354437D01*
X70333680Y-97360557D01*
X70333680Y-97360558D01*
X70369686Y-97415476D01*
X70372023Y-97419180D01*
X70409905Y-97481607D01*
X70413621Y-97485815D01*
X70413622Y-97485816D01*
X70417303Y-97489984D01*
X70417276Y-97490008D01*
X70419929Y-97493000D01*
X70422632Y-97496233D01*
X70426644Y-97502352D01*
X70431956Y-97507384D01*
X70482883Y-97555628D01*
X70485325Y-97558006D01*
X71666230Y-98738911D01*
X71678616Y-98753323D01*
X71687149Y-98764918D01*
X71687154Y-98764923D01*
X71691492Y-98770818D01*
X71697070Y-98775557D01*
X71697073Y-98775560D01*
X71731768Y-98805035D01*
X71739284Y-98811965D01*
X71744979Y-98817660D01*
X71747861Y-98819940D01*
X71767251Y-98835281D01*
X71770655Y-98838072D01*
X71820703Y-98880591D01*
X71826285Y-98885333D01*
X71832801Y-98888661D01*
X71837850Y-98892028D01*
X71842979Y-98895195D01*
X71848716Y-98899734D01*
X71914875Y-98930655D01*
X71918769Y-98932558D01*
X71983808Y-98965769D01*
X71990916Y-98967508D01*
X71996559Y-98969607D01*
X72002322Y-98971524D01*
X72008950Y-98974622D01*
X72016112Y-98976112D01*
X72016113Y-98976112D01*
X72080412Y-98989486D01*
X72084696Y-98990456D01*
X72155610Y-99007808D01*
X72161212Y-99008156D01*
X72161215Y-99008156D01*
X72166764Y-99008500D01*
X72166762Y-99008536D01*
X72170755Y-99008775D01*
X72174947Y-99009149D01*
X72182115Y-99010640D01*
X72259520Y-99008546D01*
X72262928Y-99008500D01*
X78133629Y-99008500D01*
X78201750Y-99028502D01*
X78222724Y-99045405D01*
X78759595Y-99582276D01*
X78793621Y-99644588D01*
X78796500Y-99671371D01*
X78796500Y-100416246D01*
X78791497Y-100451398D01*
X78764157Y-100545506D01*
X78749438Y-100596169D01*
X78746500Y-100633498D01*
X78746500Y-102416502D01*
X78749438Y-102453831D01*
X78763817Y-102503323D01*
X78784543Y-102574663D01*
X78795855Y-102613601D01*
X78799892Y-102620427D01*
X78876509Y-102749980D01*
X78876511Y-102749983D01*
X78880547Y-102756807D01*
X78998193Y-102874453D01*
X79005017Y-102878489D01*
X79005020Y-102878491D01*
X79101957Y-102935819D01*
X79141399Y-102959145D01*
X79149010Y-102961356D01*
X79149012Y-102961357D01*
X79263103Y-102994503D01*
X79322938Y-103032716D01*
X79352616Y-103097212D01*
X79342713Y-103167514D01*
X79296373Y-103221303D01*
X79227950Y-103241500D01*
X78317069Y-103241500D01*
X78298121Y-103240067D01*
X78290780Y-103238950D01*
X78283883Y-103237901D01*
X78283881Y-103237901D01*
X78276651Y-103236801D01*
X78269359Y-103237394D01*
X78269356Y-103237394D01*
X78223982Y-103241085D01*
X78213767Y-103241500D01*
X78205707Y-103241500D01*
X78192417Y-103243049D01*
X78177493Y-103244789D01*
X78173118Y-103245222D01*
X78107661Y-103250546D01*
X78107658Y-103250547D01*
X78100363Y-103251140D01*
X78093399Y-103253396D01*
X78087440Y-103254587D01*
X78081585Y-103255971D01*
X78074319Y-103256818D01*
X78005673Y-103281735D01*
X78001545Y-103283152D01*
X77939064Y-103303393D01*
X77939062Y-103303394D01*
X77932101Y-103305649D01*
X77925846Y-103309445D01*
X77920372Y-103311951D01*
X77914942Y-103314670D01*
X77908063Y-103317167D01*
X77901943Y-103321180D01*
X77901942Y-103321180D01*
X77847024Y-103357186D01*
X77843320Y-103359523D01*
X77780893Y-103397405D01*
X77772516Y-103404803D01*
X77772492Y-103404776D01*
X77769500Y-103407429D01*
X77766267Y-103410132D01*
X77760148Y-103414144D01*
X77755116Y-103419456D01*
X77706872Y-103470383D01*
X77704494Y-103472825D01*
X77011089Y-104166230D01*
X76996677Y-104178616D01*
X76985082Y-104187149D01*
X76985077Y-104187154D01*
X76979182Y-104191492D01*
X76974443Y-104197070D01*
X76974440Y-104197073D01*
X76944965Y-104231768D01*
X76938035Y-104239284D01*
X76932340Y-104244979D01*
X76930060Y-104247861D01*
X76914719Y-104267251D01*
X76911928Y-104270655D01*
X76891486Y-104294717D01*
X76864667Y-104326285D01*
X76861339Y-104332801D01*
X76857972Y-104337850D01*
X76854805Y-104342979D01*
X76850266Y-104348716D01*
X76819345Y-104414875D01*
X76817442Y-104418769D01*
X76784231Y-104483808D01*
X76782492Y-104490916D01*
X76780393Y-104496559D01*
X76778476Y-104502322D01*
X76775378Y-104508950D01*
X76773888Y-104516112D01*
X76773888Y-104516113D01*
X76760514Y-104580412D01*
X76759544Y-104584696D01*
X76742192Y-104655610D01*
X76741500Y-104666764D01*
X76741464Y-104666762D01*
X76741225Y-104670755D01*
X76740851Y-104674947D01*
X76739360Y-104682115D01*
X76739946Y-104703767D01*
X76741454Y-104759521D01*
X76741500Y-104762928D01*
X76741500Y-110682930D01*
X76740067Y-110701880D01*
X76738366Y-110713063D01*
X76736801Y-110723349D01*
X76737394Y-110730641D01*
X76737394Y-110730644D01*
X76741085Y-110776018D01*
X76741500Y-110786233D01*
X76741500Y-110794293D01*
X76741925Y-110797937D01*
X76744789Y-110822507D01*
X76745222Y-110826882D01*
X76748928Y-110872440D01*
X76751140Y-110899637D01*
X76753396Y-110906601D01*
X76754587Y-110912560D01*
X76755971Y-110918415D01*
X76756818Y-110925681D01*
X76781735Y-110994327D01*
X76783152Y-110998455D01*
X76798520Y-111045892D01*
X76805649Y-111067899D01*
X76809445Y-111074154D01*
X76811951Y-111079628D01*
X76814670Y-111085058D01*
X76817167Y-111091937D01*
X76821180Y-111098057D01*
X76821180Y-111098058D01*
X76857186Y-111152976D01*
X76859523Y-111156680D01*
X76897405Y-111219107D01*
X76901121Y-111223315D01*
X76901122Y-111223316D01*
X76904803Y-111227484D01*
X76904776Y-111227508D01*
X76907429Y-111230500D01*
X76910132Y-111233733D01*
X76914144Y-111239852D01*
X76919456Y-111244884D01*
X76970383Y-111293128D01*
X76972825Y-111295506D01*
X77469595Y-111792276D01*
X77503621Y-111854588D01*
X77506500Y-111881371D01*
X77506500Y-112152535D01*
X77486498Y-112220656D01*
X77446337Y-112259966D01*
X77375584Y-112303324D01*
X77371822Y-112306537D01*
X77301862Y-112366289D01*
X77195031Y-112457531D01*
X77191823Y-112461287D01*
X77191818Y-112461292D01*
X77090811Y-112579556D01*
X77031361Y-112618366D01*
X76960366Y-112618872D01*
X76899189Y-112579556D01*
X76798182Y-112461292D01*
X76798177Y-112461287D01*
X76794969Y-112457531D01*
X76688139Y-112366289D01*
X76618178Y-112306537D01*
X76614416Y-112303324D01*
X76543664Y-112259967D01*
X76496033Y-112207319D01*
X76483500Y-112152535D01*
X76483500Y-106792070D01*
X76484933Y-106773120D01*
X76487099Y-106758885D01*
X76487099Y-106758881D01*
X76488199Y-106751651D01*
X76487289Y-106740457D01*
X76483915Y-106698982D01*
X76483500Y-106688767D01*
X76483500Y-106680707D01*
X76480211Y-106652493D01*
X76479778Y-106648118D01*
X76474454Y-106582661D01*
X76474453Y-106582658D01*
X76473860Y-106575363D01*
X76471604Y-106568399D01*
X76470413Y-106562440D01*
X76469029Y-106556585D01*
X76468182Y-106549319D01*
X76443265Y-106480673D01*
X76441848Y-106476545D01*
X76421607Y-106414064D01*
X76421606Y-106414062D01*
X76419351Y-106407101D01*
X76415555Y-106400846D01*
X76413049Y-106395372D01*
X76410330Y-106389942D01*
X76407833Y-106383063D01*
X76367814Y-106322024D01*
X76365467Y-106318305D01*
X76327595Y-106255893D01*
X76320197Y-106247516D01*
X76320224Y-106247492D01*
X76317571Y-106244500D01*
X76314868Y-106241267D01*
X76310856Y-106235148D01*
X76254617Y-106181872D01*
X76252175Y-106179494D01*
X72145405Y-102072724D01*
X72111379Y-102010412D01*
X72108500Y-101983629D01*
X72108500Y-101499600D01*
X72102219Y-101439064D01*
X72098238Y-101400692D01*
X72098237Y-101400688D01*
X72097526Y-101393834D01*
X72080671Y-101343312D01*
X72043868Y-101233002D01*
X72041550Y-101226054D01*
X71948478Y-101075652D01*
X71823303Y-100950695D01*
X71817072Y-100946854D01*
X71678968Y-100861725D01*
X71678966Y-100861724D01*
X71672738Y-100857885D01*
X71512254Y-100804655D01*
X71511389Y-100804368D01*
X71511387Y-100804368D01*
X71504861Y-100802203D01*
X71498025Y-100801503D01*
X71498022Y-100801502D01*
X71454969Y-100797091D01*
X71400400Y-100791500D01*
X70599600Y-100791500D01*
X70596354Y-100791837D01*
X70596350Y-100791837D01*
X70500692Y-100801762D01*
X70500688Y-100801763D01*
X70493834Y-100802474D01*
X70487298Y-100804655D01*
X70487296Y-100804655D01*
X70355194Y-100848728D01*
X70326054Y-100858450D01*
X70175652Y-100951522D01*
X70170479Y-100956704D01*
X70089216Y-101038109D01*
X70026934Y-101072188D01*
X69956114Y-101067185D01*
X69911025Y-101038264D01*
X69828483Y-100955866D01*
X69823303Y-100950695D01*
X69817072Y-100946854D01*
X69678968Y-100861725D01*
X69678966Y-100861724D01*
X69672738Y-100857885D01*
X69512254Y-100804655D01*
X69511389Y-100804368D01*
X69511387Y-100804368D01*
X69504861Y-100802203D01*
X69498025Y-100801503D01*
X69498022Y-100801502D01*
X69454969Y-100797091D01*
X69400400Y-100791500D01*
X68599600Y-100791500D01*
X68596354Y-100791837D01*
X68596350Y-100791837D01*
X68500692Y-100801762D01*
X68500688Y-100801763D01*
X68493834Y-100802474D01*
X68487298Y-100804655D01*
X68487296Y-100804655D01*
X68355194Y-100848728D01*
X68326054Y-100858450D01*
X68175652Y-100951522D01*
X68050695Y-101076697D01*
X68046855Y-101082927D01*
X68046854Y-101082928D01*
X67986022Y-101181616D01*
X67933250Y-101229109D01*
X67878762Y-101241500D01*
X66366371Y-101241500D01*
X66298250Y-101221498D01*
X66277276Y-101204595D01*
X64795405Y-99722724D01*
X64761379Y-99660412D01*
X64758500Y-99633629D01*
X64758500Y-84067070D01*
X64759933Y-84048120D01*
X64762099Y-84033885D01*
X64762099Y-84033881D01*
X64763199Y-84026651D01*
X64762319Y-84015825D01*
X64758915Y-83973982D01*
X64758500Y-83963767D01*
X64758500Y-83955707D01*
X64756264Y-83936525D01*
X64755211Y-83927493D01*
X64754778Y-83923118D01*
X64749454Y-83857661D01*
X64749453Y-83857658D01*
X64748860Y-83850363D01*
X64746604Y-83843399D01*
X64745413Y-83837440D01*
X64744029Y-83831585D01*
X64743182Y-83824319D01*
X64718265Y-83755673D01*
X64716848Y-83751545D01*
X64696607Y-83689064D01*
X64696606Y-83689062D01*
X64694351Y-83682101D01*
X64690555Y-83675846D01*
X64688049Y-83670372D01*
X64685330Y-83664942D01*
X64682833Y-83658063D01*
X64642814Y-83597024D01*
X64640467Y-83593305D01*
X64602595Y-83530893D01*
X64595197Y-83522516D01*
X64595224Y-83522492D01*
X64592571Y-83519500D01*
X64589868Y-83516267D01*
X64585856Y-83510148D01*
X64529617Y-83456872D01*
X64527175Y-83454494D01*
X61413770Y-80341089D01*
X61401384Y-80326677D01*
X61392851Y-80315082D01*
X61392846Y-80315077D01*
X61388508Y-80309182D01*
X61382930Y-80304443D01*
X61382927Y-80304440D01*
X61348232Y-80274965D01*
X61340716Y-80268035D01*
X61335021Y-80262340D01*
X61328880Y-80257482D01*
X61312749Y-80244719D01*
X61309345Y-80241928D01*
X61259297Y-80199409D01*
X61259295Y-80199408D01*
X61253715Y-80194667D01*
X61247199Y-80191339D01*
X61242150Y-80187972D01*
X61237021Y-80184805D01*
X61231284Y-80180266D01*
X61165125Y-80149345D01*
X61161225Y-80147439D01*
X61096192Y-80114231D01*
X61089084Y-80112492D01*
X61083441Y-80110393D01*
X61077678Y-80108476D01*
X61071050Y-80105378D01*
X60999583Y-80090513D01*
X60995299Y-80089543D01*
X60924390Y-80072192D01*
X60918788Y-80071844D01*
X60918785Y-80071844D01*
X60913236Y-80071500D01*
X60913238Y-80071464D01*
X60909245Y-80071225D01*
X60905053Y-80070851D01*
X60897885Y-80069360D01*
X60831675Y-80071151D01*
X60820479Y-80071454D01*
X60817072Y-80071500D01*
X56445557Y-80071500D01*
X56377436Y-80051498D01*
X56333591Y-80003290D01*
X56223978Y-79790919D01*
X56223978Y-79790918D01*
X56222013Y-79787112D01*
X56212040Y-79772921D01*
X56067008Y-79566562D01*
X56064545Y-79563057D01*
X55966953Y-79458035D01*
X55881046Y-79365588D01*
X55881043Y-79365585D01*
X55878125Y-79362445D01*
X55874810Y-79359731D01*
X55874806Y-79359728D01*
X55669523Y-79191706D01*
X55666205Y-79188990D01*
X55478905Y-79074213D01*
X55436366Y-79048145D01*
X55436365Y-79048145D01*
X55432704Y-79045901D01*
X55428768Y-79044173D01*
X55185873Y-78937549D01*
X55185869Y-78937548D01*
X55181945Y-78935825D01*
X54918566Y-78860800D01*
X54914324Y-78860196D01*
X54914318Y-78860195D01*
X54713834Y-78831662D01*
X54647443Y-78822213D01*
X54503589Y-78821460D01*
X54377877Y-78820802D01*
X54377871Y-78820802D01*
X54373591Y-78820780D01*
X54369347Y-78821339D01*
X54369343Y-78821339D01*
X54250302Y-78837011D01*
X54102078Y-78856525D01*
X54097938Y-78857658D01*
X54097936Y-78857658D01*
X54062720Y-78867292D01*
X53837928Y-78928788D01*
X53833980Y-78930472D01*
X53589982Y-79034546D01*
X53589978Y-79034548D01*
X53586030Y-79036232D01*
X53522568Y-79074213D01*
X53354725Y-79174664D01*
X53354721Y-79174667D01*
X53351043Y-79176868D01*
X53137318Y-79348094D01*
X53032988Y-79458035D01*
X52955544Y-79539644D01*
X52948808Y-79546742D01*
X52789002Y-79769136D01*
X52660857Y-80011161D01*
X52659385Y-80015184D01*
X52659383Y-80015188D01*
X52568214Y-80264317D01*
X52566743Y-80268337D01*
X52508404Y-80535907D01*
X52486917Y-80808918D01*
X52502682Y-81082320D01*
X52503507Y-81086525D01*
X52503508Y-81086533D01*
X52533917Y-81241526D01*
X52555405Y-81351053D01*
X52556792Y-81355103D01*
X52556793Y-81355108D01*
X52642723Y-81606088D01*
X52644112Y-81610144D01*
X52767160Y-81854799D01*
X52769586Y-81858328D01*
X52769589Y-81858334D01*
X52919843Y-82076953D01*
X52922274Y-82080490D01*
X53106582Y-82283043D01*
X53316675Y-82458707D01*
X53320316Y-82460991D01*
X53545024Y-82601951D01*
X53545028Y-82601953D01*
X53548664Y-82604234D01*
X53616544Y-82634883D01*
X53794345Y-82715164D01*
X53794349Y-82715166D01*
X53798257Y-82716930D01*
X53802377Y-82718150D01*
X53802376Y-82718150D01*
X54056723Y-82793491D01*
X54056727Y-82793492D01*
X54060836Y-82794709D01*
X54065070Y-82795357D01*
X54065075Y-82795358D01*
X54327298Y-82835483D01*
X54327300Y-82835483D01*
X54331540Y-82836132D01*
X54470912Y-82838322D01*
X54601071Y-82840367D01*
X54601077Y-82840367D01*
X54605362Y-82840434D01*
X54877235Y-82807534D01*
X55142127Y-82738041D01*
X55146087Y-82736401D01*
X55146092Y-82736399D01*
X55268632Y-82685641D01*
X55395136Y-82633241D01*
X55631582Y-82495073D01*
X55847089Y-82326094D01*
X55888809Y-82283043D01*
X56034686Y-82132509D01*
X56037669Y-82129431D01*
X56040202Y-82125983D01*
X56040206Y-82125978D01*
X56197257Y-81912178D01*
X56199795Y-81908723D01*
X56227154Y-81858334D01*
X56328420Y-81671827D01*
X56328423Y-81671820D01*
X56330468Y-81668054D01*
X56331986Y-81664037D01*
X56332895Y-81662051D01*
X56379438Y-81608439D01*
X56447460Y-81588500D01*
X60463629Y-81588500D01*
X60531750Y-81608502D01*
X60552724Y-81625405D01*
X63204595Y-84277276D01*
X63238621Y-84339588D01*
X63241500Y-84366371D01*
X63241500Y-99932930D01*
X63240067Y-99951880D01*
X63236801Y-99973349D01*
X63237394Y-99980641D01*
X63237394Y-99980644D01*
X63241085Y-100026018D01*
X63241500Y-100036233D01*
X63241500Y-100044293D01*
X63241925Y-100047937D01*
X63244789Y-100072507D01*
X63245222Y-100076882D01*
X63249772Y-100132815D01*
X63251140Y-100149637D01*
X63253396Y-100156601D01*
X63254587Y-100162560D01*
X63255971Y-100168415D01*
X63256818Y-100175681D01*
X63281735Y-100244327D01*
X63283152Y-100248455D01*
X63293768Y-100281223D01*
X63305649Y-100317899D01*
X63309445Y-100324154D01*
X63311951Y-100329628D01*
X63314670Y-100335058D01*
X63317167Y-100341937D01*
X63321180Y-100348057D01*
X63321180Y-100348058D01*
X63357186Y-100402976D01*
X63359523Y-100406680D01*
X63397405Y-100469107D01*
X63401121Y-100473315D01*
X63401122Y-100473316D01*
X63404803Y-100477484D01*
X63404776Y-100477508D01*
X63407429Y-100480500D01*
X63410132Y-100483733D01*
X63414144Y-100489852D01*
X63419456Y-100494884D01*
X63470383Y-100543128D01*
X63472825Y-100545506D01*
X65416230Y-102488911D01*
X65428616Y-102503323D01*
X65437149Y-102514918D01*
X65437154Y-102514923D01*
X65441492Y-102520818D01*
X65447070Y-102525557D01*
X65447073Y-102525560D01*
X65481768Y-102555035D01*
X65489284Y-102561965D01*
X65494979Y-102567660D01*
X65497861Y-102569940D01*
X65517251Y-102585281D01*
X65520655Y-102588072D01*
X65570703Y-102630591D01*
X65576285Y-102635333D01*
X65582801Y-102638661D01*
X65587850Y-102642028D01*
X65592979Y-102645195D01*
X65598716Y-102649734D01*
X65664875Y-102680655D01*
X65668769Y-102682558D01*
X65733808Y-102715769D01*
X65740916Y-102717508D01*
X65746559Y-102719607D01*
X65752322Y-102721524D01*
X65758950Y-102724622D01*
X65766112Y-102726112D01*
X65766113Y-102726112D01*
X65830412Y-102739486D01*
X65834696Y-102740456D01*
X65905610Y-102757808D01*
X65911212Y-102758156D01*
X65911215Y-102758156D01*
X65916764Y-102758500D01*
X65916762Y-102758536D01*
X65920755Y-102758775D01*
X65924947Y-102759149D01*
X65932115Y-102760640D01*
X66009520Y-102758546D01*
X66012928Y-102758500D01*
X67878689Y-102758500D01*
X67946810Y-102778502D01*
X67985833Y-102818196D01*
X68051522Y-102924348D01*
X68176697Y-103049305D01*
X68182927Y-103053145D01*
X68182928Y-103053146D01*
X68320090Y-103137694D01*
X68327262Y-103142115D01*
X68403838Y-103167514D01*
X68488611Y-103195632D01*
X68488613Y-103195632D01*
X68495139Y-103197797D01*
X68501975Y-103198497D01*
X68501978Y-103198498D01*
X68545031Y-103202909D01*
X68599600Y-103208500D01*
X69400400Y-103208500D01*
X69403646Y-103208163D01*
X69403650Y-103208163D01*
X69499308Y-103198238D01*
X69499312Y-103198237D01*
X69506166Y-103197526D01*
X69512702Y-103195345D01*
X69512704Y-103195345D01*
X69644806Y-103151272D01*
X69673946Y-103141550D01*
X69824348Y-103048478D01*
X69910784Y-102961891D01*
X69973066Y-102927812D01*
X70043886Y-102932815D01*
X70088976Y-102961736D01*
X70176697Y-103049305D01*
X70182927Y-103053145D01*
X70182928Y-103053146D01*
X70320090Y-103137694D01*
X70327262Y-103142115D01*
X70403838Y-103167514D01*
X70488611Y-103195632D01*
X70488613Y-103195632D01*
X70495139Y-103197797D01*
X70501975Y-103198497D01*
X70501978Y-103198498D01*
X70545031Y-103202909D01*
X70599600Y-103208500D01*
X71083629Y-103208500D01*
X71151750Y-103228502D01*
X71172724Y-103245405D01*
X74929595Y-107002276D01*
X74963621Y-107064588D01*
X74966500Y-107091371D01*
X74966500Y-112152535D01*
X74946498Y-112220656D01*
X74906337Y-112259966D01*
X74835584Y-112303324D01*
X74831822Y-112306537D01*
X74761862Y-112366289D01*
X74655031Y-112457531D01*
X74651823Y-112461287D01*
X74651818Y-112461292D01*
X74550811Y-112579556D01*
X74491361Y-112618366D01*
X74420366Y-112618872D01*
X74359189Y-112579556D01*
X74258182Y-112461292D01*
X74258177Y-112461287D01*
X74254969Y-112457531D01*
X74148139Y-112366289D01*
X74078178Y-112306537D01*
X74074416Y-112303324D01*
X74003664Y-112259967D01*
X73956033Y-112207319D01*
X73943500Y-112152535D01*
X73943500Y-108252070D01*
X73944933Y-108233120D01*
X73947099Y-108218885D01*
X73947099Y-108218881D01*
X73948199Y-108211651D01*
X73943915Y-108158982D01*
X73943500Y-108148767D01*
X73943500Y-108140707D01*
X73940209Y-108112480D01*
X73939778Y-108108121D01*
X73934454Y-108042662D01*
X73934453Y-108042659D01*
X73933860Y-108035364D01*
X73931604Y-108028400D01*
X73930417Y-108022461D01*
X73929030Y-108016590D01*
X73928182Y-108009319D01*
X73925686Y-108002443D01*
X73925684Y-108002434D01*
X73903275Y-107940702D01*
X73901865Y-107936598D01*
X73879352Y-107867101D01*
X73875556Y-107860846D01*
X73873057Y-107855387D01*
X73870329Y-107849939D01*
X73867833Y-107843063D01*
X73827805Y-107782010D01*
X73825481Y-107778327D01*
X73815701Y-107762209D01*
X73794365Y-107727049D01*
X73790504Y-107720686D01*
X73790501Y-107720682D01*
X73787595Y-107715893D01*
X73780197Y-107707517D01*
X73780224Y-107707493D01*
X73777579Y-107704511D01*
X73774872Y-107701274D01*
X73770856Y-107695148D01*
X73753005Y-107678237D01*
X73714599Y-107641855D01*
X73712157Y-107639477D01*
X72145405Y-106072724D01*
X72111379Y-106010412D01*
X72108500Y-105983629D01*
X72108500Y-105499600D01*
X72097526Y-105393834D01*
X72095046Y-105386399D01*
X72043868Y-105233002D01*
X72041550Y-105226054D01*
X71948478Y-105075652D01*
X71823303Y-104950695D01*
X71745584Y-104902788D01*
X71678968Y-104861725D01*
X71678966Y-104861724D01*
X71672738Y-104857885D01*
X71512254Y-104804655D01*
X71511389Y-104804368D01*
X71511387Y-104804368D01*
X71504861Y-104802203D01*
X71498025Y-104801503D01*
X71498022Y-104801502D01*
X71454969Y-104797091D01*
X71400400Y-104791500D01*
X70599600Y-104791500D01*
X70596354Y-104791837D01*
X70596350Y-104791837D01*
X70500692Y-104801762D01*
X70500688Y-104801763D01*
X70493834Y-104802474D01*
X70487298Y-104804655D01*
X70487296Y-104804655D01*
X70404860Y-104832158D01*
X70326054Y-104858450D01*
X70175652Y-104951522D01*
X70170479Y-104956704D01*
X70089216Y-105038109D01*
X70026934Y-105072188D01*
X69956114Y-105067185D01*
X69911025Y-105038264D01*
X69828483Y-104955866D01*
X69823303Y-104950695D01*
X69745584Y-104902788D01*
X69678968Y-104861725D01*
X69678966Y-104861724D01*
X69672738Y-104857885D01*
X69512254Y-104804655D01*
X69511389Y-104804368D01*
X69511387Y-104804368D01*
X69504861Y-104802203D01*
X69498025Y-104801503D01*
X69498022Y-104801502D01*
X69454969Y-104797091D01*
X69400400Y-104791500D01*
X68599600Y-104791500D01*
X68596354Y-104791837D01*
X68596350Y-104791837D01*
X68500692Y-104801762D01*
X68500688Y-104801763D01*
X68493834Y-104802474D01*
X68487298Y-104804655D01*
X68487296Y-104804655D01*
X68404860Y-104832158D01*
X68326054Y-104858450D01*
X68175652Y-104951522D01*
X68050695Y-105076697D01*
X68046855Y-105082927D01*
X68046854Y-105082928D01*
X67986022Y-105181616D01*
X67933250Y-105229109D01*
X67878762Y-105241500D01*
X65116371Y-105241500D01*
X65048250Y-105221498D01*
X65027276Y-105204595D01*
X62795405Y-102972724D01*
X62761379Y-102910412D01*
X62758500Y-102883629D01*
X62758500Y-89317069D01*
X62759933Y-89298118D01*
X62762099Y-89283883D01*
X62762099Y-89283881D01*
X62763199Y-89276651D01*
X62758915Y-89223982D01*
X62758500Y-89213767D01*
X62758500Y-89205707D01*
X62755211Y-89177493D01*
X62754778Y-89173118D01*
X62749454Y-89107661D01*
X62749453Y-89107658D01*
X62748860Y-89100363D01*
X62746604Y-89093399D01*
X62745413Y-89087440D01*
X62744029Y-89081585D01*
X62743182Y-89074319D01*
X62718265Y-89005673D01*
X62716848Y-89001545D01*
X62696607Y-88939064D01*
X62696606Y-88939062D01*
X62694351Y-88932101D01*
X62690555Y-88925846D01*
X62688049Y-88920372D01*
X62685330Y-88914942D01*
X62682833Y-88908063D01*
X62642809Y-88847016D01*
X62640472Y-88843312D01*
X62605509Y-88785693D01*
X62605505Y-88785688D01*
X62602595Y-88780892D01*
X62595197Y-88772516D01*
X62595223Y-88772493D01*
X62592574Y-88769503D01*
X62589866Y-88766264D01*
X62585856Y-88760148D01*
X62580549Y-88755121D01*
X62580546Y-88755117D01*
X62529617Y-88706872D01*
X62527175Y-88704494D01*
X59243770Y-85421089D01*
X59231384Y-85406677D01*
X59222851Y-85395082D01*
X59222846Y-85395077D01*
X59218508Y-85389182D01*
X59212930Y-85384443D01*
X59212927Y-85384440D01*
X59178232Y-85354965D01*
X59170716Y-85348035D01*
X59165021Y-85342340D01*
X59158880Y-85337482D01*
X59142749Y-85324719D01*
X59139345Y-85321928D01*
X59089297Y-85279409D01*
X59089295Y-85279408D01*
X59083715Y-85274667D01*
X59077199Y-85271339D01*
X59072150Y-85267972D01*
X59067021Y-85264805D01*
X59061284Y-85260266D01*
X58995125Y-85229345D01*
X58991225Y-85227439D01*
X58926192Y-85194231D01*
X58919084Y-85192492D01*
X58913441Y-85190393D01*
X58907678Y-85188476D01*
X58901050Y-85185378D01*
X58829583Y-85170513D01*
X58825299Y-85169543D01*
X58754390Y-85152192D01*
X58748788Y-85151844D01*
X58748785Y-85151844D01*
X58743236Y-85151500D01*
X58743238Y-85151464D01*
X58739245Y-85151225D01*
X58735053Y-85150851D01*
X58727885Y-85149360D01*
X58661675Y-85151151D01*
X58650479Y-85151454D01*
X58647072Y-85151500D01*
X56445557Y-85151500D01*
X56377436Y-85131498D01*
X56333591Y-85083290D01*
X56223978Y-84870919D01*
X56223978Y-84870918D01*
X56222013Y-84867112D01*
X56212040Y-84852921D01*
X56067008Y-84646562D01*
X56064545Y-84643057D01*
X55878125Y-84442445D01*
X55874810Y-84439731D01*
X55874806Y-84439728D01*
X55669523Y-84271706D01*
X55666205Y-84268990D01*
X55432704Y-84125901D01*
X55428768Y-84124173D01*
X55185873Y-84017549D01*
X55185869Y-84017548D01*
X55181945Y-84015825D01*
X54918566Y-83940800D01*
X54914324Y-83940196D01*
X54914318Y-83940195D01*
X54713834Y-83911662D01*
X54647443Y-83902213D01*
X54503589Y-83901460D01*
X54377877Y-83900802D01*
X54377871Y-83900802D01*
X54373591Y-83900780D01*
X54369347Y-83901339D01*
X54369343Y-83901339D01*
X54250302Y-83917011D01*
X54102078Y-83936525D01*
X54097938Y-83937658D01*
X54097936Y-83937658D01*
X54045280Y-83952063D01*
X53837928Y-84008788D01*
X53833980Y-84010472D01*
X53589982Y-84114546D01*
X53589978Y-84114548D01*
X53586030Y-84116232D01*
X53566125Y-84128145D01*
X53354725Y-84254664D01*
X53354721Y-84254667D01*
X53351043Y-84256868D01*
X53137318Y-84428094D01*
X52948808Y-84626742D01*
X52789002Y-84849136D01*
X52660857Y-85091161D01*
X52659385Y-85095184D01*
X52659383Y-85095188D01*
X52568214Y-85344317D01*
X52566743Y-85348337D01*
X52508404Y-85615907D01*
X52486917Y-85888918D01*
X52502682Y-86162320D01*
X52503507Y-86166525D01*
X52503508Y-86166533D01*
X52533917Y-86321526D01*
X52555405Y-86431053D01*
X52556792Y-86435103D01*
X52556793Y-86435108D01*
X52642723Y-86686088D01*
X52644112Y-86690144D01*
X52664248Y-86730180D01*
X52744802Y-86890344D01*
X52767160Y-86934799D01*
X52769586Y-86938328D01*
X52769589Y-86938334D01*
X52901072Y-87129641D01*
X52922274Y-87160490D01*
X53106582Y-87363043D01*
X53316675Y-87538707D01*
X53320316Y-87540991D01*
X53545024Y-87681951D01*
X53545028Y-87681953D01*
X53548664Y-87684234D01*
X53616544Y-87714883D01*
X53794345Y-87795164D01*
X53794349Y-87795166D01*
X53798257Y-87796930D01*
X53802377Y-87798150D01*
X53802376Y-87798150D01*
X54056723Y-87873491D01*
X54056727Y-87873492D01*
X54060836Y-87874709D01*
X54065070Y-87875357D01*
X54065075Y-87875358D01*
X54327298Y-87915483D01*
X54327300Y-87915483D01*
X54331540Y-87916132D01*
X54470912Y-87918322D01*
X54601071Y-87920367D01*
X54601077Y-87920367D01*
X54605362Y-87920434D01*
X54877235Y-87887534D01*
X55142127Y-87818041D01*
X55146087Y-87816401D01*
X55146092Y-87816399D01*
X55337866Y-87736963D01*
X55395136Y-87713241D01*
X55577687Y-87606567D01*
X55627879Y-87577237D01*
X55627880Y-87577236D01*
X55631582Y-87575073D01*
X55847089Y-87406094D01*
X55851875Y-87401156D01*
X56016611Y-87231161D01*
X56037669Y-87209431D01*
X56040202Y-87205983D01*
X56040206Y-87205978D01*
X56197257Y-86992178D01*
X56199795Y-86988723D01*
X56227154Y-86938334D01*
X56328420Y-86751827D01*
X56328423Y-86751820D01*
X56330468Y-86748054D01*
X56331986Y-86744037D01*
X56332895Y-86742051D01*
X56379438Y-86688439D01*
X56447460Y-86668500D01*
X58293629Y-86668500D01*
X58361750Y-86688502D01*
X58382724Y-86705405D01*
X61204595Y-89527276D01*
X61238621Y-89589588D01*
X61241500Y-89616371D01*
X61241500Y-103182930D01*
X61240067Y-103201880D01*
X61237994Y-103215510D01*
X61236801Y-103223349D01*
X61237394Y-103230641D01*
X61237394Y-103230644D01*
X61241085Y-103276018D01*
X61241500Y-103286233D01*
X61241500Y-103294293D01*
X61241925Y-103297937D01*
X61244789Y-103322507D01*
X61245222Y-103326882D01*
X61251140Y-103399637D01*
X61253396Y-103406601D01*
X61254587Y-103412560D01*
X61255971Y-103418415D01*
X61256818Y-103425681D01*
X61281735Y-103494327D01*
X61283152Y-103498455D01*
X61305649Y-103567899D01*
X61309445Y-103574154D01*
X61311951Y-103579628D01*
X61314670Y-103585058D01*
X61317167Y-103591937D01*
X61321180Y-103598057D01*
X61321180Y-103598058D01*
X61357186Y-103652976D01*
X61359523Y-103656680D01*
X61397405Y-103719107D01*
X61401121Y-103723315D01*
X61401122Y-103723316D01*
X61404803Y-103727484D01*
X61404776Y-103727508D01*
X61407429Y-103730500D01*
X61410132Y-103733733D01*
X61414144Y-103739852D01*
X61419456Y-103744884D01*
X61470383Y-103793128D01*
X61472825Y-103795506D01*
X64166230Y-106488911D01*
X64178616Y-106503323D01*
X64187149Y-106514918D01*
X64187154Y-106514923D01*
X64191492Y-106520818D01*
X64197070Y-106525557D01*
X64197073Y-106525560D01*
X64231768Y-106555035D01*
X64239284Y-106561965D01*
X64244979Y-106567660D01*
X64247861Y-106569940D01*
X64267251Y-106585281D01*
X64270655Y-106588072D01*
X64320703Y-106630591D01*
X64326285Y-106635333D01*
X64332801Y-106638661D01*
X64337850Y-106642028D01*
X64342979Y-106645195D01*
X64348716Y-106649734D01*
X64414875Y-106680655D01*
X64418769Y-106682558D01*
X64483808Y-106715769D01*
X64490916Y-106717508D01*
X64496559Y-106719607D01*
X64502322Y-106721524D01*
X64508950Y-106724622D01*
X64516112Y-106726112D01*
X64516113Y-106726112D01*
X64580412Y-106739486D01*
X64584696Y-106740456D01*
X64655610Y-106757808D01*
X64661212Y-106758156D01*
X64661215Y-106758156D01*
X64666764Y-106758500D01*
X64666762Y-106758536D01*
X64670755Y-106758775D01*
X64674947Y-106759149D01*
X64682115Y-106760640D01*
X64759520Y-106758546D01*
X64762928Y-106758500D01*
X67878689Y-106758500D01*
X67946810Y-106778502D01*
X67985833Y-106818196D01*
X68051522Y-106924348D01*
X68176697Y-107049305D01*
X68182927Y-107053145D01*
X68182928Y-107053146D01*
X68320090Y-107137694D01*
X68327262Y-107142115D01*
X68351463Y-107150142D01*
X68488611Y-107195632D01*
X68488613Y-107195632D01*
X68495139Y-107197797D01*
X68501975Y-107198497D01*
X68501978Y-107198498D01*
X68538395Y-107202229D01*
X68599600Y-107208500D01*
X69400400Y-107208500D01*
X69403646Y-107208163D01*
X69403650Y-107208163D01*
X69499308Y-107198238D01*
X69499312Y-107198237D01*
X69506166Y-107197526D01*
X69512702Y-107195345D01*
X69512704Y-107195345D01*
X69659574Y-107146345D01*
X69673946Y-107141550D01*
X69824348Y-107048478D01*
X69910784Y-106961891D01*
X69973066Y-106927812D01*
X70043886Y-106932815D01*
X70088976Y-106961736D01*
X70176697Y-107049305D01*
X70182927Y-107053145D01*
X70182928Y-107053146D01*
X70320090Y-107137694D01*
X70327262Y-107142115D01*
X70351463Y-107150142D01*
X70488611Y-107195632D01*
X70488613Y-107195632D01*
X70495139Y-107197797D01*
X70501975Y-107198497D01*
X70501978Y-107198498D01*
X70538395Y-107202229D01*
X70599600Y-107208500D01*
X71083629Y-107208500D01*
X71151750Y-107228502D01*
X71172724Y-107245405D01*
X72389595Y-108462276D01*
X72423621Y-108524588D01*
X72426500Y-108551371D01*
X72426500Y-112152535D01*
X72406498Y-112220656D01*
X72366337Y-112259966D01*
X72295584Y-112303324D01*
X72291822Y-112306537D01*
X72221862Y-112366289D01*
X72115031Y-112457531D01*
X72111823Y-112461287D01*
X72111818Y-112461292D01*
X72010811Y-112579556D01*
X71951361Y-112618366D01*
X71880366Y-112618872D01*
X71819189Y-112579556D01*
X71718182Y-112461292D01*
X71718177Y-112461287D01*
X71714969Y-112457531D01*
X71534416Y-112303324D01*
X71530208Y-112300745D01*
X71530202Y-112300741D01*
X71336183Y-112181846D01*
X71331963Y-112179260D01*
X71327393Y-112177367D01*
X71327389Y-112177365D01*
X71117167Y-112090289D01*
X71117165Y-112090288D01*
X71112594Y-112088395D01*
X71032391Y-112069140D01*
X70886524Y-112034120D01*
X70886518Y-112034119D01*
X70881711Y-112032965D01*
X70645000Y-112014335D01*
X70408289Y-112032965D01*
X70403482Y-112034119D01*
X70403476Y-112034120D01*
X70257609Y-112069140D01*
X70177406Y-112088395D01*
X70172835Y-112090288D01*
X70172833Y-112090289D01*
X69962611Y-112177365D01*
X69962607Y-112177367D01*
X69958037Y-112179260D01*
X69953817Y-112181846D01*
X69759798Y-112300741D01*
X69759792Y-112300745D01*
X69755584Y-112303324D01*
X69575031Y-112457531D01*
X69571823Y-112461287D01*
X69571818Y-112461292D01*
X69470811Y-112579556D01*
X69411361Y-112618366D01*
X69340366Y-112618872D01*
X69279189Y-112579556D01*
X69178182Y-112461292D01*
X69178177Y-112461287D01*
X69174969Y-112457531D01*
X68994416Y-112303324D01*
X68990208Y-112300745D01*
X68990202Y-112300741D01*
X68796183Y-112181846D01*
X68791963Y-112179260D01*
X68787393Y-112177367D01*
X68787389Y-112177365D01*
X68577167Y-112090289D01*
X68577165Y-112090288D01*
X68572594Y-112088395D01*
X68492391Y-112069140D01*
X68346524Y-112034120D01*
X68346518Y-112034119D01*
X68341711Y-112032965D01*
X68105000Y-112014335D01*
X67868289Y-112032965D01*
X67863482Y-112034119D01*
X67863476Y-112034120D01*
X67717609Y-112069140D01*
X67637406Y-112088395D01*
X67632835Y-112090288D01*
X67632833Y-112090289D01*
X67422611Y-112177365D01*
X67422607Y-112177367D01*
X67418037Y-112179260D01*
X67413817Y-112181846D01*
X67219798Y-112300741D01*
X67219792Y-112300745D01*
X67215584Y-112303324D01*
X67035031Y-112457531D01*
X67031823Y-112461287D01*
X67031818Y-112461292D01*
X66930811Y-112579556D01*
X66871361Y-112618366D01*
X66800366Y-112618872D01*
X66739189Y-112579556D01*
X66638182Y-112461292D01*
X66638177Y-112461287D01*
X66634969Y-112457531D01*
X66454416Y-112303324D01*
X66450208Y-112300745D01*
X66450202Y-112300741D01*
X66256183Y-112181846D01*
X66251963Y-112179260D01*
X66247393Y-112177367D01*
X66247389Y-112177365D01*
X66037167Y-112090289D01*
X66037165Y-112090288D01*
X66032594Y-112088395D01*
X65952391Y-112069140D01*
X65806524Y-112034120D01*
X65806518Y-112034119D01*
X65801711Y-112032965D01*
X65565000Y-112014335D01*
X65328289Y-112032965D01*
X65323482Y-112034119D01*
X65323476Y-112034120D01*
X65177609Y-112069140D01*
X65097406Y-112088395D01*
X65092835Y-112090288D01*
X65092833Y-112090289D01*
X64882611Y-112177365D01*
X64882607Y-112177367D01*
X64878037Y-112179260D01*
X64873817Y-112181846D01*
X64679798Y-112300741D01*
X64679792Y-112300745D01*
X64675584Y-112303324D01*
X64495031Y-112457531D01*
X64491823Y-112461287D01*
X64491818Y-112461292D01*
X64361294Y-112614116D01*
X64301844Y-112652926D01*
X64267442Y-112655140D01*
X64248333Y-112663377D01*
X63397022Y-113514688D01*
X63389408Y-113528632D01*
X63389539Y-113530465D01*
X63393790Y-113537080D01*
X64245290Y-114388580D01*
X64262102Y-114397760D01*
X64325350Y-114411520D01*
X64360775Y-114440276D01*
X64442652Y-114536141D01*
X64495031Y-114597469D01*
X64498787Y-114600677D01*
X64511741Y-114611741D01*
X64675584Y-114751676D01*
X64679792Y-114754255D01*
X64679798Y-114754259D01*
X64873084Y-114872705D01*
X64878037Y-114875740D01*
X64882607Y-114877633D01*
X64882611Y-114877635D01*
X65092833Y-114964711D01*
X65097406Y-114966605D01*
X65150422Y-114979333D01*
X65323476Y-115020880D01*
X65323482Y-115020881D01*
X65328289Y-115022035D01*
X65565000Y-115040665D01*
X65801711Y-115022035D01*
X65806518Y-115020881D01*
X65806524Y-115020880D01*
X65979578Y-114979333D01*
X66032594Y-114966605D01*
X66037167Y-114964711D01*
X66247389Y-114877635D01*
X66247393Y-114877633D01*
X66251963Y-114875740D01*
X66256916Y-114872705D01*
X66450202Y-114754259D01*
X66450208Y-114754255D01*
X66454416Y-114751676D01*
X66618259Y-114611741D01*
X66631213Y-114600677D01*
X66634969Y-114597469D01*
X66638177Y-114593713D01*
X66638182Y-114593708D01*
X66739189Y-114475444D01*
X66798639Y-114436634D01*
X66869634Y-114436128D01*
X66930811Y-114475444D01*
X67031818Y-114593708D01*
X67031823Y-114593713D01*
X67035031Y-114597469D01*
X67038787Y-114600677D01*
X67051741Y-114611741D01*
X67215584Y-114751676D01*
X67219792Y-114754255D01*
X67219798Y-114754259D01*
X67413084Y-114872705D01*
X67418037Y-114875740D01*
X67422607Y-114877633D01*
X67422611Y-114877635D01*
X67632833Y-114964711D01*
X67637406Y-114966605D01*
X67690422Y-114979333D01*
X67863476Y-115020880D01*
X67863482Y-115020881D01*
X67868289Y-115022035D01*
X68105000Y-115040665D01*
X68341711Y-115022035D01*
X68346518Y-115020881D01*
X68346524Y-115020880D01*
X68519578Y-114979333D01*
X68572594Y-114966605D01*
X68577167Y-114964711D01*
X68787389Y-114877635D01*
X68787393Y-114877633D01*
X68791963Y-114875740D01*
X68796916Y-114872705D01*
X68990202Y-114754259D01*
X68990208Y-114754255D01*
X68994416Y-114751676D01*
X69158259Y-114611741D01*
X69171213Y-114600677D01*
X69174969Y-114597469D01*
X69178177Y-114593713D01*
X69178182Y-114593708D01*
X69279189Y-114475444D01*
X69338639Y-114436634D01*
X69409634Y-114436128D01*
X69470811Y-114475444D01*
X69571818Y-114593708D01*
X69571823Y-114593713D01*
X69575031Y-114597469D01*
X69578787Y-114600677D01*
X69591741Y-114611741D01*
X69755584Y-114751676D01*
X69759792Y-114754255D01*
X69759798Y-114754259D01*
X69953084Y-114872705D01*
X69958037Y-114875740D01*
X69962607Y-114877633D01*
X69962611Y-114877635D01*
X70172833Y-114964711D01*
X70177406Y-114966605D01*
X70230422Y-114979333D01*
X70403476Y-115020880D01*
X70403482Y-115020881D01*
X70408289Y-115022035D01*
X70645000Y-115040665D01*
X70881711Y-115022035D01*
X70886518Y-115020881D01*
X70886524Y-115020880D01*
X71059578Y-114979333D01*
X71112594Y-114966605D01*
X71117167Y-114964711D01*
X71327389Y-114877635D01*
X71327393Y-114877633D01*
X71331963Y-114875740D01*
X71336916Y-114872705D01*
X71530202Y-114754259D01*
X71530208Y-114754255D01*
X71534416Y-114751676D01*
X71698259Y-114611741D01*
X71711213Y-114600677D01*
X71714969Y-114597469D01*
X71718177Y-114593713D01*
X71718182Y-114593708D01*
X71819189Y-114475444D01*
X71878639Y-114436634D01*
X71949634Y-114436128D01*
X72010811Y-114475444D01*
X72111818Y-114593708D01*
X72111823Y-114593713D01*
X72115031Y-114597469D01*
X72118787Y-114600677D01*
X72131741Y-114611741D01*
X72295584Y-114751676D01*
X72299792Y-114754255D01*
X72299798Y-114754259D01*
X72493084Y-114872705D01*
X72498037Y-114875740D01*
X72502607Y-114877633D01*
X72502611Y-114877635D01*
X72712833Y-114964711D01*
X72717406Y-114966605D01*
X72770422Y-114979333D01*
X72943476Y-115020880D01*
X72943482Y-115020881D01*
X72948289Y-115022035D01*
X73185000Y-115040665D01*
X73421711Y-115022035D01*
X73426518Y-115020881D01*
X73426524Y-115020880D01*
X73599578Y-114979333D01*
X73652594Y-114966605D01*
X73657167Y-114964711D01*
X73867389Y-114877635D01*
X73867393Y-114877633D01*
X73871963Y-114875740D01*
X73876916Y-114872705D01*
X74070202Y-114754259D01*
X74070208Y-114754255D01*
X74074416Y-114751676D01*
X74238259Y-114611741D01*
X74251213Y-114600677D01*
X74254969Y-114597469D01*
X74258177Y-114593713D01*
X74258182Y-114593708D01*
X74359189Y-114475444D01*
X74418639Y-114436634D01*
X74489634Y-114436128D01*
X74550811Y-114475444D01*
X74651818Y-114593708D01*
X74651823Y-114593713D01*
X74655031Y-114597469D01*
X74658787Y-114600677D01*
X74671741Y-114611741D01*
X74835584Y-114751676D01*
X74839792Y-114754255D01*
X74839798Y-114754259D01*
X75033084Y-114872705D01*
X75038037Y-114875740D01*
X75042607Y-114877633D01*
X75042611Y-114877635D01*
X75252833Y-114964711D01*
X75257406Y-114966605D01*
X75310422Y-114979333D01*
X75483476Y-115020880D01*
X75483482Y-115020881D01*
X75488289Y-115022035D01*
X75725000Y-115040665D01*
X75961711Y-115022035D01*
X75966518Y-115020881D01*
X75966524Y-115020880D01*
X76139578Y-114979333D01*
X76192594Y-114966605D01*
X76197167Y-114964711D01*
X76407389Y-114877635D01*
X76407393Y-114877633D01*
X76411963Y-114875740D01*
X76416916Y-114872705D01*
X76610202Y-114754259D01*
X76610208Y-114754255D01*
X76614416Y-114751676D01*
X76778259Y-114611741D01*
X76791213Y-114600677D01*
X76794969Y-114597469D01*
X76798177Y-114593713D01*
X76798182Y-114593708D01*
X76899189Y-114475444D01*
X76958639Y-114436634D01*
X77029634Y-114436128D01*
X77090811Y-114475444D01*
X77191818Y-114593708D01*
X77191823Y-114593713D01*
X77195031Y-114597469D01*
X77198787Y-114600677D01*
X77211741Y-114611741D01*
X77375584Y-114751676D01*
X77379792Y-114754255D01*
X77379798Y-114754259D01*
X77573084Y-114872705D01*
X77578037Y-114875740D01*
X77582607Y-114877633D01*
X77582611Y-114877635D01*
X77792833Y-114964711D01*
X77797406Y-114966605D01*
X77850422Y-114979333D01*
X78023476Y-115020880D01*
X78023482Y-115020881D01*
X78028289Y-115022035D01*
X78265000Y-115040665D01*
X78501711Y-115022035D01*
X78506518Y-115020881D01*
X78506524Y-115020880D01*
X78679578Y-114979333D01*
X78732594Y-114966605D01*
X78737167Y-114964711D01*
X78947389Y-114877635D01*
X78947393Y-114877633D01*
X78951963Y-114875740D01*
X78956916Y-114872705D01*
X79150202Y-114754259D01*
X79150208Y-114754255D01*
X79154416Y-114751676D01*
X79318259Y-114611741D01*
X79331213Y-114600677D01*
X79334969Y-114597469D01*
X79338177Y-114593713D01*
X79338182Y-114593708D01*
X79439189Y-114475444D01*
X79498639Y-114436634D01*
X79569634Y-114436128D01*
X79630811Y-114475444D01*
X79731818Y-114593708D01*
X79731823Y-114593713D01*
X79735031Y-114597469D01*
X79738787Y-114600677D01*
X79751741Y-114611741D01*
X79915584Y-114751676D01*
X79919792Y-114754255D01*
X79919798Y-114754259D01*
X80113084Y-114872705D01*
X80118037Y-114875740D01*
X80122607Y-114877633D01*
X80122611Y-114877635D01*
X80332833Y-114964711D01*
X80337406Y-114966605D01*
X80390422Y-114979333D01*
X80563476Y-115020880D01*
X80563482Y-115020881D01*
X80568289Y-115022035D01*
X80805000Y-115040665D01*
X81041711Y-115022035D01*
X81046518Y-115020881D01*
X81046524Y-115020880D01*
X81219578Y-114979333D01*
X81272594Y-114966605D01*
X81277167Y-114964711D01*
X81487389Y-114877635D01*
X81487393Y-114877633D01*
X81491963Y-114875740D01*
X81496916Y-114872705D01*
X81690202Y-114754259D01*
X81690208Y-114754255D01*
X81694416Y-114751676D01*
X81858259Y-114611741D01*
X81871213Y-114600677D01*
X81874969Y-114597469D01*
X81878177Y-114593713D01*
X81878182Y-114593708D01*
X81979189Y-114475444D01*
X82038639Y-114436634D01*
X82109634Y-114436128D01*
X82170811Y-114475444D01*
X82271818Y-114593708D01*
X82271823Y-114593713D01*
X82275031Y-114597469D01*
X82278787Y-114600677D01*
X82291741Y-114611741D01*
X82455584Y-114751676D01*
X82459792Y-114754255D01*
X82459798Y-114754259D01*
X82653084Y-114872705D01*
X82658037Y-114875740D01*
X82662607Y-114877633D01*
X82662611Y-114877635D01*
X82872833Y-114964711D01*
X82877406Y-114966605D01*
X82930422Y-114979333D01*
X83103476Y-115020880D01*
X83103482Y-115020881D01*
X83108289Y-115022035D01*
X83345000Y-115040665D01*
X83581711Y-115022035D01*
X83586518Y-115020881D01*
X83586524Y-115020880D01*
X83759578Y-114979333D01*
X83812594Y-114966605D01*
X83817167Y-114964711D01*
X84027389Y-114877635D01*
X84027393Y-114877633D01*
X84031963Y-114875740D01*
X84036916Y-114872705D01*
X84230202Y-114754259D01*
X84230208Y-114754255D01*
X84234416Y-114751676D01*
X84398259Y-114611741D01*
X84411213Y-114600677D01*
X84414969Y-114597469D01*
X84418177Y-114593713D01*
X84418182Y-114593708D01*
X84519189Y-114475444D01*
X84578639Y-114436634D01*
X84649634Y-114436128D01*
X84710811Y-114475444D01*
X84811818Y-114593708D01*
X84811823Y-114593713D01*
X84815031Y-114597469D01*
X84818787Y-114600677D01*
X84831741Y-114611741D01*
X84995584Y-114751676D01*
X84999792Y-114754255D01*
X84999798Y-114754259D01*
X85193084Y-114872705D01*
X85198037Y-114875740D01*
X85202607Y-114877633D01*
X85202611Y-114877635D01*
X85412833Y-114964711D01*
X85417406Y-114966605D01*
X85470422Y-114979333D01*
X85643476Y-115020880D01*
X85643482Y-115020881D01*
X85648289Y-115022035D01*
X85885000Y-115040665D01*
X86121711Y-115022035D01*
X86126518Y-115020881D01*
X86126524Y-115020880D01*
X86299578Y-114979333D01*
X86352594Y-114966605D01*
X86357167Y-114964711D01*
X86567389Y-114877635D01*
X86567393Y-114877633D01*
X86571963Y-114875740D01*
X86576916Y-114872705D01*
X86770202Y-114754259D01*
X86770208Y-114754255D01*
X86774416Y-114751676D01*
X86938259Y-114611741D01*
X86951213Y-114600677D01*
X86954969Y-114597469D01*
X86958177Y-114593713D01*
X86958182Y-114593708D01*
X87059189Y-114475444D01*
X87118639Y-114436634D01*
X87189634Y-114436128D01*
X87250811Y-114475444D01*
X87351818Y-114593708D01*
X87351823Y-114593713D01*
X87355031Y-114597469D01*
X87358787Y-114600677D01*
X87371741Y-114611741D01*
X87535584Y-114751676D01*
X87539792Y-114754255D01*
X87539798Y-114754259D01*
X87733084Y-114872705D01*
X87738037Y-114875740D01*
X87742607Y-114877633D01*
X87742611Y-114877635D01*
X87952833Y-114964711D01*
X87957406Y-114966605D01*
X88010422Y-114979333D01*
X88183476Y-115020880D01*
X88183482Y-115020881D01*
X88188289Y-115022035D01*
X88425000Y-115040665D01*
X88661711Y-115022035D01*
X88666518Y-115020881D01*
X88666524Y-115020880D01*
X88839578Y-114979333D01*
X88892594Y-114966605D01*
X88897167Y-114964711D01*
X89107389Y-114877635D01*
X89107393Y-114877633D01*
X89111963Y-114875740D01*
X89116916Y-114872705D01*
X89310202Y-114754259D01*
X89310208Y-114754255D01*
X89314416Y-114751676D01*
X89478259Y-114611741D01*
X89491213Y-114600677D01*
X89494969Y-114597469D01*
X89498177Y-114593713D01*
X89498182Y-114593708D01*
X89599189Y-114475444D01*
X89658639Y-114436634D01*
X89729634Y-114436128D01*
X89790811Y-114475444D01*
X89891818Y-114593708D01*
X89891823Y-114593713D01*
X89895031Y-114597469D01*
X89898787Y-114600677D01*
X89911741Y-114611741D01*
X90075584Y-114751676D01*
X90079792Y-114754255D01*
X90079798Y-114754259D01*
X90273084Y-114872705D01*
X90278037Y-114875740D01*
X90282607Y-114877633D01*
X90282611Y-114877635D01*
X90492833Y-114964711D01*
X90497406Y-114966605D01*
X90550422Y-114979333D01*
X90723476Y-115020880D01*
X90723482Y-115020881D01*
X90728289Y-115022035D01*
X90965000Y-115040665D01*
X91201711Y-115022035D01*
X91206518Y-115020881D01*
X91206524Y-115020880D01*
X91379578Y-114979333D01*
X91432594Y-114966605D01*
X91437167Y-114964711D01*
X91647389Y-114877635D01*
X91647393Y-114877633D01*
X91651963Y-114875740D01*
X91656916Y-114872705D01*
X91850202Y-114754259D01*
X91850208Y-114754255D01*
X91854416Y-114751676D01*
X92018259Y-114611741D01*
X92031213Y-114600677D01*
X92034969Y-114597469D01*
X92038177Y-114593713D01*
X92038182Y-114593708D01*
X92139189Y-114475444D01*
X92198639Y-114436634D01*
X92269634Y-114436128D01*
X92330811Y-114475444D01*
X92431818Y-114593708D01*
X92431823Y-114593713D01*
X92435031Y-114597469D01*
X92438787Y-114600677D01*
X92451741Y-114611741D01*
X92615584Y-114751676D01*
X92619792Y-114754255D01*
X92619798Y-114754259D01*
X92813084Y-114872705D01*
X92818037Y-114875740D01*
X92822607Y-114877633D01*
X92822611Y-114877635D01*
X93032833Y-114964711D01*
X93037406Y-114966605D01*
X93090422Y-114979333D01*
X93263476Y-115020880D01*
X93263482Y-115020881D01*
X93268289Y-115022035D01*
X93505000Y-115040665D01*
X93741711Y-115022035D01*
X93746518Y-115020881D01*
X93746524Y-115020880D01*
X93919578Y-114979333D01*
X93972594Y-114966605D01*
X93977167Y-114964711D01*
X94187389Y-114877635D01*
X94187393Y-114877633D01*
X94191963Y-114875740D01*
X94196916Y-114872705D01*
X94390202Y-114754259D01*
X94390208Y-114754255D01*
X94394416Y-114751676D01*
X94558259Y-114611741D01*
X94571213Y-114600677D01*
X94574969Y-114597469D01*
X94578177Y-114593713D01*
X94578182Y-114593708D01*
X94679189Y-114475444D01*
X94738639Y-114436634D01*
X94809634Y-114436128D01*
X94870811Y-114475444D01*
X94971818Y-114593708D01*
X94971823Y-114593713D01*
X94975031Y-114597469D01*
X94978787Y-114600677D01*
X94991741Y-114611741D01*
X95155584Y-114751676D01*
X95159792Y-114754255D01*
X95159798Y-114754259D01*
X95353084Y-114872705D01*
X95358037Y-114875740D01*
X95362607Y-114877633D01*
X95362611Y-114877635D01*
X95572833Y-114964711D01*
X95577406Y-114966605D01*
X95630422Y-114979333D01*
X95803476Y-115020880D01*
X95803482Y-115020881D01*
X95808289Y-115022035D01*
X96045000Y-115040665D01*
X96281711Y-115022035D01*
X96286518Y-115020881D01*
X96286524Y-115020880D01*
X96459578Y-114979333D01*
X96512594Y-114966605D01*
X96517167Y-114964711D01*
X96727389Y-114877635D01*
X96727393Y-114877633D01*
X96731963Y-114875740D01*
X96736916Y-114872705D01*
X96930202Y-114754259D01*
X96930208Y-114754255D01*
X96934416Y-114751676D01*
X97098259Y-114611741D01*
X97111213Y-114600677D01*
X97114969Y-114597469D01*
X97269176Y-114416916D01*
X97272483Y-114411520D01*
X97282010Y-114395974D01*
X97334658Y-114348343D01*
X97404700Y-114336737D01*
X97469897Y-114364841D01*
X97509551Y-114423732D01*
X97513528Y-114439931D01*
X97519378Y-114473107D01*
X97521402Y-114484587D01*
X97608203Y-114751735D01*
X97610131Y-114755688D01*
X97610133Y-114755693D01*
X97630002Y-114796430D01*
X97731340Y-115004202D01*
X97733795Y-115007841D01*
X97733798Y-115007847D01*
X97806890Y-115116210D01*
X97888415Y-115237076D01*
X98076371Y-115445822D01*
X98291550Y-115626379D01*
X98529764Y-115775231D01*
X98786375Y-115889482D01*
X99056390Y-115966907D01*
X99060740Y-115967518D01*
X99060743Y-115967519D01*
X99163690Y-115981987D01*
X99334552Y-116006000D01*
X99545146Y-116006000D01*
X99547332Y-116005847D01*
X99547336Y-116005847D01*
X99750827Y-115991618D01*
X99750832Y-115991617D01*
X99755212Y-115991311D01*
X100029970Y-115932909D01*
X100034099Y-115931406D01*
X100034103Y-115931405D01*
X100289781Y-115838346D01*
X100289785Y-115838344D01*
X100293926Y-115836837D01*
X100541942Y-115704964D01*
X100646896Y-115628711D01*
X100765629Y-115542447D01*
X100765632Y-115542444D01*
X100769192Y-115539858D01*
X100971252Y-115344731D01*
X101144188Y-115123382D01*
X101146384Y-115119578D01*
X101146389Y-115119571D01*
X101282435Y-114883931D01*
X101284636Y-114880119D01*
X101389862Y-114619676D01*
X101391686Y-114612359D01*
X101456753Y-114351393D01*
X101456754Y-114351388D01*
X101457817Y-114347124D01*
X101470269Y-114228656D01*
X101486719Y-114072136D01*
X101486719Y-114072133D01*
X101487178Y-114067767D01*
X101485156Y-114009864D01*
X101477529Y-113791439D01*
X101477528Y-113791433D01*
X101477375Y-113787042D01*
X101473350Y-113764211D01*
X101432480Y-113532430D01*
X101428598Y-113510413D01*
X101341797Y-113243265D01*
X101218660Y-112990798D01*
X101216205Y-112987159D01*
X101216202Y-112987153D01*
X101117308Y-112840537D01*
X101061585Y-112757924D01*
X100873629Y-112549178D01*
X100658450Y-112368621D01*
X100420236Y-112219769D01*
X100163625Y-112105518D01*
X99893610Y-112028093D01*
X99889260Y-112027482D01*
X99889257Y-112027481D01*
X99786310Y-112013013D01*
X99615448Y-111989000D01*
X99404854Y-111989000D01*
X99402668Y-111989153D01*
X99402664Y-111989153D01*
X99199173Y-112003382D01*
X99199168Y-112003383D01*
X99194788Y-112003689D01*
X98920030Y-112062091D01*
X98915901Y-112063594D01*
X98915897Y-112063595D01*
X98660219Y-112156654D01*
X98660215Y-112156656D01*
X98656074Y-112158163D01*
X98408058Y-112290036D01*
X98404499Y-112292622D01*
X98404497Y-112292623D01*
X98299895Y-112368621D01*
X98180808Y-112455142D01*
X98177644Y-112458198D01*
X98177641Y-112458200D01*
X98174439Y-112461292D01*
X97978748Y-112650269D01*
X97805812Y-112871618D01*
X97803616Y-112875422D01*
X97803611Y-112875429D01*
X97700834Y-113053445D01*
X97649451Y-113102438D01*
X97579738Y-113115874D01*
X97513827Y-113089488D01*
X97475306Y-113038663D01*
X97395135Y-112845111D01*
X97395133Y-112845107D01*
X97393240Y-112840537D01*
X97344852Y-112761575D01*
X97271759Y-112642298D01*
X97271755Y-112642292D01*
X97269176Y-112638084D01*
X97114969Y-112457531D01*
X96934416Y-112303324D01*
X96930208Y-112300745D01*
X96930202Y-112300741D01*
X96736183Y-112181846D01*
X96731963Y-112179260D01*
X96727393Y-112177367D01*
X96727389Y-112177365D01*
X96517167Y-112090289D01*
X96517165Y-112090288D01*
X96512594Y-112088395D01*
X96432391Y-112069140D01*
X96286524Y-112034120D01*
X96286518Y-112034119D01*
X96281711Y-112032965D01*
X96045000Y-112014335D01*
X95808289Y-112032965D01*
X95803482Y-112034119D01*
X95803476Y-112034120D01*
X95657609Y-112069140D01*
X95577406Y-112088395D01*
X95572835Y-112090288D01*
X95572833Y-112090289D01*
X95362611Y-112177365D01*
X95362607Y-112177367D01*
X95358037Y-112179260D01*
X95353817Y-112181846D01*
X95159798Y-112300741D01*
X95159792Y-112300745D01*
X95155584Y-112303324D01*
X94975031Y-112457531D01*
X94971823Y-112461287D01*
X94971818Y-112461292D01*
X94870811Y-112579556D01*
X94811361Y-112618366D01*
X94740366Y-112618872D01*
X94679189Y-112579556D01*
X94578182Y-112461292D01*
X94578177Y-112461287D01*
X94574969Y-112457531D01*
X94394416Y-112303324D01*
X94390208Y-112300745D01*
X94390202Y-112300741D01*
X94196183Y-112181846D01*
X94191963Y-112179260D01*
X94187393Y-112177367D01*
X94187389Y-112177365D01*
X93977167Y-112090289D01*
X93977165Y-112090288D01*
X93972594Y-112088395D01*
X93892391Y-112069140D01*
X93746524Y-112034120D01*
X93746518Y-112034119D01*
X93741711Y-112032965D01*
X93505000Y-112014335D01*
X93268289Y-112032965D01*
X93263482Y-112034119D01*
X93263476Y-112034120D01*
X93117609Y-112069140D01*
X93037406Y-112088395D01*
X93032835Y-112090288D01*
X93032833Y-112090289D01*
X92822611Y-112177365D01*
X92822607Y-112177367D01*
X92818037Y-112179260D01*
X92813817Y-112181846D01*
X92619798Y-112300741D01*
X92619792Y-112300745D01*
X92615584Y-112303324D01*
X92435031Y-112457531D01*
X92431823Y-112461287D01*
X92431818Y-112461292D01*
X92330811Y-112579556D01*
X92271361Y-112618366D01*
X92200366Y-112618872D01*
X92139189Y-112579556D01*
X92038182Y-112461292D01*
X92038177Y-112461287D01*
X92034969Y-112457531D01*
X91854416Y-112303324D01*
X91850208Y-112300745D01*
X91850202Y-112300741D01*
X91656183Y-112181846D01*
X91651963Y-112179260D01*
X91647393Y-112177367D01*
X91647389Y-112177365D01*
X91437167Y-112090289D01*
X91437165Y-112090288D01*
X91432594Y-112088395D01*
X91352391Y-112069140D01*
X91206524Y-112034120D01*
X91206518Y-112034119D01*
X91201711Y-112032965D01*
X90965000Y-112014335D01*
X90728289Y-112032965D01*
X90723482Y-112034119D01*
X90723476Y-112034120D01*
X90577609Y-112069140D01*
X90497406Y-112088395D01*
X90492835Y-112090288D01*
X90492833Y-112090289D01*
X90282611Y-112177365D01*
X90282607Y-112177367D01*
X90278037Y-112179260D01*
X90273817Y-112181846D01*
X90079798Y-112300741D01*
X90079792Y-112300745D01*
X90075584Y-112303324D01*
X89895031Y-112457531D01*
X89891823Y-112461287D01*
X89891818Y-112461292D01*
X89790811Y-112579556D01*
X89731361Y-112618366D01*
X89660366Y-112618872D01*
X89599189Y-112579556D01*
X89498182Y-112461292D01*
X89498177Y-112461287D01*
X89494969Y-112457531D01*
X89314416Y-112303324D01*
X89310208Y-112300745D01*
X89310202Y-112300741D01*
X89116183Y-112181846D01*
X89111963Y-112179260D01*
X89107393Y-112177367D01*
X89107389Y-112177365D01*
X88897167Y-112090289D01*
X88897165Y-112090288D01*
X88892594Y-112088395D01*
X88812391Y-112069140D01*
X88666524Y-112034120D01*
X88666518Y-112034119D01*
X88661711Y-112032965D01*
X88425000Y-112014335D01*
X88188289Y-112032965D01*
X88183482Y-112034119D01*
X88183476Y-112034120D01*
X88037609Y-112069140D01*
X87957406Y-112088395D01*
X87952835Y-112090288D01*
X87952833Y-112090289D01*
X87742611Y-112177365D01*
X87742607Y-112177367D01*
X87738037Y-112179260D01*
X87733817Y-112181846D01*
X87539798Y-112300741D01*
X87539792Y-112300745D01*
X87535584Y-112303324D01*
X87355031Y-112457531D01*
X87351823Y-112461287D01*
X87351818Y-112461292D01*
X87250811Y-112579556D01*
X87191361Y-112618366D01*
X87120366Y-112618872D01*
X87059189Y-112579556D01*
X86958182Y-112461292D01*
X86958177Y-112461287D01*
X86954969Y-112457531D01*
X86774416Y-112303324D01*
X86770208Y-112300745D01*
X86770202Y-112300741D01*
X86576183Y-112181846D01*
X86571963Y-112179260D01*
X86567393Y-112177367D01*
X86567389Y-112177365D01*
X86357167Y-112090289D01*
X86357165Y-112090288D01*
X86352594Y-112088395D01*
X86272391Y-112069140D01*
X86126524Y-112034120D01*
X86126518Y-112034119D01*
X86121711Y-112032965D01*
X85885000Y-112014335D01*
X85648289Y-112032965D01*
X85643482Y-112034119D01*
X85643476Y-112034120D01*
X85497609Y-112069140D01*
X85417406Y-112088395D01*
X85412835Y-112090288D01*
X85412833Y-112090289D01*
X85202611Y-112177365D01*
X85202607Y-112177367D01*
X85198037Y-112179260D01*
X85193817Y-112181846D01*
X84999798Y-112300741D01*
X84999792Y-112300745D01*
X84995584Y-112303324D01*
X84815031Y-112457531D01*
X84811823Y-112461287D01*
X84811818Y-112461292D01*
X84710811Y-112579556D01*
X84651361Y-112618366D01*
X84580366Y-112618872D01*
X84519189Y-112579556D01*
X84418182Y-112461292D01*
X84418177Y-112461287D01*
X84414969Y-112457531D01*
X84308139Y-112366289D01*
X84238178Y-112306537D01*
X84234416Y-112303324D01*
X84163664Y-112259967D01*
X84116033Y-112207319D01*
X84103500Y-112152535D01*
X84103500Y-110912069D01*
X84104933Y-110893118D01*
X84107099Y-110878883D01*
X84107099Y-110878881D01*
X84108199Y-110871651D01*
X84103915Y-110818982D01*
X84103500Y-110808767D01*
X84103500Y-110800707D01*
X84101813Y-110786233D01*
X84100211Y-110772493D01*
X84099778Y-110768118D01*
X84094454Y-110702661D01*
X84094453Y-110702658D01*
X84093860Y-110695363D01*
X84091604Y-110688399D01*
X84090413Y-110682440D01*
X84089029Y-110676585D01*
X84088182Y-110669319D01*
X84063265Y-110600673D01*
X84061848Y-110596545D01*
X84041607Y-110534064D01*
X84041606Y-110534062D01*
X84039351Y-110527101D01*
X84035555Y-110520846D01*
X84033049Y-110515372D01*
X84030330Y-110509942D01*
X84027833Y-110503063D01*
X83987814Y-110442024D01*
X83985467Y-110438305D01*
X83947595Y-110375893D01*
X83940197Y-110367516D01*
X83940224Y-110367492D01*
X83937571Y-110364500D01*
X83934868Y-110361267D01*
X83930856Y-110355148D01*
X83874617Y-110301872D01*
X83872175Y-110299494D01*
X81743015Y-108170334D01*
X81708989Y-108108022D01*
X81714054Y-108037207D01*
X81756601Y-107980371D01*
X81823121Y-107955560D01*
X81841995Y-107955627D01*
X81860373Y-107957073D01*
X81876044Y-107958307D01*
X81876048Y-107958307D01*
X81878498Y-107958500D01*
X82311502Y-107958500D01*
X82313950Y-107958307D01*
X82313958Y-107958307D01*
X82342421Y-107956067D01*
X82342426Y-107956066D01*
X82348831Y-107955562D01*
X82470570Y-107920194D01*
X82500988Y-107911357D01*
X82500990Y-107911356D01*
X82508601Y-107909145D01*
X82651807Y-107824453D01*
X82654489Y-107821771D01*
X82718861Y-107796498D01*
X82788484Y-107810400D01*
X82804312Y-107820572D01*
X82808193Y-107824453D01*
X82951399Y-107909145D01*
X82959010Y-107911356D01*
X82959012Y-107911357D01*
X82989430Y-107920194D01*
X83111169Y-107955562D01*
X83117574Y-107956066D01*
X83117579Y-107956067D01*
X83146042Y-107958307D01*
X83146050Y-107958307D01*
X83148498Y-107958500D01*
X83581502Y-107958500D01*
X83583950Y-107958307D01*
X83583958Y-107958307D01*
X83612421Y-107956067D01*
X83612426Y-107956066D01*
X83618831Y-107955562D01*
X83740570Y-107920194D01*
X83770988Y-107911357D01*
X83770990Y-107911356D01*
X83778601Y-107909145D01*
X83921807Y-107824453D01*
X83924489Y-107821771D01*
X83988861Y-107796498D01*
X84058484Y-107810400D01*
X84074312Y-107820572D01*
X84078193Y-107824453D01*
X84221399Y-107909145D01*
X84229010Y-107911356D01*
X84229012Y-107911357D01*
X84259430Y-107920194D01*
X84381169Y-107955562D01*
X84387574Y-107956066D01*
X84387579Y-107956067D01*
X84416042Y-107958307D01*
X84416050Y-107958307D01*
X84418498Y-107958500D01*
X84851502Y-107958500D01*
X84853950Y-107958307D01*
X84853958Y-107958307D01*
X84882421Y-107956067D01*
X84882426Y-107956066D01*
X84888831Y-107955562D01*
X85010570Y-107920194D01*
X85040988Y-107911357D01*
X85040990Y-107911356D01*
X85048601Y-107909145D01*
X85191807Y-107824453D01*
X85194489Y-107821771D01*
X85258861Y-107796498D01*
X85328484Y-107810400D01*
X85344312Y-107820572D01*
X85348193Y-107824453D01*
X85491399Y-107909145D01*
X85499010Y-107911356D01*
X85499012Y-107911357D01*
X85529430Y-107920194D01*
X85651169Y-107955562D01*
X85657574Y-107956066D01*
X85657579Y-107956067D01*
X85686042Y-107958307D01*
X85686050Y-107958307D01*
X85688498Y-107958500D01*
X86121502Y-107958500D01*
X86123950Y-107958307D01*
X86123958Y-107958307D01*
X86152421Y-107956067D01*
X86152426Y-107956066D01*
X86158831Y-107955562D01*
X86280570Y-107920194D01*
X86310988Y-107911357D01*
X86310990Y-107911356D01*
X86318601Y-107909145D01*
X86461807Y-107824453D01*
X86464489Y-107821771D01*
X86528861Y-107796498D01*
X86598484Y-107810400D01*
X86614312Y-107820572D01*
X86618193Y-107824453D01*
X86761399Y-107909145D01*
X86769010Y-107911356D01*
X86769012Y-107911357D01*
X86799430Y-107920194D01*
X86921169Y-107955562D01*
X86927574Y-107956066D01*
X86927579Y-107956067D01*
X86956042Y-107958307D01*
X86956050Y-107958307D01*
X86958498Y-107958500D01*
X87391502Y-107958500D01*
X87393950Y-107958307D01*
X87393958Y-107958307D01*
X87422421Y-107956067D01*
X87422426Y-107956066D01*
X87428831Y-107955562D01*
X87550570Y-107920194D01*
X87580988Y-107911357D01*
X87580990Y-107911356D01*
X87588601Y-107909145D01*
X87731807Y-107824453D01*
X87734747Y-107821513D01*
X87799271Y-107796179D01*
X87868894Y-107810080D01*
X87887640Y-107822129D01*
X87895323Y-107828089D01*
X88024779Y-107904648D01*
X88039210Y-107910893D01*
X88173605Y-107949939D01*
X88187706Y-107949899D01*
X88191000Y-107942630D01*
X88191000Y-107936878D01*
X88699000Y-107936878D01*
X88702973Y-107950409D01*
X88710871Y-107951544D01*
X88850790Y-107910893D01*
X88865221Y-107904648D01*
X88994678Y-107828089D01*
X89007104Y-107818449D01*
X89113449Y-107712104D01*
X89123089Y-107699678D01*
X89199648Y-107570221D01*
X89205893Y-107555790D01*
X89248269Y-107409935D01*
X89250570Y-107397333D01*
X89252807Y-107368916D01*
X89253000Y-107363986D01*
X89253000Y-106747115D01*
X89248525Y-106731876D01*
X89247135Y-106730671D01*
X89239452Y-106729000D01*
X88717115Y-106729000D01*
X88701876Y-106733475D01*
X88700671Y-106734865D01*
X88699000Y-106742548D01*
X88699000Y-107936878D01*
X88191000Y-107936878D01*
X88191000Y-106347000D01*
X88211002Y-106278879D01*
X88264658Y-106232386D01*
X88317000Y-106221000D01*
X89234884Y-106221000D01*
X89250123Y-106216525D01*
X89251328Y-106215135D01*
X89252999Y-106207452D01*
X89252999Y-105586017D01*
X89252805Y-105581080D01*
X89250570Y-105552664D01*
X89248270Y-105540069D01*
X89205893Y-105394210D01*
X89199648Y-105379779D01*
X89123089Y-105250322D01*
X89113449Y-105237896D01*
X89007104Y-105131551D01*
X88994678Y-105121911D01*
X88865221Y-105045352D01*
X88850790Y-105039107D01*
X88735106Y-105005497D01*
X88675271Y-104967284D01*
X88645594Y-104902787D01*
X88655498Y-104832485D01*
X88701837Y-104778697D01*
X88770260Y-104758500D01*
X93332930Y-104758500D01*
X93351880Y-104759933D01*
X93366115Y-104762099D01*
X93366119Y-104762099D01*
X93373349Y-104763199D01*
X93380641Y-104762606D01*
X93380644Y-104762606D01*
X93426018Y-104758915D01*
X93436233Y-104758500D01*
X93444293Y-104758500D01*
X93457583Y-104756951D01*
X93472507Y-104755211D01*
X93476882Y-104754778D01*
X93542339Y-104749454D01*
X93542342Y-104749453D01*
X93549637Y-104748860D01*
X93556601Y-104746604D01*
X93562560Y-104745413D01*
X93568415Y-104744029D01*
X93575681Y-104743182D01*
X93644327Y-104718265D01*
X93648456Y-104716848D01*
X93678344Y-104707166D01*
X93746588Y-104704514D01*
X93908476Y-104743380D01*
X93908482Y-104743381D01*
X93913289Y-104744535D01*
X94150000Y-104763165D01*
X94386711Y-104744535D01*
X94391518Y-104743381D01*
X94391524Y-104743380D01*
X94569651Y-104700615D01*
X94617594Y-104689105D01*
X94622167Y-104687211D01*
X94832389Y-104600135D01*
X94832393Y-104600133D01*
X94836963Y-104598240D01*
X94866056Y-104580412D01*
X95035202Y-104476759D01*
X95035208Y-104476755D01*
X95039416Y-104474176D01*
X95219969Y-104319969D01*
X95374176Y-104139416D01*
X95376755Y-104135208D01*
X95376759Y-104135202D01*
X95495654Y-103941183D01*
X95498240Y-103936963D01*
X95557342Y-103794279D01*
X95587211Y-103722167D01*
X95587212Y-103722165D01*
X95589105Y-103717594D01*
X95642218Y-103496362D01*
X95643380Y-103491524D01*
X95643381Y-103491518D01*
X95644535Y-103486711D01*
X95663165Y-103250000D01*
X95644535Y-103013289D01*
X95637679Y-102984728D01*
X95597697Y-102818196D01*
X95589105Y-102782406D01*
X95585601Y-102773946D01*
X95500135Y-102567611D01*
X95500133Y-102567607D01*
X95498240Y-102563037D01*
X95472368Y-102520818D01*
X95444496Y-102475335D01*
X95425958Y-102406801D01*
X95447414Y-102339125D01*
X95502053Y-102293792D01*
X95551929Y-102283500D01*
X96407930Y-102283500D01*
X96426880Y-102284933D01*
X96441115Y-102287099D01*
X96441119Y-102287099D01*
X96448349Y-102288199D01*
X96455641Y-102287606D01*
X96455644Y-102287606D01*
X96501018Y-102283915D01*
X96511233Y-102283500D01*
X96519293Y-102283500D01*
X96532583Y-102281951D01*
X96547507Y-102280211D01*
X96551882Y-102279778D01*
X96617339Y-102274454D01*
X96617342Y-102274453D01*
X96624637Y-102273860D01*
X96631601Y-102271604D01*
X96637560Y-102270413D01*
X96643415Y-102269029D01*
X96650681Y-102268182D01*
X96719327Y-102243265D01*
X96723455Y-102241848D01*
X96785936Y-102221607D01*
X96785938Y-102221606D01*
X96792899Y-102219351D01*
X96799154Y-102215555D01*
X96804628Y-102213049D01*
X96810058Y-102210330D01*
X96816937Y-102207833D01*
X96826038Y-102201866D01*
X96877976Y-102167814D01*
X96881680Y-102165477D01*
X96944107Y-102127595D01*
X96952484Y-102120197D01*
X96952508Y-102120224D01*
X96955500Y-102117571D01*
X96958733Y-102114868D01*
X96964852Y-102110856D01*
X97018128Y-102054617D01*
X97020506Y-102052175D01*
X98910905Y-100161776D01*
X98973217Y-100127750D01*
X99044032Y-100132815D01*
X99089095Y-100161776D01*
X100529722Y-101602403D01*
X100563748Y-101664715D01*
X100558683Y-101735530D01*
X100516136Y-101792366D01*
X100507926Y-101797649D01*
X100503295Y-101799385D01*
X100386739Y-101886739D01*
X100299385Y-102003295D01*
X100248255Y-102139684D01*
X100241500Y-102201866D01*
X100241500Y-104298134D01*
X100248255Y-104360316D01*
X100299385Y-104496705D01*
X100386739Y-104613261D01*
X100503295Y-104700615D01*
X100639684Y-104751745D01*
X100701866Y-104758500D01*
X102798134Y-104758500D01*
X102860316Y-104751745D01*
X102996705Y-104700615D01*
X103113261Y-104613261D01*
X103200615Y-104496705D01*
X103251745Y-104360316D01*
X103258500Y-104298134D01*
X103258500Y-102201866D01*
X103251745Y-102139684D01*
X103200615Y-102003295D01*
X103113261Y-101886739D01*
X102996705Y-101799385D01*
X102860316Y-101748255D01*
X102798134Y-101741500D01*
X102626507Y-101741500D01*
X102558386Y-101721498D01*
X102511893Y-101667842D01*
X102500922Y-101625714D01*
X102499454Y-101607661D01*
X102499453Y-101607658D01*
X102498860Y-101600363D01*
X102496604Y-101593399D01*
X102495413Y-101587440D01*
X102494029Y-101581585D01*
X102493182Y-101574319D01*
X102468265Y-101505673D01*
X102466848Y-101501545D01*
X102446607Y-101439064D01*
X102446606Y-101439062D01*
X102444351Y-101432101D01*
X102440555Y-101425846D01*
X102438049Y-101420372D01*
X102435330Y-101414942D01*
X102432833Y-101408063D01*
X102392809Y-101347016D01*
X102390472Y-101343312D01*
X102355509Y-101285693D01*
X102355505Y-101285688D01*
X102352595Y-101280892D01*
X102345197Y-101272516D01*
X102345223Y-101272493D01*
X102342574Y-101269503D01*
X102339866Y-101266264D01*
X102335856Y-101260148D01*
X102330549Y-101255121D01*
X102330546Y-101255117D01*
X102279617Y-101206872D01*
X102277175Y-101204494D01*
X99795405Y-98722724D01*
X99761379Y-98660412D01*
X99758500Y-98633629D01*
X99758500Y-96159428D01*
X99778502Y-96091307D01*
X99812888Y-96057505D01*
X99812388Y-96056875D01*
X99818120Y-96052332D01*
X99824348Y-96048478D01*
X99949305Y-95923303D01*
X100024660Y-95801055D01*
X100038275Y-95778968D01*
X100038276Y-95778966D01*
X100042115Y-95772738D01*
X100097797Y-95604861D01*
X100108500Y-95500400D01*
X100108500Y-95016371D01*
X100128502Y-94948250D01*
X100145405Y-94927276D01*
X100988911Y-94083770D01*
X101003323Y-94071384D01*
X101014918Y-94062851D01*
X101014923Y-94062846D01*
X101020818Y-94058508D01*
X101025557Y-94052930D01*
X101025560Y-94052927D01*
X101055035Y-94018232D01*
X101061965Y-94010716D01*
X101067660Y-94005021D01*
X101085281Y-93982749D01*
X101088072Y-93979345D01*
X101130591Y-93929297D01*
X101130592Y-93929295D01*
X101135333Y-93923715D01*
X101138661Y-93917199D01*
X101142028Y-93912150D01*
X101145195Y-93907021D01*
X101149734Y-93901284D01*
X101180655Y-93835125D01*
X101182561Y-93831225D01*
X101215769Y-93766192D01*
X101217508Y-93759084D01*
X101219607Y-93753441D01*
X101221524Y-93747678D01*
X101224622Y-93741050D01*
X101239487Y-93669583D01*
X101240457Y-93665299D01*
X101249249Y-93629368D01*
X101257808Y-93594390D01*
X101258500Y-93583236D01*
X101258536Y-93583238D01*
X101258775Y-93579245D01*
X101259149Y-93575053D01*
X101260640Y-93567885D01*
X101258546Y-93490479D01*
X101258500Y-93487072D01*
X101258500Y-93126000D01*
X101278502Y-93057879D01*
X101332158Y-93011386D01*
X101384500Y-93000000D01*
X103874000Y-93000000D01*
X103942121Y-93020002D01*
X103988614Y-93073658D01*
X104000000Y-93126000D01*
X104000000Y-112000000D01*
X139365500Y-112000000D01*
X139433621Y-112020002D01*
X139480114Y-112073658D01*
X139491500Y-112126000D01*
X139491500Y-138874000D01*
X139471498Y-138942121D01*
X139417842Y-138988614D01*
X139365500Y-139000000D01*
X129500000Y-139000000D01*
X129500000Y-149365500D01*
X129479998Y-149433621D01*
X129426342Y-149480114D01*
X129374000Y-149491500D01*
X103227263Y-149491500D01*
X103159142Y-149471498D01*
X103112649Y-149417842D01*
X103102545Y-149347568D01*
X103132039Y-149282988D01*
X103197085Y-149243601D01*
X103200681Y-149243182D01*
X103208178Y-149240461D01*
X103218833Y-149236593D01*
X103269327Y-149218265D01*
X103273455Y-149216848D01*
X103335936Y-149196607D01*
X103335938Y-149196606D01*
X103342899Y-149194351D01*
X103349154Y-149190555D01*
X103354628Y-149188049D01*
X103360058Y-149185330D01*
X103366937Y-149182833D01*
X103412690Y-149152836D01*
X103427976Y-149142814D01*
X103431680Y-149140477D01*
X103494107Y-149102595D01*
X103502484Y-149095197D01*
X103502508Y-149095224D01*
X103505500Y-149092571D01*
X103508733Y-149089868D01*
X103514852Y-149085856D01*
X103568128Y-149029617D01*
X103570506Y-149027175D01*
X105427276Y-147170405D01*
X105489588Y-147136379D01*
X105516371Y-147133500D01*
X106287900Y-147133500D01*
X106291146Y-147133163D01*
X106291150Y-147133163D01*
X106386807Y-147123238D01*
X106386811Y-147123237D01*
X106393665Y-147122526D01*
X106400201Y-147120345D01*
X106400203Y-147120345D01*
X106532305Y-147076272D01*
X106561445Y-147066550D01*
X106711848Y-146973478D01*
X106836805Y-146848303D01*
X106867851Y-146797937D01*
X106925775Y-146703968D01*
X106925776Y-146703966D01*
X106929615Y-146697738D01*
X106979711Y-146546703D01*
X106983132Y-146536389D01*
X106983132Y-146536387D01*
X106985297Y-146529861D01*
X106986009Y-146522919D01*
X106993635Y-146448478D01*
X106996000Y-146425400D01*
X106996000Y-146422096D01*
X107529500Y-146422096D01*
X107529837Y-146428611D01*
X107539756Y-146524203D01*
X107542650Y-146537602D01*
X107594088Y-146691783D01*
X107600262Y-146704962D01*
X107685563Y-146842807D01*
X107694599Y-146854208D01*
X107809330Y-146968739D01*
X107820741Y-146977751D01*
X107958745Y-147062818D01*
X107971923Y-147068962D01*
X108126216Y-147120139D01*
X108139581Y-147123005D01*
X108233939Y-147132672D01*
X108240355Y-147133000D01*
X108477885Y-147133000D01*
X108493124Y-147128525D01*
X108494329Y-147127135D01*
X108496000Y-147119452D01*
X108496000Y-147114885D01*
X109004000Y-147114885D01*
X109008475Y-147130124D01*
X109009865Y-147131329D01*
X109017548Y-147133000D01*
X109259596Y-147133000D01*
X109266111Y-147132663D01*
X109361703Y-147122744D01*
X109375102Y-147119850D01*
X109529283Y-147068412D01*
X109542462Y-147062238D01*
X109680307Y-146976937D01*
X109691708Y-146967901D01*
X109806239Y-146853170D01*
X109815251Y-146841759D01*
X109900318Y-146703755D01*
X109906462Y-146690577D01*
X109957639Y-146536284D01*
X109960505Y-146522919D01*
X109970172Y-146428561D01*
X109970500Y-146422145D01*
X109970500Y-146022115D01*
X109966025Y-146006876D01*
X109964635Y-146005671D01*
X109956952Y-146004000D01*
X109022115Y-146004000D01*
X109006876Y-146008475D01*
X109005671Y-146009865D01*
X109004000Y-146017548D01*
X109004000Y-147114885D01*
X108496000Y-147114885D01*
X108496000Y-146022115D01*
X108491525Y-146006876D01*
X108490135Y-146005671D01*
X108482452Y-146004000D01*
X107547615Y-146004000D01*
X107532376Y-146008475D01*
X107531171Y-146009865D01*
X107529500Y-146017548D01*
X107529500Y-146422096D01*
X106996000Y-146422096D01*
X106996000Y-145477885D01*
X107529500Y-145477885D01*
X107533975Y-145493124D01*
X107535365Y-145494329D01*
X107543048Y-145496000D01*
X108477885Y-145496000D01*
X108493124Y-145491525D01*
X108494329Y-145490135D01*
X108496000Y-145482452D01*
X108496000Y-145477885D01*
X109004000Y-145477885D01*
X109008475Y-145493124D01*
X109009865Y-145494329D01*
X109017548Y-145496000D01*
X109952385Y-145496000D01*
X109967624Y-145491525D01*
X109968829Y-145490135D01*
X109970500Y-145482452D01*
X109970500Y-145077904D01*
X109970163Y-145071389D01*
X109960244Y-144975797D01*
X109957350Y-144962398D01*
X109905912Y-144808217D01*
X109899738Y-144795038D01*
X109814437Y-144657193D01*
X109805401Y-144645792D01*
X109690670Y-144531261D01*
X109679259Y-144522249D01*
X109541255Y-144437182D01*
X109528077Y-144431038D01*
X109373784Y-144379861D01*
X109360419Y-144376995D01*
X109266061Y-144367328D01*
X109259644Y-144367000D01*
X109022115Y-144367000D01*
X109006876Y-144371475D01*
X109005671Y-144372865D01*
X109004000Y-144380548D01*
X109004000Y-145477885D01*
X108496000Y-145477885D01*
X108496000Y-144385115D01*
X108491525Y-144369876D01*
X108490135Y-144368671D01*
X108482452Y-144367000D01*
X108240404Y-144367000D01*
X108233889Y-144367337D01*
X108138297Y-144377256D01*
X108124898Y-144380150D01*
X107970717Y-144431588D01*
X107957538Y-144437762D01*
X107819693Y-144523063D01*
X107808292Y-144532099D01*
X107693761Y-144646830D01*
X107684749Y-144658241D01*
X107599682Y-144796245D01*
X107593538Y-144809423D01*
X107542361Y-144963716D01*
X107539495Y-144977081D01*
X107529828Y-145071439D01*
X107529500Y-145077856D01*
X107529500Y-145477885D01*
X106996000Y-145477885D01*
X106996000Y-145074600D01*
X106992526Y-145041115D01*
X106985738Y-144975693D01*
X106985737Y-144975689D01*
X106985026Y-144968835D01*
X106929050Y-144801055D01*
X106835978Y-144650652D01*
X106710803Y-144525695D01*
X106669104Y-144499991D01*
X106566468Y-144436725D01*
X106566466Y-144436724D01*
X106560238Y-144432885D01*
X106480495Y-144406436D01*
X106398889Y-144379368D01*
X106398887Y-144379368D01*
X106392361Y-144377203D01*
X106385525Y-144376503D01*
X106385522Y-144376502D01*
X106341209Y-144371962D01*
X106287900Y-144366500D01*
X105262100Y-144366500D01*
X105258854Y-144366837D01*
X105258850Y-144366837D01*
X105163193Y-144376762D01*
X105163189Y-144376763D01*
X105156335Y-144377474D01*
X105149799Y-144379655D01*
X105149797Y-144379655D01*
X105017695Y-144423728D01*
X104988555Y-144433450D01*
X104838152Y-144526522D01*
X104713195Y-144651697D01*
X104709355Y-144657927D01*
X104709354Y-144657928D01*
X104701618Y-144670479D01*
X104620385Y-144802262D01*
X104618010Y-144809423D01*
X104567271Y-144962398D01*
X104564703Y-144970139D01*
X104564003Y-144976975D01*
X104564002Y-144976978D01*
X104561441Y-145001978D01*
X104554000Y-145074600D01*
X104554000Y-145846129D01*
X104533998Y-145914250D01*
X104517095Y-145935224D01*
X102747724Y-147704595D01*
X102685412Y-147738621D01*
X102658629Y-147741500D01*
X93635371Y-147741500D01*
X93567250Y-147721498D01*
X93520757Y-147667842D01*
X93510653Y-147597568D01*
X93540147Y-147532988D01*
X93546276Y-147526405D01*
X94527276Y-146545405D01*
X94589588Y-146511379D01*
X94616371Y-146508500D01*
X97466622Y-146508500D01*
X97534743Y-146528502D01*
X97581236Y-146582158D01*
X97586144Y-146594618D01*
X97620950Y-146698945D01*
X97714022Y-146849348D01*
X97839197Y-146974305D01*
X97845427Y-146978145D01*
X97845428Y-146978146D01*
X97982590Y-147062694D01*
X97989762Y-147067115D01*
X98026656Y-147079352D01*
X98151111Y-147120632D01*
X98151113Y-147120632D01*
X98157639Y-147122797D01*
X98164475Y-147123497D01*
X98164478Y-147123498D01*
X98207531Y-147127909D01*
X98262100Y-147133500D01*
X99287900Y-147133500D01*
X99291146Y-147133163D01*
X99291150Y-147133163D01*
X99386807Y-147123238D01*
X99386811Y-147123237D01*
X99393665Y-147122526D01*
X99400201Y-147120345D01*
X99400203Y-147120345D01*
X99532305Y-147076272D01*
X99561445Y-147066550D01*
X99711848Y-146973478D01*
X99836805Y-146848303D01*
X99867851Y-146797937D01*
X99925775Y-146703968D01*
X99925776Y-146703966D01*
X99929615Y-146697738D01*
X99979711Y-146546703D01*
X99983132Y-146536389D01*
X99983132Y-146536387D01*
X99985297Y-146529861D01*
X99986009Y-146522919D01*
X99993635Y-146448478D01*
X99996000Y-146425400D01*
X99996000Y-146422096D01*
X100529500Y-146422096D01*
X100529837Y-146428611D01*
X100539756Y-146524203D01*
X100542650Y-146537602D01*
X100594088Y-146691783D01*
X100600262Y-146704962D01*
X100685563Y-146842807D01*
X100694599Y-146854208D01*
X100809330Y-146968739D01*
X100820741Y-146977751D01*
X100958745Y-147062818D01*
X100971923Y-147068962D01*
X101126216Y-147120139D01*
X101139581Y-147123005D01*
X101233939Y-147132672D01*
X101240355Y-147133000D01*
X101477885Y-147133000D01*
X101493124Y-147128525D01*
X101494329Y-147127135D01*
X101496000Y-147119452D01*
X101496000Y-147114885D01*
X102004000Y-147114885D01*
X102008475Y-147130124D01*
X102009865Y-147131329D01*
X102017548Y-147133000D01*
X102259596Y-147133000D01*
X102266111Y-147132663D01*
X102361703Y-147122744D01*
X102375102Y-147119850D01*
X102529283Y-147068412D01*
X102542462Y-147062238D01*
X102680307Y-146976937D01*
X102691708Y-146967901D01*
X102806239Y-146853170D01*
X102815251Y-146841759D01*
X102900318Y-146703755D01*
X102906462Y-146690577D01*
X102957639Y-146536284D01*
X102960505Y-146522919D01*
X102970172Y-146428561D01*
X102970500Y-146422145D01*
X102970500Y-146022115D01*
X102966025Y-146006876D01*
X102964635Y-146005671D01*
X102956952Y-146004000D01*
X102022115Y-146004000D01*
X102006876Y-146008475D01*
X102005671Y-146009865D01*
X102004000Y-146017548D01*
X102004000Y-147114885D01*
X101496000Y-147114885D01*
X101496000Y-146022115D01*
X101491525Y-146006876D01*
X101490135Y-146005671D01*
X101482452Y-146004000D01*
X100547615Y-146004000D01*
X100532376Y-146008475D01*
X100531171Y-146009865D01*
X100529500Y-146017548D01*
X100529500Y-146422096D01*
X99996000Y-146422096D01*
X99996000Y-145477885D01*
X100529500Y-145477885D01*
X100533975Y-145493124D01*
X100535365Y-145494329D01*
X100543048Y-145496000D01*
X101477885Y-145496000D01*
X101493124Y-145491525D01*
X101494329Y-145490135D01*
X101496000Y-145482452D01*
X101496000Y-145477885D01*
X102004000Y-145477885D01*
X102008475Y-145493124D01*
X102009865Y-145494329D01*
X102017548Y-145496000D01*
X102952385Y-145496000D01*
X102967624Y-145491525D01*
X102968829Y-145490135D01*
X102970500Y-145482452D01*
X102970500Y-145077904D01*
X102970163Y-145071389D01*
X102960244Y-144975797D01*
X102957350Y-144962398D01*
X102905912Y-144808217D01*
X102899738Y-144795038D01*
X102814437Y-144657193D01*
X102805401Y-144645792D01*
X102690670Y-144531261D01*
X102679259Y-144522249D01*
X102541255Y-144437182D01*
X102528077Y-144431038D01*
X102373784Y-144379861D01*
X102360419Y-144376995D01*
X102266061Y-144367328D01*
X102259644Y-144367000D01*
X102022115Y-144367000D01*
X102006876Y-144371475D01*
X102005671Y-144372865D01*
X102004000Y-144380548D01*
X102004000Y-145477885D01*
X101496000Y-145477885D01*
X101496000Y-144385115D01*
X101491525Y-144369876D01*
X101490135Y-144368671D01*
X101482452Y-144367000D01*
X101240404Y-144367000D01*
X101233889Y-144367337D01*
X101138297Y-144377256D01*
X101124898Y-144380150D01*
X100970717Y-144431588D01*
X100957538Y-144437762D01*
X100819693Y-144523063D01*
X100808292Y-144532099D01*
X100693761Y-144646830D01*
X100684749Y-144658241D01*
X100599682Y-144796245D01*
X100593538Y-144809423D01*
X100542361Y-144963716D01*
X100539495Y-144977081D01*
X100529828Y-145071439D01*
X100529500Y-145077856D01*
X100529500Y-145477885D01*
X99996000Y-145477885D01*
X99996000Y-145074600D01*
X99992526Y-145041115D01*
X99985738Y-144975693D01*
X99985737Y-144975689D01*
X99985026Y-144968835D01*
X99929050Y-144801055D01*
X99835978Y-144650652D01*
X99710803Y-144525695D01*
X99669104Y-144499991D01*
X99566468Y-144436725D01*
X99566466Y-144436724D01*
X99560238Y-144432885D01*
X99480495Y-144406436D01*
X99398889Y-144379368D01*
X99398887Y-144379368D01*
X99392361Y-144377203D01*
X99385525Y-144376503D01*
X99385522Y-144376502D01*
X99341209Y-144371962D01*
X99287900Y-144366500D01*
X98262100Y-144366500D01*
X98258854Y-144366837D01*
X98258850Y-144366837D01*
X98163193Y-144376762D01*
X98163189Y-144376763D01*
X98156335Y-144377474D01*
X98149799Y-144379655D01*
X98149797Y-144379655D01*
X98017695Y-144423728D01*
X97988555Y-144433450D01*
X97838152Y-144526522D01*
X97713195Y-144651697D01*
X97709355Y-144657927D01*
X97709354Y-144657928D01*
X97701618Y-144670479D01*
X97620385Y-144802262D01*
X97612494Y-144826054D01*
X97586253Y-144905167D01*
X97545822Y-144963527D01*
X97480258Y-144990764D01*
X97466660Y-144991500D01*
X94317063Y-144991500D01*
X94298114Y-144990067D01*
X94297907Y-144990036D01*
X94276651Y-144986802D01*
X94269359Y-144987395D01*
X94269356Y-144987395D01*
X94223991Y-144991085D01*
X94213777Y-144991500D01*
X94205707Y-144991500D01*
X94202087Y-144991922D01*
X94202069Y-144991923D01*
X94177461Y-144994792D01*
X94173100Y-144995224D01*
X94147981Y-144997267D01*
X94107661Y-145000546D01*
X94107658Y-145000547D01*
X94100363Y-145001140D01*
X94093399Y-145003396D01*
X94087440Y-145004587D01*
X94081585Y-145005971D01*
X94074319Y-145006818D01*
X94005673Y-145031735D01*
X94001545Y-145033152D01*
X93939064Y-145053393D01*
X93939062Y-145053394D01*
X93932101Y-145055649D01*
X93925846Y-145059445D01*
X93920372Y-145061951D01*
X93914942Y-145064670D01*
X93908063Y-145067167D01*
X93901943Y-145071180D01*
X93901942Y-145071180D01*
X93901547Y-145071439D01*
X93847016Y-145107191D01*
X93843327Y-145109518D01*
X93823135Y-145121771D01*
X93785693Y-145144491D01*
X93785688Y-145144495D01*
X93780892Y-145147405D01*
X93772516Y-145154803D01*
X93772493Y-145154777D01*
X93769503Y-145157426D01*
X93766264Y-145160134D01*
X93760148Y-145164144D01*
X93755121Y-145169451D01*
X93755117Y-145169454D01*
X93706872Y-145220383D01*
X93704494Y-145222825D01*
X92472724Y-146454595D01*
X92410412Y-146488621D01*
X92383629Y-146491500D01*
X71921309Y-146491500D01*
X71853188Y-146471498D01*
X71806695Y-146417842D01*
X71796591Y-146347568D01*
X71814049Y-146299384D01*
X71888275Y-146178968D01*
X71888276Y-146178966D01*
X71892115Y-146172738D01*
X71938442Y-146033067D01*
X71945632Y-146011389D01*
X71945632Y-146011387D01*
X71947797Y-146004861D01*
X71958500Y-145900400D01*
X71958500Y-145099600D01*
X71955906Y-145074600D01*
X71948238Y-145000692D01*
X71948237Y-145000688D01*
X71947526Y-144993834D01*
X71945184Y-144986812D01*
X71893868Y-144833002D01*
X71891550Y-144826054D01*
X71798478Y-144675652D01*
X71711891Y-144589216D01*
X71677812Y-144526934D01*
X71682815Y-144456114D01*
X71711736Y-144411025D01*
X71794134Y-144328483D01*
X71799305Y-144323303D01*
X71892115Y-144172738D01*
X71947797Y-144004861D01*
X71958500Y-143900400D01*
X71958500Y-143099600D01*
X71949039Y-143008415D01*
X71948238Y-143000692D01*
X71948237Y-143000688D01*
X71947526Y-142993834D01*
X71941502Y-142975776D01*
X71893868Y-142833002D01*
X71891550Y-142826054D01*
X71798478Y-142675652D01*
X71673303Y-142550695D01*
X71610183Y-142511787D01*
X71528968Y-142461725D01*
X71528966Y-142461724D01*
X71522738Y-142457885D01*
X71489833Y-142446971D01*
X71431473Y-142406541D01*
X71404236Y-142340977D01*
X71403500Y-142327378D01*
X71403500Y-140302465D01*
X71423502Y-140234344D01*
X71463664Y-140195033D01*
X71474811Y-140188202D01*
X71534416Y-140151676D01*
X71538653Y-140148057D01*
X71711213Y-140000677D01*
X71714969Y-139997469D01*
X71718177Y-139993713D01*
X71718182Y-139993708D01*
X71819189Y-139875444D01*
X71878639Y-139836634D01*
X71949634Y-139836128D01*
X72010811Y-139875444D01*
X72111818Y-139993708D01*
X72111823Y-139993713D01*
X72115031Y-139997469D01*
X72295584Y-140151676D01*
X72299792Y-140154255D01*
X72299798Y-140154259D01*
X72425485Y-140231280D01*
X72498037Y-140275740D01*
X72502607Y-140277633D01*
X72502611Y-140277635D01*
X72712833Y-140364711D01*
X72717406Y-140366605D01*
X72765349Y-140378115D01*
X72943476Y-140420880D01*
X72943482Y-140420881D01*
X72948289Y-140422035D01*
X73185000Y-140440665D01*
X73421711Y-140422035D01*
X73426518Y-140420881D01*
X73426524Y-140420880D01*
X73604651Y-140378115D01*
X73652594Y-140366605D01*
X73657167Y-140364711D01*
X73867389Y-140277635D01*
X73867393Y-140277633D01*
X73871963Y-140275740D01*
X73944515Y-140231280D01*
X74070202Y-140154259D01*
X74070208Y-140154255D01*
X74074416Y-140151676D01*
X74254969Y-139997469D01*
X74258177Y-139993713D01*
X74258182Y-139993708D01*
X74359189Y-139875444D01*
X74418639Y-139836634D01*
X74489634Y-139836128D01*
X74550811Y-139875444D01*
X74651818Y-139993708D01*
X74651823Y-139993713D01*
X74655031Y-139997469D01*
X74835584Y-140151676D01*
X74839792Y-140154255D01*
X74839798Y-140154259D01*
X74965485Y-140231280D01*
X75038037Y-140275740D01*
X75042607Y-140277633D01*
X75042611Y-140277635D01*
X75252833Y-140364711D01*
X75257406Y-140366605D01*
X75305349Y-140378115D01*
X75483476Y-140420880D01*
X75483482Y-140420881D01*
X75488289Y-140422035D01*
X75725000Y-140440665D01*
X75961711Y-140422035D01*
X75966518Y-140420881D01*
X75966524Y-140420880D01*
X76144651Y-140378115D01*
X76192594Y-140366605D01*
X76197167Y-140364711D01*
X76407389Y-140277635D01*
X76407393Y-140277633D01*
X76411963Y-140275740D01*
X76484515Y-140231280D01*
X76610202Y-140154259D01*
X76610208Y-140154255D01*
X76614416Y-140151676D01*
X76794969Y-139997469D01*
X76798177Y-139993713D01*
X76798182Y-139993708D01*
X76899189Y-139875444D01*
X76958639Y-139836634D01*
X77029634Y-139836128D01*
X77090811Y-139875444D01*
X77191818Y-139993708D01*
X77191823Y-139993713D01*
X77195031Y-139997469D01*
X77375584Y-140151676D01*
X77379792Y-140154255D01*
X77379798Y-140154259D01*
X77505485Y-140231280D01*
X77578037Y-140275740D01*
X77582607Y-140277633D01*
X77582611Y-140277635D01*
X77792833Y-140364711D01*
X77797406Y-140366605D01*
X77845349Y-140378115D01*
X78023476Y-140420880D01*
X78023482Y-140420881D01*
X78028289Y-140422035D01*
X78215387Y-140436760D01*
X78281727Y-140462046D01*
X78323867Y-140519184D01*
X78331500Y-140562372D01*
X78331500Y-142907655D01*
X78311498Y-142975776D01*
X78281153Y-143008415D01*
X78276774Y-143011703D01*
X78184965Y-143080635D01*
X78128537Y-143139684D01*
X78104283Y-143165064D01*
X78042759Y-143200494D01*
X77971846Y-143197037D01*
X77914060Y-143155791D01*
X77895207Y-143122243D01*
X77853767Y-143011703D01*
X77850615Y-143003295D01*
X77763261Y-142886739D01*
X77646705Y-142799385D01*
X77510316Y-142748255D01*
X77448134Y-142741500D01*
X75651866Y-142741500D01*
X75589684Y-142748255D01*
X75453295Y-142799385D01*
X75336739Y-142886739D01*
X75249385Y-143003295D01*
X75198255Y-143139684D01*
X75191500Y-143201866D01*
X75191500Y-144998134D01*
X75198255Y-145060316D01*
X75249385Y-145196705D01*
X75336739Y-145313261D01*
X75453295Y-145400615D01*
X75589684Y-145451745D01*
X75651866Y-145458500D01*
X77448134Y-145458500D01*
X77510316Y-145451745D01*
X77646705Y-145400615D01*
X77763261Y-145313261D01*
X77850615Y-145196705D01*
X77865340Y-145157426D01*
X77894598Y-145079382D01*
X77937240Y-145022618D01*
X78003802Y-144997918D01*
X78073150Y-145013126D01*
X78107817Y-145041114D01*
X78136250Y-145073938D01*
X78308126Y-145216632D01*
X78501000Y-145329338D01*
X78709692Y-145409030D01*
X78714760Y-145410061D01*
X78714763Y-145410062D01*
X78809862Y-145429410D01*
X78928597Y-145453567D01*
X78933772Y-145453757D01*
X78933774Y-145453757D01*
X79146673Y-145461564D01*
X79146677Y-145461564D01*
X79151837Y-145461753D01*
X79156957Y-145461097D01*
X79156959Y-145461097D01*
X79368288Y-145434025D01*
X79368289Y-145434025D01*
X79373416Y-145433368D01*
X79378366Y-145431883D01*
X79582429Y-145370661D01*
X79582434Y-145370659D01*
X79587384Y-145369174D01*
X79787994Y-145270896D01*
X79969860Y-145141173D01*
X80031921Y-145079329D01*
X80078259Y-145033152D01*
X80128096Y-144983489D01*
X80258453Y-144802077D01*
X80259776Y-144803028D01*
X80306645Y-144759857D01*
X80376580Y-144747625D01*
X80442026Y-144775144D01*
X80469875Y-144806994D01*
X80474125Y-144813929D01*
X80529987Y-144905088D01*
X80676250Y-145073938D01*
X80848126Y-145216632D01*
X81041000Y-145329338D01*
X81249692Y-145409030D01*
X81254760Y-145410061D01*
X81254763Y-145410062D01*
X81349862Y-145429410D01*
X81468597Y-145453567D01*
X81473772Y-145453757D01*
X81473774Y-145453757D01*
X81686673Y-145461564D01*
X81686677Y-145461564D01*
X81691837Y-145461753D01*
X81696957Y-145461097D01*
X81696959Y-145461097D01*
X81908288Y-145434025D01*
X81908289Y-145434025D01*
X81913416Y-145433368D01*
X81918366Y-145431883D01*
X82122429Y-145370661D01*
X82122434Y-145370659D01*
X82127384Y-145369174D01*
X82327994Y-145270896D01*
X82509860Y-145141173D01*
X82571921Y-145079329D01*
X82618259Y-145033152D01*
X82668096Y-144983489D01*
X82798453Y-144802077D01*
X82799776Y-144803028D01*
X82846645Y-144759857D01*
X82916580Y-144747625D01*
X82982026Y-144775144D01*
X83009875Y-144806994D01*
X83014125Y-144813929D01*
X83069987Y-144905088D01*
X83216250Y-145073938D01*
X83388126Y-145216632D01*
X83581000Y-145329338D01*
X83789692Y-145409030D01*
X83794760Y-145410061D01*
X83794763Y-145410062D01*
X83889862Y-145429410D01*
X84008597Y-145453567D01*
X84013772Y-145453757D01*
X84013774Y-145453757D01*
X84226673Y-145461564D01*
X84226677Y-145461564D01*
X84231837Y-145461753D01*
X84236957Y-145461097D01*
X84236959Y-145461097D01*
X84448288Y-145434025D01*
X84448289Y-145434025D01*
X84453416Y-145433368D01*
X84458366Y-145431883D01*
X84662429Y-145370661D01*
X84662434Y-145370659D01*
X84667384Y-145369174D01*
X84867994Y-145270896D01*
X85049860Y-145141173D01*
X85111921Y-145079329D01*
X85158259Y-145033152D01*
X85208096Y-144983489D01*
X85338453Y-144802077D01*
X85339776Y-144803028D01*
X85386645Y-144759857D01*
X85456580Y-144747625D01*
X85522026Y-144775144D01*
X85549875Y-144806994D01*
X85554125Y-144813929D01*
X85609987Y-144905088D01*
X85756250Y-145073938D01*
X85928126Y-145216632D01*
X86121000Y-145329338D01*
X86329692Y-145409030D01*
X86334760Y-145410061D01*
X86334763Y-145410062D01*
X86429862Y-145429410D01*
X86548597Y-145453567D01*
X86553772Y-145453757D01*
X86553774Y-145453757D01*
X86766673Y-145461564D01*
X86766677Y-145461564D01*
X86771837Y-145461753D01*
X86776957Y-145461097D01*
X86776959Y-145461097D01*
X86988288Y-145434025D01*
X86988289Y-145434025D01*
X86993416Y-145433368D01*
X86998366Y-145431883D01*
X87202429Y-145370661D01*
X87202434Y-145370659D01*
X87207384Y-145369174D01*
X87407994Y-145270896D01*
X87589860Y-145141173D01*
X87651921Y-145079329D01*
X87698259Y-145033152D01*
X87748096Y-144983489D01*
X87878453Y-144802077D01*
X87879640Y-144802930D01*
X87926960Y-144759362D01*
X87996897Y-144747145D01*
X88062338Y-144774678D01*
X88090166Y-144806511D01*
X88147694Y-144900388D01*
X88153777Y-144908699D01*
X88293213Y-145069667D01*
X88300580Y-145076883D01*
X88464434Y-145212916D01*
X88472881Y-145218831D01*
X88656756Y-145326279D01*
X88666042Y-145330729D01*
X88865001Y-145406703D01*
X88874899Y-145409579D01*
X88978250Y-145430606D01*
X88992299Y-145429410D01*
X88996000Y-145419065D01*
X88996000Y-145418517D01*
X89504000Y-145418517D01*
X89508064Y-145432359D01*
X89521478Y-145434393D01*
X89528184Y-145433534D01*
X89538262Y-145431392D01*
X89742255Y-145370191D01*
X89751842Y-145366433D01*
X89943095Y-145272739D01*
X89951945Y-145267464D01*
X90125328Y-145143792D01*
X90133200Y-145137139D01*
X90284052Y-144986812D01*
X90290730Y-144978965D01*
X90415003Y-144806020D01*
X90420313Y-144797183D01*
X90514670Y-144606267D01*
X90518469Y-144596672D01*
X90580377Y-144392910D01*
X90582555Y-144382837D01*
X90583986Y-144371962D01*
X90581775Y-144357778D01*
X90568617Y-144354000D01*
X89522115Y-144354000D01*
X89506876Y-144358475D01*
X89505671Y-144359865D01*
X89504000Y-144367548D01*
X89504000Y-145418517D01*
X88996000Y-145418517D01*
X88996000Y-143827885D01*
X89504000Y-143827885D01*
X89508475Y-143843124D01*
X89509865Y-143844329D01*
X89517548Y-143846000D01*
X90568344Y-143846000D01*
X90581875Y-143842027D01*
X90583180Y-143832947D01*
X90541214Y-143665875D01*
X90537894Y-143656124D01*
X90452972Y-143460814D01*
X90448105Y-143451739D01*
X90332426Y-143272926D01*
X90326136Y-143264757D01*
X90182806Y-143107240D01*
X90175273Y-143100215D01*
X90008139Y-142968222D01*
X89999552Y-142962517D01*
X89813117Y-142859599D01*
X89803705Y-142855369D01*
X89602959Y-142784280D01*
X89592988Y-142781646D01*
X89521837Y-142768972D01*
X89508540Y-142770432D01*
X89504000Y-142784989D01*
X89504000Y-143827885D01*
X88996000Y-143827885D01*
X88996000Y-142783102D01*
X88992082Y-142769758D01*
X88977806Y-142767771D01*
X88939324Y-142773660D01*
X88929288Y-142776051D01*
X88726868Y-142842212D01*
X88717359Y-142846209D01*
X88528463Y-142944542D01*
X88519738Y-142950036D01*
X88349433Y-143077905D01*
X88341726Y-143084748D01*
X88194590Y-143238717D01*
X88188109Y-143246722D01*
X88083498Y-143400074D01*
X88028587Y-143445076D01*
X87958062Y-143453247D01*
X87894315Y-143421993D01*
X87873618Y-143397509D01*
X87792822Y-143272617D01*
X87792820Y-143272614D01*
X87790014Y-143268277D01*
X87639670Y-143103051D01*
X87635301Y-143099600D01*
X87516407Y-143005703D01*
X87475345Y-142947785D01*
X87468500Y-142906821D01*
X87468500Y-142656371D01*
X87488502Y-142588250D01*
X87505405Y-142567276D01*
X87777276Y-142295405D01*
X87839588Y-142261379D01*
X87866371Y-142258500D01*
X94682930Y-142258500D01*
X94701880Y-142259933D01*
X94716115Y-142262099D01*
X94716119Y-142262099D01*
X94723349Y-142263199D01*
X94730641Y-142262606D01*
X94730644Y-142262606D01*
X94776018Y-142258915D01*
X94786233Y-142258500D01*
X94794293Y-142258500D01*
X94807583Y-142256951D01*
X94822507Y-142255211D01*
X94826882Y-142254778D01*
X94892339Y-142249454D01*
X94892342Y-142249453D01*
X94899637Y-142248860D01*
X94906601Y-142246604D01*
X94912560Y-142245413D01*
X94918415Y-142244029D01*
X94925681Y-142243182D01*
X94994327Y-142218265D01*
X94998455Y-142216848D01*
X95060936Y-142196607D01*
X95060938Y-142196606D01*
X95067899Y-142194351D01*
X95074154Y-142190555D01*
X95079628Y-142188049D01*
X95085058Y-142185330D01*
X95091937Y-142182833D01*
X95152976Y-142142814D01*
X95156680Y-142140477D01*
X95219107Y-142102595D01*
X95227484Y-142095197D01*
X95227508Y-142095224D01*
X95230500Y-142092571D01*
X95233733Y-142089868D01*
X95239852Y-142085856D01*
X95293128Y-142029617D01*
X95295506Y-142027175D01*
X96533911Y-140788770D01*
X96548323Y-140776384D01*
X96559918Y-140767851D01*
X96559923Y-140767846D01*
X96565818Y-140763508D01*
X96570557Y-140757930D01*
X96570560Y-140757927D01*
X96600035Y-140723232D01*
X96606965Y-140715716D01*
X96612661Y-140710020D01*
X96614924Y-140707159D01*
X96614929Y-140707154D01*
X96630293Y-140687734D01*
X96633082Y-140684333D01*
X96675592Y-140634296D01*
X96675594Y-140634294D01*
X96680333Y-140628715D01*
X96683662Y-140622195D01*
X96687028Y-140617148D01*
X96690193Y-140612024D01*
X96694735Y-140606283D01*
X96725637Y-140540164D01*
X96727565Y-140536218D01*
X96757442Y-140477708D01*
X96757443Y-140477706D01*
X96760769Y-140471192D01*
X96762508Y-140464086D01*
X96764609Y-140458436D01*
X96766524Y-140452679D01*
X96769622Y-140446050D01*
X96784491Y-140374565D01*
X96785461Y-140370282D01*
X96791198Y-140346837D01*
X96802808Y-140299390D01*
X96803156Y-140293784D01*
X96803999Y-140288242D01*
X96805469Y-140288466D01*
X96827258Y-140228318D01*
X96862999Y-140195441D01*
X96930191Y-140154265D01*
X96934416Y-140151676D01*
X96938653Y-140148057D01*
X97111213Y-140000677D01*
X97114969Y-139997469D01*
X97269176Y-139816916D01*
X97271755Y-139812708D01*
X97271759Y-139812702D01*
X97390654Y-139618683D01*
X97393240Y-139614463D01*
X97463927Y-139443808D01*
X97508475Y-139388527D01*
X97575838Y-139366106D01*
X97644630Y-139383664D01*
X97693584Y-139436791D01*
X97731340Y-139514202D01*
X97733795Y-139517841D01*
X97733798Y-139517847D01*
X97795881Y-139609889D01*
X97888415Y-139747076D01*
X98076371Y-139955822D01*
X98291550Y-140136379D01*
X98529764Y-140285231D01*
X98642798Y-140335557D01*
X98745464Y-140381267D01*
X98786375Y-140399482D01*
X98790603Y-140400694D01*
X98790602Y-140400694D01*
X98991974Y-140458436D01*
X99056390Y-140476907D01*
X99060740Y-140477518D01*
X99060743Y-140477519D01*
X99163690Y-140491987D01*
X99334552Y-140516000D01*
X99545146Y-140516000D01*
X99547332Y-140515847D01*
X99547336Y-140515847D01*
X99750827Y-140501618D01*
X99750832Y-140501617D01*
X99755212Y-140501311D01*
X100029970Y-140442909D01*
X100034099Y-140441406D01*
X100034103Y-140441405D01*
X100289781Y-140348346D01*
X100289785Y-140348344D01*
X100293926Y-140346837D01*
X100541942Y-140214964D01*
X100551734Y-140207850D01*
X100765629Y-140052447D01*
X100765632Y-140052444D01*
X100769192Y-140049858D01*
X100820121Y-140000677D01*
X100968087Y-139857787D01*
X100971252Y-139854731D01*
X101144188Y-139633382D01*
X101146384Y-139629578D01*
X101146389Y-139629571D01*
X101282435Y-139393931D01*
X101284636Y-139390119D01*
X101389862Y-139129676D01*
X101404096Y-139072588D01*
X101456753Y-138861393D01*
X101456754Y-138861388D01*
X101457817Y-138857124D01*
X101459785Y-138838405D01*
X101486719Y-138582136D01*
X101486719Y-138582133D01*
X101487178Y-138577767D01*
X101487025Y-138573373D01*
X101477529Y-138301439D01*
X101477528Y-138301433D01*
X101477375Y-138297042D01*
X101475834Y-138288297D01*
X101434331Y-138052926D01*
X101428598Y-138020413D01*
X101341797Y-137753265D01*
X101339136Y-137747808D01*
X101274135Y-137614539D01*
X101218660Y-137500798D01*
X101216205Y-137497159D01*
X101216202Y-137497153D01*
X101120604Y-137355424D01*
X101067311Y-137276413D01*
X109584171Y-137276413D01*
X109607860Y-137518002D01*
X109669868Y-137752696D01*
X109671924Y-137757313D01*
X109671924Y-137757314D01*
X109748507Y-137929321D01*
X109768603Y-137974456D01*
X109771375Y-137978691D01*
X109773472Y-137982538D01*
X109788849Y-138042858D01*
X109788849Y-138098134D01*
X109795604Y-138160316D01*
X109846734Y-138296705D01*
X109934088Y-138413261D01*
X110050644Y-138500615D01*
X110187033Y-138551745D01*
X110249215Y-138558500D01*
X110313669Y-138558500D01*
X110375140Y-138574512D01*
X110462934Y-138623579D01*
X110462937Y-138623581D01*
X110467347Y-138626045D01*
X110472095Y-138627773D01*
X110472099Y-138627775D01*
X110690697Y-138707339D01*
X110690702Y-138707340D01*
X110695454Y-138709070D01*
X110700423Y-138710018D01*
X110700427Y-138710019D01*
X110928927Y-138753607D01*
X110933902Y-138754556D01*
X111089400Y-138758900D01*
X111171499Y-138761193D01*
X111171502Y-138761193D01*
X111176554Y-138761334D01*
X111181567Y-138760665D01*
X111181569Y-138760665D01*
X111412155Y-138729898D01*
X111417169Y-138729229D01*
X111422010Y-138727767D01*
X111422012Y-138727767D01*
X111619989Y-138667994D01*
X111622102Y-138667376D01*
X111627534Y-138665839D01*
X111627982Y-138667421D01*
X111628840Y-138667361D01*
X111628276Y-138665492D01*
X111644701Y-138660533D01*
X111644700Y-138660533D01*
X111649557Y-138659067D01*
X111654112Y-138656845D01*
X111654118Y-138656843D01*
X111811843Y-138579916D01*
X111813825Y-138578970D01*
X111832404Y-138570306D01*
X111885656Y-138558500D01*
X111945483Y-138558500D01*
X112007665Y-138551745D01*
X112144054Y-138500615D01*
X112260610Y-138413261D01*
X112318468Y-138336062D01*
X113875842Y-138336062D01*
X113885138Y-138348077D01*
X113936343Y-138383931D01*
X113945838Y-138389414D01*
X114143296Y-138481490D01*
X114153588Y-138485236D01*
X114364037Y-138541625D01*
X114374830Y-138543528D01*
X114591874Y-138562517D01*
X114602824Y-138562517D01*
X114819868Y-138543528D01*
X114830661Y-138541625D01*
X115041110Y-138485236D01*
X115051402Y-138481490D01*
X115248860Y-138389414D01*
X115258355Y-138383931D01*
X115310397Y-138347491D01*
X115318773Y-138337012D01*
X115311705Y-138323566D01*
X114610161Y-137622022D01*
X114596217Y-137614408D01*
X114594384Y-137614539D01*
X114587769Y-137618790D01*
X113882272Y-138324287D01*
X113875842Y-138336062D01*
X112318468Y-138336062D01*
X112347964Y-138296705D01*
X112399094Y-138160316D01*
X112405849Y-138098134D01*
X112405849Y-138038392D01*
X112424073Y-137973121D01*
X112450599Y-137929321D01*
X112450601Y-137929318D01*
X112453221Y-137924991D01*
X112465528Y-137894530D01*
X112471308Y-137882190D01*
X112474644Y-137875969D01*
X112486831Y-137853240D01*
X112512412Y-137778948D01*
X112514722Y-137772770D01*
X112541210Y-137707210D01*
X112544155Y-137699920D01*
X112551432Y-137667888D01*
X112555163Y-137654790D01*
X112565862Y-137623718D01*
X112579243Y-137546249D01*
X112580526Y-137539831D01*
X112585486Y-137518002D01*
X112597935Y-137463205D01*
X112599999Y-137430396D01*
X112601585Y-137416896D01*
X112607179Y-137384513D01*
X112608500Y-137355424D01*
X112608500Y-137299241D01*
X112608749Y-137291329D01*
X112609688Y-137276413D01*
X112611005Y-137255475D01*
X113284832Y-137255475D01*
X113303821Y-137472519D01*
X113305724Y-137483312D01*
X113362113Y-137693761D01*
X113365859Y-137704053D01*
X113457935Y-137901511D01*
X113463418Y-137911006D01*
X113499858Y-137963048D01*
X113510337Y-137971424D01*
X113523783Y-137964356D01*
X114225327Y-137262812D01*
X114231705Y-137251132D01*
X114961757Y-137251132D01*
X114961888Y-137252965D01*
X114966139Y-137259580D01*
X115671636Y-137965077D01*
X115683411Y-137971507D01*
X115695426Y-137962211D01*
X115731280Y-137911006D01*
X115736763Y-137901511D01*
X115828839Y-137704053D01*
X115832585Y-137693761D01*
X115888974Y-137483312D01*
X115890877Y-137472519D01*
X115909866Y-137255475D01*
X115909866Y-137244525D01*
X115890877Y-137027481D01*
X115888974Y-137016688D01*
X115832585Y-136806239D01*
X115828839Y-136795947D01*
X115736763Y-136598489D01*
X115731280Y-136588994D01*
X115694840Y-136536952D01*
X115684361Y-136528576D01*
X115670915Y-136535644D01*
X114969371Y-137237188D01*
X114961757Y-137251132D01*
X114231705Y-137251132D01*
X114232941Y-137248868D01*
X114232810Y-137247035D01*
X114228559Y-137240420D01*
X113523062Y-136534923D01*
X113511287Y-136528493D01*
X113499272Y-136537789D01*
X113463418Y-136588994D01*
X113457935Y-136598489D01*
X113365859Y-136795947D01*
X113362113Y-136806239D01*
X113305724Y-137016688D01*
X113303821Y-137027481D01*
X113284832Y-137244525D01*
X113284832Y-137255475D01*
X112611005Y-137255475D01*
X112613178Y-137220936D01*
X112609101Y-137179357D01*
X112608500Y-137167061D01*
X112608500Y-136162988D01*
X113875925Y-136162988D01*
X113882993Y-136176434D01*
X114584537Y-136877978D01*
X114598481Y-136885592D01*
X114600314Y-136885461D01*
X114606929Y-136881210D01*
X115312426Y-136175713D01*
X115318856Y-136163938D01*
X115309560Y-136151923D01*
X115258355Y-136116069D01*
X115248860Y-136110586D01*
X115051402Y-136018510D01*
X115041110Y-136014764D01*
X114830661Y-135958375D01*
X114819868Y-135956472D01*
X114602824Y-135937483D01*
X114591874Y-135937483D01*
X114374830Y-135956472D01*
X114364037Y-135958375D01*
X114153588Y-136014764D01*
X114143296Y-136018510D01*
X113945838Y-136110586D01*
X113936343Y-136116069D01*
X113884301Y-136152509D01*
X113875925Y-136162988D01*
X112608500Y-136162988D01*
X112608500Y-130782670D01*
X133032160Y-130782670D01*
X133037887Y-130790320D01*
X133209042Y-130895205D01*
X133217837Y-130899687D01*
X133427988Y-130986734D01*
X133437373Y-130989783D01*
X133658554Y-131042885D01*
X133668301Y-131044428D01*
X133895070Y-131062275D01*
X133904930Y-131062275D01*
X134131699Y-131044428D01*
X134141446Y-131042885D01*
X134362627Y-130989783D01*
X134372012Y-130986734D01*
X134582163Y-130899687D01*
X134590958Y-130895205D01*
X134758445Y-130792568D01*
X134767907Y-130782110D01*
X134764124Y-130773334D01*
X133912812Y-129922022D01*
X133898868Y-129914408D01*
X133897035Y-129914539D01*
X133890420Y-129918790D01*
X133038920Y-130770290D01*
X133032160Y-130782670D01*
X112608500Y-130782670D01*
X112608500Y-129614229D01*
X112608888Y-129604343D01*
X112612777Y-129554930D01*
X132387725Y-129554930D01*
X132405572Y-129781699D01*
X132407115Y-129791446D01*
X132460217Y-130012627D01*
X132463266Y-130022012D01*
X132550313Y-130232163D01*
X132554795Y-130240958D01*
X132657432Y-130408445D01*
X132667890Y-130417907D01*
X132676666Y-130414124D01*
X133527978Y-129562812D01*
X133534356Y-129551132D01*
X134264408Y-129551132D01*
X134264539Y-129552965D01*
X134268790Y-129559580D01*
X135120290Y-130411080D01*
X135132670Y-130417840D01*
X135140320Y-130412113D01*
X135245205Y-130240958D01*
X135249687Y-130232163D01*
X135336734Y-130022012D01*
X135339783Y-130012627D01*
X135392885Y-129791446D01*
X135394428Y-129781699D01*
X135412275Y-129554930D01*
X135412275Y-129545070D01*
X135394428Y-129318301D01*
X135392885Y-129308554D01*
X135339783Y-129087373D01*
X135336734Y-129077988D01*
X135249687Y-128867837D01*
X135245205Y-128859042D01*
X135142568Y-128691555D01*
X135132110Y-128682093D01*
X135123334Y-128685876D01*
X134272022Y-129537188D01*
X134264408Y-129551132D01*
X133534356Y-129551132D01*
X133535592Y-129548868D01*
X133535461Y-129547035D01*
X133531210Y-129540420D01*
X132679710Y-128688920D01*
X132667330Y-128682160D01*
X132659680Y-128687887D01*
X132554795Y-128859042D01*
X132550313Y-128867837D01*
X132463266Y-129077988D01*
X132460217Y-129087373D01*
X132407115Y-129308554D01*
X132405572Y-129318301D01*
X132387725Y-129545070D01*
X132387725Y-129554930D01*
X112612777Y-129554930D01*
X112613165Y-129550000D01*
X112608623Y-129492289D01*
X112608500Y-129490213D01*
X112608500Y-129488999D01*
X112604826Y-129443339D01*
X112602281Y-129411702D01*
X112602263Y-129411483D01*
X112594720Y-129315640D01*
X112594535Y-129313289D01*
X112594276Y-129312210D01*
X112593940Y-129308035D01*
X112564411Y-129187815D01*
X112539105Y-129082406D01*
X112538078Y-129079926D01*
X112537659Y-129078457D01*
X112537244Y-129077209D01*
X112536037Y-129072294D01*
X112489872Y-128963536D01*
X112489529Y-128962720D01*
X112448240Y-128863037D01*
X112445866Y-128859163D01*
X112443734Y-128854592D01*
X112443169Y-128853512D01*
X112441188Y-128848844D01*
X112380345Y-128752227D01*
X112379592Y-128751014D01*
X112341541Y-128688920D01*
X112324176Y-128660584D01*
X112320958Y-128656816D01*
X112318178Y-128652990D01*
X112315350Y-128648813D01*
X112314533Y-128647721D01*
X112311833Y-128643433D01*
X112238650Y-128560422D01*
X112237354Y-128558928D01*
X112173177Y-128483787D01*
X112173175Y-128483785D01*
X112169969Y-128480031D01*
X112166212Y-128476822D01*
X112162707Y-128473317D01*
X112162788Y-128473236D01*
X112155198Y-128465764D01*
X112151302Y-128461345D01*
X112068328Y-128393189D01*
X112066474Y-128391637D01*
X111993179Y-128329038D01*
X111989416Y-128325824D01*
X111984621Y-128322886D01*
X111977605Y-128317890D01*
X133032093Y-128317890D01*
X133035876Y-128326666D01*
X133887188Y-129177978D01*
X133901132Y-129185592D01*
X133902965Y-129185461D01*
X133909580Y-129181210D01*
X134761080Y-128329710D01*
X134767840Y-128317330D01*
X134762113Y-128309680D01*
X134590958Y-128204795D01*
X134582163Y-128200313D01*
X134372012Y-128113266D01*
X134362627Y-128110217D01*
X134141446Y-128057115D01*
X134131699Y-128055572D01*
X133904930Y-128037725D01*
X133895070Y-128037725D01*
X133668301Y-128055572D01*
X133658554Y-128057115D01*
X133437373Y-128110217D01*
X133427988Y-128113266D01*
X133217837Y-128200313D01*
X133209042Y-128204795D01*
X133041555Y-128307432D01*
X133032093Y-128317890D01*
X111977605Y-128317890D01*
X111970486Y-128312821D01*
X111967636Y-128310480D01*
X111967628Y-128310475D01*
X111963722Y-128307266D01*
X111873563Y-128254792D01*
X111871168Y-128253361D01*
X111786963Y-128201760D01*
X111782391Y-128199866D01*
X111779126Y-128198514D01*
X111763964Y-128191004D01*
X111753922Y-128185159D01*
X111659399Y-128148875D01*
X111656352Y-128147659D01*
X111572171Y-128112791D01*
X111567594Y-128110895D01*
X111556568Y-128108248D01*
X111540826Y-128103360D01*
X111532018Y-128099979D01*
X111532020Y-128099979D01*
X111527298Y-128098167D01*
X111493149Y-128091033D01*
X111431171Y-128078085D01*
X111427524Y-128077267D01*
X111341518Y-128056619D01*
X111341517Y-128056619D01*
X111336711Y-128055465D01*
X111322560Y-128054351D01*
X111306685Y-128052078D01*
X111294632Y-128049560D01*
X111294626Y-128049559D01*
X111289680Y-128048526D01*
X111284630Y-128048297D01*
X111284625Y-128048296D01*
X111228807Y-128045762D01*
X111194529Y-128044205D01*
X111190392Y-128043949D01*
X111100000Y-128036835D01*
X111095069Y-128037223D01*
X111095065Y-128037223D01*
X111082988Y-128038173D01*
X111067396Y-128038431D01*
X111052241Y-128037743D01*
X111052234Y-128037743D01*
X111047183Y-128037514D01*
X111042163Y-128038095D01*
X111042157Y-128038095D01*
X110955496Y-128048122D01*
X110950902Y-128048569D01*
X110868214Y-128055077D01*
X110868209Y-128055078D01*
X110863289Y-128055465D01*
X110847139Y-128059342D01*
X110843928Y-128060113D01*
X110828998Y-128062759D01*
X110811063Y-128064834D01*
X110811060Y-128064835D01*
X110806044Y-128065415D01*
X110764159Y-128077267D01*
X110720025Y-128089755D01*
X110715134Y-128091033D01*
X110689727Y-128097133D01*
X110632406Y-128110895D01*
X110611366Y-128119610D01*
X110597468Y-128124436D01*
X110572468Y-128131510D01*
X110567887Y-128133646D01*
X110567882Y-128133648D01*
X110494113Y-128168047D01*
X110489082Y-128170261D01*
X110417609Y-128199866D01*
X110417607Y-128199867D01*
X110413037Y-128201760D01*
X110391200Y-128215142D01*
X110378616Y-128221904D01*
X110352464Y-128234099D01*
X110348283Y-128236941D01*
X110348275Y-128236945D01*
X110283347Y-128281070D01*
X110278368Y-128284285D01*
X110210584Y-128325824D01*
X110206821Y-128329038D01*
X110188930Y-128344318D01*
X110177924Y-128352717D01*
X110151693Y-128370544D01*
X110148015Y-128374023D01*
X110148014Y-128374023D01*
X110093107Y-128425946D01*
X110088364Y-128430209D01*
X110033793Y-128476817D01*
X110033786Y-128476824D01*
X110030031Y-128480031D01*
X110026825Y-128483785D01*
X110009688Y-128503850D01*
X110000461Y-128513556D01*
X109975319Y-128537332D01*
X109972241Y-128541358D01*
X109972240Y-128541359D01*
X109928100Y-128599092D01*
X109923815Y-128604394D01*
X109875824Y-128660584D01*
X109873242Y-128664798D01*
X109873238Y-128664803D01*
X109857969Y-128689720D01*
X109850633Y-128700414D01*
X109827880Y-128730174D01*
X109825494Y-128734624D01*
X109825492Y-128734627D01*
X109792504Y-128796151D01*
X109788891Y-128802446D01*
X109751760Y-128863037D01*
X109737587Y-128897253D01*
X109732237Y-128908547D01*
X109713169Y-128944109D01*
X109689728Y-129012188D01*
X109687021Y-129019333D01*
X109660895Y-129082406D01*
X109651585Y-129121182D01*
X109648208Y-129132767D01*
X109635786Y-129168842D01*
X109635783Y-129168853D01*
X109634138Y-129173631D01*
X109622374Y-129241739D01*
X109620738Y-129249673D01*
X109606620Y-129308476D01*
X109606619Y-129308482D01*
X109605465Y-129313289D01*
X109605077Y-129318224D01*
X109602113Y-129355881D01*
X109600663Y-129367435D01*
X109592821Y-129412836D01*
X109591500Y-129441925D01*
X109591500Y-129485771D01*
X109591112Y-129495657D01*
X109586835Y-129550000D01*
X109587223Y-129554930D01*
X109591112Y-129604343D01*
X109591500Y-129614229D01*
X109591500Y-137155973D01*
X109591251Y-137163884D01*
X109584171Y-137276413D01*
X101067311Y-137276413D01*
X101061585Y-137267924D01*
X101046466Y-137251132D01*
X100876566Y-137062440D01*
X100873629Y-137059178D01*
X100822992Y-137016688D01*
X100758476Y-136962553D01*
X100658450Y-136878621D01*
X100420236Y-136729769D01*
X100163625Y-136615518D01*
X99893610Y-136538093D01*
X99889260Y-136537482D01*
X99889257Y-136537481D01*
X99786310Y-136523013D01*
X99615448Y-136499000D01*
X99404854Y-136499000D01*
X99402668Y-136499153D01*
X99402664Y-136499153D01*
X99199173Y-136513382D01*
X99199168Y-136513383D01*
X99194788Y-136513689D01*
X98920030Y-136572091D01*
X98915901Y-136573594D01*
X98915897Y-136573595D01*
X98660219Y-136666654D01*
X98660215Y-136666656D01*
X98656074Y-136668163D01*
X98408058Y-136800036D01*
X98404499Y-136802622D01*
X98404497Y-136802623D01*
X98290300Y-136885592D01*
X98180808Y-136965142D01*
X98177644Y-136968198D01*
X98177641Y-136968200D01*
X98116254Y-137027481D01*
X97978748Y-137160269D01*
X97805812Y-137381618D01*
X97803616Y-137385422D01*
X97803611Y-137385429D01*
X97712617Y-137543037D01*
X97665364Y-137624881D01*
X97560138Y-137885324D01*
X97559073Y-137889597D01*
X97559072Y-137889599D01*
X97521611Y-138039847D01*
X97485723Y-138101106D01*
X97422414Y-138133237D01*
X97351783Y-138126040D01*
X97296256Y-138081799D01*
X97291922Y-138075200D01*
X97271765Y-138042307D01*
X97271758Y-138042297D01*
X97269176Y-138038084D01*
X97114969Y-137857531D01*
X96934416Y-137703324D01*
X96930208Y-137700745D01*
X96930202Y-137700741D01*
X96736183Y-137581846D01*
X96731963Y-137579260D01*
X96727393Y-137577367D01*
X96727389Y-137577365D01*
X96517167Y-137490289D01*
X96517165Y-137490288D01*
X96512594Y-137488395D01*
X96407670Y-137463205D01*
X96286524Y-137434120D01*
X96286518Y-137434119D01*
X96281711Y-137432965D01*
X96045000Y-137414335D01*
X95808289Y-137432965D01*
X95803482Y-137434119D01*
X95803476Y-137434120D01*
X95682330Y-137463205D01*
X95577406Y-137488395D01*
X95572835Y-137490288D01*
X95572833Y-137490289D01*
X95362611Y-137577365D01*
X95362607Y-137577367D01*
X95358037Y-137579260D01*
X95353817Y-137581846D01*
X95159798Y-137700741D01*
X95159792Y-137700745D01*
X95155584Y-137703324D01*
X94975031Y-137857531D01*
X94971823Y-137861287D01*
X94971818Y-137861292D01*
X94870811Y-137979556D01*
X94811361Y-138018366D01*
X94740366Y-138018872D01*
X94679189Y-137979556D01*
X94578182Y-137861292D01*
X94578177Y-137861287D01*
X94574969Y-137857531D01*
X94394416Y-137703324D01*
X94390208Y-137700745D01*
X94390202Y-137700741D01*
X94196183Y-137581846D01*
X94191963Y-137579260D01*
X94187393Y-137577367D01*
X94187389Y-137577365D01*
X93977167Y-137490289D01*
X93977165Y-137490288D01*
X93972594Y-137488395D01*
X93867670Y-137463205D01*
X93746524Y-137434120D01*
X93746518Y-137434119D01*
X93741711Y-137432965D01*
X93505000Y-137414335D01*
X93268289Y-137432965D01*
X93263482Y-137434119D01*
X93263476Y-137434120D01*
X93142330Y-137463205D01*
X93037406Y-137488395D01*
X93032835Y-137490288D01*
X93032833Y-137490289D01*
X92822611Y-137577365D01*
X92822607Y-137577367D01*
X92818037Y-137579260D01*
X92813817Y-137581846D01*
X92619798Y-137700741D01*
X92619792Y-137700745D01*
X92615584Y-137703324D01*
X92435031Y-137857531D01*
X92431823Y-137861287D01*
X92431818Y-137861292D01*
X92330811Y-137979556D01*
X92271361Y-138018366D01*
X92200366Y-138018872D01*
X92139189Y-137979556D01*
X92038182Y-137861292D01*
X92038177Y-137861287D01*
X92034969Y-137857531D01*
X91854416Y-137703324D01*
X91850208Y-137700745D01*
X91850202Y-137700741D01*
X91656183Y-137581846D01*
X91651963Y-137579260D01*
X91647393Y-137577367D01*
X91647389Y-137577365D01*
X91437167Y-137490289D01*
X91437165Y-137490288D01*
X91432594Y-137488395D01*
X91327670Y-137463205D01*
X91206524Y-137434120D01*
X91206518Y-137434119D01*
X91201711Y-137432965D01*
X90965000Y-137414335D01*
X90728289Y-137432965D01*
X90723482Y-137434119D01*
X90723476Y-137434120D01*
X90602330Y-137463205D01*
X90497406Y-137488395D01*
X90492835Y-137490288D01*
X90492833Y-137490289D01*
X90282611Y-137577365D01*
X90282607Y-137577367D01*
X90278037Y-137579260D01*
X90273817Y-137581846D01*
X90079798Y-137700741D01*
X90079792Y-137700745D01*
X90075584Y-137703324D01*
X89895031Y-137857531D01*
X89891823Y-137861287D01*
X89891818Y-137861292D01*
X89790811Y-137979556D01*
X89731361Y-138018366D01*
X89660366Y-138018872D01*
X89599189Y-137979556D01*
X89498182Y-137861292D01*
X89498177Y-137861287D01*
X89494969Y-137857531D01*
X89314416Y-137703324D01*
X89310208Y-137700745D01*
X89310202Y-137700741D01*
X89116183Y-137581846D01*
X89111963Y-137579260D01*
X89107393Y-137577367D01*
X89107389Y-137577365D01*
X88897167Y-137490289D01*
X88897165Y-137490288D01*
X88892594Y-137488395D01*
X88787670Y-137463205D01*
X88666524Y-137434120D01*
X88666518Y-137434119D01*
X88661711Y-137432965D01*
X88425000Y-137414335D01*
X88188289Y-137432965D01*
X88183482Y-137434119D01*
X88183476Y-137434120D01*
X88062330Y-137463205D01*
X87957406Y-137488395D01*
X87952835Y-137490288D01*
X87952833Y-137490289D01*
X87742611Y-137577365D01*
X87742607Y-137577367D01*
X87738037Y-137579260D01*
X87733817Y-137581846D01*
X87539798Y-137700741D01*
X87539792Y-137700745D01*
X87535584Y-137703324D01*
X87355031Y-137857531D01*
X87351823Y-137861287D01*
X87351818Y-137861292D01*
X87250811Y-137979556D01*
X87191361Y-138018366D01*
X87120366Y-138018872D01*
X87059189Y-137979556D01*
X86958182Y-137861292D01*
X86958177Y-137861287D01*
X86954969Y-137857531D01*
X86774416Y-137703324D01*
X86770208Y-137700745D01*
X86770202Y-137700741D01*
X86576183Y-137581846D01*
X86571963Y-137579260D01*
X86567393Y-137577367D01*
X86567389Y-137577365D01*
X86357167Y-137490289D01*
X86357165Y-137490288D01*
X86352594Y-137488395D01*
X86247670Y-137463205D01*
X86126524Y-137434120D01*
X86126518Y-137434119D01*
X86121711Y-137432965D01*
X85885000Y-137414335D01*
X85648289Y-137432965D01*
X85643482Y-137434119D01*
X85643476Y-137434120D01*
X85522330Y-137463205D01*
X85417406Y-137488395D01*
X85412835Y-137490288D01*
X85412833Y-137490289D01*
X85202611Y-137577365D01*
X85202607Y-137577367D01*
X85198037Y-137579260D01*
X85193817Y-137581846D01*
X84999798Y-137700741D01*
X84999792Y-137700745D01*
X84995584Y-137703324D01*
X84815031Y-137857531D01*
X84811823Y-137861287D01*
X84811818Y-137861292D01*
X84710811Y-137979556D01*
X84651361Y-138018366D01*
X84580366Y-138018872D01*
X84519189Y-137979556D01*
X84418182Y-137861292D01*
X84418177Y-137861287D01*
X84414969Y-137857531D01*
X84234416Y-137703324D01*
X84230208Y-137700745D01*
X84230202Y-137700741D01*
X84036183Y-137581846D01*
X84031963Y-137579260D01*
X84027393Y-137577367D01*
X84027389Y-137577365D01*
X83817167Y-137490289D01*
X83817165Y-137490288D01*
X83812594Y-137488395D01*
X83707670Y-137463205D01*
X83586524Y-137434120D01*
X83586518Y-137434119D01*
X83581711Y-137432965D01*
X83345000Y-137414335D01*
X83108289Y-137432965D01*
X83103482Y-137434119D01*
X83103476Y-137434120D01*
X82982330Y-137463205D01*
X82877406Y-137488395D01*
X82872835Y-137490288D01*
X82872833Y-137490289D01*
X82662611Y-137577365D01*
X82662607Y-137577367D01*
X82658037Y-137579260D01*
X82653817Y-137581846D01*
X82459798Y-137700741D01*
X82459792Y-137700745D01*
X82455584Y-137703324D01*
X82275031Y-137857531D01*
X82271823Y-137861287D01*
X82271818Y-137861292D01*
X82170811Y-137979556D01*
X82111361Y-138018366D01*
X82040366Y-138018872D01*
X81979189Y-137979556D01*
X81878182Y-137861292D01*
X81878177Y-137861287D01*
X81874969Y-137857531D01*
X81694416Y-137703324D01*
X81690208Y-137700745D01*
X81690202Y-137700741D01*
X81496183Y-137581846D01*
X81491963Y-137579260D01*
X81487393Y-137577367D01*
X81487389Y-137577365D01*
X81277167Y-137490289D01*
X81277165Y-137490288D01*
X81272594Y-137488395D01*
X81167670Y-137463205D01*
X81046524Y-137434120D01*
X81046518Y-137434119D01*
X81041711Y-137432965D01*
X80805000Y-137414335D01*
X80568289Y-137432965D01*
X80563482Y-137434119D01*
X80563476Y-137434120D01*
X80442330Y-137463205D01*
X80337406Y-137488395D01*
X80332835Y-137490288D01*
X80332833Y-137490289D01*
X80122611Y-137577365D01*
X80122607Y-137577367D01*
X80118037Y-137579260D01*
X80113817Y-137581846D01*
X79919798Y-137700741D01*
X79919792Y-137700745D01*
X79915584Y-137703324D01*
X79735031Y-137857531D01*
X79731823Y-137861287D01*
X79731818Y-137861292D01*
X79630811Y-137979556D01*
X79571361Y-138018366D01*
X79500366Y-138018872D01*
X79439189Y-137979556D01*
X79338182Y-137861292D01*
X79338177Y-137861287D01*
X79334969Y-137857531D01*
X79154416Y-137703324D01*
X79150208Y-137700745D01*
X79150202Y-137700741D01*
X78956183Y-137581846D01*
X78951963Y-137579260D01*
X78947393Y-137577367D01*
X78947389Y-137577365D01*
X78737167Y-137490289D01*
X78737165Y-137490288D01*
X78732594Y-137488395D01*
X78627670Y-137463205D01*
X78506524Y-137434120D01*
X78506518Y-137434119D01*
X78501711Y-137432965D01*
X78265000Y-137414335D01*
X78028289Y-137432965D01*
X78023482Y-137434119D01*
X78023476Y-137434120D01*
X77902330Y-137463205D01*
X77797406Y-137488395D01*
X77792835Y-137490288D01*
X77792833Y-137490289D01*
X77582611Y-137577365D01*
X77582607Y-137577367D01*
X77578037Y-137579260D01*
X77573817Y-137581846D01*
X77379798Y-137700741D01*
X77379792Y-137700745D01*
X77375584Y-137703324D01*
X77195031Y-137857531D01*
X77191823Y-137861287D01*
X77191818Y-137861292D01*
X77090811Y-137979556D01*
X77031361Y-138018366D01*
X76960366Y-138018872D01*
X76899189Y-137979556D01*
X76798182Y-137861292D01*
X76798177Y-137861287D01*
X76794969Y-137857531D01*
X76614416Y-137703324D01*
X76610208Y-137700745D01*
X76610202Y-137700741D01*
X76416183Y-137581846D01*
X76411963Y-137579260D01*
X76407393Y-137577367D01*
X76407389Y-137577365D01*
X76197167Y-137490289D01*
X76197165Y-137490288D01*
X76192594Y-137488395D01*
X76087670Y-137463205D01*
X75966524Y-137434120D01*
X75966518Y-137434119D01*
X75961711Y-137432965D01*
X75725000Y-137414335D01*
X75488289Y-137432965D01*
X75483482Y-137434119D01*
X75483476Y-137434120D01*
X75362330Y-137463205D01*
X75257406Y-137488395D01*
X75252835Y-137490288D01*
X75252833Y-137490289D01*
X75042611Y-137577365D01*
X75042607Y-137577367D01*
X75038037Y-137579260D01*
X75033817Y-137581846D01*
X74839798Y-137700741D01*
X74839792Y-137700745D01*
X74835584Y-137703324D01*
X74655031Y-137857531D01*
X74651823Y-137861287D01*
X74651818Y-137861292D01*
X74550811Y-137979556D01*
X74491361Y-138018366D01*
X74420366Y-138018872D01*
X74359189Y-137979556D01*
X74258182Y-137861292D01*
X74258177Y-137861287D01*
X74254969Y-137857531D01*
X74074416Y-137703324D01*
X74070208Y-137700745D01*
X74070202Y-137700741D01*
X73876183Y-137581846D01*
X73871963Y-137579260D01*
X73867393Y-137577367D01*
X73867389Y-137577365D01*
X73657167Y-137490289D01*
X73657165Y-137490288D01*
X73652594Y-137488395D01*
X73547670Y-137463205D01*
X73426524Y-137434120D01*
X73426518Y-137434119D01*
X73421711Y-137432965D01*
X73185000Y-137414335D01*
X72948289Y-137432965D01*
X72943482Y-137434119D01*
X72943476Y-137434120D01*
X72822330Y-137463205D01*
X72717406Y-137488395D01*
X72712835Y-137490288D01*
X72712833Y-137490289D01*
X72502611Y-137577365D01*
X72502607Y-137577367D01*
X72498037Y-137579260D01*
X72493817Y-137581846D01*
X72299798Y-137700741D01*
X72299792Y-137700745D01*
X72295584Y-137703324D01*
X72115031Y-137857531D01*
X72111823Y-137861287D01*
X72111818Y-137861292D01*
X72010811Y-137979556D01*
X71951361Y-138018366D01*
X71880366Y-138018872D01*
X71819189Y-137979556D01*
X71718182Y-137861292D01*
X71718177Y-137861287D01*
X71714969Y-137857531D01*
X71534416Y-137703324D01*
X71530208Y-137700745D01*
X71530202Y-137700741D01*
X71336183Y-137581846D01*
X71331963Y-137579260D01*
X71327393Y-137577367D01*
X71327389Y-137577365D01*
X71117167Y-137490289D01*
X71117165Y-137490288D01*
X71112594Y-137488395D01*
X71007670Y-137463205D01*
X70886524Y-137434120D01*
X70886518Y-137434119D01*
X70881711Y-137432965D01*
X70645000Y-137414335D01*
X70408289Y-137432965D01*
X70403482Y-137434119D01*
X70403476Y-137434120D01*
X70282330Y-137463205D01*
X70177406Y-137488395D01*
X70172835Y-137490288D01*
X70172833Y-137490289D01*
X69962611Y-137577365D01*
X69962607Y-137577367D01*
X69958037Y-137579260D01*
X69953817Y-137581846D01*
X69759798Y-137700741D01*
X69759792Y-137700745D01*
X69755584Y-137703324D01*
X69575031Y-137857531D01*
X69571823Y-137861287D01*
X69571818Y-137861292D01*
X69470811Y-137979556D01*
X69411361Y-138018366D01*
X69340366Y-138018872D01*
X69279189Y-137979556D01*
X69178182Y-137861292D01*
X69178177Y-137861287D01*
X69174969Y-137857531D01*
X68994416Y-137703324D01*
X68990208Y-137700745D01*
X68990202Y-137700741D01*
X68796183Y-137581846D01*
X68791963Y-137579260D01*
X68787393Y-137577367D01*
X68787389Y-137577365D01*
X68577167Y-137490289D01*
X68577165Y-137490288D01*
X68572594Y-137488395D01*
X68467670Y-137463205D01*
X68346524Y-137434120D01*
X68346518Y-137434119D01*
X68341711Y-137432965D01*
X68105000Y-137414335D01*
X67868289Y-137432965D01*
X67863482Y-137434119D01*
X67863476Y-137434120D01*
X67742330Y-137463205D01*
X67637406Y-137488395D01*
X67632835Y-137490288D01*
X67632833Y-137490289D01*
X67422611Y-137577365D01*
X67422607Y-137577367D01*
X67418037Y-137579260D01*
X67413817Y-137581846D01*
X67219798Y-137700741D01*
X67219792Y-137700745D01*
X67215584Y-137703324D01*
X67035031Y-137857531D01*
X67031823Y-137861287D01*
X67031818Y-137861292D01*
X66930811Y-137979556D01*
X66871361Y-138018366D01*
X66800366Y-138018872D01*
X66739189Y-137979556D01*
X66638182Y-137861292D01*
X66638177Y-137861287D01*
X66634969Y-137857531D01*
X66454416Y-137703324D01*
X66450208Y-137700745D01*
X66450202Y-137700741D01*
X66256183Y-137581846D01*
X66251963Y-137579260D01*
X66247393Y-137577367D01*
X66247389Y-137577365D01*
X66037167Y-137490289D01*
X66037165Y-137490288D01*
X66032594Y-137488395D01*
X65927670Y-137463205D01*
X65806524Y-137434120D01*
X65806518Y-137434119D01*
X65801711Y-137432965D01*
X65565000Y-137414335D01*
X65328289Y-137432965D01*
X65323482Y-137434119D01*
X65323476Y-137434120D01*
X65202330Y-137463205D01*
X65097406Y-137488395D01*
X65092835Y-137490288D01*
X65092833Y-137490289D01*
X64882611Y-137577365D01*
X64882607Y-137577367D01*
X64878037Y-137579260D01*
X64873817Y-137581846D01*
X64679798Y-137700741D01*
X64679792Y-137700745D01*
X64675584Y-137703324D01*
X64495031Y-137857531D01*
X64491823Y-137861287D01*
X64491818Y-137861292D01*
X64361294Y-138014116D01*
X64301844Y-138052926D01*
X64267442Y-138055140D01*
X64248333Y-138063377D01*
X63397022Y-138914688D01*
X63389408Y-138928632D01*
X63389539Y-138930465D01*
X63393790Y-138937080D01*
X64245290Y-139788580D01*
X64262102Y-139797760D01*
X64325350Y-139811520D01*
X64360775Y-139840276D01*
X64456675Y-139952560D01*
X64495031Y-139997469D01*
X64498787Y-140000677D01*
X64671347Y-140148057D01*
X64675584Y-140151676D01*
X64679806Y-140154263D01*
X64679807Y-140154264D01*
X64681337Y-140155202D01*
X64681796Y-140155710D01*
X64683809Y-140157172D01*
X64683502Y-140157595D01*
X64728967Y-140207850D01*
X64741500Y-140262633D01*
X64741500Y-142378689D01*
X64721498Y-142446810D01*
X64681804Y-142485833D01*
X64575652Y-142551522D01*
X64450695Y-142676697D01*
X64446855Y-142682927D01*
X64446854Y-142682928D01*
X64371749Y-142804771D01*
X64357885Y-142827262D01*
X64335776Y-142893919D01*
X64310338Y-142970614D01*
X64302203Y-142995139D01*
X64301503Y-143001975D01*
X64301502Y-143001978D01*
X64300843Y-143008415D01*
X64291500Y-143099600D01*
X64291500Y-143900400D01*
X64291837Y-143903646D01*
X64291837Y-143903650D01*
X64292840Y-143913312D01*
X64302474Y-144006166D01*
X64358450Y-144173946D01*
X64451522Y-144324348D01*
X64506926Y-144379655D01*
X64538109Y-144410784D01*
X64572188Y-144473066D01*
X64567185Y-144543886D01*
X64538264Y-144588975D01*
X64521002Y-144606267D01*
X64450695Y-144676697D01*
X64446855Y-144682927D01*
X64446854Y-144682928D01*
X64366104Y-144813929D01*
X64357885Y-144827262D01*
X64355581Y-144834209D01*
X64304772Y-144987395D01*
X64302203Y-144995139D01*
X64301503Y-145001975D01*
X64301502Y-145001978D01*
X64298378Y-145032474D01*
X64291500Y-145099600D01*
X64291500Y-145900400D01*
X64291837Y-145903646D01*
X64291837Y-145903650D01*
X64298046Y-145963487D01*
X64302474Y-146006166D01*
X64304655Y-146012702D01*
X64304655Y-146012704D01*
X64308522Y-146024294D01*
X64358450Y-146173946D01*
X64451522Y-146324348D01*
X64456704Y-146329521D01*
X64518451Y-146391161D01*
X64576697Y-146449305D01*
X64677400Y-146511379D01*
X64681616Y-146513978D01*
X64729109Y-146566750D01*
X64741500Y-146621238D01*
X64741500Y-147432930D01*
X64740067Y-147451880D01*
X64736801Y-147473349D01*
X64737394Y-147480641D01*
X64737394Y-147480644D01*
X64741085Y-147526018D01*
X64741500Y-147536233D01*
X64741500Y-147544293D01*
X64741925Y-147547937D01*
X64744789Y-147572507D01*
X64745222Y-147576882D01*
X64751140Y-147649637D01*
X64753396Y-147656601D01*
X64754587Y-147662560D01*
X64755971Y-147668415D01*
X64756818Y-147675681D01*
X64781735Y-147744327D01*
X64783152Y-147748455D01*
X64805649Y-147817899D01*
X64809445Y-147824154D01*
X64811951Y-147829628D01*
X64814670Y-147835058D01*
X64817167Y-147841937D01*
X64821180Y-147848057D01*
X64821180Y-147848058D01*
X64857186Y-147902976D01*
X64859523Y-147906680D01*
X64897405Y-147969107D01*
X64901121Y-147973315D01*
X64901122Y-147973316D01*
X64904803Y-147977484D01*
X64904776Y-147977508D01*
X64907429Y-147980500D01*
X64910132Y-147983733D01*
X64914144Y-147989852D01*
X64919456Y-147994884D01*
X64970383Y-148043128D01*
X64972825Y-148045506D01*
X65916230Y-148988911D01*
X65928616Y-149003323D01*
X65937149Y-149014918D01*
X65937154Y-149014923D01*
X65941492Y-149020818D01*
X65947070Y-149025557D01*
X65947073Y-149025560D01*
X65981768Y-149055035D01*
X65989284Y-149061965D01*
X65994980Y-149067661D01*
X65997841Y-149069924D01*
X65997846Y-149069929D01*
X66017266Y-149085293D01*
X66020667Y-149088082D01*
X66076285Y-149135333D01*
X66082805Y-149138662D01*
X66087852Y-149142028D01*
X66092976Y-149145193D01*
X66098717Y-149149735D01*
X66105348Y-149152834D01*
X66105351Y-149152836D01*
X66152723Y-149174976D01*
X66160949Y-149178820D01*
X66164830Y-149180634D01*
X66168776Y-149182562D01*
X66233808Y-149215769D01*
X66240914Y-149217508D01*
X66246564Y-149219609D01*
X66252321Y-149221524D01*
X66258950Y-149224622D01*
X66330435Y-149239491D01*
X66334677Y-149240451D01*
X66345551Y-149243112D01*
X66406963Y-149278732D01*
X66439369Y-149341902D01*
X66432480Y-149412563D01*
X66388481Y-149468282D01*
X66315599Y-149491500D01*
X61126000Y-149491500D01*
X61057879Y-149471498D01*
X61011386Y-149417842D01*
X61000000Y-149365500D01*
X61000000Y-141000000D01*
X50634500Y-141000000D01*
X50566379Y-140979998D01*
X50519886Y-140926342D01*
X50508500Y-140874000D01*
X50508500Y-139500564D01*
X50528502Y-139432443D01*
X50582158Y-139385950D01*
X50652432Y-139375846D01*
X50717012Y-139405340D01*
X50747748Y-139445329D01*
X50781340Y-139514202D01*
X50783795Y-139517841D01*
X50783798Y-139517847D01*
X50845881Y-139609889D01*
X50938415Y-139747076D01*
X51126371Y-139955822D01*
X51341550Y-140136379D01*
X51579764Y-140285231D01*
X51692798Y-140335557D01*
X51795464Y-140381267D01*
X51836375Y-140399482D01*
X51840603Y-140400694D01*
X51840602Y-140400694D01*
X52041974Y-140458436D01*
X52106390Y-140476907D01*
X52110740Y-140477518D01*
X52110743Y-140477519D01*
X52213690Y-140491987D01*
X52384552Y-140516000D01*
X52595146Y-140516000D01*
X52597332Y-140515847D01*
X52597336Y-140515847D01*
X52800827Y-140501618D01*
X52800832Y-140501617D01*
X52805212Y-140501311D01*
X53079970Y-140442909D01*
X53084099Y-140441406D01*
X53084103Y-140441405D01*
X53339781Y-140348346D01*
X53339785Y-140348344D01*
X53343926Y-140346837D01*
X53591942Y-140214964D01*
X53601734Y-140207850D01*
X53815629Y-140052447D01*
X53815632Y-140052444D01*
X53819192Y-140049858D01*
X53870121Y-140000677D01*
X53896054Y-139975634D01*
X58976500Y-139975634D01*
X58983255Y-140037816D01*
X59034385Y-140174205D01*
X59121739Y-140290761D01*
X59238295Y-140378115D01*
X59374684Y-140429245D01*
X59436866Y-140436000D01*
X61533134Y-140436000D01*
X61595316Y-140429245D01*
X61731705Y-140378115D01*
X61848261Y-140290761D01*
X61890543Y-140234344D01*
X61930229Y-140181392D01*
X61930230Y-140181390D01*
X61935615Y-140174205D01*
X61935673Y-140174050D01*
X61982791Y-140127037D01*
X62052182Y-140112022D01*
X62118675Y-140136906D01*
X62124886Y-140141881D01*
X62132117Y-140148057D01*
X62140101Y-140153857D01*
X62334042Y-140272705D01*
X62342837Y-140277187D01*
X62552988Y-140364234D01*
X62562373Y-140367283D01*
X62783554Y-140420385D01*
X62793301Y-140421928D01*
X63020070Y-140439775D01*
X63029930Y-140439775D01*
X63256699Y-140421928D01*
X63266446Y-140420385D01*
X63487627Y-140367283D01*
X63497012Y-140364234D01*
X63707163Y-140277187D01*
X63715958Y-140272705D01*
X63883445Y-140170068D01*
X63892907Y-140159610D01*
X63889124Y-140150834D01*
X62754885Y-139016595D01*
X62720859Y-138954283D01*
X62725924Y-138883468D01*
X62754885Y-138838405D01*
X63886080Y-137707210D01*
X63892840Y-137694830D01*
X63887113Y-137687180D01*
X63715958Y-137582295D01*
X63707163Y-137577813D01*
X63497012Y-137490766D01*
X63487627Y-137487717D01*
X63266446Y-137434615D01*
X63256699Y-137433072D01*
X63029930Y-137415225D01*
X63020070Y-137415225D01*
X62793301Y-137433072D01*
X62783554Y-137434615D01*
X62562373Y-137487717D01*
X62552988Y-137490766D01*
X62342837Y-137577813D01*
X62334042Y-137582295D01*
X62140101Y-137701143D01*
X62132117Y-137706943D01*
X62124886Y-137713119D01*
X62060096Y-137742151D01*
X61989896Y-137731547D01*
X61937312Y-137685323D01*
X61935615Y-137680795D01*
X61930230Y-137673610D01*
X61930229Y-137673608D01*
X61853642Y-137571419D01*
X61848261Y-137564239D01*
X61731705Y-137476885D01*
X61595316Y-137425755D01*
X61533134Y-137419000D01*
X59436866Y-137419000D01*
X59374684Y-137425755D01*
X59238295Y-137476885D01*
X59121739Y-137564239D01*
X59034385Y-137680795D01*
X58983255Y-137817184D01*
X58976500Y-137879366D01*
X58976500Y-139975634D01*
X53896054Y-139975634D01*
X54018087Y-139857787D01*
X54021252Y-139854731D01*
X54194188Y-139633382D01*
X54196384Y-139629578D01*
X54196389Y-139629571D01*
X54332435Y-139393931D01*
X54334636Y-139390119D01*
X54439862Y-139129676D01*
X54454096Y-139072588D01*
X54506753Y-138861393D01*
X54506754Y-138861388D01*
X54507817Y-138857124D01*
X54509785Y-138838405D01*
X54536719Y-138582136D01*
X54536719Y-138582133D01*
X54537178Y-138577767D01*
X54537025Y-138573373D01*
X54527529Y-138301439D01*
X54527528Y-138301433D01*
X54527375Y-138297042D01*
X54525834Y-138288297D01*
X54484331Y-138052926D01*
X54478598Y-138020413D01*
X54391797Y-137753265D01*
X54389136Y-137747808D01*
X54324135Y-137614539D01*
X54268660Y-137500798D01*
X54266205Y-137497159D01*
X54266202Y-137497153D01*
X54170604Y-137355424D01*
X54111585Y-137267924D01*
X54096466Y-137251132D01*
X53926566Y-137062440D01*
X53923629Y-137059178D01*
X53872992Y-137016688D01*
X53808476Y-136962553D01*
X53708450Y-136878621D01*
X53470236Y-136729769D01*
X53213625Y-136615518D01*
X52943610Y-136538093D01*
X52939260Y-136537482D01*
X52939257Y-136537481D01*
X52836310Y-136523013D01*
X52665448Y-136499000D01*
X52454854Y-136499000D01*
X52452668Y-136499153D01*
X52452664Y-136499153D01*
X52249173Y-136513382D01*
X52249168Y-136513383D01*
X52244788Y-136513689D01*
X51970030Y-136572091D01*
X51965901Y-136573594D01*
X51965897Y-136573595D01*
X51710219Y-136666654D01*
X51710215Y-136666656D01*
X51706074Y-136668163D01*
X51458058Y-136800036D01*
X51454499Y-136802622D01*
X51454497Y-136802623D01*
X51340300Y-136885592D01*
X51230808Y-136965142D01*
X51227644Y-136968198D01*
X51227641Y-136968200D01*
X51166254Y-137027481D01*
X51028748Y-137160269D01*
X50855812Y-137381618D01*
X50853616Y-137385422D01*
X50853611Y-137385429D01*
X50743619Y-137575942D01*
X50692237Y-137624935D01*
X50622523Y-137638371D01*
X50556612Y-137611985D01*
X50515430Y-137554153D01*
X50508500Y-137512942D01*
X50508500Y-135137500D01*
X94985000Y-135137500D01*
X101475000Y-135137500D01*
X101475000Y-117447500D01*
X94985000Y-117447500D01*
X94985000Y-135137500D01*
X50508500Y-135137500D01*
X50508500Y-114990564D01*
X50528502Y-114922443D01*
X50582158Y-114875950D01*
X50652432Y-114865846D01*
X50717012Y-114895340D01*
X50747748Y-114935329D01*
X50756398Y-114953064D01*
X50781340Y-115004202D01*
X50783795Y-115007841D01*
X50783798Y-115007847D01*
X50856890Y-115116210D01*
X50938415Y-115237076D01*
X51126371Y-115445822D01*
X51341550Y-115626379D01*
X51579764Y-115775231D01*
X51836375Y-115889482D01*
X52106390Y-115966907D01*
X52110740Y-115967518D01*
X52110743Y-115967519D01*
X52213690Y-115981987D01*
X52384552Y-116006000D01*
X52595146Y-116006000D01*
X52597332Y-116005847D01*
X52597336Y-116005847D01*
X52800827Y-115991618D01*
X52800832Y-115991617D01*
X52805212Y-115991311D01*
X53079970Y-115932909D01*
X53084099Y-115931406D01*
X53084103Y-115931405D01*
X53339781Y-115838346D01*
X53339785Y-115838344D01*
X53343926Y-115836837D01*
X53591942Y-115704964D01*
X53696896Y-115628711D01*
X53815629Y-115542447D01*
X53815632Y-115542444D01*
X53819192Y-115539858D01*
X54021252Y-115344731D01*
X54194188Y-115123382D01*
X54196384Y-115119578D01*
X54196389Y-115119571D01*
X54332435Y-114883931D01*
X54334636Y-114880119D01*
X54439862Y-114619676D01*
X54441686Y-114612359D01*
X54506753Y-114351393D01*
X54506754Y-114351388D01*
X54507817Y-114347124D01*
X54520269Y-114228656D01*
X54536719Y-114072136D01*
X54536719Y-114072133D01*
X54537178Y-114067767D01*
X54535156Y-114009864D01*
X54527529Y-113791439D01*
X54527528Y-113791433D01*
X54527375Y-113787042D01*
X54523350Y-113764211D01*
X54482480Y-113532430D01*
X54478598Y-113510413D01*
X54391797Y-113243265D01*
X54268660Y-112990798D01*
X54266205Y-112987159D01*
X54266202Y-112987153D01*
X54167308Y-112840537D01*
X54111585Y-112757924D01*
X53923629Y-112549178D01*
X53708450Y-112368621D01*
X53470236Y-112219769D01*
X53213625Y-112105518D01*
X52943610Y-112028093D01*
X52939260Y-112027482D01*
X52939257Y-112027481D01*
X52836310Y-112013013D01*
X52665448Y-111989000D01*
X52454854Y-111989000D01*
X52452668Y-111989153D01*
X52452664Y-111989153D01*
X52249173Y-112003382D01*
X52249168Y-112003383D01*
X52244788Y-112003689D01*
X51970030Y-112062091D01*
X51965901Y-112063594D01*
X51965897Y-112063595D01*
X51710219Y-112156654D01*
X51710215Y-112156656D01*
X51706074Y-112158163D01*
X51458058Y-112290036D01*
X51454499Y-112292622D01*
X51454497Y-112292623D01*
X51349895Y-112368621D01*
X51230808Y-112455142D01*
X51227644Y-112458198D01*
X51227641Y-112458200D01*
X51224439Y-112461292D01*
X51028748Y-112650269D01*
X50855812Y-112871618D01*
X50853616Y-112875422D01*
X50853611Y-112875429D01*
X50743619Y-113065942D01*
X50692237Y-113114935D01*
X50622523Y-113128371D01*
X50556612Y-113101985D01*
X50515430Y-113044153D01*
X50508500Y-113002942D01*
X50508500Y-96048918D01*
X52486917Y-96048918D01*
X52502682Y-96322320D01*
X52503507Y-96326525D01*
X52503508Y-96326533D01*
X52533917Y-96481526D01*
X52555405Y-96591053D01*
X52556792Y-96595103D01*
X52556793Y-96595108D01*
X52592130Y-96698319D01*
X52644112Y-96850144D01*
X52646039Y-96853975D01*
X52764436Y-97089382D01*
X52767160Y-97094799D01*
X52769586Y-97098328D01*
X52769589Y-97098334D01*
X52918964Y-97315674D01*
X52922274Y-97320490D01*
X52925163Y-97323665D01*
X52958693Y-97360514D01*
X52989745Y-97424360D01*
X52991500Y-97445314D01*
X52991500Y-102225984D01*
X52991451Y-102229502D01*
X52989625Y-102294886D01*
X52988666Y-102329205D01*
X52989335Y-102334219D01*
X52999058Y-102407086D01*
X52999758Y-102413639D01*
X53006060Y-102491965D01*
X53008850Y-102503323D01*
X53013897Y-102523870D01*
X53016426Y-102537258D01*
X53020771Y-102569820D01*
X53022232Y-102574661D01*
X53022233Y-102574663D01*
X53043478Y-102645029D01*
X53045219Y-102651390D01*
X53063963Y-102727706D01*
X53065941Y-102732366D01*
X53076801Y-102757951D01*
X53081438Y-102770761D01*
X53090933Y-102802208D01*
X53093151Y-102806756D01*
X53093154Y-102806763D01*
X53125371Y-102872818D01*
X53128107Y-102878820D01*
X53137627Y-102901248D01*
X53158812Y-102951156D01*
X53174123Y-102975468D01*
X53176319Y-102978956D01*
X53182945Y-102990860D01*
X53197346Y-103020388D01*
X53200265Y-103024525D01*
X53200265Y-103024526D01*
X53206234Y-103032988D01*
X53217162Y-103048478D01*
X53242641Y-103084597D01*
X53246301Y-103090086D01*
X53288167Y-103156567D01*
X53291508Y-103160356D01*
X53291512Y-103160362D01*
X53309898Y-103181217D01*
X53318344Y-103191912D01*
X53337274Y-103218747D01*
X53339944Y-103221671D01*
X53353760Y-103236801D01*
X53356909Y-103240250D01*
X53396625Y-103279966D01*
X53402044Y-103285736D01*
X53445350Y-103334858D01*
X53445353Y-103334861D01*
X53448698Y-103338655D01*
X53452606Y-103341865D01*
X53452607Y-103341866D01*
X53480989Y-103365179D01*
X53490108Y-103373449D01*
X58939595Y-108822936D01*
X58973621Y-108885248D01*
X58976500Y-108912031D01*
X58976500Y-113463271D01*
X58976112Y-113473157D01*
X58971835Y-113527500D01*
X58972223Y-113532430D01*
X58976377Y-113585210D01*
X58976500Y-113587287D01*
X58976500Y-113588501D01*
X58976702Y-113591009D01*
X58976702Y-113591014D01*
X58980288Y-113635575D01*
X58982737Y-113666017D01*
X58990465Y-113764211D01*
X58990724Y-113765290D01*
X58991060Y-113769465D01*
X59020589Y-113889685D01*
X59045895Y-113995094D01*
X59046922Y-113997574D01*
X59047341Y-113999043D01*
X59047756Y-114000291D01*
X59048963Y-114005206D01*
X59095128Y-114113964D01*
X59095471Y-114114780D01*
X59136760Y-114214463D01*
X59139134Y-114218337D01*
X59141266Y-114222908D01*
X59141831Y-114223988D01*
X59143812Y-114228656D01*
X59204655Y-114325273D01*
X59205391Y-114326458D01*
X59260824Y-114416916D01*
X59264042Y-114420684D01*
X59266822Y-114424510D01*
X59269650Y-114428687D01*
X59270467Y-114429779D01*
X59273167Y-114434067D01*
X59276512Y-114437861D01*
X59346350Y-114517078D01*
X59347646Y-114518572D01*
X59366091Y-114540168D01*
X59415031Y-114597469D01*
X59418787Y-114600677D01*
X59422293Y-114604183D01*
X59422212Y-114604264D01*
X59429802Y-114611736D01*
X59433698Y-114616155D01*
X59437612Y-114619370D01*
X59437613Y-114619371D01*
X59516672Y-114684311D01*
X59518526Y-114685863D01*
X59595584Y-114751676D01*
X59600379Y-114754614D01*
X59614514Y-114764679D01*
X59617364Y-114767020D01*
X59617372Y-114767025D01*
X59621278Y-114770234D01*
X59625646Y-114772776D01*
X59711437Y-114822708D01*
X59713832Y-114824139D01*
X59798037Y-114875740D01*
X59802606Y-114877632D01*
X59802607Y-114877633D01*
X59805874Y-114878986D01*
X59821033Y-114886494D01*
X59831078Y-114892341D01*
X59925601Y-114928625D01*
X59928648Y-114929841D01*
X60017406Y-114966605D01*
X60022220Y-114967761D01*
X60022221Y-114967761D01*
X60028432Y-114969252D01*
X60044174Y-114974140D01*
X60057702Y-114979333D01*
X60062653Y-114980367D01*
X60062652Y-114980367D01*
X60153829Y-114999415D01*
X60157476Y-115000233D01*
X60241416Y-115020385D01*
X60248289Y-115022035D01*
X60261801Y-115023099D01*
X60262440Y-115023149D01*
X60278315Y-115025422D01*
X60290368Y-115027940D01*
X60290374Y-115027941D01*
X60295320Y-115028974D01*
X60300370Y-115029203D01*
X60300375Y-115029204D01*
X60356193Y-115031738D01*
X60390471Y-115033295D01*
X60394608Y-115033551D01*
X60485000Y-115040665D01*
X60489931Y-115040277D01*
X60489935Y-115040277D01*
X60502012Y-115039327D01*
X60517604Y-115039069D01*
X60532759Y-115039757D01*
X60532766Y-115039757D01*
X60537817Y-115039986D01*
X60542837Y-115039405D01*
X60542843Y-115039405D01*
X60629504Y-115029378D01*
X60634098Y-115028931D01*
X60716786Y-115022423D01*
X60716791Y-115022422D01*
X60721711Y-115022035D01*
X60741071Y-115017387D01*
X60756002Y-115014741D01*
X60773937Y-115012666D01*
X60773940Y-115012665D01*
X60778956Y-115012085D01*
X60855012Y-114990564D01*
X60864975Y-114987745D01*
X60869866Y-114986467D01*
X60899579Y-114979333D01*
X60952594Y-114966605D01*
X60973634Y-114957890D01*
X60987532Y-114953064D01*
X60990468Y-114952233D01*
X61012532Y-114945990D01*
X61017113Y-114943854D01*
X61017118Y-114943852D01*
X61090887Y-114909453D01*
X61095918Y-114907239D01*
X61167391Y-114877634D01*
X61167393Y-114877633D01*
X61171963Y-114875740D01*
X61193802Y-114862357D01*
X61206384Y-114855596D01*
X61227953Y-114845538D01*
X61227952Y-114845538D01*
X61232536Y-114843401D01*
X61236717Y-114840559D01*
X61236725Y-114840555D01*
X61301653Y-114796430D01*
X61306639Y-114793210D01*
X61360555Y-114760170D01*
X62157160Y-114760170D01*
X62162887Y-114767820D01*
X62334042Y-114872705D01*
X62342837Y-114877187D01*
X62552988Y-114964234D01*
X62562373Y-114967283D01*
X62783554Y-115020385D01*
X62793301Y-115021928D01*
X63020070Y-115039775D01*
X63029930Y-115039775D01*
X63256699Y-115021928D01*
X63266446Y-115020385D01*
X63487627Y-114967283D01*
X63497012Y-114964234D01*
X63707163Y-114877187D01*
X63715958Y-114872705D01*
X63883445Y-114770068D01*
X63892907Y-114759610D01*
X63889124Y-114750834D01*
X63037812Y-113899522D01*
X63023868Y-113891908D01*
X63022035Y-113892039D01*
X63015420Y-113896290D01*
X62163920Y-114747790D01*
X62157160Y-114760170D01*
X61360555Y-114760170D01*
X61374416Y-114751676D01*
X61396071Y-114733181D01*
X61407076Y-114724783D01*
X61429121Y-114709801D01*
X61429122Y-114709800D01*
X61433307Y-114706956D01*
X61491893Y-114651554D01*
X61496636Y-114647291D01*
X61551207Y-114600683D01*
X61551214Y-114600676D01*
X61554969Y-114597469D01*
X61575317Y-114573645D01*
X61584539Y-114563944D01*
X61609681Y-114540168D01*
X61648982Y-114488765D01*
X61656900Y-114478408D01*
X61661185Y-114473107D01*
X61688706Y-114440884D01*
X61748156Y-114402074D01*
X61782558Y-114399860D01*
X61801667Y-114391623D01*
X63886080Y-112307210D01*
X63892840Y-112294830D01*
X63887113Y-112287180D01*
X63715958Y-112182295D01*
X63707163Y-112177813D01*
X63497012Y-112090766D01*
X63487627Y-112087717D01*
X63266446Y-112034615D01*
X63256699Y-112033072D01*
X63029930Y-112015225D01*
X63020070Y-112015225D01*
X62793301Y-112033072D01*
X62783554Y-112034615D01*
X62562373Y-112087717D01*
X62552988Y-112090766D01*
X62342837Y-112177813D01*
X62334052Y-112182290D01*
X62185335Y-112273424D01*
X62116802Y-112291962D01*
X62049125Y-112270506D01*
X62003792Y-112215867D01*
X61993500Y-112165991D01*
X61993500Y-108259016D01*
X61993549Y-108255498D01*
X61996193Y-108160850D01*
X61996193Y-108160847D01*
X61996334Y-108155795D01*
X61985941Y-108077902D01*
X61985241Y-108071353D01*
X61979346Y-107998077D01*
X61979345Y-107998073D01*
X61978940Y-107993035D01*
X61971101Y-107961122D01*
X61968573Y-107947738D01*
X61967892Y-107942630D01*
X61964229Y-107915180D01*
X61944927Y-107851248D01*
X61941522Y-107839971D01*
X61939781Y-107833608D01*
X61922244Y-107762209D01*
X61921037Y-107757294D01*
X61908199Y-107727048D01*
X61903561Y-107714237D01*
X61901318Y-107706807D01*
X61894067Y-107682792D01*
X61891849Y-107678244D01*
X61891846Y-107678237D01*
X61859629Y-107612182D01*
X61856893Y-107606180D01*
X61828162Y-107538495D01*
X61826188Y-107533844D01*
X61808681Y-107506044D01*
X61802052Y-107494134D01*
X61787654Y-107464612D01*
X61742357Y-107400400D01*
X61738699Y-107394914D01*
X61699529Y-107332714D01*
X61699528Y-107332713D01*
X61696833Y-107328433D01*
X61693492Y-107324644D01*
X61693488Y-107324638D01*
X61675102Y-107303783D01*
X61666656Y-107293088D01*
X61650009Y-107269490D01*
X61647726Y-107266253D01*
X61628091Y-107244750D01*
X61588375Y-107205034D01*
X61582956Y-107199264D01*
X61539650Y-107150142D01*
X61539647Y-107150139D01*
X61536302Y-107146345D01*
X61530465Y-107141550D01*
X61504011Y-107119821D01*
X61494892Y-107111551D01*
X56045405Y-101662064D01*
X56011379Y-101599752D01*
X56008500Y-101572969D01*
X56008500Y-97449606D01*
X56028502Y-97381485D01*
X56036575Y-97370560D01*
X56037669Y-97369431D01*
X56199795Y-97148723D01*
X56227154Y-97098334D01*
X56328418Y-96911830D01*
X56328419Y-96911828D01*
X56330468Y-96908054D01*
X56427269Y-96651877D01*
X56488407Y-96384933D01*
X56489515Y-96372526D01*
X56512531Y-96114627D01*
X56512531Y-96114625D01*
X56512751Y-96112161D01*
X56513193Y-96070000D01*
X56505823Y-95961891D01*
X56494859Y-95801055D01*
X56494858Y-95801049D01*
X56494567Y-95796778D01*
X56489914Y-95774307D01*
X56456174Y-95611389D01*
X56439032Y-95528612D01*
X56347617Y-95270465D01*
X56244005Y-95069721D01*
X56223978Y-95030919D01*
X56223978Y-95030918D01*
X56222013Y-95027112D01*
X56212040Y-95012921D01*
X56067008Y-94806562D01*
X56064545Y-94803057D01*
X55878125Y-94602445D01*
X55874810Y-94599731D01*
X55874806Y-94599728D01*
X55742577Y-94491500D01*
X55666205Y-94428990D01*
X55432704Y-94285901D01*
X55428768Y-94284173D01*
X55185873Y-94177549D01*
X55185869Y-94177548D01*
X55181945Y-94175825D01*
X54918566Y-94100800D01*
X54914324Y-94100196D01*
X54914318Y-94100195D01*
X54711881Y-94071384D01*
X54647443Y-94062213D01*
X54503589Y-94061460D01*
X54377877Y-94060802D01*
X54377871Y-94060802D01*
X54373591Y-94060780D01*
X54369347Y-94061339D01*
X54369343Y-94061339D01*
X54260626Y-94075652D01*
X54102078Y-94096525D01*
X54097938Y-94097658D01*
X54097936Y-94097658D01*
X54025008Y-94117609D01*
X53837928Y-94168788D01*
X53833980Y-94170472D01*
X53589982Y-94274546D01*
X53589978Y-94274548D01*
X53586030Y-94276232D01*
X53486903Y-94335558D01*
X53354725Y-94414664D01*
X53354721Y-94414667D01*
X53351043Y-94416868D01*
X53137318Y-94588094D01*
X52948808Y-94786742D01*
X52789002Y-95009136D01*
X52660857Y-95251161D01*
X52659385Y-95255184D01*
X52659383Y-95255188D01*
X52568477Y-95503598D01*
X52566743Y-95508337D01*
X52508404Y-95775907D01*
X52508068Y-95780177D01*
X52487294Y-96044134D01*
X52486917Y-96048918D01*
X50508500Y-96048918D01*
X50508500Y-90968918D01*
X52486917Y-90968918D01*
X52502682Y-91242320D01*
X52503507Y-91246525D01*
X52503508Y-91246533D01*
X52523696Y-91349431D01*
X52555405Y-91511053D01*
X52556792Y-91515103D01*
X52556793Y-91515108D01*
X52642723Y-91766088D01*
X52644112Y-91770144D01*
X52767160Y-92014799D01*
X52769586Y-92018328D01*
X52769589Y-92018334D01*
X52856086Y-92144187D01*
X52922274Y-92240490D01*
X53106582Y-92443043D01*
X53316675Y-92618707D01*
X53320316Y-92620991D01*
X53545024Y-92761951D01*
X53545028Y-92761953D01*
X53548664Y-92764234D01*
X53616544Y-92794883D01*
X53794345Y-92875164D01*
X53794349Y-92875166D01*
X53798257Y-92876930D01*
X53802377Y-92878150D01*
X53802376Y-92878150D01*
X54056723Y-92953491D01*
X54056727Y-92953492D01*
X54060836Y-92954709D01*
X54065070Y-92955357D01*
X54065075Y-92955358D01*
X54327298Y-92995483D01*
X54327300Y-92995483D01*
X54331540Y-92996132D01*
X54470912Y-92998322D01*
X54601071Y-93000367D01*
X54601077Y-93000367D01*
X54605362Y-93000434D01*
X54877235Y-92967534D01*
X55142127Y-92898041D01*
X55146087Y-92896401D01*
X55146092Y-92896399D01*
X55268632Y-92845641D01*
X55395136Y-92793241D01*
X55631582Y-92655073D01*
X55847089Y-92486094D01*
X55866221Y-92466352D01*
X56034686Y-92292509D01*
X56037669Y-92289431D01*
X56040202Y-92285983D01*
X56040206Y-92285978D01*
X56197257Y-92072178D01*
X56199795Y-92068723D01*
X56204296Y-92060434D01*
X56328418Y-91831830D01*
X56328419Y-91831828D01*
X56330468Y-91828054D01*
X56427269Y-91571877D01*
X56478216Y-91349431D01*
X56487449Y-91309117D01*
X56487450Y-91309113D01*
X56488407Y-91304933D01*
X56489816Y-91289151D01*
X56512531Y-91034627D01*
X56512531Y-91034625D01*
X56512751Y-91032161D01*
X56513193Y-90990000D01*
X56509317Y-90933148D01*
X56494859Y-90721055D01*
X56494858Y-90721049D01*
X56494567Y-90716778D01*
X56439032Y-90448612D01*
X56347617Y-90190465D01*
X56222013Y-89947112D01*
X56212040Y-89932921D01*
X56135653Y-89824234D01*
X56064545Y-89723057D01*
X55940518Y-89589588D01*
X55881046Y-89525588D01*
X55881043Y-89525585D01*
X55878125Y-89522445D01*
X55874810Y-89519731D01*
X55874806Y-89519728D01*
X55669523Y-89351706D01*
X55666205Y-89348990D01*
X55432704Y-89205901D01*
X55423961Y-89202063D01*
X55185873Y-89097549D01*
X55185869Y-89097548D01*
X55181945Y-89095825D01*
X54918566Y-89020800D01*
X54914324Y-89020196D01*
X54914318Y-89020195D01*
X54696086Y-88989136D01*
X54647443Y-88982213D01*
X54503589Y-88981460D01*
X54377877Y-88980802D01*
X54377871Y-88980802D01*
X54373591Y-88980780D01*
X54369347Y-88981339D01*
X54369343Y-88981339D01*
X54250302Y-88997011D01*
X54102078Y-89016525D01*
X54097938Y-89017658D01*
X54097936Y-89017658D01*
X54025008Y-89037609D01*
X53837928Y-89088788D01*
X53833980Y-89090472D01*
X53589982Y-89194546D01*
X53589978Y-89194548D01*
X53586030Y-89196232D01*
X53566125Y-89208145D01*
X53354725Y-89334664D01*
X53354721Y-89334667D01*
X53351043Y-89336868D01*
X53137318Y-89508094D01*
X52948808Y-89706742D01*
X52789002Y-89929136D01*
X52660857Y-90171161D01*
X52659385Y-90175184D01*
X52659383Y-90175188D01*
X52612859Y-90302320D01*
X52566743Y-90428337D01*
X52508404Y-90695907D01*
X52486917Y-90968918D01*
X50508500Y-90968918D01*
X50508500Y-77294669D01*
X52492001Y-77294669D01*
X52492371Y-77301490D01*
X52497895Y-77352352D01*
X52501521Y-77367604D01*
X52546676Y-77488054D01*
X52555214Y-77503649D01*
X52631715Y-77605724D01*
X52644276Y-77618285D01*
X52746351Y-77694786D01*
X52761946Y-77703324D01*
X52882394Y-77748478D01*
X52897649Y-77752105D01*
X52948514Y-77757631D01*
X52955328Y-77758000D01*
X54227885Y-77758000D01*
X54243124Y-77753525D01*
X54244329Y-77752135D01*
X54246000Y-77744452D01*
X54246000Y-77739884D01*
X54754000Y-77739884D01*
X54758475Y-77755123D01*
X54759865Y-77756328D01*
X54767548Y-77757999D01*
X56044669Y-77757999D01*
X56051490Y-77757629D01*
X56102352Y-77752105D01*
X56117604Y-77748479D01*
X56238054Y-77703324D01*
X56253649Y-77694786D01*
X56355724Y-77618285D01*
X56368285Y-77605724D01*
X56444786Y-77503649D01*
X56453324Y-77488054D01*
X56498478Y-77367606D01*
X56502105Y-77352351D01*
X56507631Y-77301486D01*
X56508000Y-77294672D01*
X56508000Y-76022115D01*
X56503525Y-76006876D01*
X56502135Y-76005671D01*
X56494452Y-76004000D01*
X54772115Y-76004000D01*
X54756876Y-76008475D01*
X54755671Y-76009865D01*
X54754000Y-76017548D01*
X54754000Y-77739884D01*
X54246000Y-77739884D01*
X54246000Y-76022115D01*
X54241525Y-76006876D01*
X54240135Y-76005671D01*
X54232452Y-76004000D01*
X52510116Y-76004000D01*
X52494877Y-76008475D01*
X52493672Y-76009865D01*
X52492001Y-76017548D01*
X52492001Y-77294669D01*
X50508500Y-77294669D01*
X50508500Y-75477885D01*
X52492000Y-75477885D01*
X52496475Y-75493124D01*
X52497865Y-75494329D01*
X52505548Y-75496000D01*
X54227885Y-75496000D01*
X54243124Y-75491525D01*
X54244329Y-75490135D01*
X54246000Y-75482452D01*
X54246000Y-75477885D01*
X54754000Y-75477885D01*
X54758475Y-75493124D01*
X54759865Y-75494329D01*
X54767548Y-75496000D01*
X56489884Y-75496000D01*
X56505123Y-75491525D01*
X56506328Y-75490135D01*
X56507999Y-75482452D01*
X56507999Y-74205331D01*
X56507629Y-74198510D01*
X56502105Y-74147648D01*
X56498479Y-74132396D01*
X56453324Y-74011946D01*
X56444786Y-73996351D01*
X56368285Y-73894276D01*
X56355724Y-73881715D01*
X56253649Y-73805214D01*
X56238054Y-73796676D01*
X56117606Y-73751522D01*
X56102351Y-73747895D01*
X56051486Y-73742369D01*
X56044672Y-73742000D01*
X54772115Y-73742000D01*
X54756876Y-73746475D01*
X54755671Y-73747865D01*
X54754000Y-73755548D01*
X54754000Y-75477885D01*
X54246000Y-75477885D01*
X54246000Y-73760116D01*
X54241525Y-73744877D01*
X54240135Y-73743672D01*
X54232452Y-73742001D01*
X52955331Y-73742001D01*
X52948510Y-73742371D01*
X52897648Y-73747895D01*
X52882396Y-73751521D01*
X52761946Y-73796676D01*
X52746351Y-73805214D01*
X52644276Y-73881715D01*
X52631715Y-73894276D01*
X52555214Y-73996351D01*
X52546676Y-74011946D01*
X52501522Y-74132394D01*
X52497895Y-74147649D01*
X52492369Y-74198514D01*
X52492000Y-74205328D01*
X52492000Y-75477885D01*
X50508500Y-75477885D01*
X50508500Y-71126000D01*
X50528502Y-71057879D01*
X50582158Y-71011386D01*
X50634500Y-71000000D01*
X65874000Y-71000000D01*
X65942121Y-71020002D01*
G37*
%TD.AperFunction*%
%TD*%
%TA.AperFunction,Conductor*%
%TO.N,Earth_Clean*%
G36*
X116459652Y-61860502D02*
G01*
X116506145Y-61914158D01*
X116516249Y-61984432D01*
X116487342Y-62048330D01*
X116342361Y-62218081D01*
X116138459Y-62516989D01*
X116084599Y-62617860D01*
X115999527Y-62777186D01*
X115968032Y-62836170D01*
X115966757Y-62839342D01*
X115966755Y-62839346D01*
X115840882Y-63152467D01*
X115796916Y-63208212D01*
X115729791Y-63231337D01*
X115660819Y-63214500D01*
X115620888Y-63177922D01*
X115520031Y-63034417D01*
X115509509Y-63026037D01*
X115496121Y-63033089D01*
X114292022Y-64237188D01*
X114284408Y-64251132D01*
X114284539Y-64252965D01*
X114288790Y-64259580D01*
X115495730Y-65466520D01*
X115507939Y-65473187D01*
X115519439Y-65464497D01*
X115616834Y-65331909D01*
X115619176Y-65328219D01*
X115672566Y-65281422D01*
X115742782Y-65270919D01*
X115807529Y-65300044D01*
X115842792Y-65349557D01*
X115958236Y-65642628D01*
X115959819Y-65645643D01*
X116102191Y-65916822D01*
X116126430Y-65962991D01*
X116138082Y-65980331D01*
X116159500Y-66050605D01*
X116159500Y-76327528D01*
X116139498Y-76395649D01*
X116126174Y-76412895D01*
X116048040Y-76497717D01*
X116045879Y-76500697D01*
X116045878Y-76500698D01*
X116037122Y-76512771D01*
X116029276Y-76522529D01*
X116016921Y-76536421D01*
X116014814Y-76539436D01*
X115936504Y-76651482D01*
X115935234Y-76653266D01*
X115852804Y-76766929D01*
X115851005Y-76770142D01*
X115851002Y-76770146D01*
X115843715Y-76783157D01*
X115837061Y-76793765D01*
X115826413Y-76809000D01*
X115824665Y-76812253D01*
X115824662Y-76812258D01*
X115759982Y-76932635D01*
X115758924Y-76934563D01*
X115692118Y-77053854D01*
X115692113Y-77053864D01*
X115690311Y-77057082D01*
X115683183Y-77074249D01*
X115677810Y-77085564D01*
X115669009Y-77101944D01*
X115667661Y-77105357D01*
X115667657Y-77105366D01*
X115617456Y-77232485D01*
X115616632Y-77234521D01*
X115562780Y-77364211D01*
X115557704Y-77382091D01*
X115553688Y-77393953D01*
X115548214Y-77407815D01*
X115546857Y-77411252D01*
X115522620Y-77502664D01*
X115510858Y-77547024D01*
X115510275Y-77549145D01*
X115472962Y-77680566D01*
X115472960Y-77680576D01*
X115471953Y-77684122D01*
X115471367Y-77687763D01*
X115471366Y-77687765D01*
X115468997Y-77702472D01*
X115466394Y-77714717D01*
X115461627Y-77732699D01*
X115461105Y-77736341D01*
X115461104Y-77736348D01*
X115441723Y-77871686D01*
X115441393Y-77873855D01*
X115419070Y-78012445D01*
X115418835Y-78017095D01*
X115417997Y-78033632D01*
X115416885Y-78045123D01*
X115414483Y-78061895D01*
X115414390Y-78065581D01*
X115412443Y-78142455D01*
X115412322Y-78145638D01*
X115409500Y-78201358D01*
X115409500Y-78257125D01*
X115409460Y-78260314D01*
X115408615Y-78293710D01*
X115406067Y-78394344D01*
X115406405Y-78398021D01*
X115406405Y-78398025D01*
X115408971Y-78425948D01*
X115409500Y-78437477D01*
X115409500Y-86585569D01*
X115409137Y-86595126D01*
X115404937Y-86650339D01*
X115405088Y-86654020D01*
X115405088Y-86654024D01*
X115409394Y-86758945D01*
X115409500Y-86764111D01*
X115409500Y-86785367D01*
X115409607Y-86787187D01*
X115412710Y-86840202D01*
X115412819Y-86842395D01*
X115418573Y-86982614D01*
X115421497Y-87000975D01*
X115422849Y-87013416D01*
X115423936Y-87031986D01*
X115424579Y-87035614D01*
X115448436Y-87170229D01*
X115448800Y-87172398D01*
X115470300Y-87307379D01*
X115470302Y-87307390D01*
X115470882Y-87311029D01*
X115471881Y-87314571D01*
X115471884Y-87314585D01*
X115475927Y-87328922D01*
X115478723Y-87341129D01*
X115481325Y-87355807D01*
X115481969Y-87359438D01*
X115483029Y-87362961D01*
X115483030Y-87362964D01*
X115522432Y-87493885D01*
X115523047Y-87495995D01*
X115538347Y-87550244D01*
X115561151Y-87631098D01*
X115565518Y-87641667D01*
X115568249Y-87648276D01*
X115572451Y-87660077D01*
X115577810Y-87677883D01*
X115613930Y-87761151D01*
X115633673Y-87806666D01*
X115634530Y-87808690D01*
X115660849Y-87872386D01*
X115688146Y-87938449D01*
X115689935Y-87941656D01*
X115689940Y-87941667D01*
X115697200Y-87954683D01*
X115702752Y-87965917D01*
X115708678Y-87979579D01*
X115708682Y-87979588D01*
X115710150Y-87982971D01*
X115712002Y-87986159D01*
X115780692Y-88104417D01*
X115781775Y-88106321D01*
X115850133Y-88228884D01*
X115861020Y-88243951D01*
X115867833Y-88254445D01*
X115875323Y-88267340D01*
X115875333Y-88267354D01*
X115877180Y-88270535D01*
X115879389Y-88273482D01*
X115879390Y-88273484D01*
X115961368Y-88382867D01*
X115962672Y-88384638D01*
X116044898Y-88498438D01*
X116058998Y-88514043D01*
X116059122Y-88514180D01*
X116066459Y-88523089D01*
X116076621Y-88536648D01*
X116079165Y-88539324D01*
X116079170Y-88539330D01*
X116132147Y-88595059D01*
X116134315Y-88597397D01*
X116171713Y-88638786D01*
X116211128Y-88678201D01*
X116213355Y-88680484D01*
X116303211Y-88775008D01*
X116303217Y-88775014D01*
X116305747Y-88777675D01*
X116308574Y-88780026D01*
X116330153Y-88797973D01*
X116338680Y-88805753D01*
X116519045Y-88986119D01*
X116524898Y-88992385D01*
X116564714Y-89038027D01*
X116564724Y-89038037D01*
X116567101Y-89040762D01*
X116569777Y-89043197D01*
X116638056Y-89105326D01*
X116642351Y-89109425D01*
X116651827Y-89118901D01*
X116653193Y-89120116D01*
X116653209Y-89120131D01*
X116702201Y-89163705D01*
X116703263Y-89164660D01*
X116770037Y-89225419D01*
X116809386Y-89261224D01*
X116812324Y-89263335D01*
X116812330Y-89263340D01*
X116816890Y-89266616D01*
X116827105Y-89274793D01*
X116836421Y-89283079D01*
X116852897Y-89294594D01*
X116959233Y-89368914D01*
X116960578Y-89369867D01*
X117032791Y-89421757D01*
X117075405Y-89452378D01*
X117084507Y-89457444D01*
X117085738Y-89458129D01*
X117096641Y-89464949D01*
X117109000Y-89473587D01*
X117112253Y-89475335D01*
X117112258Y-89475338D01*
X117238388Y-89543110D01*
X117240028Y-89544007D01*
X117316650Y-89586654D01*
X117361631Y-89611690D01*
X117374946Y-89617205D01*
X117386361Y-89622619D01*
X117401944Y-89630992D01*
X117536020Y-89683940D01*
X117537794Y-89684659D01*
X117574291Y-89699776D01*
X117660917Y-89735658D01*
X117660921Y-89735659D01*
X117664271Y-89737047D01*
X117667755Y-89738040D01*
X117667768Y-89738044D01*
X117680622Y-89741705D01*
X117692374Y-89745688D01*
X117711253Y-89753143D01*
X117847798Y-89789347D01*
X117849940Y-89789936D01*
X117979314Y-89826790D01*
X117982893Y-89827376D01*
X117982897Y-89827377D01*
X117998658Y-89829958D01*
X118010579Y-89832508D01*
X118032699Y-89838373D01*
X118169705Y-89857994D01*
X118172181Y-89858373D01*
X118198854Y-89862741D01*
X118299003Y-89879141D01*
X118299010Y-89879142D01*
X118302584Y-89879727D01*
X118324746Y-89880772D01*
X118336667Y-89881905D01*
X118358243Y-89884995D01*
X118358259Y-89884996D01*
X118361895Y-89885517D01*
X118391746Y-89886273D01*
X118497561Y-89888952D01*
X118500307Y-89889052D01*
X118626169Y-89894987D01*
X118626170Y-89894987D01*
X118629796Y-89895158D01*
X118633419Y-89894911D01*
X118654498Y-89893474D01*
X118666257Y-89893222D01*
X118690655Y-89893840D01*
X118690662Y-89893840D01*
X118694344Y-89893933D01*
X118698021Y-89893595D01*
X118698026Y-89893595D01*
X118826763Y-89881766D01*
X118829722Y-89881529D01*
X118952980Y-89873126D01*
X118952987Y-89873125D01*
X118956612Y-89872878D01*
X118960187Y-89872215D01*
X118960190Y-89872215D01*
X118983508Y-89867893D01*
X118994941Y-89866312D01*
X119025502Y-89863504D01*
X119152977Y-89836525D01*
X119156037Y-89835917D01*
X119224811Y-89823171D01*
X119275138Y-89813843D01*
X119275142Y-89813842D01*
X119278703Y-89813182D01*
X119307332Y-89804375D01*
X119318287Y-89801537D01*
X119347246Y-89795408D01*
X119347249Y-89795407D01*
X119350850Y-89794645D01*
X119354330Y-89793470D01*
X119354339Y-89793468D01*
X119471721Y-89753851D01*
X119474963Y-89752805D01*
X119498087Y-89745691D01*
X119591797Y-89716862D01*
X119621585Y-89703786D01*
X119631936Y-89699776D01*
X119662439Y-89689482D01*
X119662450Y-89689478D01*
X119665942Y-89688299D01*
X119778851Y-89634807D01*
X119782111Y-89633320D01*
X119888418Y-89586654D01*
X119888419Y-89586653D01*
X119891746Y-89585193D01*
X119894875Y-89583365D01*
X119894884Y-89583360D01*
X119922065Y-89567476D01*
X119931675Y-89562404D01*
X119966475Y-89545917D01*
X119969590Y-89543967D01*
X119969595Y-89543964D01*
X120070090Y-89481046D01*
X120073382Y-89479055D01*
X120171435Y-89421757D01*
X120171451Y-89421746D01*
X120174573Y-89419922D01*
X120204715Y-89397291D01*
X120213503Y-89391257D01*
X120245215Y-89371403D01*
X120245222Y-89371398D01*
X120248343Y-89369444D01*
X120251214Y-89367140D01*
X120251225Y-89367132D01*
X120341605Y-89294594D01*
X120344818Y-89292099D01*
X120378758Y-89266616D01*
X120436530Y-89223240D01*
X120465761Y-89195501D01*
X120473611Y-89188647D01*
X120504821Y-89163598D01*
X120507697Y-89161290D01*
X120560839Y-89107306D01*
X120589727Y-89077961D01*
X120592787Y-89074957D01*
X120671511Y-89000251D01*
X120671515Y-89000247D01*
X120674145Y-88997751D01*
X120701643Y-88964864D01*
X120708511Y-88957296D01*
X120738409Y-88926925D01*
X120738410Y-88926924D01*
X120740994Y-88924299D01*
X120811117Y-88834060D01*
X120813934Y-88830566D01*
X120881938Y-88749235D01*
X120881947Y-88749223D01*
X120884268Y-88746447D01*
X120909222Y-88708458D01*
X120915042Y-88700322D01*
X120942790Y-88664614D01*
X120945049Y-88661707D01*
X120946949Y-88658564D01*
X120946957Y-88658552D01*
X121002801Y-88566161D01*
X121005321Y-88562163D01*
X121062114Y-88475703D01*
X121062120Y-88475692D01*
X121064114Y-88472657D01*
X121085693Y-88429754D01*
X121090423Y-88421194D01*
X121115164Y-88380261D01*
X121115166Y-88380256D01*
X121117073Y-88377102D01*
X121139299Y-88328218D01*
X121162199Y-88277853D01*
X121164335Y-88273390D01*
X121209671Y-88183249D01*
X121209671Y-88183248D01*
X121211300Y-88180010D01*
X121228691Y-88132488D01*
X121232316Y-88123639D01*
X121253196Y-88077716D01*
X121253198Y-88077711D01*
X121254717Y-88074370D01*
X121282954Y-87986159D01*
X121287150Y-87973051D01*
X121288826Y-87968163D01*
X121322627Y-87875798D01*
X121322630Y-87875788D01*
X121323875Y-87872386D01*
X121336293Y-87820663D01*
X121338809Y-87811666D01*
X121354979Y-87761151D01*
X121356101Y-87757646D01*
X121356805Y-87754040D01*
X121356808Y-87754029D01*
X121371677Y-87677883D01*
X121375986Y-87655819D01*
X121377129Y-87650564D01*
X121377679Y-87648276D01*
X121400346Y-87553862D01*
X121407047Y-87498486D01*
X121408470Y-87489476D01*
X121419839Y-87431257D01*
X121420119Y-87427577D01*
X121427508Y-87330450D01*
X121428057Y-87324872D01*
X121439364Y-87231429D01*
X121439364Y-87231425D01*
X121439699Y-87228659D01*
X121442743Y-87131797D01*
X121443044Y-87126200D01*
X121444783Y-87103337D01*
X121445063Y-87099661D01*
X121444508Y-87086139D01*
X121444464Y-87077022D01*
X121445226Y-87052794D01*
X121445314Y-87050000D01*
X121444803Y-87041129D01*
X121437436Y-86913375D01*
X121437333Y-86911288D01*
X121431579Y-86771059D01*
X121431579Y-86771054D01*
X121431428Y-86767386D01*
X121430084Y-86758945D01*
X121428646Y-86749913D01*
X121427287Y-86737356D01*
X121426666Y-86726588D01*
X121426666Y-86726584D01*
X121426457Y-86722968D01*
X121424790Y-86713416D01*
X121402541Y-86585930D01*
X121402234Y-86584088D01*
X121379701Y-86442619D01*
X121379697Y-86442601D01*
X121379119Y-86438972D01*
X121378121Y-86435432D01*
X121378118Y-86435420D01*
X121375026Y-86424457D01*
X121372171Y-86411917D01*
X121370764Y-86403853D01*
X121370761Y-86403842D01*
X121370138Y-86400270D01*
X121329969Y-86264662D01*
X121329519Y-86263105D01*
X121289851Y-86122453D01*
X121289848Y-86122445D01*
X121288849Y-86118902D01*
X121287441Y-86115494D01*
X121287437Y-86115483D01*
X121284083Y-86107365D01*
X121279724Y-86095039D01*
X121278135Y-86089676D01*
X121277101Y-86086184D01*
X121220780Y-85954142D01*
X121220231Y-85952834D01*
X121163257Y-85814947D01*
X121161854Y-85811551D01*
X121157045Y-85802928D01*
X121151185Y-85790978D01*
X121150007Y-85788216D01*
X121150006Y-85788214D01*
X121148581Y-85784873D01*
X121107052Y-85712065D01*
X121090500Y-85649637D01*
X121090500Y-79522471D01*
X121110502Y-79454350D01*
X121123826Y-79437104D01*
X121125440Y-79435352D01*
X121201960Y-79352283D01*
X121212881Y-79337223D01*
X121220715Y-79327480D01*
X121233078Y-79313580D01*
X121235875Y-79309579D01*
X121275293Y-79253179D01*
X121292111Y-79229116D01*
X121347528Y-79184740D01*
X121418141Y-79177370D01*
X121481530Y-79209345D01*
X121511836Y-79253179D01*
X121516740Y-79265048D01*
X121516745Y-79265058D01*
X121518146Y-79268449D01*
X121519935Y-79271656D01*
X121519940Y-79271667D01*
X121527200Y-79284683D01*
X121532752Y-79295917D01*
X121538678Y-79309579D01*
X121538682Y-79309588D01*
X121540150Y-79312971D01*
X121602936Y-79421064D01*
X121610692Y-79434417D01*
X121611775Y-79436321D01*
X121680133Y-79558884D01*
X121691020Y-79573951D01*
X121697833Y-79584445D01*
X121705323Y-79597340D01*
X121705333Y-79597354D01*
X121707180Y-79600535D01*
X121709389Y-79603482D01*
X121709390Y-79603484D01*
X121791368Y-79712867D01*
X121792672Y-79714638D01*
X121874898Y-79828438D01*
X121888998Y-79844043D01*
X121889122Y-79844180D01*
X121896459Y-79853089D01*
X121906621Y-79866648D01*
X121909165Y-79869324D01*
X121909170Y-79869330D01*
X121962147Y-79925059D01*
X121964315Y-79927397D01*
X122001713Y-79968786D01*
X122041147Y-80008220D01*
X122043373Y-80010503D01*
X122135747Y-80107675D01*
X122138579Y-80110031D01*
X122138585Y-80110036D01*
X122160159Y-80127979D01*
X122168683Y-80135757D01*
X122872595Y-80839669D01*
X122906621Y-80901981D01*
X122909500Y-80928764D01*
X122909500Y-86285569D01*
X122909137Y-86295126D01*
X122904937Y-86350339D01*
X122905088Y-86354020D01*
X122905088Y-86354024D01*
X122909394Y-86458945D01*
X122909500Y-86464111D01*
X122909500Y-86485367D01*
X122909607Y-86487187D01*
X122912710Y-86540202D01*
X122912819Y-86542395D01*
X122918573Y-86682614D01*
X122921497Y-86700975D01*
X122922849Y-86713416D01*
X122923936Y-86731986D01*
X122924579Y-86735614D01*
X122948436Y-86870229D01*
X122948800Y-86872398D01*
X122970300Y-87007379D01*
X122970302Y-87007390D01*
X122970882Y-87011029D01*
X122971881Y-87014571D01*
X122971884Y-87014585D01*
X122975927Y-87028922D01*
X122978723Y-87041129D01*
X122980296Y-87050000D01*
X122981969Y-87059438D01*
X122983029Y-87062961D01*
X122983030Y-87062964D01*
X123022432Y-87193885D01*
X123023047Y-87195995D01*
X123032260Y-87228659D01*
X123061151Y-87331098D01*
X123065296Y-87341129D01*
X123068249Y-87348276D01*
X123072451Y-87360077D01*
X123077810Y-87377883D01*
X123133673Y-87506666D01*
X123134530Y-87508690D01*
X123188146Y-87638449D01*
X123189935Y-87641656D01*
X123189940Y-87641667D01*
X123197200Y-87654683D01*
X123202752Y-87665917D01*
X123208678Y-87679579D01*
X123208682Y-87679588D01*
X123210150Y-87682971D01*
X123212002Y-87686159D01*
X123280692Y-87804417D01*
X123281775Y-87806321D01*
X123350133Y-87928884D01*
X123361020Y-87943951D01*
X123367833Y-87954445D01*
X123375323Y-87967340D01*
X123375333Y-87967354D01*
X123377180Y-87970535D01*
X123379389Y-87973482D01*
X123379390Y-87973484D01*
X123461368Y-88082867D01*
X123462672Y-88084638D01*
X123544898Y-88198438D01*
X123558998Y-88214043D01*
X123559122Y-88214180D01*
X123566459Y-88223089D01*
X123576621Y-88236648D01*
X123579165Y-88239324D01*
X123579170Y-88239330D01*
X123632147Y-88295059D01*
X123634315Y-88297397D01*
X123671713Y-88338786D01*
X123711147Y-88378220D01*
X123713373Y-88380503D01*
X123805747Y-88477675D01*
X123808580Y-88480031D01*
X123808583Y-88480034D01*
X123830148Y-88497969D01*
X123838675Y-88505748D01*
X124319053Y-88986127D01*
X124324899Y-88992385D01*
X124367101Y-89040762D01*
X124437573Y-89104887D01*
X124438056Y-89105326D01*
X124442351Y-89109425D01*
X124451827Y-89118901D01*
X124453193Y-89120116D01*
X124453209Y-89120131D01*
X124502201Y-89163705D01*
X124503263Y-89164660D01*
X124570037Y-89225419D01*
X124609386Y-89261224D01*
X124612324Y-89263335D01*
X124612330Y-89263340D01*
X124616890Y-89266616D01*
X124627105Y-89274793D01*
X124636421Y-89283079D01*
X124652897Y-89294594D01*
X124759233Y-89368914D01*
X124760578Y-89369867D01*
X124832791Y-89421757D01*
X124875405Y-89452378D01*
X124884507Y-89457444D01*
X124885738Y-89458129D01*
X124896641Y-89464949D01*
X124909000Y-89473587D01*
X124912253Y-89475335D01*
X124912258Y-89475338D01*
X125038388Y-89543110D01*
X125040028Y-89544007D01*
X125116650Y-89586654D01*
X125161631Y-89611690D01*
X125174946Y-89617205D01*
X125186361Y-89622619D01*
X125201944Y-89630992D01*
X125205368Y-89632344D01*
X125205374Y-89632347D01*
X125335918Y-89683901D01*
X125337854Y-89684684D01*
X125460917Y-89735658D01*
X125460921Y-89735659D01*
X125464271Y-89737047D01*
X125480624Y-89741705D01*
X125492376Y-89745689D01*
X125497868Y-89747857D01*
X125507825Y-89751790D01*
X125507831Y-89751792D01*
X125511252Y-89753143D01*
X125647769Y-89789340D01*
X125647795Y-89789347D01*
X125649991Y-89789952D01*
X125694784Y-89802711D01*
X125775817Y-89825794D01*
X125775819Y-89825795D01*
X125779314Y-89826790D01*
X125782893Y-89827376D01*
X125782897Y-89827377D01*
X125798658Y-89829958D01*
X125810579Y-89832508D01*
X125832699Y-89838373D01*
X125969705Y-89857994D01*
X125972181Y-89858373D01*
X125998854Y-89862741D01*
X126099003Y-89879141D01*
X126099010Y-89879142D01*
X126102584Y-89879727D01*
X126124746Y-89880772D01*
X126136667Y-89881905D01*
X126158243Y-89884995D01*
X126158259Y-89884996D01*
X126161895Y-89885517D01*
X126191746Y-89886273D01*
X126297561Y-89888952D01*
X126300307Y-89889052D01*
X126426169Y-89894987D01*
X126426170Y-89894987D01*
X126429796Y-89895158D01*
X126433419Y-89894911D01*
X126454498Y-89893474D01*
X126466257Y-89893222D01*
X126490655Y-89893840D01*
X126490662Y-89893840D01*
X126494344Y-89893933D01*
X126498021Y-89893595D01*
X126498026Y-89893595D01*
X126626763Y-89881766D01*
X126629722Y-89881529D01*
X126752980Y-89873126D01*
X126752987Y-89873125D01*
X126756612Y-89872878D01*
X126760187Y-89872215D01*
X126760190Y-89872215D01*
X126783508Y-89867893D01*
X126794941Y-89866312D01*
X126825502Y-89863504D01*
X126952977Y-89836525D01*
X126956037Y-89835917D01*
X127024811Y-89823171D01*
X127075138Y-89813843D01*
X127075142Y-89813842D01*
X127078703Y-89813182D01*
X127107332Y-89804375D01*
X127118287Y-89801537D01*
X127147246Y-89795408D01*
X127147249Y-89795407D01*
X127150850Y-89794645D01*
X127154330Y-89793470D01*
X127154339Y-89793468D01*
X127271721Y-89753851D01*
X127274963Y-89752805D01*
X127298087Y-89745691D01*
X127391797Y-89716862D01*
X127421585Y-89703786D01*
X127431936Y-89699776D01*
X127462439Y-89689482D01*
X127462450Y-89689478D01*
X127465942Y-89688299D01*
X127578851Y-89634807D01*
X127582111Y-89633320D01*
X127688418Y-89586654D01*
X127688419Y-89586653D01*
X127691746Y-89585193D01*
X127694875Y-89583365D01*
X127694884Y-89583360D01*
X127722065Y-89567476D01*
X127731675Y-89562404D01*
X127766475Y-89545917D01*
X127769590Y-89543967D01*
X127769595Y-89543964D01*
X127870090Y-89481046D01*
X127873382Y-89479055D01*
X127971435Y-89421757D01*
X127971451Y-89421746D01*
X127974573Y-89419922D01*
X128004715Y-89397291D01*
X128013503Y-89391257D01*
X128045215Y-89371403D01*
X128045222Y-89371398D01*
X128048343Y-89369444D01*
X128051214Y-89367140D01*
X128051225Y-89367132D01*
X128141605Y-89294594D01*
X128144818Y-89292099D01*
X128178758Y-89266616D01*
X128236530Y-89223240D01*
X128265761Y-89195501D01*
X128273611Y-89188647D01*
X128304821Y-89163598D01*
X128307697Y-89161290D01*
X128360839Y-89107306D01*
X128389727Y-89077961D01*
X128392787Y-89074957D01*
X128471511Y-89000251D01*
X128471515Y-89000247D01*
X128474145Y-88997751D01*
X128501643Y-88964864D01*
X128508511Y-88957296D01*
X128538409Y-88926925D01*
X128538410Y-88926924D01*
X128540994Y-88924299D01*
X128611117Y-88834060D01*
X128613934Y-88830566D01*
X128681938Y-88749235D01*
X128681947Y-88749223D01*
X128684268Y-88746447D01*
X128709222Y-88708458D01*
X128715042Y-88700322D01*
X128742790Y-88664614D01*
X128745049Y-88661707D01*
X128746949Y-88658564D01*
X128746957Y-88658552D01*
X128802801Y-88566161D01*
X128805321Y-88562163D01*
X128862114Y-88475703D01*
X128862120Y-88475692D01*
X128864114Y-88472657D01*
X128885693Y-88429754D01*
X128890423Y-88421194D01*
X128915164Y-88380261D01*
X128915166Y-88380256D01*
X128917073Y-88377102D01*
X128939299Y-88328218D01*
X128962199Y-88277853D01*
X128964335Y-88273390D01*
X129009671Y-88183249D01*
X129009671Y-88183248D01*
X129011300Y-88180010D01*
X129028691Y-88132488D01*
X129032316Y-88123639D01*
X129053196Y-88077716D01*
X129053198Y-88077711D01*
X129054717Y-88074370D01*
X129082954Y-87986159D01*
X129087150Y-87973051D01*
X129088826Y-87968163D01*
X129122627Y-87875798D01*
X129122630Y-87875788D01*
X129123875Y-87872386D01*
X129136293Y-87820663D01*
X129138809Y-87811666D01*
X129154979Y-87761151D01*
X129156101Y-87757646D01*
X129156805Y-87754040D01*
X129156808Y-87754029D01*
X129171677Y-87677883D01*
X129175986Y-87655819D01*
X129177129Y-87650564D01*
X129177679Y-87648276D01*
X129200346Y-87553862D01*
X129207047Y-87498486D01*
X129208470Y-87489476D01*
X129219839Y-87431257D01*
X129220119Y-87427577D01*
X129227508Y-87330450D01*
X129228057Y-87324872D01*
X129239364Y-87231429D01*
X129239364Y-87231425D01*
X129239699Y-87228659D01*
X129242743Y-87131797D01*
X129243044Y-87126200D01*
X129244783Y-87103337D01*
X129245063Y-87099661D01*
X129244508Y-87086139D01*
X129244464Y-87077022D01*
X129245226Y-87052794D01*
X129245314Y-87050000D01*
X129244803Y-87041129D01*
X129237436Y-86913375D01*
X129237333Y-86911288D01*
X129231579Y-86771059D01*
X129231579Y-86771054D01*
X129231428Y-86767386D01*
X129230084Y-86758945D01*
X129228646Y-86749913D01*
X129227287Y-86737356D01*
X129226666Y-86726588D01*
X129226666Y-86726584D01*
X129226457Y-86722968D01*
X129224790Y-86713416D01*
X129202542Y-86585936D01*
X129202235Y-86584093D01*
X129179701Y-86442621D01*
X129179699Y-86442610D01*
X129179119Y-86438971D01*
X129175025Y-86424453D01*
X129172174Y-86411931D01*
X129170138Y-86400270D01*
X129129959Y-86264631D01*
X129129521Y-86263114D01*
X129088849Y-86118902D01*
X129087441Y-86115494D01*
X129087437Y-86115483D01*
X129084083Y-86107365D01*
X129079724Y-86095039D01*
X129078135Y-86089676D01*
X129077101Y-86086184D01*
X129020780Y-85954142D01*
X129020231Y-85952834D01*
X128963257Y-85814947D01*
X128961854Y-85811551D01*
X128957045Y-85802928D01*
X128951185Y-85790978D01*
X128950007Y-85788216D01*
X128950006Y-85788214D01*
X128948581Y-85784873D01*
X128876440Y-85658395D01*
X128875863Y-85657372D01*
X128801662Y-85524332D01*
X128801659Y-85524328D01*
X128799868Y-85521116D01*
X128795611Y-85515224D01*
X128788296Y-85503863D01*
X128788081Y-85503487D01*
X128786281Y-85500331D01*
X128699115Y-85381669D01*
X128698573Y-85380925D01*
X128614370Y-85264388D01*
X128590500Y-85190595D01*
X128590500Y-79814434D01*
X128590863Y-79804877D01*
X128594783Y-79753339D01*
X128595063Y-79749661D01*
X128590606Y-79641047D01*
X128590500Y-79635881D01*
X128590500Y-79614633D01*
X128587292Y-79559825D01*
X128587183Y-79557633D01*
X128581579Y-79421064D01*
X128581579Y-79421063D01*
X128581428Y-79417386D01*
X128578504Y-79399023D01*
X128577152Y-79386575D01*
X128576280Y-79371695D01*
X128576279Y-79371687D01*
X128576064Y-79368014D01*
X128551573Y-79229822D01*
X128551209Y-79227653D01*
X128529701Y-79092622D01*
X128529699Y-79092612D01*
X128529119Y-79088972D01*
X128524071Y-79071073D01*
X128521275Y-79058866D01*
X128518031Y-79040562D01*
X128477562Y-78906098D01*
X128476950Y-78903997D01*
X128439851Y-78772454D01*
X128439848Y-78772446D01*
X128438849Y-78768903D01*
X128437441Y-78765495D01*
X128437437Y-78765484D01*
X128431751Y-78751722D01*
X128427548Y-78739921D01*
X128422190Y-78722117D01*
X128366310Y-78593295D01*
X128365452Y-78591270D01*
X128313257Y-78464948D01*
X128311854Y-78461552D01*
X128310064Y-78458343D01*
X128310056Y-78458326D01*
X128302801Y-78445318D01*
X128297250Y-78434087D01*
X128291318Y-78420413D01*
X128291317Y-78420411D01*
X128289850Y-78417029D01*
X128219330Y-78295619D01*
X128218243Y-78293710D01*
X128151664Y-78174336D01*
X128151663Y-78174335D01*
X128149868Y-78171116D01*
X128138984Y-78156053D01*
X128132158Y-78145542D01*
X128124668Y-78132646D01*
X128124665Y-78132641D01*
X128122820Y-78129465D01*
X128069439Y-78058239D01*
X128038604Y-78017095D01*
X128037301Y-78015324D01*
X127957113Y-77904346D01*
X127957112Y-77904344D01*
X127955102Y-77901563D01*
X127952803Y-77899018D01*
X127952796Y-77899010D01*
X127940880Y-77885822D01*
X127933556Y-77876931D01*
X127923379Y-77863352D01*
X127867846Y-77804934D01*
X127865679Y-77802596D01*
X127850208Y-77785474D01*
X127819379Y-77721520D01*
X127828020Y-77651051D01*
X127873388Y-77596441D01*
X127943697Y-77575000D01*
X136872358Y-77575000D01*
X136881301Y-77575318D01*
X136946505Y-77579958D01*
X136990494Y-77576936D01*
X137017561Y-77575077D01*
X137019045Y-77575000D01*
X137019916Y-77575000D01*
X137068119Y-77571629D01*
X137088940Y-77570173D01*
X137089095Y-77570162D01*
X137225577Y-77560787D01*
X137225583Y-77560786D01*
X137229880Y-77560491D01*
X137231105Y-77560232D01*
X137232351Y-77560145D01*
X137236569Y-77559248D01*
X137236572Y-77559248D01*
X137369834Y-77530922D01*
X137369985Y-77530890D01*
X137507788Y-77501775D01*
X137508963Y-77501349D01*
X137510186Y-77501089D01*
X137514224Y-77499619D01*
X137514232Y-77499617D01*
X137642473Y-77452940D01*
X137642619Y-77452887D01*
X137770792Y-77406414D01*
X137774819Y-77404954D01*
X137775921Y-77404370D01*
X137777099Y-77403941D01*
X137901241Y-77337934D01*
X137901397Y-77337902D01*
X137901376Y-77337862D01*
X137952989Y-77310500D01*
X137974484Y-77299105D01*
X138044038Y-77284870D01*
X138110247Y-77310500D01*
X138152090Y-77367855D01*
X138159500Y-77410429D01*
X138159500Y-91374000D01*
X138139498Y-91442121D01*
X138085842Y-91488614D01*
X138033500Y-91500000D01*
X137868222Y-91500000D01*
X137800101Y-91479998D01*
X137751438Y-91421302D01*
X137714343Y-91329719D01*
X137713300Y-91327058D01*
X137675496Y-91227275D01*
X137675493Y-91227269D01*
X137673880Y-91223011D01*
X137667432Y-91211402D01*
X137660806Y-91197542D01*
X137655821Y-91185235D01*
X137599606Y-91089228D01*
X137598207Y-91086775D01*
X137546400Y-90993504D01*
X137544184Y-90989514D01*
X137536132Y-90978964D01*
X137527566Y-90966192D01*
X137520861Y-90954741D01*
X137518005Y-90951169D01*
X137518001Y-90951164D01*
X137451381Y-90867859D01*
X137449621Y-90865607D01*
X137384911Y-90780817D01*
X137382140Y-90777186D01*
X137372662Y-90767921D01*
X137362335Y-90756512D01*
X137356894Y-90749708D01*
X137356886Y-90749699D01*
X137354042Y-90746143D01*
X137272727Y-90670183D01*
X137270660Y-90668207D01*
X137194408Y-90593666D01*
X137191142Y-90590473D01*
X137180411Y-90582662D01*
X137168551Y-90572868D01*
X137162193Y-90566928D01*
X137162190Y-90566926D01*
X137158857Y-90563812D01*
X137067411Y-90500374D01*
X137065115Y-90498741D01*
X136978888Y-90435978D01*
X136978886Y-90435977D01*
X136975192Y-90433288D01*
X136963445Y-90427107D01*
X136950302Y-90419132D01*
X136943139Y-90414163D01*
X136939397Y-90411567D01*
X136839772Y-90362005D01*
X136837284Y-90360731D01*
X136738813Y-90308923D01*
X136733823Y-90307161D01*
X136726298Y-90304503D01*
X136712141Y-90298509D01*
X136700257Y-90292597D01*
X136594542Y-90257942D01*
X136591867Y-90257031D01*
X136486957Y-90219984D01*
X136478264Y-90218271D01*
X136473943Y-90217419D01*
X136459059Y-90213528D01*
X136446448Y-90209394D01*
X136336830Y-90190362D01*
X136334044Y-90189845D01*
X136224900Y-90168333D01*
X136220344Y-90168106D01*
X136220343Y-90168106D01*
X136211648Y-90167673D01*
X136196365Y-90165972D01*
X136187081Y-90164360D01*
X136187070Y-90164359D01*
X136183287Y-90163702D01*
X136134865Y-90161291D01*
X136100456Y-90159578D01*
X136100447Y-90159578D01*
X136098885Y-90159500D01*
X136050608Y-90159500D01*
X136044343Y-90159344D01*
X135962701Y-90155279D01*
X135962695Y-90155279D01*
X135958132Y-90155052D01*
X135920989Y-90158596D01*
X135917485Y-90158930D01*
X135905518Y-90159500D01*
X110966500Y-90159500D01*
X110898379Y-90139498D01*
X110851886Y-90085842D01*
X110840500Y-90033500D01*
X110840500Y-65839654D01*
X112695618Y-65839654D01*
X112702673Y-65849627D01*
X112733679Y-65875551D01*
X112740598Y-65880579D01*
X112965272Y-66021515D01*
X112972807Y-66025556D01*
X113214520Y-66134694D01*
X113222551Y-66137680D01*
X113476832Y-66213002D01*
X113485184Y-66214869D01*
X113747340Y-66254984D01*
X113755874Y-66255700D01*
X114021045Y-66259867D01*
X114029596Y-66259418D01*
X114292883Y-66227557D01*
X114301284Y-66225955D01*
X114557824Y-66158653D01*
X114565926Y-66155926D01*
X114810949Y-66054434D01*
X114818617Y-66050628D01*
X115047598Y-65916822D01*
X115054679Y-65912009D01*
X115134655Y-65849301D01*
X115143125Y-65837442D01*
X115136608Y-65825818D01*
X113932812Y-64622022D01*
X113918868Y-64614408D01*
X113917035Y-64614539D01*
X113910420Y-64618790D01*
X112702910Y-65826300D01*
X112695618Y-65839654D01*
X110840500Y-65839654D01*
X110840500Y-64233204D01*
X111907665Y-64233204D01*
X111922932Y-64497969D01*
X111924005Y-64506470D01*
X111975065Y-64766722D01*
X111977276Y-64774974D01*
X112063184Y-65025894D01*
X112066499Y-65033779D01*
X112185664Y-65270713D01*
X112190020Y-65278079D01*
X112319347Y-65466250D01*
X112329601Y-65474594D01*
X112343342Y-65467448D01*
X113547978Y-64262812D01*
X113555592Y-64248868D01*
X113555461Y-64247035D01*
X113551210Y-64240420D01*
X112343814Y-63033024D01*
X112331804Y-63026466D01*
X112320064Y-63035434D01*
X112211935Y-63185911D01*
X112207418Y-63193196D01*
X112083325Y-63427567D01*
X112079839Y-63435395D01*
X111988700Y-63684446D01*
X111986311Y-63692670D01*
X111929812Y-63951795D01*
X111928563Y-63960250D01*
X111907754Y-64224653D01*
X111907665Y-64233204D01*
X110840500Y-64233204D01*
X110840500Y-64050608D01*
X110840656Y-64044343D01*
X110844721Y-63962701D01*
X110844721Y-63962695D01*
X110844948Y-63958132D01*
X110834385Y-63847411D01*
X110834147Y-63844588D01*
X110826424Y-63738154D01*
X110826094Y-63733602D01*
X110823232Y-63720638D01*
X110820840Y-63705447D01*
X110820014Y-63696789D01*
X110820014Y-63696788D01*
X110819580Y-63692241D01*
X110793143Y-63584201D01*
X110792495Y-63581417D01*
X110769496Y-63477244D01*
X110769495Y-63477240D01*
X110768511Y-63472784D01*
X110763807Y-63460368D01*
X110759247Y-63445680D01*
X110757181Y-63437236D01*
X110757178Y-63437226D01*
X110756094Y-63432797D01*
X110714340Y-63329711D01*
X110713300Y-63327058D01*
X110675496Y-63227275D01*
X110675493Y-63227269D01*
X110673880Y-63223011D01*
X110667432Y-63211402D01*
X110660806Y-63197542D01*
X110655821Y-63185235D01*
X110599606Y-63089228D01*
X110598207Y-63086775D01*
X110568388Y-63033089D01*
X110544184Y-62989514D01*
X110536132Y-62978964D01*
X110527566Y-62966192D01*
X110520861Y-62954741D01*
X110518005Y-62951169D01*
X110518001Y-62951164D01*
X110451381Y-62867859D01*
X110449621Y-62865607D01*
X110384911Y-62780817D01*
X110382140Y-62777186D01*
X110372662Y-62767921D01*
X110362335Y-62756512D01*
X110356894Y-62749708D01*
X110356886Y-62749699D01*
X110354042Y-62746143D01*
X110281112Y-62678016D01*
X110272727Y-62670183D01*
X110270660Y-62668207D01*
X110264822Y-62662500D01*
X112696584Y-62662500D01*
X112702980Y-62673770D01*
X113907188Y-63877978D01*
X113921132Y-63885592D01*
X113922965Y-63885461D01*
X113929580Y-63881210D01*
X115136604Y-62674186D01*
X115143795Y-62661017D01*
X115136473Y-62650780D01*
X115089233Y-62612115D01*
X115082261Y-62607160D01*
X114856122Y-62468582D01*
X114848552Y-62464624D01*
X114605704Y-62358022D01*
X114597644Y-62355120D01*
X114342592Y-62282467D01*
X114334214Y-62280685D01*
X114071656Y-62243318D01*
X114063111Y-62242691D01*
X113797908Y-62241302D01*
X113789374Y-62241839D01*
X113526433Y-62276456D01*
X113518035Y-62278149D01*
X113262238Y-62348127D01*
X113254143Y-62350946D01*
X113010199Y-62454997D01*
X113002577Y-62458881D01*
X112775013Y-62595075D01*
X112767981Y-62599962D01*
X112705053Y-62650377D01*
X112696584Y-62662500D01*
X110264822Y-62662500D01*
X110219157Y-62617860D01*
X110191142Y-62590473D01*
X110180411Y-62582662D01*
X110168551Y-62572868D01*
X110162193Y-62566928D01*
X110162190Y-62566926D01*
X110158857Y-62563812D01*
X110067411Y-62500374D01*
X110065115Y-62498741D01*
X109978888Y-62435978D01*
X109978886Y-62435977D01*
X109975192Y-62433288D01*
X109963445Y-62427107D01*
X109950302Y-62419132D01*
X109943139Y-62414163D01*
X109939397Y-62411567D01*
X109839802Y-62362019D01*
X109837271Y-62360724D01*
X109817330Y-62350232D01*
X109766359Y-62300812D01*
X109750000Y-62238725D01*
X109750000Y-61966500D01*
X109770002Y-61898379D01*
X109823658Y-61851886D01*
X109876000Y-61840500D01*
X116391531Y-61840500D01*
X116459652Y-61860502D01*
G37*
%TD.AperFunction*%
%TD*%
M02*
