%TF.GenerationSoftware,KiCad,Pcbnew,(6.0.7)*%
%TF.CreationDate,2022-11-19T09:32:58+05:30*%
%TF.ProjectId,ESP32_Drive,45535033-325f-4447-9269-76652e6b6963,rev?*%
%TF.SameCoordinates,Original*%
%TF.FileFunction,Soldermask,Top*%
%TF.FilePolarity,Negative*%
%FSLAX46Y46*%
G04 Gerber Fmt 4.6, Leading zero omitted, Abs format (unit mm)*
G04 Created by KiCad (PCBNEW (6.0.7)) date 2022-11-19 09:32:58*
%MOMM*%
%LPD*%
G01*
G04 APERTURE LIST*
G04 Aperture macros list*
%AMRoundRect*
0 Rectangle with rounded corners*
0 $1 Rounding radius*
0 $2 $3 $4 $5 $6 $7 $8 $9 X,Y pos of 4 corners*
0 Add a 4 corners polygon primitive as box body*
4,1,4,$2,$3,$4,$5,$6,$7,$8,$9,$2,$3,0*
0 Add four circle primitives for the rounded corners*
1,1,$1+$1,$2,$3*
1,1,$1+$1,$4,$5*
1,1,$1+$1,$6,$7*
1,1,$1+$1,$8,$9*
0 Add four rect primitives between the rounded corners*
20,1,$1+$1,$2,$3,$4,$5,0*
20,1,$1+$1,$4,$5,$6,$7,0*
20,1,$1+$1,$6,$7,$8,$9,0*
20,1,$1+$1,$8,$9,$2,$3,0*%
G04 Aperture macros list end*
%ADD10R,3.000000X3.000000*%
%ADD11C,3.000000*%
%ADD12R,2.000000X2.000000*%
%ADD13C,2.000000*%
%ADD14RoundRect,0.250001X0.462499X0.624999X-0.462499X0.624999X-0.462499X-0.624999X0.462499X-0.624999X0*%
%ADD15RoundRect,0.250000X0.450000X-0.350000X0.450000X0.350000X-0.450000X0.350000X-0.450000X-0.350000X0*%
%ADD16RoundRect,0.250000X0.350000X0.450000X-0.350000X0.450000X-0.350000X-0.450000X0.350000X-0.450000X0*%
%ADD17RoundRect,0.250001X-0.462499X-0.624999X0.462499X-0.624999X0.462499X0.624999X-0.462499X0.624999X0*%
%ADD18R,1.700000X1.700000*%
%ADD19O,1.700000X1.700000*%
%ADD20RoundRect,0.250000X-0.350000X-0.450000X0.350000X-0.450000X0.350000X0.450000X-0.350000X0.450000X0*%
%ADD21R,1.600000X1.600000*%
%ADD22C,1.600000*%
%ADD23C,3.500000*%
%ADD24C,1.800000*%
%ADD25RoundRect,0.150000X0.150000X-0.825000X0.150000X0.825000X-0.150000X0.825000X-0.150000X-0.825000X0*%
G04 APERTURE END LIST*
D10*
%TO.C,J2*%
X54500000Y-75750000D03*
D11*
X54500000Y-80830000D03*
X54500000Y-85910000D03*
X54500000Y-90990000D03*
X54500000Y-96070000D03*
%TD*%
%TO.C,U1*%
X52525000Y-113997500D03*
X99475000Y-113997500D03*
X52525000Y-138507500D03*
X99475000Y-138507500D03*
D12*
X60485000Y-138927500D03*
D13*
X63025000Y-138927500D03*
X65565000Y-138927500D03*
X68105000Y-138927500D03*
X70645000Y-138927500D03*
X73185000Y-138927500D03*
X75725000Y-138927500D03*
X78265000Y-138927500D03*
X80805000Y-138927500D03*
X83345000Y-138927500D03*
X85885000Y-138927500D03*
X88425000Y-138927500D03*
X90965000Y-138927500D03*
X93505000Y-138927500D03*
X96045000Y-138927500D03*
X96045000Y-113527500D03*
X93505000Y-113527500D03*
X90965000Y-113527500D03*
X88425000Y-113527500D03*
X85885000Y-113527500D03*
X83345000Y-113527500D03*
X80805000Y-113527500D03*
X78265000Y-113527500D03*
X75725000Y-113527500D03*
X73185000Y-113527500D03*
X70645000Y-113527500D03*
X68105000Y-113527500D03*
X65565000Y-113527500D03*
X63025000Y-113527500D03*
X60485000Y-113527500D03*
%TD*%
D14*
%TO.C,D4*%
X108750000Y-145750000D03*
X105775000Y-145750000D03*
%TD*%
%TO.C,D3*%
X101750000Y-145750000D03*
X98775000Y-145750000D03*
%TD*%
D15*
%TO.C,R6*%
X65500000Y-145500000D03*
X65500000Y-143500000D03*
%TD*%
%TO.C,R5*%
X70750000Y-145500000D03*
X70750000Y-143500000D03*
%TD*%
D12*
%TO.C,BZ1*%
X101750000Y-103250000D03*
D13*
X94150000Y-103250000D03*
%TD*%
D16*
%TO.C,R4*%
X71000000Y-102000000D03*
X69000000Y-102000000D03*
%TD*%
D10*
%TO.C,J1*%
X124080000Y-64250000D03*
D11*
X119000000Y-64250000D03*
X113920000Y-64250000D03*
%TD*%
D17*
%TO.C,D1*%
X71012500Y-95000000D03*
X73987500Y-95000000D03*
%TD*%
D18*
%TO.C,J5*%
X76550000Y-144100000D03*
D19*
X79090000Y-144100000D03*
X81630000Y-144100000D03*
X84170000Y-144100000D03*
X86710000Y-144100000D03*
X89250000Y-144100000D03*
%TD*%
D20*
%TO.C,R2*%
X97000000Y-95000000D03*
X99000000Y-95000000D03*
%TD*%
D21*
%TO.C,C1*%
X111097349Y-137250000D03*
D22*
X114597349Y-137250000D03*
%TD*%
D23*
%TO.C,H2*%
X136000000Y-146000000D03*
%TD*%
D24*
%TO.C,RV1*%
X125750000Y-79700000D03*
X118250000Y-78300000D03*
%TD*%
D11*
%TO.C,K2*%
X94500000Y-90050000D03*
X88500000Y-75850000D03*
X100500000Y-75850000D03*
X100500000Y-88050000D03*
X88500000Y-88050000D03*
%TD*%
D17*
%TO.C,D2*%
X89512500Y-95000000D03*
X92487500Y-95000000D03*
%TD*%
D23*
%TO.C,H4*%
X54000000Y-146000000D03*
%TD*%
%TO.C,H3*%
X136000000Y-64000000D03*
%TD*%
%TO.C,H1*%
X54000000Y-64000000D03*
%TD*%
D16*
%TO.C,R3*%
X71000000Y-106000000D03*
X69000000Y-106000000D03*
%TD*%
D25*
%TO.C,U2*%
X79555000Y-106475000D03*
X80825000Y-106475000D03*
X82095000Y-106475000D03*
X83365000Y-106475000D03*
X84635000Y-106475000D03*
X85905000Y-106475000D03*
X87175000Y-106475000D03*
X88445000Y-106475000D03*
X88445000Y-101525000D03*
X87175000Y-101525000D03*
X85905000Y-101525000D03*
X84635000Y-101525000D03*
X83365000Y-101525000D03*
X82095000Y-101525000D03*
X80825000Y-101525000D03*
X79555000Y-101525000D03*
%TD*%
D20*
%TO.C,R1*%
X78500000Y-95000000D03*
X80500000Y-95000000D03*
%TD*%
D11*
%TO.C,K1*%
X76000000Y-90050000D03*
X70000000Y-75850000D03*
X82000000Y-75850000D03*
X82000000Y-88050000D03*
X70000000Y-88050000D03*
%TD*%
D10*
%TO.C,J4*%
X97040000Y-64250000D03*
D11*
X91960000Y-64250000D03*
%TD*%
D13*
%TO.C,PS1*%
X126400000Y-87050000D03*
X118600000Y-87050000D03*
X133900000Y-129550000D03*
X111100000Y-129550000D03*
%TD*%
D10*
%TO.C,J3*%
X78540000Y-64250000D03*
D11*
X73460000Y-64250000D03*
%TD*%
M02*
