%TF.GenerationSoftware,KiCad,Pcbnew,(6.0.7)*%
%TF.CreationDate,2022-11-19T09:32:58+05:30*%
%TF.ProjectId,ESP32_Drive,45535033-325f-4447-9269-76652e6b6963,rev?*%
%TF.SameCoordinates,Original*%
%TF.FileFunction,Legend,Top*%
%TF.FilePolarity,Positive*%
%FSLAX46Y46*%
G04 Gerber Fmt 4.6, Leading zero omitted, Abs format (unit mm)*
G04 Created by KiCad (PCBNEW (6.0.7)) date 2022-11-19 09:32:58*
%MOMM*%
%LPD*%
G01*
G04 APERTURE LIST*
%ADD10C,0.250000*%
%ADD11C,0.200000*%
%ADD12C,0.150000*%
%ADD13C,0.254000*%
%ADD14C,0.120000*%
%ADD15C,0.127000*%
%ADD16C,0.100000*%
G04 APERTURE END LIST*
D10*
X113214285Y-71821428D02*
X114047619Y-71821428D01*
X114404761Y-73130952D02*
X113214285Y-73130952D01*
X113214285Y-70630952D01*
X114404761Y-70630952D01*
D11*
X87352380Y-149321428D02*
X86352380Y-149321428D01*
X87066666Y-148988095D01*
X86352380Y-148654761D01*
X87352380Y-148654761D01*
X86352380Y-147988095D02*
X86352380Y-147797619D01*
X86400000Y-147702380D01*
X86495238Y-147607142D01*
X86685714Y-147559523D01*
X87019047Y-147559523D01*
X87209523Y-147607142D01*
X87304761Y-147702380D01*
X87352380Y-147797619D01*
X87352380Y-147988095D01*
X87304761Y-148083333D01*
X87209523Y-148178571D01*
X87019047Y-148226190D01*
X86685714Y-148226190D01*
X86495238Y-148178571D01*
X86400000Y-148083333D01*
X86352380Y-147988095D01*
X87304761Y-147178571D02*
X87352380Y-147035714D01*
X87352380Y-146797619D01*
X87304761Y-146702380D01*
X87257142Y-146654761D01*
X87161904Y-146607142D01*
X87066666Y-146607142D01*
X86971428Y-146654761D01*
X86923809Y-146702380D01*
X86876190Y-146797619D01*
X86828571Y-146988095D01*
X86780952Y-147083333D01*
X86733333Y-147130952D01*
X86638095Y-147178571D01*
X86542857Y-147178571D01*
X86447619Y-147130952D01*
X86400000Y-147083333D01*
X86352380Y-146988095D01*
X86352380Y-146750000D01*
X86400000Y-146607142D01*
X87352380Y-146178571D02*
X86352380Y-146178571D01*
D10*
X60000000Y-79654761D02*
X60380952Y-79654761D01*
X60571428Y-79750000D01*
X60761904Y-79940476D01*
X60857142Y-80321428D01*
X60857142Y-80988095D01*
X60761904Y-81369047D01*
X60571428Y-81559523D01*
X60380952Y-81654761D01*
X60000000Y-81654761D01*
X59809523Y-81559523D01*
X59619047Y-81369047D01*
X59523809Y-80988095D01*
X59523809Y-80321428D01*
X59619047Y-79940476D01*
X59809523Y-79750000D01*
X60000000Y-79654761D01*
X61714285Y-79654761D02*
X61714285Y-81273809D01*
X61809523Y-81464285D01*
X61904761Y-81559523D01*
X62095238Y-81654761D01*
X62476190Y-81654761D01*
X62666666Y-81559523D01*
X62761904Y-81464285D01*
X62857142Y-81273809D01*
X62857142Y-79654761D01*
X63523809Y-79654761D02*
X64666666Y-79654761D01*
X64095238Y-81654761D02*
X64095238Y-79654761D01*
X60702380Y-86904761D02*
X60702380Y-84904761D01*
X61654761Y-86904761D02*
X61654761Y-84904761D01*
X62797619Y-86904761D01*
X62797619Y-84904761D01*
D11*
X89000000Y-148511904D02*
X88952380Y-148607142D01*
X88952380Y-148750000D01*
X89000000Y-148892857D01*
X89095238Y-148988095D01*
X89190476Y-149035714D01*
X89380952Y-149083333D01*
X89523809Y-149083333D01*
X89714285Y-149035714D01*
X89809523Y-148988095D01*
X89904761Y-148892857D01*
X89952380Y-148750000D01*
X89952380Y-148654761D01*
X89904761Y-148511904D01*
X89857142Y-148464285D01*
X89523809Y-148464285D01*
X89523809Y-148654761D01*
X89952380Y-148035714D02*
X88952380Y-148035714D01*
X89952380Y-147464285D01*
X88952380Y-147464285D01*
X89952380Y-146988095D02*
X88952380Y-146988095D01*
X88952380Y-146750000D01*
X89000000Y-146607142D01*
X89095238Y-146511904D01*
X89190476Y-146464285D01*
X89380952Y-146416666D01*
X89523809Y-146416666D01*
X89714285Y-146464285D01*
X89809523Y-146511904D01*
X89904761Y-146607142D01*
X89952380Y-146750000D01*
X89952380Y-146988095D01*
D10*
X118285714Y-73130952D02*
X118285714Y-70630952D01*
X119714285Y-73130952D01*
X119714285Y-70630952D01*
D11*
X76152380Y-149238095D02*
X76152380Y-148619047D01*
X76533333Y-148952380D01*
X76533333Y-148809523D01*
X76580952Y-148714285D01*
X76628571Y-148666666D01*
X76723809Y-148619047D01*
X76961904Y-148619047D01*
X77057142Y-148666666D01*
X77104761Y-148714285D01*
X77152380Y-148809523D01*
X77152380Y-149095238D01*
X77104761Y-149190476D01*
X77057142Y-149238095D01*
X76152380Y-148333333D02*
X77152380Y-148000000D01*
X76152380Y-147666666D01*
X76152380Y-147428571D02*
X76152380Y-146809523D01*
X76533333Y-147142857D01*
X76533333Y-147000000D01*
X76580952Y-146904761D01*
X76628571Y-146857142D01*
X76723809Y-146809523D01*
X76961904Y-146809523D01*
X77057142Y-146857142D01*
X77104761Y-146904761D01*
X77152380Y-147000000D01*
X77152380Y-147285714D01*
X77104761Y-147380952D01*
X77057142Y-147428571D01*
X84752380Y-149321428D02*
X83752380Y-149321428D01*
X84466666Y-148988095D01*
X83752380Y-148654761D01*
X84752380Y-148654761D01*
X84752380Y-148178571D02*
X83752380Y-148178571D01*
X84704761Y-147750000D02*
X84752380Y-147607142D01*
X84752380Y-147369047D01*
X84704761Y-147273809D01*
X84657142Y-147226190D01*
X84561904Y-147178571D01*
X84466666Y-147178571D01*
X84371428Y-147226190D01*
X84323809Y-147273809D01*
X84276190Y-147369047D01*
X84228571Y-147559523D01*
X84180952Y-147654761D01*
X84133333Y-147702380D01*
X84038095Y-147750000D01*
X83942857Y-147750000D01*
X83847619Y-147702380D01*
X83800000Y-147654761D01*
X83752380Y-147559523D01*
X83752380Y-147321428D01*
X83800000Y-147178571D01*
X83752380Y-146559523D02*
X83752380Y-146369047D01*
X83800000Y-146273809D01*
X83895238Y-146178571D01*
X84085714Y-146130952D01*
X84419047Y-146130952D01*
X84609523Y-146178571D01*
X84704761Y-146273809D01*
X84752380Y-146369047D01*
X84752380Y-146559523D01*
X84704761Y-146654761D01*
X84609523Y-146750000D01*
X84419047Y-146797619D01*
X84085714Y-146797619D01*
X83895238Y-146750000D01*
X83800000Y-146654761D01*
X83752380Y-146559523D01*
D10*
X124773809Y-73130952D02*
X123583333Y-73130952D01*
X123583333Y-70630952D01*
X59273809Y-89904761D02*
X60511904Y-89904761D01*
X59845238Y-90666666D01*
X60130952Y-90666666D01*
X60321428Y-90761904D01*
X60416666Y-90857142D01*
X60511904Y-91047619D01*
X60511904Y-91523809D01*
X60416666Y-91714285D01*
X60321428Y-91809523D01*
X60130952Y-91904761D01*
X59559523Y-91904761D01*
X59369047Y-91809523D01*
X59273809Y-91714285D01*
X61083333Y-89904761D02*
X61750000Y-91904761D01*
X62416666Y-89904761D01*
X62892857Y-89904761D02*
X64130952Y-89904761D01*
X63464285Y-90666666D01*
X63750000Y-90666666D01*
X63940476Y-90761904D01*
X64035714Y-90857142D01*
X64130952Y-91047619D01*
X64130952Y-91523809D01*
X64035714Y-91714285D01*
X63940476Y-91809523D01*
X63750000Y-91904761D01*
X63178571Y-91904761D01*
X62988095Y-91809523D01*
X62892857Y-91714285D01*
D11*
X82154761Y-149035714D02*
X82202380Y-148892857D01*
X82202380Y-148654761D01*
X82154761Y-148559523D01*
X82107142Y-148511904D01*
X82011904Y-148464285D01*
X81916666Y-148464285D01*
X81821428Y-148511904D01*
X81773809Y-148559523D01*
X81726190Y-148654761D01*
X81678571Y-148845238D01*
X81630952Y-148940476D01*
X81583333Y-148988095D01*
X81488095Y-149035714D01*
X81392857Y-149035714D01*
X81297619Y-148988095D01*
X81250000Y-148940476D01*
X81202380Y-148845238D01*
X81202380Y-148607142D01*
X81250000Y-148464285D01*
X82107142Y-147464285D02*
X82154761Y-147511904D01*
X82202380Y-147654761D01*
X82202380Y-147750000D01*
X82154761Y-147892857D01*
X82059523Y-147988095D01*
X81964285Y-148035714D01*
X81773809Y-148083333D01*
X81630952Y-148083333D01*
X81440476Y-148035714D01*
X81345238Y-147988095D01*
X81250000Y-147892857D01*
X81202380Y-147750000D01*
X81202380Y-147654761D01*
X81250000Y-147511904D01*
X81297619Y-147464285D01*
X82202380Y-147035714D02*
X81202380Y-147035714D01*
X82202380Y-146464285D02*
X81630952Y-146892857D01*
X81202380Y-146464285D02*
X81773809Y-147035714D01*
D10*
X87904761Y-64333333D02*
X86952380Y-65000000D01*
X87904761Y-65476190D02*
X85904761Y-65476190D01*
X85904761Y-64714285D01*
X86000000Y-64523809D01*
X86095238Y-64428571D01*
X86285714Y-64333333D01*
X86571428Y-64333333D01*
X86761904Y-64428571D01*
X86857142Y-64523809D01*
X86952380Y-64714285D01*
X86952380Y-65476190D01*
X86095238Y-63571428D02*
X86000000Y-63476190D01*
X85904761Y-63285714D01*
X85904761Y-62809523D01*
X86000000Y-62619047D01*
X86095238Y-62523809D01*
X86285714Y-62428571D01*
X86476190Y-62428571D01*
X86761904Y-62523809D01*
X87904761Y-63666666D01*
X87904761Y-62428571D01*
X60476190Y-74750000D02*
X60285714Y-74654761D01*
X60000000Y-74654761D01*
X59714285Y-74750000D01*
X59523809Y-74940476D01*
X59428571Y-75130952D01*
X59333333Y-75511904D01*
X59333333Y-75797619D01*
X59428571Y-76178571D01*
X59523809Y-76369047D01*
X59714285Y-76559523D01*
X60000000Y-76654761D01*
X60190476Y-76654761D01*
X60476190Y-76559523D01*
X60571428Y-76464285D01*
X60571428Y-75797619D01*
X60190476Y-75797619D01*
X61428571Y-76654761D02*
X61428571Y-74654761D01*
X62571428Y-76654761D01*
X62571428Y-74654761D01*
X63523809Y-76654761D02*
X63523809Y-74654761D01*
X64000000Y-74654761D01*
X64285714Y-74750000D01*
X64476190Y-74940476D01*
X64571428Y-75130952D01*
X64666666Y-75511904D01*
X64666666Y-75797619D01*
X64571428Y-76178571D01*
X64476190Y-76369047D01*
X64285714Y-76559523D01*
X64000000Y-76654761D01*
X63523809Y-76654761D01*
X61369047Y-94904761D02*
X60416666Y-94904761D01*
X60321428Y-95857142D01*
X60416666Y-95761904D01*
X60607142Y-95666666D01*
X61083333Y-95666666D01*
X61273809Y-95761904D01*
X61369047Y-95857142D01*
X61464285Y-96047619D01*
X61464285Y-96523809D01*
X61369047Y-96714285D01*
X61273809Y-96809523D01*
X61083333Y-96904761D01*
X60607142Y-96904761D01*
X60416666Y-96809523D01*
X60321428Y-96714285D01*
X62035714Y-94904761D02*
X62702380Y-96904761D01*
X63369047Y-94904761D01*
X68904761Y-64333333D02*
X67952380Y-65000000D01*
X68904761Y-65476190D02*
X66904761Y-65476190D01*
X66904761Y-64714285D01*
X67000000Y-64523809D01*
X67095238Y-64428571D01*
X67285714Y-64333333D01*
X67571428Y-64333333D01*
X67761904Y-64428571D01*
X67857142Y-64523809D01*
X67952380Y-64714285D01*
X67952380Y-65476190D01*
X68904761Y-62428571D02*
X68904761Y-63571428D01*
X68904761Y-63000000D02*
X66904761Y-63000000D01*
X67190476Y-63190476D01*
X67380952Y-63380952D01*
X67476190Y-63571428D01*
D11*
X79557142Y-147916666D02*
X79604761Y-147964285D01*
X79652380Y-148107142D01*
X79652380Y-148202380D01*
X79604761Y-148345238D01*
X79509523Y-148440476D01*
X79414285Y-148488095D01*
X79223809Y-148535714D01*
X79080952Y-148535714D01*
X78890476Y-148488095D01*
X78795238Y-148440476D01*
X78700000Y-148345238D01*
X78652380Y-148202380D01*
X78652380Y-148107142D01*
X78700000Y-147964285D01*
X78747619Y-147916666D01*
X79604761Y-147535714D02*
X79652380Y-147392857D01*
X79652380Y-147154761D01*
X79604761Y-147059523D01*
X79557142Y-147011904D01*
X79461904Y-146964285D01*
X79366666Y-146964285D01*
X79271428Y-147011904D01*
X79223809Y-147059523D01*
X79176190Y-147154761D01*
X79128571Y-147345238D01*
X79080952Y-147440476D01*
X79033333Y-147488095D01*
X78938095Y-147535714D01*
X78842857Y-147535714D01*
X78747619Y-147488095D01*
X78700000Y-147440476D01*
X78652380Y-147345238D01*
X78652380Y-147107142D01*
X78700000Y-146964285D01*
D12*
%TO.C,J2*%
X53916666Y-71452380D02*
X53916666Y-72166666D01*
X53869047Y-72309523D01*
X53773809Y-72404761D01*
X53630952Y-72452380D01*
X53535714Y-72452380D01*
X54345238Y-71547619D02*
X54392857Y-71500000D01*
X54488095Y-71452380D01*
X54726190Y-71452380D01*
X54821428Y-71500000D01*
X54869047Y-71547619D01*
X54916666Y-71642857D01*
X54916666Y-71738095D01*
X54869047Y-71880952D01*
X54297619Y-72452380D01*
X54916666Y-72452380D01*
%TO.C,U1*%
X48092380Y-138344404D02*
X48901904Y-138344404D01*
X48997142Y-138296785D01*
X49044761Y-138249166D01*
X49092380Y-138153928D01*
X49092380Y-137963452D01*
X49044761Y-137868214D01*
X48997142Y-137820595D01*
X48901904Y-137772976D01*
X48092380Y-137772976D01*
X49092380Y-136772976D02*
X49092380Y-137344404D01*
X49092380Y-137058690D02*
X48092380Y-137058690D01*
X48235238Y-137153928D01*
X48330476Y-137249166D01*
X48378095Y-137344404D01*
%TO.C,D4*%
X106524404Y-148452380D02*
X106524404Y-147452380D01*
X106762500Y-147452380D01*
X106905357Y-147500000D01*
X107000595Y-147595238D01*
X107048214Y-147690476D01*
X107095833Y-147880952D01*
X107095833Y-148023809D01*
X107048214Y-148214285D01*
X107000595Y-148309523D01*
X106905357Y-148404761D01*
X106762500Y-148452380D01*
X106524404Y-148452380D01*
X107952976Y-147785714D02*
X107952976Y-148452380D01*
X107714880Y-147404761D02*
X107476785Y-148119047D01*
X108095833Y-148119047D01*
%TO.C,D3*%
X99524404Y-148452380D02*
X99524404Y-147452380D01*
X99762500Y-147452380D01*
X99905357Y-147500000D01*
X100000595Y-147595238D01*
X100048214Y-147690476D01*
X100095833Y-147880952D01*
X100095833Y-148023809D01*
X100048214Y-148214285D01*
X100000595Y-148309523D01*
X99905357Y-148404761D01*
X99762500Y-148452380D01*
X99524404Y-148452380D01*
X100429166Y-147452380D02*
X101048214Y-147452380D01*
X100714880Y-147833333D01*
X100857738Y-147833333D01*
X100952976Y-147880952D01*
X101000595Y-147928571D01*
X101048214Y-148023809D01*
X101048214Y-148261904D01*
X101000595Y-148357142D01*
X100952976Y-148404761D01*
X100857738Y-148452380D01*
X100572023Y-148452380D01*
X100476785Y-148404761D01*
X100429166Y-148357142D01*
%TO.C,R6*%
X64302380Y-144666666D02*
X63826190Y-145000000D01*
X64302380Y-145238095D02*
X63302380Y-145238095D01*
X63302380Y-144857142D01*
X63350000Y-144761904D01*
X63397619Y-144714285D01*
X63492857Y-144666666D01*
X63635714Y-144666666D01*
X63730952Y-144714285D01*
X63778571Y-144761904D01*
X63826190Y-144857142D01*
X63826190Y-145238095D01*
X63302380Y-143809523D02*
X63302380Y-144000000D01*
X63350000Y-144095238D01*
X63397619Y-144142857D01*
X63540476Y-144238095D01*
X63730952Y-144285714D01*
X64111904Y-144285714D01*
X64207142Y-144238095D01*
X64254761Y-144190476D01*
X64302380Y-144095238D01*
X64302380Y-143904761D01*
X64254761Y-143809523D01*
X64207142Y-143761904D01*
X64111904Y-143714285D01*
X63873809Y-143714285D01*
X63778571Y-143761904D01*
X63730952Y-143809523D01*
X63683333Y-143904761D01*
X63683333Y-144095238D01*
X63730952Y-144190476D01*
X63778571Y-144238095D01*
X63873809Y-144285714D01*
%TO.C,R5*%
X69552380Y-144666666D02*
X69076190Y-145000000D01*
X69552380Y-145238095D02*
X68552380Y-145238095D01*
X68552380Y-144857142D01*
X68600000Y-144761904D01*
X68647619Y-144714285D01*
X68742857Y-144666666D01*
X68885714Y-144666666D01*
X68980952Y-144714285D01*
X69028571Y-144761904D01*
X69076190Y-144857142D01*
X69076190Y-145238095D01*
X68552380Y-143761904D02*
X68552380Y-144238095D01*
X69028571Y-144285714D01*
X68980952Y-144238095D01*
X68933333Y-144142857D01*
X68933333Y-143904761D01*
X68980952Y-143809523D01*
X69028571Y-143761904D01*
X69123809Y-143714285D01*
X69361904Y-143714285D01*
X69457142Y-143761904D01*
X69504761Y-143809523D01*
X69552380Y-143904761D01*
X69552380Y-144142857D01*
X69504761Y-144238095D01*
X69457142Y-144285714D01*
%TO.C,BZ1*%
X97069047Y-110378571D02*
X97211904Y-110426190D01*
X97259523Y-110473809D01*
X97307142Y-110569047D01*
X97307142Y-110711904D01*
X97259523Y-110807142D01*
X97211904Y-110854761D01*
X97116666Y-110902380D01*
X96735714Y-110902380D01*
X96735714Y-109902380D01*
X97069047Y-109902380D01*
X97164285Y-109950000D01*
X97211904Y-109997619D01*
X97259523Y-110092857D01*
X97259523Y-110188095D01*
X97211904Y-110283333D01*
X97164285Y-110330952D01*
X97069047Y-110378571D01*
X96735714Y-110378571D01*
X97640476Y-109902380D02*
X98307142Y-109902380D01*
X97640476Y-110902380D01*
X98307142Y-110902380D01*
X99211904Y-110902380D02*
X98640476Y-110902380D01*
X98926190Y-110902380D02*
X98926190Y-109902380D01*
X98830952Y-110045238D01*
X98735714Y-110140476D01*
X98640476Y-110188095D01*
X101379047Y-105861428D02*
X102140952Y-105861428D01*
X101760000Y-106242380D02*
X101760000Y-105480476D01*
%TO.C,R4*%
X66833333Y-102452380D02*
X66500000Y-101976190D01*
X66261904Y-102452380D02*
X66261904Y-101452380D01*
X66642857Y-101452380D01*
X66738095Y-101500000D01*
X66785714Y-101547619D01*
X66833333Y-101642857D01*
X66833333Y-101785714D01*
X66785714Y-101880952D01*
X66738095Y-101928571D01*
X66642857Y-101976190D01*
X66261904Y-101976190D01*
X67690476Y-101785714D02*
X67690476Y-102452380D01*
X67452380Y-101404761D02*
X67214285Y-102119047D01*
X67833333Y-102119047D01*
%TO.C,J1*%
X128166666Y-63702380D02*
X128166666Y-64416666D01*
X128119047Y-64559523D01*
X128023809Y-64654761D01*
X127880952Y-64702380D01*
X127785714Y-64702380D01*
X129166666Y-64702380D02*
X128595238Y-64702380D01*
X128880952Y-64702380D02*
X128880952Y-63702380D01*
X128785714Y-63845238D01*
X128690476Y-63940476D01*
X128595238Y-63988095D01*
%TO.C,D1*%
X68952380Y-95738095D02*
X67952380Y-95738095D01*
X67952380Y-95500000D01*
X68000000Y-95357142D01*
X68095238Y-95261904D01*
X68190476Y-95214285D01*
X68380952Y-95166666D01*
X68523809Y-95166666D01*
X68714285Y-95214285D01*
X68809523Y-95261904D01*
X68904761Y-95357142D01*
X68952380Y-95500000D01*
X68952380Y-95738095D01*
X68952380Y-94214285D02*
X68952380Y-94785714D01*
X68952380Y-94500000D02*
X67952380Y-94500000D01*
X68095238Y-94595238D01*
X68190476Y-94690476D01*
X68238095Y-94785714D01*
%TO.C,J5*%
X73672380Y-144433333D02*
X74386666Y-144433333D01*
X74529523Y-144480952D01*
X74624761Y-144576190D01*
X74672380Y-144719047D01*
X74672380Y-144814285D01*
X73672380Y-143480952D02*
X73672380Y-143957142D01*
X74148571Y-144004761D01*
X74100952Y-143957142D01*
X74053333Y-143861904D01*
X74053333Y-143623809D01*
X74100952Y-143528571D01*
X74148571Y-143480952D01*
X74243809Y-143433333D01*
X74481904Y-143433333D01*
X74577142Y-143480952D01*
X74624761Y-143528571D01*
X74672380Y-143623809D01*
X74672380Y-143861904D01*
X74624761Y-143957142D01*
X74577142Y-144004761D01*
%TO.C,R2*%
X100833333Y-95452380D02*
X100500000Y-94976190D01*
X100261904Y-95452380D02*
X100261904Y-94452380D01*
X100642857Y-94452380D01*
X100738095Y-94500000D01*
X100785714Y-94547619D01*
X100833333Y-94642857D01*
X100833333Y-94785714D01*
X100785714Y-94880952D01*
X100738095Y-94928571D01*
X100642857Y-94976190D01*
X100261904Y-94976190D01*
X101214285Y-94547619D02*
X101261904Y-94500000D01*
X101357142Y-94452380D01*
X101595238Y-94452380D01*
X101690476Y-94500000D01*
X101738095Y-94547619D01*
X101785714Y-94642857D01*
X101785714Y-94738095D01*
X101738095Y-94880952D01*
X101166666Y-95452380D01*
X101785714Y-95452380D01*
%TO.C,C1*%
X106333333Y-137607142D02*
X106285714Y-137654761D01*
X106142857Y-137702380D01*
X106047619Y-137702380D01*
X105904761Y-137654761D01*
X105809523Y-137559523D01*
X105761904Y-137464285D01*
X105714285Y-137273809D01*
X105714285Y-137130952D01*
X105761904Y-136940476D01*
X105809523Y-136845238D01*
X105904761Y-136750000D01*
X106047619Y-136702380D01*
X106142857Y-136702380D01*
X106285714Y-136750000D01*
X106333333Y-136797619D01*
X107285714Y-137702380D02*
X106714285Y-137702380D01*
X107000000Y-137702380D02*
X107000000Y-136702380D01*
X106904761Y-136845238D01*
X106809523Y-136940476D01*
X106714285Y-136988095D01*
%TO.C,RV1*%
X121404761Y-79452380D02*
X121071428Y-78976190D01*
X120833333Y-79452380D02*
X120833333Y-78452380D01*
X121214285Y-78452380D01*
X121309523Y-78500000D01*
X121357142Y-78547619D01*
X121404761Y-78642857D01*
X121404761Y-78785714D01*
X121357142Y-78880952D01*
X121309523Y-78928571D01*
X121214285Y-78976190D01*
X120833333Y-78976190D01*
X121690476Y-78452380D02*
X122023809Y-79452380D01*
X122357142Y-78452380D01*
X123214285Y-79452380D02*
X122642857Y-79452380D01*
X122928571Y-79452380D02*
X122928571Y-78452380D01*
X122833333Y-78595238D01*
X122738095Y-78690476D01*
X122642857Y-78738095D01*
%TO.C,K2*%
X104152380Y-82688095D02*
X103152380Y-82688095D01*
X104152380Y-82116666D02*
X103580952Y-82545238D01*
X103152380Y-82116666D02*
X103723809Y-82688095D01*
X103247619Y-81735714D02*
X103200000Y-81688095D01*
X103152380Y-81592857D01*
X103152380Y-81354761D01*
X103200000Y-81259523D01*
X103247619Y-81211904D01*
X103342857Y-81164285D01*
X103438095Y-81164285D01*
X103580952Y-81211904D01*
X104152380Y-81783333D01*
X104152380Y-81164285D01*
%TO.C,D2*%
X87452380Y-95738095D02*
X86452380Y-95738095D01*
X86452380Y-95500000D01*
X86500000Y-95357142D01*
X86595238Y-95261904D01*
X86690476Y-95214285D01*
X86880952Y-95166666D01*
X87023809Y-95166666D01*
X87214285Y-95214285D01*
X87309523Y-95261904D01*
X87404761Y-95357142D01*
X87452380Y-95500000D01*
X87452380Y-95738095D01*
X86547619Y-94785714D02*
X86500000Y-94738095D01*
X86452380Y-94642857D01*
X86452380Y-94404761D01*
X86500000Y-94309523D01*
X86547619Y-94261904D01*
X86642857Y-94214285D01*
X86738095Y-94214285D01*
X86880952Y-94261904D01*
X87452380Y-94833333D01*
X87452380Y-94214285D01*
%TO.C,R3*%
X66833333Y-106452380D02*
X66500000Y-105976190D01*
X66261904Y-106452380D02*
X66261904Y-105452380D01*
X66642857Y-105452380D01*
X66738095Y-105500000D01*
X66785714Y-105547619D01*
X66833333Y-105642857D01*
X66833333Y-105785714D01*
X66785714Y-105880952D01*
X66738095Y-105928571D01*
X66642857Y-105976190D01*
X66261904Y-105976190D01*
X67166666Y-105452380D02*
X67785714Y-105452380D01*
X67452380Y-105833333D01*
X67595238Y-105833333D01*
X67690476Y-105880952D01*
X67738095Y-105928571D01*
X67785714Y-106023809D01*
X67785714Y-106261904D01*
X67738095Y-106357142D01*
X67690476Y-106404761D01*
X67595238Y-106452380D01*
X67309523Y-106452380D01*
X67214285Y-106404761D01*
X67166666Y-106357142D01*
%TO.C,U2*%
X77552380Y-104761904D02*
X78361904Y-104761904D01*
X78457142Y-104714285D01*
X78504761Y-104666666D01*
X78552380Y-104571428D01*
X78552380Y-104380952D01*
X78504761Y-104285714D01*
X78457142Y-104238095D01*
X78361904Y-104190476D01*
X77552380Y-104190476D01*
X77647619Y-103761904D02*
X77600000Y-103714285D01*
X77552380Y-103619047D01*
X77552380Y-103380952D01*
X77600000Y-103285714D01*
X77647619Y-103238095D01*
X77742857Y-103190476D01*
X77838095Y-103190476D01*
X77980952Y-103238095D01*
X78552380Y-103809523D01*
X78552380Y-103190476D01*
%TO.C,R1*%
X82333333Y-95452380D02*
X82000000Y-94976190D01*
X81761904Y-95452380D02*
X81761904Y-94452380D01*
X82142857Y-94452380D01*
X82238095Y-94500000D01*
X82285714Y-94547619D01*
X82333333Y-94642857D01*
X82333333Y-94785714D01*
X82285714Y-94880952D01*
X82238095Y-94928571D01*
X82142857Y-94976190D01*
X81761904Y-94976190D01*
X83285714Y-95452380D02*
X82714285Y-95452380D01*
X83000000Y-95452380D02*
X83000000Y-94452380D01*
X82904761Y-94595238D01*
X82809523Y-94690476D01*
X82714285Y-94738095D01*
%TO.C,K1*%
X85652380Y-82688095D02*
X84652380Y-82688095D01*
X85652380Y-82116666D02*
X85080952Y-82545238D01*
X84652380Y-82116666D02*
X85223809Y-82688095D01*
X85652380Y-81164285D02*
X85652380Y-81735714D01*
X85652380Y-81450000D02*
X84652380Y-81450000D01*
X84795238Y-81545238D01*
X84890476Y-81640476D01*
X84938095Y-81735714D01*
%TO.C,J4*%
X94166666Y-68782380D02*
X94166666Y-69496666D01*
X94119047Y-69639523D01*
X94023809Y-69734761D01*
X93880952Y-69782380D01*
X93785714Y-69782380D01*
X95071428Y-69115714D02*
X95071428Y-69782380D01*
X94833333Y-68734761D02*
X94595238Y-69449047D01*
X95214285Y-69449047D01*
D13*
%TO.C,PS1*%
X123074523Y-109542142D02*
X121804523Y-109542142D01*
X121804523Y-109058333D01*
X121865000Y-108937380D01*
X121925476Y-108876904D01*
X122046428Y-108816428D01*
X122227857Y-108816428D01*
X122348809Y-108876904D01*
X122409285Y-108937380D01*
X122469761Y-109058333D01*
X122469761Y-109542142D01*
X123014047Y-108332619D02*
X123074523Y-108151190D01*
X123074523Y-107848809D01*
X123014047Y-107727857D01*
X122953571Y-107667380D01*
X122832619Y-107606904D01*
X122711666Y-107606904D01*
X122590714Y-107667380D01*
X122530238Y-107727857D01*
X122469761Y-107848809D01*
X122409285Y-108090714D01*
X122348809Y-108211666D01*
X122288333Y-108272142D01*
X122167380Y-108332619D01*
X122046428Y-108332619D01*
X121925476Y-108272142D01*
X121865000Y-108211666D01*
X121804523Y-108090714D01*
X121804523Y-107788333D01*
X121865000Y-107606904D01*
X123074523Y-106397380D02*
X123074523Y-107123095D01*
X123074523Y-106760238D02*
X121804523Y-106760238D01*
X121985952Y-106881190D01*
X122106904Y-107002142D01*
X122167380Y-107123095D01*
D12*
%TO.C,J3*%
X75666666Y-68782380D02*
X75666666Y-69496666D01*
X75619047Y-69639523D01*
X75523809Y-69734761D01*
X75380952Y-69782380D01*
X75285714Y-69782380D01*
X76047619Y-68782380D02*
X76666666Y-68782380D01*
X76333333Y-69163333D01*
X76476190Y-69163333D01*
X76571428Y-69210952D01*
X76619047Y-69258571D01*
X76666666Y-69353809D01*
X76666666Y-69591904D01*
X76619047Y-69687142D01*
X76571428Y-69734761D01*
X76476190Y-69782380D01*
X76190476Y-69782380D01*
X76095238Y-69734761D01*
X76047619Y-69687142D01*
D14*
%TO.C,J2*%
X51960000Y-73210000D02*
X51960000Y-98610000D01*
X58310000Y-73210000D02*
X58310000Y-98610000D01*
X58310000Y-98610000D02*
X50690000Y-98610000D01*
X58310000Y-73210000D02*
X50690000Y-73210000D01*
X50690000Y-73210000D02*
X50690000Y-98610000D01*
D15*
%TO.C,U1*%
X50525000Y-129438500D02*
X50525000Y-122727500D01*
X101475000Y-140507500D02*
X101475000Y-135137500D01*
X101475000Y-140507500D02*
X50525000Y-140507500D01*
X50525000Y-111997500D02*
X101475000Y-111997500D01*
X101475000Y-140507500D02*
X50525000Y-140507500D01*
X50525000Y-111997500D02*
X101475000Y-111997500D01*
X101475000Y-117447500D02*
X101475000Y-111997500D01*
X50525000Y-122727500D02*
X50525000Y-111997500D01*
X101475000Y-111997500D02*
X101475000Y-140507500D01*
X101475000Y-135137500D02*
X101475000Y-117447500D01*
X50525000Y-140507500D02*
X50525000Y-129438500D01*
X50525000Y-140507500D02*
X50525000Y-111997500D01*
D11*
X60585000Y-141077500D02*
G75*
G03*
X60585000Y-141077500I-100000J0D01*
G01*
D14*
%TO.C,D4*%
X109722500Y-144615000D02*
X105662500Y-144615000D01*
X109722500Y-146885000D02*
X109722500Y-144615000D01*
X105662500Y-146885000D02*
X109722500Y-146885000D01*
%TO.C,D3*%
X102722500Y-144615000D02*
X98662500Y-144615000D01*
X102722500Y-146885000D02*
X102722500Y-144615000D01*
X98662500Y-146885000D02*
X102722500Y-146885000D01*
%TO.C,R6*%
X64765000Y-144727064D02*
X64765000Y-144272936D01*
X66235000Y-144727064D02*
X66235000Y-144272936D01*
%TO.C,R5*%
X70015000Y-144727064D02*
X70015000Y-144272936D01*
X71485000Y-144727064D02*
X71485000Y-144272936D01*
%TO.C,BZ1*%
X104050000Y-103250000D02*
G75*
G03*
X104050000Y-103250000I-6100000J0D01*
G01*
%TO.C,R4*%
X70227064Y-101265000D02*
X69772936Y-101265000D01*
X70227064Y-102735000D02*
X69772936Y-102735000D01*
%TO.C,J1*%
X126620000Y-61710000D02*
X111380000Y-61710000D01*
X126620000Y-60440000D02*
X126620000Y-68060000D01*
X126620000Y-60440000D02*
X111380000Y-60440000D01*
X111380000Y-60440000D02*
X111380000Y-68060000D01*
X126620000Y-68060000D02*
X111380000Y-68060000D01*
%TO.C,D1*%
X70040000Y-96135000D02*
X74100000Y-96135000D01*
X74100000Y-93865000D02*
X70040000Y-93865000D01*
X70040000Y-93865000D02*
X70040000Y-96135000D01*
%TO.C,J5*%
X76550000Y-145430000D02*
X75220000Y-145430000D01*
X90580000Y-145430000D02*
X90580000Y-142770000D01*
X77820000Y-142770000D02*
X90580000Y-142770000D01*
X77820000Y-145430000D02*
X77820000Y-142770000D01*
X77820000Y-145430000D02*
X90580000Y-145430000D01*
X75220000Y-145430000D02*
X75220000Y-144100000D01*
%TO.C,R2*%
X97772936Y-94265000D02*
X98227064Y-94265000D01*
X97772936Y-95735000D02*
X98227064Y-95735000D01*
%TO.C,C1*%
X115328349Y-134000000D02*
X115328349Y-136210000D01*
X113688349Y-138290000D02*
X113688349Y-141244000D01*
X114768349Y-133644000D02*
X114768349Y-136210000D01*
X114888349Y-138290000D02*
X114888349Y-140790000D01*
X115648349Y-134267000D02*
X115648349Y-140233000D01*
X115568349Y-134195000D02*
X115568349Y-136210000D01*
X113007349Y-133173000D02*
X113007349Y-141327000D01*
X113367349Y-133202000D02*
X113367349Y-141298000D01*
X113808349Y-133283000D02*
X113808349Y-136210000D01*
X114168349Y-138290000D02*
X114168349Y-141113000D01*
X113608349Y-133240000D02*
X113608349Y-136210000D01*
X115808349Y-134424000D02*
X115808349Y-140076000D01*
X113127349Y-133179000D02*
X113127349Y-141321000D01*
X113447349Y-133213000D02*
X113447349Y-141287000D01*
X114448349Y-133493000D02*
X114448349Y-136210000D01*
X115128349Y-138290000D02*
X115128349Y-140642000D01*
X115528349Y-134160000D02*
X115528349Y-136210000D01*
X112887349Y-133170000D02*
X112887349Y-141330000D01*
X113768349Y-138290000D02*
X113768349Y-141226000D01*
X112847349Y-133170000D02*
X112847349Y-141330000D01*
X114648349Y-138290000D02*
X114648349Y-140916000D01*
X114848349Y-133688000D02*
X114848349Y-136210000D01*
X115248349Y-133941000D02*
X115248349Y-136210000D01*
X113407349Y-133208000D02*
X113407349Y-141292000D01*
X114648349Y-133584000D02*
X114648349Y-136210000D01*
X115288349Y-133970000D02*
X115288349Y-136210000D01*
X113848349Y-138290000D02*
X113848349Y-141207000D01*
X114488349Y-133510000D02*
X114488349Y-136210000D01*
X113688349Y-133256000D02*
X113688349Y-136210000D01*
X114728349Y-138290000D02*
X114728349Y-140877000D01*
X113808349Y-138290000D02*
X113808349Y-141217000D01*
X114368349Y-138290000D02*
X114368349Y-141040000D01*
X114208349Y-133400000D02*
X114208349Y-136210000D01*
X115008349Y-138290000D02*
X115008349Y-140719000D01*
X113728349Y-133265000D02*
X113728349Y-136210000D01*
X116408349Y-135216000D02*
X116408349Y-139284000D01*
X114288349Y-138290000D02*
X114288349Y-141071000D01*
X115208349Y-138290000D02*
X115208349Y-140588000D01*
X113207349Y-133185000D02*
X113207349Y-141315000D01*
X114048349Y-133348000D02*
X114048349Y-136210000D01*
X115568349Y-138290000D02*
X115568349Y-140305000D01*
X113968349Y-138290000D02*
X113968349Y-141175000D01*
X115408349Y-134061000D02*
X115408349Y-136210000D01*
X115848349Y-134466000D02*
X115848349Y-140034000D01*
X108437651Y-134935000D02*
X109237651Y-134935000D01*
X115488349Y-134126000D02*
X115488349Y-136210000D01*
X112927349Y-133170000D02*
X112927349Y-141330000D01*
X115088349Y-138290000D02*
X115088349Y-140668000D01*
X113888349Y-138290000D02*
X113888349Y-141197000D01*
X113527349Y-133226000D02*
X113527349Y-141274000D01*
X114528349Y-138290000D02*
X114528349Y-140972000D01*
X115448349Y-134094000D02*
X115448349Y-136210000D01*
X114248349Y-133415000D02*
X114248349Y-136210000D01*
X113568349Y-133233000D02*
X113568349Y-136210000D01*
X113848349Y-133293000D02*
X113848349Y-136210000D01*
X116008349Y-134646000D02*
X116008349Y-139854000D01*
X116288349Y-135022000D02*
X116288349Y-139478000D01*
X114568349Y-133546000D02*
X114568349Y-136210000D01*
X113287349Y-133193000D02*
X113287349Y-141307000D01*
X113087349Y-133176000D02*
X113087349Y-141324000D01*
X114208349Y-138290000D02*
X114208349Y-141100000D01*
X115088349Y-133832000D02*
X115088349Y-136210000D01*
X115928349Y-134553000D02*
X115928349Y-139947000D01*
X114048349Y-138290000D02*
X114048349Y-141152000D01*
X113768349Y-133274000D02*
X113768349Y-136210000D01*
X116928349Y-136717000D02*
X116928349Y-137783000D01*
X114408349Y-138290000D02*
X114408349Y-141024000D01*
X116568349Y-135519000D02*
X116568349Y-138981000D01*
X116888349Y-136482000D02*
X116888349Y-138018000D01*
X115048349Y-133806000D02*
X115048349Y-136210000D01*
X113648349Y-133248000D02*
X113648349Y-136210000D01*
X115528349Y-138290000D02*
X115528349Y-140340000D01*
X113608349Y-138290000D02*
X113608349Y-141260000D01*
X114808349Y-133666000D02*
X114808349Y-136210000D01*
X116608349Y-135605000D02*
X116608349Y-138895000D01*
X116688349Y-135797000D02*
X116688349Y-138703000D01*
X113047349Y-133174000D02*
X113047349Y-141326000D01*
X114008349Y-138290000D02*
X114008349Y-141164000D01*
X115608349Y-134231000D02*
X115608349Y-136210000D01*
X116088349Y-134745000D02*
X116088349Y-139755000D01*
X115408349Y-138290000D02*
X115408349Y-140439000D01*
X114368349Y-133460000D02*
X114368349Y-136210000D01*
X116848349Y-136302000D02*
X116848349Y-138198000D01*
X116448349Y-135286000D02*
X116448349Y-139214000D01*
X116648349Y-135698000D02*
X116648349Y-138802000D01*
X113568349Y-138290000D02*
X113568349Y-141267000D01*
X115328349Y-138290000D02*
X115328349Y-140500000D01*
X114688349Y-138290000D02*
X114688349Y-140897000D01*
X112967349Y-133171000D02*
X112967349Y-141329000D01*
X114448349Y-138290000D02*
X114448349Y-141007000D01*
X113247349Y-133189000D02*
X113247349Y-141311000D01*
X115128349Y-133858000D02*
X115128349Y-136210000D01*
X116048349Y-134694000D02*
X116048349Y-139806000D01*
X115288349Y-138290000D02*
X115288349Y-140530000D01*
X116768349Y-136021000D02*
X116768349Y-138479000D01*
X115968349Y-134599000D02*
X115968349Y-139901000D01*
X114688349Y-133603000D02*
X114688349Y-136210000D01*
X113968349Y-133325000D02*
X113968349Y-136210000D01*
X115728349Y-134343000D02*
X115728349Y-140157000D01*
X116168349Y-134850000D02*
X116168349Y-139650000D01*
X114088349Y-138290000D02*
X114088349Y-141139000D01*
X114128349Y-138290000D02*
X114128349Y-141127000D01*
X116328349Y-135084000D02*
X116328349Y-139416000D01*
X116248349Y-134963000D02*
X116248349Y-139537000D01*
X113928349Y-138290000D02*
X113928349Y-141186000D01*
X114328349Y-138290000D02*
X114328349Y-141055000D01*
X114968349Y-133757000D02*
X114968349Y-136210000D01*
X116128349Y-134796000D02*
X116128349Y-139704000D01*
X114808349Y-138290000D02*
X114808349Y-140834000D01*
X115768349Y-134383000D02*
X115768349Y-140117000D01*
X116808349Y-136152000D02*
X116808349Y-138348000D01*
X116728349Y-135904000D02*
X116728349Y-138596000D01*
X116368349Y-135148000D02*
X116368349Y-139352000D01*
X113728349Y-138290000D02*
X113728349Y-141235000D01*
X113167349Y-133182000D02*
X113167349Y-141318000D01*
X114248349Y-138290000D02*
X114248349Y-141085000D01*
X114608349Y-133564000D02*
X114608349Y-136210000D01*
X115048349Y-138290000D02*
X115048349Y-140694000D01*
X115168349Y-138290000D02*
X115168349Y-140615000D01*
X114128349Y-133373000D02*
X114128349Y-136210000D01*
X113648349Y-138290000D02*
X113648349Y-141252000D01*
X115008349Y-133781000D02*
X115008349Y-136210000D01*
X113327349Y-133198000D02*
X113327349Y-141302000D01*
X114328349Y-133445000D02*
X114328349Y-136210000D01*
X114928349Y-138290000D02*
X114928349Y-140767000D01*
X113928349Y-133314000D02*
X113928349Y-136210000D01*
X108837651Y-134535000D02*
X108837651Y-135335000D01*
X115368349Y-138290000D02*
X115368349Y-140470000D01*
X115208349Y-133912000D02*
X115208349Y-136210000D01*
X114568349Y-138290000D02*
X114568349Y-140954000D01*
X113487349Y-133220000D02*
X113487349Y-141280000D01*
X113888349Y-133303000D02*
X113888349Y-136210000D01*
X114408349Y-133476000D02*
X114408349Y-136210000D01*
X114888349Y-133710000D02*
X114888349Y-136210000D01*
X115888349Y-134509000D02*
X115888349Y-139991000D01*
X114088349Y-133361000D02*
X114088349Y-136210000D01*
X115248349Y-138290000D02*
X115248349Y-140559000D01*
X114608349Y-138290000D02*
X114608349Y-140936000D01*
X116528349Y-135437000D02*
X116528349Y-139063000D01*
X116208349Y-134905000D02*
X116208349Y-139595000D01*
X114728349Y-133623000D02*
X114728349Y-136210000D01*
X114968349Y-138290000D02*
X114968349Y-140743000D01*
X115688349Y-134305000D02*
X115688349Y-140195000D01*
X115448349Y-138290000D02*
X115448349Y-140406000D01*
X115608349Y-138290000D02*
X115608349Y-140269000D01*
X114168349Y-133387000D02*
X114168349Y-136210000D01*
X114848349Y-138290000D02*
X114848349Y-140812000D01*
X116488349Y-135360000D02*
X116488349Y-139140000D01*
X114928349Y-133733000D02*
X114928349Y-136210000D01*
X115168349Y-133885000D02*
X115168349Y-136210000D01*
X115488349Y-138290000D02*
X115488349Y-140374000D01*
X114008349Y-133336000D02*
X114008349Y-136210000D01*
X114528349Y-133528000D02*
X114528349Y-136210000D01*
X114488349Y-138290000D02*
X114488349Y-140990000D01*
X115368349Y-134030000D02*
X115368349Y-136210000D01*
X114768349Y-138290000D02*
X114768349Y-140856000D01*
X114288349Y-133429000D02*
X114288349Y-136210000D01*
X116967349Y-137250000D02*
G75*
G03*
X116967349Y-137250000I-4120000J0D01*
G01*
D12*
%TO.C,RV1*%
X128000000Y-80950000D02*
X116000000Y-80950000D01*
X128000000Y-80950000D02*
X128000000Y-77050000D01*
X116000000Y-80950000D02*
X116000000Y-77050000D01*
X128000000Y-77050000D02*
X116000000Y-77050000D01*
D14*
%TO.C,K2*%
X98200000Y-80550000D02*
X98200000Y-87450000D01*
X96000000Y-81550000D02*
X96000000Y-86550000D01*
X98800000Y-75850000D02*
X96500000Y-75850000D01*
X95700000Y-91550000D02*
X102200000Y-91550000D01*
X94500000Y-87450000D02*
X98200000Y-87450000D01*
X94500000Y-87450000D02*
X94500000Y-88350000D01*
X94500000Y-79050000D02*
X91800000Y-74550000D01*
X86800000Y-91550000D02*
X93300000Y-91550000D01*
X100500000Y-86350000D02*
X100500000Y-84050000D01*
X96000000Y-84050000D02*
X100500000Y-84050000D01*
X96000000Y-81550000D02*
X93000000Y-86550000D01*
X86800000Y-91550000D02*
X86800000Y-72350000D01*
X90200000Y-75850000D02*
X92500000Y-75850000D01*
X93000000Y-81550000D02*
X96000000Y-81550000D01*
X86800000Y-72350000D02*
X102200000Y-72350000D01*
X88500000Y-84050000D02*
X93000000Y-84050000D01*
X88500000Y-84050000D02*
X88500000Y-86350000D01*
X94500000Y-80550000D02*
X98200000Y-80550000D01*
X96000000Y-86550000D02*
X93000000Y-86550000D01*
X94500000Y-80550000D02*
X94500000Y-79050000D01*
X102200000Y-72350000D02*
X102200000Y-91550000D01*
X93000000Y-86550000D02*
X93000000Y-81550000D01*
%TO.C,D2*%
X88540000Y-93865000D02*
X88540000Y-96135000D01*
X88540000Y-96135000D02*
X92600000Y-96135000D01*
X92600000Y-93865000D02*
X88540000Y-93865000D01*
%TO.C,R3*%
X70227064Y-105265000D02*
X69772936Y-105265000D01*
X70227064Y-106735000D02*
X69772936Y-106735000D01*
%TO.C,U2*%
X78940000Y-104000000D02*
X78940000Y-102050000D01*
X89060000Y-104000000D02*
X89060000Y-105950000D01*
X78940000Y-104000000D02*
X78940000Y-107450000D01*
X89060000Y-104000000D02*
X89060000Y-102050000D01*
%TO.C,R1*%
X79272936Y-94265000D02*
X79727064Y-94265000D01*
X79272936Y-95735000D02*
X79727064Y-95735000D01*
%TO.C,K1*%
X70000000Y-84050000D02*
X74500000Y-84050000D01*
X77500000Y-81550000D02*
X77500000Y-86550000D01*
X77500000Y-84050000D02*
X82000000Y-84050000D01*
X76000000Y-79050000D02*
X73300000Y-74550000D01*
X76000000Y-80550000D02*
X79700000Y-80550000D01*
X77500000Y-86550000D02*
X74500000Y-86550000D01*
X76000000Y-80550000D02*
X76000000Y-79050000D01*
X74500000Y-81550000D02*
X77500000Y-81550000D01*
X76000000Y-87450000D02*
X79700000Y-87450000D01*
X77200000Y-91550000D02*
X83700000Y-91550000D01*
X82000000Y-86350000D02*
X82000000Y-84050000D01*
X83700000Y-72350000D02*
X83700000Y-91550000D01*
X74500000Y-86550000D02*
X74500000Y-81550000D01*
X68300000Y-91550000D02*
X68300000Y-72350000D01*
X79700000Y-80550000D02*
X79700000Y-87450000D01*
X68300000Y-91550000D02*
X74800000Y-91550000D01*
X76000000Y-87450000D02*
X76000000Y-88350000D01*
X77500000Y-81550000D02*
X74500000Y-86550000D01*
X70000000Y-84050000D02*
X70000000Y-86350000D01*
X68300000Y-72350000D02*
X83700000Y-72350000D01*
X71700000Y-75850000D02*
X74000000Y-75850000D01*
X80300000Y-75850000D02*
X78000000Y-75850000D01*
%TO.C,J4*%
X99580000Y-60440000D02*
X89420000Y-60440000D01*
X99580000Y-68060000D02*
X99580000Y-60440000D01*
X89420000Y-68060000D02*
X99580000Y-68060000D01*
X89420000Y-61710000D02*
X99580000Y-61710000D01*
X89420000Y-60440000D02*
X89420000Y-68060000D01*
D16*
%TO.C,PS1*%
X108600000Y-131750000D02*
X108600000Y-84850000D01*
X136400000Y-131750000D02*
X108600000Y-131750000D01*
X108600000Y-84850000D02*
X136400000Y-84850000D01*
D11*
X126500000Y-84350000D02*
X126500000Y-84350000D01*
D16*
X136400000Y-84850000D02*
X136400000Y-131750000D01*
D11*
X126300000Y-84350000D02*
X126300000Y-84350000D01*
X126500000Y-84350000D02*
G75*
G03*
X126300000Y-84350000I-100000J0D01*
G01*
X126300000Y-84350000D02*
G75*
G03*
X126500000Y-84350000I100000J0D01*
G01*
D14*
%TO.C,J3*%
X70920000Y-68060000D02*
X81080000Y-68060000D01*
X70920000Y-61710000D02*
X81080000Y-61710000D01*
X81080000Y-60440000D02*
X70920000Y-60440000D01*
X81080000Y-68060000D02*
X81080000Y-60440000D01*
X70920000Y-60440000D02*
X70920000Y-68060000D01*
%TD*%
M02*
