%TF.GenerationSoftware,KiCad,Pcbnew,(6.0.7)*%
%TF.CreationDate,2022-11-19T09:32:58+05:30*%
%TF.ProjectId,ESP32_Drive,45535033-325f-4447-9269-76652e6b6963,rev?*%
%TF.SameCoordinates,Original*%
%TF.FileFunction,Copper,L2,Bot*%
%TF.FilePolarity,Positive*%
%FSLAX46Y46*%
G04 Gerber Fmt 4.6, Leading zero omitted, Abs format (unit mm)*
G04 Created by KiCad (PCBNEW (6.0.7)) date 2022-11-19 09:32:58*
%MOMM*%
%LPD*%
G01*
G04 APERTURE LIST*
%TA.AperFunction,EtchedComponent*%
%ADD10C,0.381000*%
%TD*%
%TA.AperFunction,ComponentPad*%
%ADD11R,3.000000X3.000000*%
%TD*%
%TA.AperFunction,ComponentPad*%
%ADD12C,3.000000*%
%TD*%
%TA.AperFunction,ComponentPad*%
%ADD13R,2.000000X2.000000*%
%TD*%
%TA.AperFunction,ComponentPad*%
%ADD14C,2.000000*%
%TD*%
%TA.AperFunction,ComponentPad*%
%ADD15R,1.700000X1.700000*%
%TD*%
%TA.AperFunction,ComponentPad*%
%ADD16O,1.700000X1.700000*%
%TD*%
%TA.AperFunction,ComponentPad*%
%ADD17R,1.600000X1.600000*%
%TD*%
%TA.AperFunction,ComponentPad*%
%ADD18C,1.600000*%
%TD*%
%TA.AperFunction,ComponentPad*%
%ADD19C,1.800000*%
%TD*%
%TA.AperFunction,ViaPad*%
%ADD20C,0.800000*%
%TD*%
%TA.AperFunction,Conductor*%
%ADD21C,1.000000*%
%TD*%
%TA.AperFunction,Conductor*%
%ADD22C,0.500000*%
%TD*%
%TA.AperFunction,Conductor*%
%ADD23C,2.000000*%
%TD*%
G04 APERTURE END LIST*
D10*
%TO.C,REF\u002A\u002A*%
X127551000Y-75544000D02*
X136949000Y-75544000D01*
X133149160Y-72950660D02*
X131848680Y-70149040D01*
X132349060Y-69950920D02*
X133149160Y-72950660D01*
X133149160Y-72950660D02*
X131950280Y-72150560D01*
X131950280Y-72150560D02*
X132747840Y-74949640D01*
X132747840Y-74949640D02*
X132849440Y-74050480D01*
X132747840Y-74949640D02*
X131548960Y-71850840D01*
X136949000Y-75544000D02*
X132250000Y-68559000D01*
X131548960Y-71850840D02*
X132148400Y-72249620D01*
X132747840Y-74949640D02*
X132148400Y-74251140D01*
X132250000Y-68559000D02*
X127551000Y-75544000D01*
%TD*%
D11*
%TO.P,J2,1,Pin_1*%
%TO.N,GND*%
X54500000Y-75750000D03*
D12*
%TO.P,J2,2,Pin_2*%
%TO.N,Net-(J2-Pad2)*%
X54500000Y-80830000D03*
%TO.P,J2,3,Pin_3*%
%TO.N,Net-(J2-Pad3)*%
X54500000Y-85910000D03*
%TO.P,J2,4,Pin_4*%
%TO.N,+3V3*%
X54500000Y-90990000D03*
%TO.P,J2,5,Pin_5*%
%TO.N,+5V*%
X54500000Y-96070000D03*
%TD*%
D13*
%TO.P,U1,1,3V3*%
%TO.N,+3V3*%
X60485000Y-138927500D03*
D14*
%TO.P,U1,2,GND*%
%TO.N,GND*%
X63025000Y-138927500D03*
%TO.P,U1,3,D15*%
%TO.N,Net-(R6-Pad2)*%
X65565000Y-138927500D03*
%TO.P,U1,4,D2*%
%TO.N,unconnected-(U1-Pad4)*%
X68105000Y-138927500D03*
%TO.P,U1,5,D4*%
%TO.N,Net-(U1-Pad5)*%
X70645000Y-138927500D03*
%TO.P,U1,6,RX2*%
%TO.N,unconnected-(U1-Pad6)*%
X73185000Y-138927500D03*
%TO.P,U1,7,TX2*%
%TO.N,unconnected-(U1-Pad7)*%
X75725000Y-138927500D03*
%TO.P,U1,8,D5*%
%TO.N,CS*%
X78265000Y-138927500D03*
%TO.P,U1,9,D18*%
%TO.N,SCK*%
X80805000Y-138927500D03*
%TO.P,U1,10,D19*%
%TO.N,MISO*%
X83345000Y-138927500D03*
%TO.P,U1,11,D21*%
%TO.N,SDA*%
X85885000Y-138927500D03*
%TO.P,U1,12,RX0*%
%TO.N,unconnected-(U1-Pad12)*%
X88425000Y-138927500D03*
%TO.P,U1,13,TX0*%
%TO.N,unconnected-(U1-Pad13)*%
X90965000Y-138927500D03*
%TO.P,U1,14,D22*%
%TO.N,SCL*%
X93505000Y-138927500D03*
%TO.P,U1,15,D23*%
%TO.N,MOSI*%
X96045000Y-138927500D03*
%TO.P,U1,16,EN*%
%TO.N,unconnected-(U1-Pad16)*%
X96045000Y-113527500D03*
%TO.P,U1,17,VP*%
%TO.N,unconnected-(U1-Pad17)*%
X93505000Y-113527500D03*
%TO.P,U1,18,VN*%
%TO.N,unconnected-(U1-Pad18)*%
X90965000Y-113527500D03*
%TO.P,U1,19,D34*%
%TO.N,unconnected-(U1-Pad19)*%
X88425000Y-113527500D03*
%TO.P,U1,20,D35*%
%TO.N,unconnected-(U1-Pad20)*%
X85885000Y-113527500D03*
%TO.P,U1,21,D32*%
%TO.N,Relay2*%
X83345000Y-113527500D03*
%TO.P,U1,22,D33*%
%TO.N,Relay1*%
X80805000Y-113527500D03*
%TO.P,U1,23,D25*%
%TO.N,Buzz*%
X78265000Y-113527500D03*
%TO.P,U1,24,D26*%
%TO.N,Inp{slash}Out_Pin*%
X75725000Y-113527500D03*
%TO.P,U1,25,D27*%
%TO.N,motorDrive_Input*%
X73185000Y-113527500D03*
%TO.P,U1,26,D14*%
%TO.N,unconnected-(U1-Pad26)*%
X70645000Y-113527500D03*
%TO.P,U1,27,D12*%
%TO.N,unconnected-(U1-Pad27)*%
X68105000Y-113527500D03*
%TO.P,U1,28,D13*%
%TO.N,unconnected-(U1-Pad28)*%
X65565000Y-113527500D03*
%TO.P,U1,29,GND*%
%TO.N,GND*%
X63025000Y-113527500D03*
%TO.P,U1,30,VIN*%
%TO.N,+5V*%
X60485000Y-113527500D03*
%TD*%
D13*
%TO.P,BZ1,1,-*%
%TO.N,+5V*%
X101750000Y-103250000D03*
D14*
%TO.P,BZ1,2,+*%
%TO.N,O3*%
X94150000Y-103250000D03*
%TD*%
D11*
%TO.P,J1,1,Pin_1*%
%TO.N,/L*%
X124080000Y-64250000D03*
D12*
%TO.P,J1,2,Pin_2*%
%TO.N,/N*%
X119000000Y-64250000D03*
%TO.P,J1,3,Pin_3*%
%TO.N,Earth_Clean*%
X113920000Y-64250000D03*
%TD*%
D15*
%TO.P,J5,1,Pin_1*%
%TO.N,+3V3*%
X76550000Y-144100000D03*
D16*
%TO.P,J5,2,Pin_2*%
%TO.N,CS*%
X79090000Y-144100000D03*
%TO.P,J5,3,Pin_3*%
%TO.N,SCK*%
X81630000Y-144100000D03*
%TO.P,J5,4,Pin_4*%
%TO.N,MISO*%
X84170000Y-144100000D03*
%TO.P,J5,5,Pin_5*%
%TO.N,MOSI*%
X86710000Y-144100000D03*
%TO.P,J5,6,Pin_6*%
%TO.N,GND*%
X89250000Y-144100000D03*
%TD*%
D17*
%TO.P,C1,1*%
%TO.N,+5V*%
X111097349Y-137250000D03*
D18*
%TO.P,C1,2*%
%TO.N,GND*%
X114597349Y-137250000D03*
%TD*%
D19*
%TO.P,RV1,1*%
%TO.N,/L*%
X125750000Y-79700000D03*
%TO.P,RV1,2*%
%TO.N,/N*%
X118250000Y-78300000D03*
%TD*%
D12*
%TO.P,K2,11*%
%TO.N,Net-(J4-Pad2)*%
X94500000Y-90050000D03*
%TO.P,K2,12*%
%TO.N,unconnected-(K2-Pad12)*%
X88500000Y-75850000D03*
%TO.P,K2,14*%
%TO.N,Net-(J4-Pad1)*%
X100500000Y-75850000D03*
%TO.P,K2,A1*%
%TO.N,+5V*%
X100500000Y-88050000D03*
%TO.P,K2,A2*%
%TO.N,O2*%
X88500000Y-88050000D03*
%TD*%
%TO.P,K1,11*%
%TO.N,Net-(J3-Pad2)*%
X76000000Y-90050000D03*
%TO.P,K1,12*%
%TO.N,unconnected-(K1-Pad12)*%
X70000000Y-75850000D03*
%TO.P,K1,14*%
%TO.N,Net-(J3-Pad1)*%
X82000000Y-75850000D03*
%TO.P,K1,A1*%
%TO.N,+5V*%
X82000000Y-88050000D03*
%TO.P,K1,A2*%
%TO.N,O1*%
X70000000Y-88050000D03*
%TD*%
D11*
%TO.P,J4,1,Pin_1*%
%TO.N,Net-(J4-Pad1)*%
X97040000Y-64250000D03*
D12*
%TO.P,J4,2,Pin_2*%
%TO.N,Net-(J4-Pad2)*%
X91960000Y-64250000D03*
%TD*%
D14*
%TO.P,PS1,1,AC/L*%
%TO.N,/L*%
X126400000Y-87050000D03*
%TO.P,PS1,2,AC/N*%
%TO.N,/N*%
X118600000Y-87050000D03*
%TO.P,PS1,3,-Vout*%
%TO.N,GND*%
X133900000Y-129550000D03*
%TO.P,PS1,4,+Vout*%
%TO.N,+5V*%
X111100000Y-129550000D03*
%TD*%
D11*
%TO.P,J3,1,Pin_1*%
%TO.N,Net-(J3-Pad1)*%
X78540000Y-64250000D03*
D12*
%TO.P,J3,2,Pin_2*%
%TO.N,Net-(J3-Pad2)*%
X73460000Y-64250000D03*
%TD*%
D20*
%TO.N,+5V*%
X88500000Y-99750000D03*
%TD*%
D21*
%TO.N,+3V3*%
X59000000Y-92750000D02*
X57240000Y-90990000D01*
X57240000Y-90990000D02*
X54500000Y-90990000D01*
X59000000Y-101500000D02*
X59000000Y-92750000D01*
X56500000Y-104000000D02*
X59000000Y-101500000D01*
X56500000Y-116500000D02*
X56500000Y-104000000D01*
X60485000Y-120485000D02*
X56500000Y-116500000D01*
X60485000Y-138927500D02*
X60485000Y-120485000D01*
D22*
%TO.N,+5V*%
X82000000Y-93250000D02*
X82000000Y-88050000D01*
D23*
X103000000Y-109000000D02*
X111100000Y-117100000D01*
X62000000Y-109000000D02*
X89000000Y-109000000D01*
X111100000Y-117100000D02*
X111100000Y-129550000D01*
X60485000Y-113527500D02*
X60485000Y-110515000D01*
D22*
X88500000Y-99750000D02*
X88500000Y-108500000D01*
X88500000Y-99750000D02*
X82000000Y-93250000D01*
X88500000Y-108500000D02*
X89000000Y-109000000D01*
D23*
X89000000Y-109000000D02*
X103000000Y-109000000D01*
X60485000Y-110515000D02*
X62000000Y-109000000D01*
D21*
%TO.N,+3V3*%
X60485000Y-142235000D02*
X60485000Y-138927500D01*
X62350000Y-144100000D02*
X60485000Y-142235000D01*
X76550000Y-144100000D02*
X62350000Y-144100000D01*
%TD*%
%TA.AperFunction,Conductor*%
%TO.N,GND*%
G36*
X65942121Y-71020002D02*
G01*
X65988614Y-71073658D01*
X66000000Y-71126000D01*
X66000000Y-93000000D01*
X81115500Y-93000000D01*
X81183621Y-93020002D01*
X81230114Y-93073658D01*
X81241500Y-93126000D01*
X81241500Y-93182930D01*
X81240067Y-93201880D01*
X81238057Y-93215095D01*
X81236801Y-93223349D01*
X81237394Y-93230641D01*
X81237394Y-93230644D01*
X81241085Y-93276018D01*
X81241500Y-93286233D01*
X81241500Y-93294293D01*
X81241925Y-93297937D01*
X81244789Y-93322507D01*
X81245222Y-93326882D01*
X81251140Y-93399637D01*
X81253396Y-93406601D01*
X81254587Y-93412560D01*
X81255971Y-93418415D01*
X81256818Y-93425681D01*
X81281735Y-93494327D01*
X81283152Y-93498455D01*
X81305649Y-93567899D01*
X81309445Y-93574154D01*
X81311951Y-93579628D01*
X81314670Y-93585058D01*
X81317167Y-93591937D01*
X81321180Y-93598057D01*
X81321180Y-93598058D01*
X81357186Y-93652976D01*
X81359523Y-93656680D01*
X81397405Y-93719107D01*
X81401121Y-93723315D01*
X81401122Y-93723316D01*
X81404803Y-93727484D01*
X81404776Y-93727508D01*
X81407429Y-93730500D01*
X81410132Y-93733733D01*
X81414144Y-93739852D01*
X81419456Y-93744884D01*
X81470383Y-93793128D01*
X81472825Y-93795506D01*
X87579875Y-99902556D01*
X87610613Y-99952714D01*
X87665473Y-100121556D01*
X87668776Y-100127278D01*
X87668777Y-100127279D01*
X87724619Y-100223999D01*
X87741500Y-100286999D01*
X87741500Y-107365500D01*
X87721498Y-107433621D01*
X87667842Y-107480114D01*
X87615500Y-107491500D01*
X62024016Y-107491500D01*
X62020498Y-107491451D01*
X61925851Y-107488807D01*
X61925848Y-107488807D01*
X61920795Y-107488666D01*
X61915782Y-107489335D01*
X61915779Y-107489335D01*
X61842911Y-107499057D01*
X61836354Y-107499758D01*
X61763080Y-107505654D01*
X61763079Y-107505654D01*
X61758035Y-107506060D01*
X61753124Y-107507266D01*
X61753119Y-107507267D01*
X61726139Y-107513894D01*
X61712750Y-107516424D01*
X61700315Y-107518083D01*
X61680180Y-107520770D01*
X61604949Y-107543484D01*
X61598604Y-107545220D01*
X61522294Y-107563963D01*
X61517642Y-107565938D01*
X61517638Y-107565939D01*
X61492052Y-107576800D01*
X61479239Y-107581438D01*
X61447792Y-107590932D01*
X61377138Y-107625392D01*
X61371204Y-107628097D01*
X61298844Y-107658812D01*
X61294564Y-107661507D01*
X61294553Y-107661513D01*
X61271047Y-107676316D01*
X61259140Y-107682944D01*
X61249814Y-107687493D01*
X61229612Y-107697346D01*
X61225483Y-107700259D01*
X61165403Y-107742641D01*
X61159914Y-107746301D01*
X61118264Y-107772530D01*
X61093433Y-107788167D01*
X61089644Y-107791508D01*
X61089638Y-107791512D01*
X61068783Y-107809898D01*
X61058088Y-107818344D01*
X61031253Y-107837274D01*
X61009750Y-107856909D01*
X60970034Y-107896625D01*
X60964264Y-107902044D01*
X60915142Y-107945350D01*
X60915139Y-107945353D01*
X60911345Y-107948698D01*
X60908135Y-107952606D01*
X60908134Y-107952607D01*
X60884821Y-107980989D01*
X60876551Y-107990108D01*
X59435334Y-109431325D01*
X59432812Y-109433779D01*
X59360319Y-109502332D01*
X59357252Y-109506344D01*
X59312592Y-109564757D01*
X59308448Y-109569892D01*
X59257530Y-109629720D01*
X59254911Y-109634045D01*
X59254907Y-109634050D01*
X59240509Y-109657824D01*
X59232837Y-109669071D01*
X59212880Y-109695174D01*
X59210490Y-109699632D01*
X59210489Y-109699633D01*
X59175761Y-109764401D01*
X59172496Y-109770126D01*
X59131779Y-109837358D01*
X59129884Y-109842049D01*
X59119473Y-109867817D01*
X59113693Y-109880158D01*
X59098169Y-109909109D01*
X59096523Y-109913890D01*
X59096521Y-109913894D01*
X59072588Y-109983401D01*
X59070278Y-109989579D01*
X59040845Y-110062429D01*
X59039723Y-110067368D01*
X59033568Y-110094460D01*
X59029837Y-110107559D01*
X59019138Y-110138631D01*
X59005757Y-110216100D01*
X59004477Y-110222504D01*
X58987065Y-110299144D01*
X58985001Y-110331953D01*
X58983415Y-110345453D01*
X58977821Y-110377836D01*
X58976500Y-110406925D01*
X58976500Y-110463108D01*
X58976251Y-110471019D01*
X58971822Y-110541413D01*
X58972316Y-110546448D01*
X58975899Y-110582992D01*
X58976500Y-110595288D01*
X58976500Y-113463271D01*
X58976112Y-113473157D01*
X58971835Y-113527500D01*
X58972223Y-113532430D01*
X58976377Y-113585210D01*
X58976500Y-113587287D01*
X58976500Y-113588501D01*
X58976702Y-113591009D01*
X58976702Y-113591014D01*
X58980288Y-113635575D01*
X58982737Y-113666017D01*
X58990465Y-113764211D01*
X58990724Y-113765290D01*
X58991060Y-113769465D01*
X59020589Y-113889685D01*
X59045895Y-113995094D01*
X59046922Y-113997574D01*
X59047341Y-113999043D01*
X59047756Y-114000291D01*
X59048963Y-114005206D01*
X59095128Y-114113964D01*
X59095471Y-114114780D01*
X59136760Y-114214463D01*
X59139134Y-114218337D01*
X59141266Y-114222908D01*
X59141831Y-114223988D01*
X59143812Y-114228656D01*
X59204655Y-114325273D01*
X59205391Y-114326458D01*
X59260824Y-114416916D01*
X59264042Y-114420684D01*
X59266822Y-114424510D01*
X59269650Y-114428687D01*
X59270467Y-114429779D01*
X59273167Y-114434067D01*
X59276512Y-114437861D01*
X59346350Y-114517078D01*
X59347646Y-114518572D01*
X59366091Y-114540168D01*
X59415031Y-114597469D01*
X59418787Y-114600677D01*
X59422293Y-114604183D01*
X59422212Y-114604264D01*
X59429802Y-114611736D01*
X59433698Y-114616155D01*
X59437612Y-114619370D01*
X59437613Y-114619371D01*
X59516672Y-114684311D01*
X59518526Y-114685863D01*
X59595584Y-114751676D01*
X59600379Y-114754614D01*
X59614514Y-114764679D01*
X59617364Y-114767020D01*
X59617372Y-114767025D01*
X59621278Y-114770234D01*
X59625646Y-114772776D01*
X59711437Y-114822708D01*
X59713832Y-114824139D01*
X59798037Y-114875740D01*
X59802606Y-114877632D01*
X59802607Y-114877633D01*
X59805874Y-114878986D01*
X59821033Y-114886494D01*
X59831078Y-114892341D01*
X59925601Y-114928625D01*
X59928648Y-114929841D01*
X60017406Y-114966605D01*
X60022220Y-114967761D01*
X60022221Y-114967761D01*
X60028432Y-114969252D01*
X60044174Y-114974140D01*
X60057702Y-114979333D01*
X60062653Y-114980367D01*
X60062652Y-114980367D01*
X60153829Y-114999415D01*
X60157476Y-115000233D01*
X60241416Y-115020385D01*
X60248289Y-115022035D01*
X60261801Y-115023099D01*
X60262440Y-115023149D01*
X60278315Y-115025422D01*
X60290368Y-115027940D01*
X60290374Y-115027941D01*
X60295320Y-115028974D01*
X60300370Y-115029203D01*
X60300375Y-115029204D01*
X60356193Y-115031738D01*
X60390471Y-115033295D01*
X60394608Y-115033551D01*
X60485000Y-115040665D01*
X60489931Y-115040277D01*
X60489935Y-115040277D01*
X60502012Y-115039327D01*
X60517604Y-115039069D01*
X60532759Y-115039757D01*
X60532766Y-115039757D01*
X60537817Y-115039986D01*
X60542837Y-115039405D01*
X60542843Y-115039405D01*
X60629504Y-115029378D01*
X60634098Y-115028931D01*
X60716786Y-115022423D01*
X60716791Y-115022422D01*
X60721711Y-115022035D01*
X60741071Y-115017387D01*
X60756002Y-115014741D01*
X60773937Y-115012666D01*
X60773940Y-115012665D01*
X60778956Y-115012085D01*
X60855012Y-114990564D01*
X60864975Y-114987745D01*
X60869866Y-114986467D01*
X60899579Y-114979333D01*
X60952594Y-114966605D01*
X60973634Y-114957890D01*
X60987532Y-114953064D01*
X60990468Y-114952233D01*
X61012532Y-114945990D01*
X61017113Y-114943854D01*
X61017118Y-114943852D01*
X61090887Y-114909453D01*
X61095918Y-114907239D01*
X61167391Y-114877634D01*
X61167393Y-114877633D01*
X61171963Y-114875740D01*
X61193802Y-114862357D01*
X61206384Y-114855596D01*
X61227953Y-114845538D01*
X61227952Y-114845538D01*
X61232536Y-114843401D01*
X61236717Y-114840559D01*
X61236725Y-114840555D01*
X61301653Y-114796430D01*
X61306639Y-114793210D01*
X61360555Y-114760170D01*
X62157160Y-114760170D01*
X62162887Y-114767820D01*
X62334042Y-114872705D01*
X62342837Y-114877187D01*
X62552988Y-114964234D01*
X62562373Y-114967283D01*
X62783554Y-115020385D01*
X62793301Y-115021928D01*
X63020070Y-115039775D01*
X63029930Y-115039775D01*
X63256699Y-115021928D01*
X63266446Y-115020385D01*
X63487627Y-114967283D01*
X63497012Y-114964234D01*
X63707163Y-114877187D01*
X63715958Y-114872705D01*
X63883445Y-114770068D01*
X63892907Y-114759610D01*
X63889124Y-114750834D01*
X63037812Y-113899522D01*
X63023868Y-113891908D01*
X63022035Y-113892039D01*
X63015420Y-113896290D01*
X62163920Y-114747790D01*
X62157160Y-114760170D01*
X61360555Y-114760170D01*
X61374416Y-114751676D01*
X61396071Y-114733181D01*
X61407076Y-114724783D01*
X61429121Y-114709801D01*
X61429122Y-114709800D01*
X61433307Y-114706956D01*
X61491893Y-114651554D01*
X61496636Y-114647291D01*
X61551207Y-114600683D01*
X61551214Y-114600676D01*
X61554969Y-114597469D01*
X61575317Y-114573645D01*
X61584539Y-114563944D01*
X61609681Y-114540168D01*
X61648982Y-114488765D01*
X61656900Y-114478408D01*
X61661185Y-114473107D01*
X61688706Y-114440884D01*
X61748156Y-114402074D01*
X61782558Y-114399860D01*
X61801667Y-114391623D01*
X62664658Y-113528632D01*
X63389408Y-113528632D01*
X63389539Y-113530465D01*
X63393790Y-113537080D01*
X64245290Y-114388580D01*
X64262102Y-114397760D01*
X64325350Y-114411520D01*
X64360775Y-114440276D01*
X64442652Y-114536141D01*
X64495031Y-114597469D01*
X64498787Y-114600677D01*
X64511741Y-114611741D01*
X64675584Y-114751676D01*
X64679792Y-114754255D01*
X64679798Y-114754259D01*
X64873084Y-114872705D01*
X64878037Y-114875740D01*
X64882607Y-114877633D01*
X64882611Y-114877635D01*
X65092833Y-114964711D01*
X65097406Y-114966605D01*
X65150422Y-114979333D01*
X65323476Y-115020880D01*
X65323482Y-115020881D01*
X65328289Y-115022035D01*
X65565000Y-115040665D01*
X65801711Y-115022035D01*
X65806518Y-115020881D01*
X65806524Y-115020880D01*
X65979578Y-114979333D01*
X66032594Y-114966605D01*
X66037167Y-114964711D01*
X66247389Y-114877635D01*
X66247393Y-114877633D01*
X66251963Y-114875740D01*
X66256916Y-114872705D01*
X66450202Y-114754259D01*
X66450208Y-114754255D01*
X66454416Y-114751676D01*
X66618259Y-114611741D01*
X66631213Y-114600677D01*
X66634969Y-114597469D01*
X66638177Y-114593713D01*
X66638182Y-114593708D01*
X66739189Y-114475444D01*
X66798639Y-114436634D01*
X66869634Y-114436128D01*
X66930811Y-114475444D01*
X67031818Y-114593708D01*
X67031823Y-114593713D01*
X67035031Y-114597469D01*
X67038787Y-114600677D01*
X67051741Y-114611741D01*
X67215584Y-114751676D01*
X67219792Y-114754255D01*
X67219798Y-114754259D01*
X67413084Y-114872705D01*
X67418037Y-114875740D01*
X67422607Y-114877633D01*
X67422611Y-114877635D01*
X67632833Y-114964711D01*
X67637406Y-114966605D01*
X67690422Y-114979333D01*
X67863476Y-115020880D01*
X67863482Y-115020881D01*
X67868289Y-115022035D01*
X68105000Y-115040665D01*
X68341711Y-115022035D01*
X68346518Y-115020881D01*
X68346524Y-115020880D01*
X68519578Y-114979333D01*
X68572594Y-114966605D01*
X68577167Y-114964711D01*
X68787389Y-114877635D01*
X68787393Y-114877633D01*
X68791963Y-114875740D01*
X68796916Y-114872705D01*
X68990202Y-114754259D01*
X68990208Y-114754255D01*
X68994416Y-114751676D01*
X69158259Y-114611741D01*
X69171213Y-114600677D01*
X69174969Y-114597469D01*
X69178177Y-114593713D01*
X69178182Y-114593708D01*
X69279189Y-114475444D01*
X69338639Y-114436634D01*
X69409634Y-114436128D01*
X69470811Y-114475444D01*
X69571818Y-114593708D01*
X69571823Y-114593713D01*
X69575031Y-114597469D01*
X69578787Y-114600677D01*
X69591741Y-114611741D01*
X69755584Y-114751676D01*
X69759792Y-114754255D01*
X69759798Y-114754259D01*
X69953084Y-114872705D01*
X69958037Y-114875740D01*
X69962607Y-114877633D01*
X69962611Y-114877635D01*
X70172833Y-114964711D01*
X70177406Y-114966605D01*
X70230422Y-114979333D01*
X70403476Y-115020880D01*
X70403482Y-115020881D01*
X70408289Y-115022035D01*
X70645000Y-115040665D01*
X70881711Y-115022035D01*
X70886518Y-115020881D01*
X70886524Y-115020880D01*
X71059578Y-114979333D01*
X71112594Y-114966605D01*
X71117167Y-114964711D01*
X71327389Y-114877635D01*
X71327393Y-114877633D01*
X71331963Y-114875740D01*
X71336916Y-114872705D01*
X71530202Y-114754259D01*
X71530208Y-114754255D01*
X71534416Y-114751676D01*
X71698259Y-114611741D01*
X71711213Y-114600677D01*
X71714969Y-114597469D01*
X71718177Y-114593713D01*
X71718182Y-114593708D01*
X71819189Y-114475444D01*
X71878639Y-114436634D01*
X71949634Y-114436128D01*
X72010811Y-114475444D01*
X72111818Y-114593708D01*
X72111823Y-114593713D01*
X72115031Y-114597469D01*
X72118787Y-114600677D01*
X72131741Y-114611741D01*
X72295584Y-114751676D01*
X72299792Y-114754255D01*
X72299798Y-114754259D01*
X72493084Y-114872705D01*
X72498037Y-114875740D01*
X72502607Y-114877633D01*
X72502611Y-114877635D01*
X72712833Y-114964711D01*
X72717406Y-114966605D01*
X72770422Y-114979333D01*
X72943476Y-115020880D01*
X72943482Y-115020881D01*
X72948289Y-115022035D01*
X73185000Y-115040665D01*
X73421711Y-115022035D01*
X73426518Y-115020881D01*
X73426524Y-115020880D01*
X73599578Y-114979333D01*
X73652594Y-114966605D01*
X73657167Y-114964711D01*
X73867389Y-114877635D01*
X73867393Y-114877633D01*
X73871963Y-114875740D01*
X73876916Y-114872705D01*
X74070202Y-114754259D01*
X74070208Y-114754255D01*
X74074416Y-114751676D01*
X74238259Y-114611741D01*
X74251213Y-114600677D01*
X74254969Y-114597469D01*
X74258177Y-114593713D01*
X74258182Y-114593708D01*
X74359189Y-114475444D01*
X74418639Y-114436634D01*
X74489634Y-114436128D01*
X74550811Y-114475444D01*
X74651818Y-114593708D01*
X74651823Y-114593713D01*
X74655031Y-114597469D01*
X74658787Y-114600677D01*
X74671741Y-114611741D01*
X74835584Y-114751676D01*
X74839792Y-114754255D01*
X74839798Y-114754259D01*
X75033084Y-114872705D01*
X75038037Y-114875740D01*
X75042607Y-114877633D01*
X75042611Y-114877635D01*
X75252833Y-114964711D01*
X75257406Y-114966605D01*
X75310422Y-114979333D01*
X75483476Y-115020880D01*
X75483482Y-115020881D01*
X75488289Y-115022035D01*
X75725000Y-115040665D01*
X75961711Y-115022035D01*
X75966518Y-115020881D01*
X75966524Y-115020880D01*
X76139578Y-114979333D01*
X76192594Y-114966605D01*
X76197167Y-114964711D01*
X76407389Y-114877635D01*
X76407393Y-114877633D01*
X76411963Y-114875740D01*
X76416916Y-114872705D01*
X76610202Y-114754259D01*
X76610208Y-114754255D01*
X76614416Y-114751676D01*
X76778259Y-114611741D01*
X76791213Y-114600677D01*
X76794969Y-114597469D01*
X76798177Y-114593713D01*
X76798182Y-114593708D01*
X76899189Y-114475444D01*
X76958639Y-114436634D01*
X77029634Y-114436128D01*
X77090811Y-114475444D01*
X77191818Y-114593708D01*
X77191823Y-114593713D01*
X77195031Y-114597469D01*
X77198787Y-114600677D01*
X77211741Y-114611741D01*
X77375584Y-114751676D01*
X77379792Y-114754255D01*
X77379798Y-114754259D01*
X77573084Y-114872705D01*
X77578037Y-114875740D01*
X77582607Y-114877633D01*
X77582611Y-114877635D01*
X77792833Y-114964711D01*
X77797406Y-114966605D01*
X77850422Y-114979333D01*
X78023476Y-115020880D01*
X78023482Y-115020881D01*
X78028289Y-115022035D01*
X78265000Y-115040665D01*
X78501711Y-115022035D01*
X78506518Y-115020881D01*
X78506524Y-115020880D01*
X78679578Y-114979333D01*
X78732594Y-114966605D01*
X78737167Y-114964711D01*
X78947389Y-114877635D01*
X78947393Y-114877633D01*
X78951963Y-114875740D01*
X78956916Y-114872705D01*
X79150202Y-114754259D01*
X79150208Y-114754255D01*
X79154416Y-114751676D01*
X79318259Y-114611741D01*
X79331213Y-114600677D01*
X79334969Y-114597469D01*
X79338177Y-114593713D01*
X79338182Y-114593708D01*
X79439189Y-114475444D01*
X79498639Y-114436634D01*
X79569634Y-114436128D01*
X79630811Y-114475444D01*
X79731818Y-114593708D01*
X79731823Y-114593713D01*
X79735031Y-114597469D01*
X79738787Y-114600677D01*
X79751741Y-114611741D01*
X79915584Y-114751676D01*
X79919792Y-114754255D01*
X79919798Y-114754259D01*
X80113084Y-114872705D01*
X80118037Y-114875740D01*
X80122607Y-114877633D01*
X80122611Y-114877635D01*
X80332833Y-114964711D01*
X80337406Y-114966605D01*
X80390422Y-114979333D01*
X80563476Y-115020880D01*
X80563482Y-115020881D01*
X80568289Y-115022035D01*
X80805000Y-115040665D01*
X81041711Y-115022035D01*
X81046518Y-115020881D01*
X81046524Y-115020880D01*
X81219578Y-114979333D01*
X81272594Y-114966605D01*
X81277167Y-114964711D01*
X81487389Y-114877635D01*
X81487393Y-114877633D01*
X81491963Y-114875740D01*
X81496916Y-114872705D01*
X81690202Y-114754259D01*
X81690208Y-114754255D01*
X81694416Y-114751676D01*
X81858259Y-114611741D01*
X81871213Y-114600677D01*
X81874969Y-114597469D01*
X81878177Y-114593713D01*
X81878182Y-114593708D01*
X81979189Y-114475444D01*
X82038639Y-114436634D01*
X82109634Y-114436128D01*
X82170811Y-114475444D01*
X82271818Y-114593708D01*
X82271823Y-114593713D01*
X82275031Y-114597469D01*
X82278787Y-114600677D01*
X82291741Y-114611741D01*
X82455584Y-114751676D01*
X82459792Y-114754255D01*
X82459798Y-114754259D01*
X82653084Y-114872705D01*
X82658037Y-114875740D01*
X82662607Y-114877633D01*
X82662611Y-114877635D01*
X82872833Y-114964711D01*
X82877406Y-114966605D01*
X82930422Y-114979333D01*
X83103476Y-115020880D01*
X83103482Y-115020881D01*
X83108289Y-115022035D01*
X83345000Y-115040665D01*
X83581711Y-115022035D01*
X83586518Y-115020881D01*
X83586524Y-115020880D01*
X83759578Y-114979333D01*
X83812594Y-114966605D01*
X83817167Y-114964711D01*
X84027389Y-114877635D01*
X84027393Y-114877633D01*
X84031963Y-114875740D01*
X84036916Y-114872705D01*
X84230202Y-114754259D01*
X84230208Y-114754255D01*
X84234416Y-114751676D01*
X84398259Y-114611741D01*
X84411213Y-114600677D01*
X84414969Y-114597469D01*
X84418177Y-114593713D01*
X84418182Y-114593708D01*
X84519189Y-114475444D01*
X84578639Y-114436634D01*
X84649634Y-114436128D01*
X84710811Y-114475444D01*
X84811818Y-114593708D01*
X84811823Y-114593713D01*
X84815031Y-114597469D01*
X84818787Y-114600677D01*
X84831741Y-114611741D01*
X84995584Y-114751676D01*
X84999792Y-114754255D01*
X84999798Y-114754259D01*
X85193084Y-114872705D01*
X85198037Y-114875740D01*
X85202607Y-114877633D01*
X85202611Y-114877635D01*
X85412833Y-114964711D01*
X85417406Y-114966605D01*
X85470422Y-114979333D01*
X85643476Y-115020880D01*
X85643482Y-115020881D01*
X85648289Y-115022035D01*
X85885000Y-115040665D01*
X86121711Y-115022035D01*
X86126518Y-115020881D01*
X86126524Y-115020880D01*
X86299578Y-114979333D01*
X86352594Y-114966605D01*
X86357167Y-114964711D01*
X86567389Y-114877635D01*
X86567393Y-114877633D01*
X86571963Y-114875740D01*
X86576916Y-114872705D01*
X86770202Y-114754259D01*
X86770208Y-114754255D01*
X86774416Y-114751676D01*
X86938259Y-114611741D01*
X86951213Y-114600677D01*
X86954969Y-114597469D01*
X86958177Y-114593713D01*
X86958182Y-114593708D01*
X87059189Y-114475444D01*
X87118639Y-114436634D01*
X87189634Y-114436128D01*
X87250811Y-114475444D01*
X87351818Y-114593708D01*
X87351823Y-114593713D01*
X87355031Y-114597469D01*
X87358787Y-114600677D01*
X87371741Y-114611741D01*
X87535584Y-114751676D01*
X87539792Y-114754255D01*
X87539798Y-114754259D01*
X87733084Y-114872705D01*
X87738037Y-114875740D01*
X87742607Y-114877633D01*
X87742611Y-114877635D01*
X87952833Y-114964711D01*
X87957406Y-114966605D01*
X88010422Y-114979333D01*
X88183476Y-115020880D01*
X88183482Y-115020881D01*
X88188289Y-115022035D01*
X88425000Y-115040665D01*
X88661711Y-115022035D01*
X88666518Y-115020881D01*
X88666524Y-115020880D01*
X88839578Y-114979333D01*
X88892594Y-114966605D01*
X88897167Y-114964711D01*
X89107389Y-114877635D01*
X89107393Y-114877633D01*
X89111963Y-114875740D01*
X89116916Y-114872705D01*
X89310202Y-114754259D01*
X89310208Y-114754255D01*
X89314416Y-114751676D01*
X89478259Y-114611741D01*
X89491213Y-114600677D01*
X89494969Y-114597469D01*
X89498177Y-114593713D01*
X89498182Y-114593708D01*
X89599189Y-114475444D01*
X89658639Y-114436634D01*
X89729634Y-114436128D01*
X89790811Y-114475444D01*
X89891818Y-114593708D01*
X89891823Y-114593713D01*
X89895031Y-114597469D01*
X89898787Y-114600677D01*
X89911741Y-114611741D01*
X90075584Y-114751676D01*
X90079792Y-114754255D01*
X90079798Y-114754259D01*
X90273084Y-114872705D01*
X90278037Y-114875740D01*
X90282607Y-114877633D01*
X90282611Y-114877635D01*
X90492833Y-114964711D01*
X90497406Y-114966605D01*
X90550422Y-114979333D01*
X90723476Y-115020880D01*
X90723482Y-115020881D01*
X90728289Y-115022035D01*
X90965000Y-115040665D01*
X91201711Y-115022035D01*
X91206518Y-115020881D01*
X91206524Y-115020880D01*
X91379578Y-114979333D01*
X91432594Y-114966605D01*
X91437167Y-114964711D01*
X91647389Y-114877635D01*
X91647393Y-114877633D01*
X91651963Y-114875740D01*
X91656916Y-114872705D01*
X91850202Y-114754259D01*
X91850208Y-114754255D01*
X91854416Y-114751676D01*
X92018259Y-114611741D01*
X92031213Y-114600677D01*
X92034969Y-114597469D01*
X92038177Y-114593713D01*
X92038182Y-114593708D01*
X92139189Y-114475444D01*
X92198639Y-114436634D01*
X92269634Y-114436128D01*
X92330811Y-114475444D01*
X92431818Y-114593708D01*
X92431823Y-114593713D01*
X92435031Y-114597469D01*
X92438787Y-114600677D01*
X92451741Y-114611741D01*
X92615584Y-114751676D01*
X92619792Y-114754255D01*
X92619798Y-114754259D01*
X92813084Y-114872705D01*
X92818037Y-114875740D01*
X92822607Y-114877633D01*
X92822611Y-114877635D01*
X93032833Y-114964711D01*
X93037406Y-114966605D01*
X93090422Y-114979333D01*
X93263476Y-115020880D01*
X93263482Y-115020881D01*
X93268289Y-115022035D01*
X93505000Y-115040665D01*
X93741711Y-115022035D01*
X93746518Y-115020881D01*
X93746524Y-115020880D01*
X93919578Y-114979333D01*
X93972594Y-114966605D01*
X93977167Y-114964711D01*
X94187389Y-114877635D01*
X94187393Y-114877633D01*
X94191963Y-114875740D01*
X94196916Y-114872705D01*
X94390202Y-114754259D01*
X94390208Y-114754255D01*
X94394416Y-114751676D01*
X94558259Y-114611741D01*
X94571213Y-114600677D01*
X94574969Y-114597469D01*
X94578177Y-114593713D01*
X94578182Y-114593708D01*
X94679189Y-114475444D01*
X94738639Y-114436634D01*
X94809634Y-114436128D01*
X94870811Y-114475444D01*
X94971818Y-114593708D01*
X94971823Y-114593713D01*
X94975031Y-114597469D01*
X94978787Y-114600677D01*
X94991741Y-114611741D01*
X95155584Y-114751676D01*
X95159792Y-114754255D01*
X95159798Y-114754259D01*
X95353084Y-114872705D01*
X95358037Y-114875740D01*
X95362607Y-114877633D01*
X95362611Y-114877635D01*
X95572833Y-114964711D01*
X95577406Y-114966605D01*
X95630422Y-114979333D01*
X95803476Y-115020880D01*
X95803482Y-115020881D01*
X95808289Y-115022035D01*
X96045000Y-115040665D01*
X96281711Y-115022035D01*
X96286518Y-115020881D01*
X96286524Y-115020880D01*
X96459578Y-114979333D01*
X96512594Y-114966605D01*
X96517167Y-114964711D01*
X96727389Y-114877635D01*
X96727393Y-114877633D01*
X96731963Y-114875740D01*
X96736916Y-114872705D01*
X96930202Y-114754259D01*
X96930208Y-114754255D01*
X96934416Y-114751676D01*
X97098259Y-114611741D01*
X97111213Y-114600677D01*
X97114969Y-114597469D01*
X97269176Y-114416916D01*
X97272483Y-114411520D01*
X97282010Y-114395974D01*
X97334658Y-114348343D01*
X97404700Y-114336737D01*
X97469897Y-114364841D01*
X97509551Y-114423732D01*
X97513528Y-114439931D01*
X97519378Y-114473107D01*
X97521402Y-114484587D01*
X97608203Y-114751735D01*
X97610131Y-114755688D01*
X97610133Y-114755693D01*
X97630002Y-114796430D01*
X97731340Y-115004202D01*
X97733795Y-115007841D01*
X97733798Y-115007847D01*
X97806890Y-115116210D01*
X97888415Y-115237076D01*
X98076371Y-115445822D01*
X98291550Y-115626379D01*
X98529764Y-115775231D01*
X98786375Y-115889482D01*
X99056390Y-115966907D01*
X99060740Y-115967518D01*
X99060743Y-115967519D01*
X99163690Y-115981987D01*
X99334552Y-116006000D01*
X99545146Y-116006000D01*
X99547332Y-116005847D01*
X99547336Y-116005847D01*
X99750827Y-115991618D01*
X99750832Y-115991617D01*
X99755212Y-115991311D01*
X100029970Y-115932909D01*
X100034099Y-115931406D01*
X100034103Y-115931405D01*
X100289781Y-115838346D01*
X100289785Y-115838344D01*
X100293926Y-115836837D01*
X100541942Y-115704964D01*
X100646896Y-115628711D01*
X100765629Y-115542447D01*
X100765632Y-115542444D01*
X100769192Y-115539858D01*
X100971252Y-115344731D01*
X101144188Y-115123382D01*
X101146384Y-115119578D01*
X101146389Y-115119571D01*
X101282435Y-114883931D01*
X101284636Y-114880119D01*
X101389862Y-114619676D01*
X101391686Y-114612359D01*
X101456753Y-114351393D01*
X101456754Y-114351388D01*
X101457817Y-114347124D01*
X101470269Y-114228656D01*
X101486719Y-114072136D01*
X101486719Y-114072133D01*
X101487178Y-114067767D01*
X101485156Y-114009864D01*
X101477529Y-113791439D01*
X101477528Y-113791433D01*
X101477375Y-113787042D01*
X101473350Y-113764211D01*
X101432480Y-113532430D01*
X101428598Y-113510413D01*
X101341797Y-113243265D01*
X101218660Y-112990798D01*
X101216205Y-112987159D01*
X101216202Y-112987153D01*
X101117308Y-112840537D01*
X101061585Y-112757924D01*
X100873629Y-112549178D01*
X100658450Y-112368621D01*
X100420236Y-112219769D01*
X100163625Y-112105518D01*
X99893610Y-112028093D01*
X99889260Y-112027482D01*
X99889257Y-112027481D01*
X99786310Y-112013013D01*
X99615448Y-111989000D01*
X99404854Y-111989000D01*
X99402668Y-111989153D01*
X99402664Y-111989153D01*
X99199173Y-112003382D01*
X99199168Y-112003383D01*
X99194788Y-112003689D01*
X98920030Y-112062091D01*
X98915901Y-112063594D01*
X98915897Y-112063595D01*
X98660219Y-112156654D01*
X98660215Y-112156656D01*
X98656074Y-112158163D01*
X98408058Y-112290036D01*
X98404499Y-112292622D01*
X98404497Y-112292623D01*
X98299895Y-112368621D01*
X98180808Y-112455142D01*
X98177644Y-112458198D01*
X98177641Y-112458200D01*
X98174439Y-112461292D01*
X97978748Y-112650269D01*
X97805812Y-112871618D01*
X97803616Y-112875422D01*
X97803611Y-112875429D01*
X97700834Y-113053445D01*
X97649451Y-113102438D01*
X97579738Y-113115874D01*
X97513827Y-113089488D01*
X97475306Y-113038663D01*
X97395135Y-112845111D01*
X97395133Y-112845107D01*
X97393240Y-112840537D01*
X97344852Y-112761575D01*
X97271759Y-112642298D01*
X97271755Y-112642292D01*
X97269176Y-112638084D01*
X97114969Y-112457531D01*
X96934416Y-112303324D01*
X96930208Y-112300745D01*
X96930202Y-112300741D01*
X96736183Y-112181846D01*
X96731963Y-112179260D01*
X96727393Y-112177367D01*
X96727389Y-112177365D01*
X96517167Y-112090289D01*
X96517165Y-112090288D01*
X96512594Y-112088395D01*
X96432391Y-112069140D01*
X96286524Y-112034120D01*
X96286518Y-112034119D01*
X96281711Y-112032965D01*
X96045000Y-112014335D01*
X95808289Y-112032965D01*
X95803482Y-112034119D01*
X95803476Y-112034120D01*
X95657609Y-112069140D01*
X95577406Y-112088395D01*
X95572835Y-112090288D01*
X95572833Y-112090289D01*
X95362611Y-112177365D01*
X95362607Y-112177367D01*
X95358037Y-112179260D01*
X95353817Y-112181846D01*
X95159798Y-112300741D01*
X95159792Y-112300745D01*
X95155584Y-112303324D01*
X94975031Y-112457531D01*
X94971823Y-112461287D01*
X94971818Y-112461292D01*
X94870811Y-112579556D01*
X94811361Y-112618366D01*
X94740366Y-112618872D01*
X94679189Y-112579556D01*
X94578182Y-112461292D01*
X94578177Y-112461287D01*
X94574969Y-112457531D01*
X94394416Y-112303324D01*
X94390208Y-112300745D01*
X94390202Y-112300741D01*
X94196183Y-112181846D01*
X94191963Y-112179260D01*
X94187393Y-112177367D01*
X94187389Y-112177365D01*
X93977167Y-112090289D01*
X93977165Y-112090288D01*
X93972594Y-112088395D01*
X93892391Y-112069140D01*
X93746524Y-112034120D01*
X93746518Y-112034119D01*
X93741711Y-112032965D01*
X93505000Y-112014335D01*
X93268289Y-112032965D01*
X93263482Y-112034119D01*
X93263476Y-112034120D01*
X93117609Y-112069140D01*
X93037406Y-112088395D01*
X93032835Y-112090288D01*
X93032833Y-112090289D01*
X92822611Y-112177365D01*
X92822607Y-112177367D01*
X92818037Y-112179260D01*
X92813817Y-112181846D01*
X92619798Y-112300741D01*
X92619792Y-112300745D01*
X92615584Y-112303324D01*
X92435031Y-112457531D01*
X92431823Y-112461287D01*
X92431818Y-112461292D01*
X92330811Y-112579556D01*
X92271361Y-112618366D01*
X92200366Y-112618872D01*
X92139189Y-112579556D01*
X92038182Y-112461292D01*
X92038177Y-112461287D01*
X92034969Y-112457531D01*
X91854416Y-112303324D01*
X91850208Y-112300745D01*
X91850202Y-112300741D01*
X91656183Y-112181846D01*
X91651963Y-112179260D01*
X91647393Y-112177367D01*
X91647389Y-112177365D01*
X91437167Y-112090289D01*
X91437165Y-112090288D01*
X91432594Y-112088395D01*
X91352391Y-112069140D01*
X91206524Y-112034120D01*
X91206518Y-112034119D01*
X91201711Y-112032965D01*
X90965000Y-112014335D01*
X90728289Y-112032965D01*
X90723482Y-112034119D01*
X90723476Y-112034120D01*
X90577609Y-112069140D01*
X90497406Y-112088395D01*
X90492835Y-112090288D01*
X90492833Y-112090289D01*
X90282611Y-112177365D01*
X90282607Y-112177367D01*
X90278037Y-112179260D01*
X90273817Y-112181846D01*
X90079798Y-112300741D01*
X90079792Y-112300745D01*
X90075584Y-112303324D01*
X89895031Y-112457531D01*
X89891823Y-112461287D01*
X89891818Y-112461292D01*
X89790811Y-112579556D01*
X89731361Y-112618366D01*
X89660366Y-112618872D01*
X89599189Y-112579556D01*
X89498182Y-112461292D01*
X89498177Y-112461287D01*
X89494969Y-112457531D01*
X89314416Y-112303324D01*
X89310208Y-112300745D01*
X89310202Y-112300741D01*
X89116183Y-112181846D01*
X89111963Y-112179260D01*
X89107393Y-112177367D01*
X89107389Y-112177365D01*
X88897167Y-112090289D01*
X88897165Y-112090288D01*
X88892594Y-112088395D01*
X88812391Y-112069140D01*
X88666524Y-112034120D01*
X88666518Y-112034119D01*
X88661711Y-112032965D01*
X88425000Y-112014335D01*
X88188289Y-112032965D01*
X88183482Y-112034119D01*
X88183476Y-112034120D01*
X88037609Y-112069140D01*
X87957406Y-112088395D01*
X87952835Y-112090288D01*
X87952833Y-112090289D01*
X87742611Y-112177365D01*
X87742607Y-112177367D01*
X87738037Y-112179260D01*
X87733817Y-112181846D01*
X87539798Y-112300741D01*
X87539792Y-112300745D01*
X87535584Y-112303324D01*
X87355031Y-112457531D01*
X87351823Y-112461287D01*
X87351818Y-112461292D01*
X87250811Y-112579556D01*
X87191361Y-112618366D01*
X87120366Y-112618872D01*
X87059189Y-112579556D01*
X86958182Y-112461292D01*
X86958177Y-112461287D01*
X86954969Y-112457531D01*
X86774416Y-112303324D01*
X86770208Y-112300745D01*
X86770202Y-112300741D01*
X86576183Y-112181846D01*
X86571963Y-112179260D01*
X86567393Y-112177367D01*
X86567389Y-112177365D01*
X86357167Y-112090289D01*
X86357165Y-112090288D01*
X86352594Y-112088395D01*
X86272391Y-112069140D01*
X86126524Y-112034120D01*
X86126518Y-112034119D01*
X86121711Y-112032965D01*
X85885000Y-112014335D01*
X85648289Y-112032965D01*
X85643482Y-112034119D01*
X85643476Y-112034120D01*
X85497609Y-112069140D01*
X85417406Y-112088395D01*
X85412835Y-112090288D01*
X85412833Y-112090289D01*
X85202611Y-112177365D01*
X85202607Y-112177367D01*
X85198037Y-112179260D01*
X85193817Y-112181846D01*
X84999798Y-112300741D01*
X84999792Y-112300745D01*
X84995584Y-112303324D01*
X84815031Y-112457531D01*
X84811823Y-112461287D01*
X84811818Y-112461292D01*
X84710811Y-112579556D01*
X84651361Y-112618366D01*
X84580366Y-112618872D01*
X84519189Y-112579556D01*
X84418182Y-112461292D01*
X84418177Y-112461287D01*
X84414969Y-112457531D01*
X84234416Y-112303324D01*
X84230208Y-112300745D01*
X84230202Y-112300741D01*
X84036183Y-112181846D01*
X84031963Y-112179260D01*
X84027393Y-112177367D01*
X84027389Y-112177365D01*
X83817167Y-112090289D01*
X83817165Y-112090288D01*
X83812594Y-112088395D01*
X83732391Y-112069140D01*
X83586524Y-112034120D01*
X83586518Y-112034119D01*
X83581711Y-112032965D01*
X83345000Y-112014335D01*
X83108289Y-112032965D01*
X83103482Y-112034119D01*
X83103476Y-112034120D01*
X82957609Y-112069140D01*
X82877406Y-112088395D01*
X82872835Y-112090288D01*
X82872833Y-112090289D01*
X82662611Y-112177365D01*
X82662607Y-112177367D01*
X82658037Y-112179260D01*
X82653817Y-112181846D01*
X82459798Y-112300741D01*
X82459792Y-112300745D01*
X82455584Y-112303324D01*
X82275031Y-112457531D01*
X82271823Y-112461287D01*
X82271818Y-112461292D01*
X82170811Y-112579556D01*
X82111361Y-112618366D01*
X82040366Y-112618872D01*
X81979189Y-112579556D01*
X81878182Y-112461292D01*
X81878177Y-112461287D01*
X81874969Y-112457531D01*
X81694416Y-112303324D01*
X81690208Y-112300745D01*
X81690202Y-112300741D01*
X81496183Y-112181846D01*
X81491963Y-112179260D01*
X81487393Y-112177367D01*
X81487389Y-112177365D01*
X81277167Y-112090289D01*
X81277165Y-112090288D01*
X81272594Y-112088395D01*
X81192391Y-112069140D01*
X81046524Y-112034120D01*
X81046518Y-112034119D01*
X81041711Y-112032965D01*
X80805000Y-112014335D01*
X80568289Y-112032965D01*
X80563482Y-112034119D01*
X80563476Y-112034120D01*
X80417609Y-112069140D01*
X80337406Y-112088395D01*
X80332835Y-112090288D01*
X80332833Y-112090289D01*
X80122611Y-112177365D01*
X80122607Y-112177367D01*
X80118037Y-112179260D01*
X80113817Y-112181846D01*
X79919798Y-112300741D01*
X79919792Y-112300745D01*
X79915584Y-112303324D01*
X79735031Y-112457531D01*
X79731823Y-112461287D01*
X79731818Y-112461292D01*
X79630811Y-112579556D01*
X79571361Y-112618366D01*
X79500366Y-112618872D01*
X79439189Y-112579556D01*
X79338182Y-112461292D01*
X79338177Y-112461287D01*
X79334969Y-112457531D01*
X79154416Y-112303324D01*
X79150208Y-112300745D01*
X79150202Y-112300741D01*
X78956183Y-112181846D01*
X78951963Y-112179260D01*
X78947393Y-112177367D01*
X78947389Y-112177365D01*
X78737167Y-112090289D01*
X78737165Y-112090288D01*
X78732594Y-112088395D01*
X78652391Y-112069140D01*
X78506524Y-112034120D01*
X78506518Y-112034119D01*
X78501711Y-112032965D01*
X78265000Y-112014335D01*
X78028289Y-112032965D01*
X78023482Y-112034119D01*
X78023476Y-112034120D01*
X77877609Y-112069140D01*
X77797406Y-112088395D01*
X77792835Y-112090288D01*
X77792833Y-112090289D01*
X77582611Y-112177365D01*
X77582607Y-112177367D01*
X77578037Y-112179260D01*
X77573817Y-112181846D01*
X77379798Y-112300741D01*
X77379792Y-112300745D01*
X77375584Y-112303324D01*
X77195031Y-112457531D01*
X77191823Y-112461287D01*
X77191818Y-112461292D01*
X77090811Y-112579556D01*
X77031361Y-112618366D01*
X76960366Y-112618872D01*
X76899189Y-112579556D01*
X76798182Y-112461292D01*
X76798177Y-112461287D01*
X76794969Y-112457531D01*
X76614416Y-112303324D01*
X76610208Y-112300745D01*
X76610202Y-112300741D01*
X76416183Y-112181846D01*
X76411963Y-112179260D01*
X76407393Y-112177367D01*
X76407389Y-112177365D01*
X76197167Y-112090289D01*
X76197165Y-112090288D01*
X76192594Y-112088395D01*
X76112391Y-112069140D01*
X75966524Y-112034120D01*
X75966518Y-112034119D01*
X75961711Y-112032965D01*
X75725000Y-112014335D01*
X75488289Y-112032965D01*
X75483482Y-112034119D01*
X75483476Y-112034120D01*
X75337609Y-112069140D01*
X75257406Y-112088395D01*
X75252835Y-112090288D01*
X75252833Y-112090289D01*
X75042611Y-112177365D01*
X75042607Y-112177367D01*
X75038037Y-112179260D01*
X75033817Y-112181846D01*
X74839798Y-112300741D01*
X74839792Y-112300745D01*
X74835584Y-112303324D01*
X74655031Y-112457531D01*
X74651823Y-112461287D01*
X74651818Y-112461292D01*
X74550811Y-112579556D01*
X74491361Y-112618366D01*
X74420366Y-112618872D01*
X74359189Y-112579556D01*
X74258182Y-112461292D01*
X74258177Y-112461287D01*
X74254969Y-112457531D01*
X74074416Y-112303324D01*
X74070208Y-112300745D01*
X74070202Y-112300741D01*
X73876183Y-112181846D01*
X73871963Y-112179260D01*
X73867393Y-112177367D01*
X73867389Y-112177365D01*
X73657167Y-112090289D01*
X73657165Y-112090288D01*
X73652594Y-112088395D01*
X73572391Y-112069140D01*
X73426524Y-112034120D01*
X73426518Y-112034119D01*
X73421711Y-112032965D01*
X73185000Y-112014335D01*
X72948289Y-112032965D01*
X72943482Y-112034119D01*
X72943476Y-112034120D01*
X72797609Y-112069140D01*
X72717406Y-112088395D01*
X72712835Y-112090288D01*
X72712833Y-112090289D01*
X72502611Y-112177365D01*
X72502607Y-112177367D01*
X72498037Y-112179260D01*
X72493817Y-112181846D01*
X72299798Y-112300741D01*
X72299792Y-112300745D01*
X72295584Y-112303324D01*
X72115031Y-112457531D01*
X72111823Y-112461287D01*
X72111818Y-112461292D01*
X72010811Y-112579556D01*
X71951361Y-112618366D01*
X71880366Y-112618872D01*
X71819189Y-112579556D01*
X71718182Y-112461292D01*
X71718177Y-112461287D01*
X71714969Y-112457531D01*
X71534416Y-112303324D01*
X71530208Y-112300745D01*
X71530202Y-112300741D01*
X71336183Y-112181846D01*
X71331963Y-112179260D01*
X71327393Y-112177367D01*
X71327389Y-112177365D01*
X71117167Y-112090289D01*
X71117165Y-112090288D01*
X71112594Y-112088395D01*
X71032391Y-112069140D01*
X70886524Y-112034120D01*
X70886518Y-112034119D01*
X70881711Y-112032965D01*
X70645000Y-112014335D01*
X70408289Y-112032965D01*
X70403482Y-112034119D01*
X70403476Y-112034120D01*
X70257609Y-112069140D01*
X70177406Y-112088395D01*
X70172835Y-112090288D01*
X70172833Y-112090289D01*
X69962611Y-112177365D01*
X69962607Y-112177367D01*
X69958037Y-112179260D01*
X69953817Y-112181846D01*
X69759798Y-112300741D01*
X69759792Y-112300745D01*
X69755584Y-112303324D01*
X69575031Y-112457531D01*
X69571823Y-112461287D01*
X69571818Y-112461292D01*
X69470811Y-112579556D01*
X69411361Y-112618366D01*
X69340366Y-112618872D01*
X69279189Y-112579556D01*
X69178182Y-112461292D01*
X69178177Y-112461287D01*
X69174969Y-112457531D01*
X68994416Y-112303324D01*
X68990208Y-112300745D01*
X68990202Y-112300741D01*
X68796183Y-112181846D01*
X68791963Y-112179260D01*
X68787393Y-112177367D01*
X68787389Y-112177365D01*
X68577167Y-112090289D01*
X68577165Y-112090288D01*
X68572594Y-112088395D01*
X68492391Y-112069140D01*
X68346524Y-112034120D01*
X68346518Y-112034119D01*
X68341711Y-112032965D01*
X68105000Y-112014335D01*
X67868289Y-112032965D01*
X67863482Y-112034119D01*
X67863476Y-112034120D01*
X67717609Y-112069140D01*
X67637406Y-112088395D01*
X67632835Y-112090288D01*
X67632833Y-112090289D01*
X67422611Y-112177365D01*
X67422607Y-112177367D01*
X67418037Y-112179260D01*
X67413817Y-112181846D01*
X67219798Y-112300741D01*
X67219792Y-112300745D01*
X67215584Y-112303324D01*
X67035031Y-112457531D01*
X67031823Y-112461287D01*
X67031818Y-112461292D01*
X66930811Y-112579556D01*
X66871361Y-112618366D01*
X66800366Y-112618872D01*
X66739189Y-112579556D01*
X66638182Y-112461292D01*
X66638177Y-112461287D01*
X66634969Y-112457531D01*
X66454416Y-112303324D01*
X66450208Y-112300745D01*
X66450202Y-112300741D01*
X66256183Y-112181846D01*
X66251963Y-112179260D01*
X66247393Y-112177367D01*
X66247389Y-112177365D01*
X66037167Y-112090289D01*
X66037165Y-112090288D01*
X66032594Y-112088395D01*
X65952391Y-112069140D01*
X65806524Y-112034120D01*
X65806518Y-112034119D01*
X65801711Y-112032965D01*
X65565000Y-112014335D01*
X65328289Y-112032965D01*
X65323482Y-112034119D01*
X65323476Y-112034120D01*
X65177609Y-112069140D01*
X65097406Y-112088395D01*
X65092835Y-112090288D01*
X65092833Y-112090289D01*
X64882611Y-112177365D01*
X64882607Y-112177367D01*
X64878037Y-112179260D01*
X64873817Y-112181846D01*
X64679798Y-112300741D01*
X64679792Y-112300745D01*
X64675584Y-112303324D01*
X64495031Y-112457531D01*
X64491823Y-112461287D01*
X64491818Y-112461292D01*
X64361294Y-112614116D01*
X64301844Y-112652926D01*
X64267442Y-112655140D01*
X64248333Y-112663377D01*
X63397022Y-113514688D01*
X63389408Y-113528632D01*
X62664658Y-113528632D01*
X63886080Y-112307210D01*
X63892840Y-112294830D01*
X63887113Y-112287180D01*
X63715958Y-112182295D01*
X63707163Y-112177813D01*
X63497012Y-112090766D01*
X63487627Y-112087717D01*
X63266446Y-112034615D01*
X63256699Y-112033072D01*
X63029930Y-112015225D01*
X63020070Y-112015225D01*
X62793301Y-112033072D01*
X62783554Y-112034615D01*
X62562373Y-112087717D01*
X62552988Y-112090766D01*
X62342837Y-112177813D01*
X62334052Y-112182290D01*
X62185335Y-112273424D01*
X62116802Y-112291962D01*
X62049125Y-112270506D01*
X62003792Y-112215867D01*
X61993500Y-112165991D01*
X61993500Y-111192031D01*
X62013502Y-111123910D01*
X62030405Y-111102936D01*
X62587936Y-110545405D01*
X62650248Y-110511379D01*
X62677031Y-110508500D01*
X102322969Y-110508500D01*
X102391090Y-110528502D01*
X102412064Y-110545405D01*
X109554595Y-117687936D01*
X109588621Y-117750248D01*
X109591500Y-117777031D01*
X109591500Y-129485771D01*
X109591112Y-129495657D01*
X109586835Y-129550000D01*
X109587223Y-129554930D01*
X109591377Y-129607710D01*
X109591500Y-129609787D01*
X109591500Y-129611001D01*
X109591702Y-129613509D01*
X109591702Y-129613514D01*
X109595402Y-129659494D01*
X109597737Y-129688517D01*
X109605465Y-129786711D01*
X109605724Y-129787790D01*
X109606060Y-129791965D01*
X109635589Y-129912185D01*
X109660895Y-130017594D01*
X109661922Y-130020074D01*
X109662341Y-130021543D01*
X109662756Y-130022791D01*
X109663963Y-130027706D01*
X109710128Y-130136464D01*
X109710471Y-130137280D01*
X109751760Y-130236963D01*
X109754134Y-130240837D01*
X109756266Y-130245408D01*
X109756831Y-130246488D01*
X109758812Y-130251156D01*
X109819655Y-130347773D01*
X109820391Y-130348958D01*
X109875824Y-130439416D01*
X109879042Y-130443184D01*
X109881822Y-130447010D01*
X109884650Y-130451187D01*
X109885467Y-130452279D01*
X109888167Y-130456567D01*
X109891512Y-130460361D01*
X109961350Y-130539578D01*
X109962646Y-130541072D01*
X109981091Y-130562668D01*
X110030031Y-130619969D01*
X110033788Y-130623178D01*
X110037293Y-130626683D01*
X110037212Y-130626764D01*
X110044802Y-130634236D01*
X110048698Y-130638655D01*
X110052612Y-130641870D01*
X110052613Y-130641871D01*
X110131672Y-130706811D01*
X110133526Y-130708363D01*
X110210584Y-130774176D01*
X110215379Y-130777114D01*
X110229514Y-130787179D01*
X110232364Y-130789520D01*
X110232372Y-130789525D01*
X110236278Y-130792734D01*
X110240646Y-130795276D01*
X110326437Y-130845208D01*
X110328832Y-130846639D01*
X110413037Y-130898240D01*
X110417606Y-130900132D01*
X110417607Y-130900133D01*
X110420874Y-130901486D01*
X110436033Y-130908994D01*
X110446078Y-130914841D01*
X110540601Y-130951125D01*
X110543648Y-130952341D01*
X110632406Y-130989105D01*
X110637220Y-130990261D01*
X110637221Y-130990261D01*
X110643432Y-130991752D01*
X110659174Y-130996640D01*
X110672702Y-131001833D01*
X110677653Y-131002867D01*
X110677652Y-131002867D01*
X110768829Y-131021915D01*
X110772476Y-131022733D01*
X110856416Y-131042885D01*
X110863289Y-131044535D01*
X110876801Y-131045599D01*
X110877440Y-131045649D01*
X110893315Y-131047922D01*
X110905368Y-131050440D01*
X110905374Y-131050441D01*
X110910320Y-131051474D01*
X110915370Y-131051703D01*
X110915375Y-131051704D01*
X110971193Y-131054238D01*
X111005471Y-131055795D01*
X111009608Y-131056051D01*
X111100000Y-131063165D01*
X111104931Y-131062777D01*
X111104935Y-131062777D01*
X111117012Y-131061827D01*
X111132604Y-131061569D01*
X111147759Y-131062257D01*
X111147766Y-131062257D01*
X111152817Y-131062486D01*
X111157837Y-131061905D01*
X111157843Y-131061905D01*
X111244504Y-131051878D01*
X111249098Y-131051431D01*
X111331786Y-131044923D01*
X111331791Y-131044922D01*
X111336711Y-131044535D01*
X111356071Y-131039887D01*
X111371002Y-131037241D01*
X111388937Y-131035166D01*
X111388940Y-131035165D01*
X111393956Y-131034585D01*
X111439694Y-131021643D01*
X111479975Y-131010245D01*
X111484866Y-131008967D01*
X111514579Y-131001833D01*
X111567594Y-130989105D01*
X111588634Y-130980390D01*
X111602532Y-130975564D01*
X111605468Y-130974733D01*
X111627532Y-130968490D01*
X111632113Y-130966354D01*
X111632118Y-130966352D01*
X111705887Y-130931953D01*
X111710918Y-130929739D01*
X111782391Y-130900134D01*
X111782393Y-130900133D01*
X111786963Y-130898240D01*
X111808802Y-130884857D01*
X111821384Y-130878096D01*
X111842953Y-130868038D01*
X111842952Y-130868038D01*
X111847536Y-130865901D01*
X111851717Y-130863059D01*
X111851725Y-130863055D01*
X111916653Y-130818930D01*
X111921639Y-130815710D01*
X111975555Y-130782670D01*
X133032160Y-130782670D01*
X133037887Y-130790320D01*
X133209042Y-130895205D01*
X133217837Y-130899687D01*
X133427988Y-130986734D01*
X133437373Y-130989783D01*
X133658554Y-131042885D01*
X133668301Y-131044428D01*
X133895070Y-131062275D01*
X133904930Y-131062275D01*
X134131699Y-131044428D01*
X134141446Y-131042885D01*
X134362627Y-130989783D01*
X134372012Y-130986734D01*
X134582163Y-130899687D01*
X134590958Y-130895205D01*
X134758445Y-130792568D01*
X134767907Y-130782110D01*
X134764124Y-130773334D01*
X133912812Y-129922022D01*
X133898868Y-129914408D01*
X133897035Y-129914539D01*
X133890420Y-129918790D01*
X133038920Y-130770290D01*
X133032160Y-130782670D01*
X111975555Y-130782670D01*
X111989416Y-130774176D01*
X112011071Y-130755681D01*
X112022076Y-130747283D01*
X112044121Y-130732301D01*
X112044122Y-130732300D01*
X112048307Y-130729456D01*
X112106893Y-130674054D01*
X112111636Y-130669791D01*
X112166207Y-130623183D01*
X112166214Y-130623176D01*
X112169969Y-130619969D01*
X112190317Y-130596145D01*
X112199539Y-130586444D01*
X112224681Y-130562668D01*
X112271900Y-130500908D01*
X112276185Y-130495606D01*
X112306287Y-130460361D01*
X112324176Y-130439416D01*
X112326758Y-130435202D01*
X112326762Y-130435197D01*
X112342031Y-130410280D01*
X112349368Y-130399584D01*
X112369050Y-130373842D01*
X112369053Y-130373838D01*
X112372120Y-130369826D01*
X112383996Y-130347678D01*
X112407496Y-130303849D01*
X112411109Y-130297554D01*
X112414371Y-130292232D01*
X112448240Y-130236963D01*
X112462413Y-130202747D01*
X112467763Y-130191453D01*
X112486831Y-130155891D01*
X112510272Y-130087812D01*
X112512979Y-130080667D01*
X112539105Y-130017594D01*
X112548415Y-129978818D01*
X112551792Y-129967233D01*
X112564214Y-129931158D01*
X112564217Y-129931147D01*
X112565862Y-129926369D01*
X112577626Y-129858261D01*
X112579262Y-129850327D01*
X112593380Y-129791524D01*
X112593381Y-129791518D01*
X112594535Y-129786711D01*
X112597887Y-129744116D01*
X112599338Y-129732557D01*
X112606504Y-129691071D01*
X112607179Y-129687164D01*
X112608500Y-129658075D01*
X112608500Y-129614229D01*
X112608888Y-129604343D01*
X112612777Y-129554930D01*
X132387725Y-129554930D01*
X132405572Y-129781699D01*
X132407115Y-129791446D01*
X132460217Y-130012627D01*
X132463266Y-130022012D01*
X132550313Y-130232163D01*
X132554795Y-130240958D01*
X132657432Y-130408445D01*
X132667890Y-130417907D01*
X132676666Y-130414124D01*
X133527978Y-129562812D01*
X133534356Y-129551132D01*
X134264408Y-129551132D01*
X134264539Y-129552965D01*
X134268790Y-129559580D01*
X135120290Y-130411080D01*
X135132670Y-130417840D01*
X135140320Y-130412113D01*
X135245205Y-130240958D01*
X135249687Y-130232163D01*
X135336734Y-130022012D01*
X135339783Y-130012627D01*
X135392885Y-129791446D01*
X135394428Y-129781699D01*
X135412275Y-129554930D01*
X135412275Y-129545070D01*
X135394428Y-129318301D01*
X135392885Y-129308554D01*
X135339783Y-129087373D01*
X135336734Y-129077988D01*
X135249687Y-128867837D01*
X135245205Y-128859042D01*
X135142568Y-128691555D01*
X135132110Y-128682093D01*
X135123334Y-128685876D01*
X134272022Y-129537188D01*
X134264408Y-129551132D01*
X133534356Y-129551132D01*
X133535592Y-129548868D01*
X133535461Y-129547035D01*
X133531210Y-129540420D01*
X132679710Y-128688920D01*
X132667330Y-128682160D01*
X132659680Y-128687887D01*
X132554795Y-128859042D01*
X132550313Y-128867837D01*
X132463266Y-129077988D01*
X132460217Y-129087373D01*
X132407115Y-129308554D01*
X132405572Y-129318301D01*
X132387725Y-129545070D01*
X132387725Y-129554930D01*
X112612777Y-129554930D01*
X112613165Y-129550000D01*
X112608888Y-129495657D01*
X112608500Y-129485771D01*
X112608500Y-128317890D01*
X133032093Y-128317890D01*
X133035876Y-128326666D01*
X133887188Y-129177978D01*
X133901132Y-129185592D01*
X133902965Y-129185461D01*
X133909580Y-129181210D01*
X134761080Y-128329710D01*
X134767840Y-128317330D01*
X134762113Y-128309680D01*
X134590958Y-128204795D01*
X134582163Y-128200313D01*
X134372012Y-128113266D01*
X134362627Y-128110217D01*
X134141446Y-128057115D01*
X134131699Y-128055572D01*
X133904930Y-128037725D01*
X133895070Y-128037725D01*
X133668301Y-128055572D01*
X133658554Y-128057115D01*
X133437373Y-128110217D01*
X133427988Y-128113266D01*
X133217837Y-128200313D01*
X133209042Y-128204795D01*
X133041555Y-128307432D01*
X133032093Y-128317890D01*
X112608500Y-128317890D01*
X112608500Y-117124016D01*
X112608549Y-117120498D01*
X112611193Y-117025850D01*
X112611193Y-117025847D01*
X112611334Y-117020795D01*
X112600941Y-116942902D01*
X112600241Y-116936353D01*
X112594346Y-116863077D01*
X112594345Y-116863073D01*
X112593940Y-116858035D01*
X112586101Y-116826122D01*
X112583573Y-116812738D01*
X112579898Y-116785194D01*
X112579229Y-116780180D01*
X112556522Y-116704971D01*
X112554781Y-116698608D01*
X112551786Y-116686413D01*
X112536037Y-116622294D01*
X112523199Y-116592048D01*
X112518561Y-116579237D01*
X112510530Y-116552638D01*
X112509067Y-116547792D01*
X112506849Y-116543244D01*
X112506846Y-116543237D01*
X112474629Y-116477182D01*
X112471893Y-116471180D01*
X112443162Y-116403495D01*
X112441188Y-116398844D01*
X112423681Y-116371044D01*
X112417052Y-116359134D01*
X112402654Y-116329612D01*
X112357357Y-116265400D01*
X112353699Y-116259914D01*
X112314529Y-116197714D01*
X112314528Y-116197713D01*
X112311833Y-116193433D01*
X112308492Y-116189644D01*
X112308488Y-116189638D01*
X112290102Y-116168783D01*
X112281656Y-116158088D01*
X112265009Y-116134490D01*
X112262726Y-116131253D01*
X112243091Y-116109750D01*
X112203375Y-116070034D01*
X112197956Y-116064264D01*
X112154650Y-116015142D01*
X112154647Y-116015139D01*
X112151302Y-116011345D01*
X112119011Y-115984821D01*
X112109892Y-115976551D01*
X108348436Y-112215095D01*
X108314410Y-112152783D01*
X108319475Y-112081968D01*
X108362022Y-112025132D01*
X108428542Y-112000321D01*
X108437531Y-112000000D01*
X139365500Y-112000000D01*
X139433621Y-112020002D01*
X139480114Y-112073658D01*
X139491500Y-112126000D01*
X139491500Y-138874000D01*
X139471498Y-138942121D01*
X139417842Y-138988614D01*
X139365500Y-139000000D01*
X129500000Y-139000000D01*
X129500000Y-149365500D01*
X129479998Y-149433621D01*
X129426342Y-149480114D01*
X129374000Y-149491500D01*
X61126000Y-149491500D01*
X61057879Y-149471498D01*
X61011386Y-149417842D01*
X61000000Y-149365500D01*
X61000000Y-144480424D01*
X61020002Y-144412303D01*
X61073658Y-144365810D01*
X61143932Y-144355706D01*
X61208512Y-144385200D01*
X61215095Y-144391329D01*
X61593145Y-144769379D01*
X61602247Y-144779522D01*
X61625968Y-144809025D01*
X61664456Y-144841320D01*
X61668075Y-144844478D01*
X61669890Y-144846124D01*
X61672075Y-144848309D01*
X61674455Y-144850264D01*
X61674465Y-144850273D01*
X61705236Y-144875549D01*
X61706251Y-144876391D01*
X61777474Y-144936154D01*
X61782148Y-144938723D01*
X61786261Y-144942102D01*
X61855011Y-144978965D01*
X61868047Y-144985955D01*
X61869177Y-144986568D01*
X61870213Y-144987137D01*
X61934753Y-145022618D01*
X61950787Y-145031433D01*
X61955869Y-145033045D01*
X61960563Y-145035562D01*
X62049531Y-145062762D01*
X62050559Y-145063082D01*
X62139306Y-145091235D01*
X62144602Y-145091829D01*
X62149698Y-145093387D01*
X62242257Y-145102790D01*
X62243393Y-145102911D01*
X62277008Y-145106681D01*
X62289730Y-145108108D01*
X62289734Y-145108108D01*
X62293227Y-145108500D01*
X62296754Y-145108500D01*
X62297739Y-145108555D01*
X62303419Y-145109002D01*
X62332825Y-145111989D01*
X62340337Y-145112752D01*
X62340339Y-145112752D01*
X62346462Y-145113374D01*
X62392108Y-145109059D01*
X62403967Y-145108500D01*
X75128991Y-145108500D01*
X75197112Y-145128502D01*
X75243605Y-145182158D01*
X75245903Y-145187694D01*
X75246232Y-145188296D01*
X75249385Y-145196705D01*
X75336739Y-145313261D01*
X75453295Y-145400615D01*
X75589684Y-145451745D01*
X75651866Y-145458500D01*
X77448134Y-145458500D01*
X77510316Y-145451745D01*
X77646705Y-145400615D01*
X77763261Y-145313261D01*
X77850615Y-145196705D01*
X77872799Y-145137529D01*
X77894598Y-145079382D01*
X77937240Y-145022618D01*
X78003802Y-144997918D01*
X78073150Y-145013126D01*
X78107817Y-145041114D01*
X78136250Y-145073938D01*
X78308126Y-145216632D01*
X78501000Y-145329338D01*
X78709692Y-145409030D01*
X78714760Y-145410061D01*
X78714763Y-145410062D01*
X78809862Y-145429410D01*
X78928597Y-145453567D01*
X78933772Y-145453757D01*
X78933774Y-145453757D01*
X79146673Y-145461564D01*
X79146677Y-145461564D01*
X79151837Y-145461753D01*
X79156957Y-145461097D01*
X79156959Y-145461097D01*
X79368288Y-145434025D01*
X79368289Y-145434025D01*
X79373416Y-145433368D01*
X79378366Y-145431883D01*
X79582429Y-145370661D01*
X79582434Y-145370659D01*
X79587384Y-145369174D01*
X79787994Y-145270896D01*
X79969860Y-145141173D01*
X79982576Y-145128502D01*
X80078219Y-145033192D01*
X80128096Y-144983489D01*
X80157836Y-144942102D01*
X80258453Y-144802077D01*
X80259776Y-144803028D01*
X80306645Y-144759857D01*
X80376580Y-144747625D01*
X80442026Y-144775144D01*
X80469875Y-144806994D01*
X80529987Y-144905088D01*
X80676250Y-145073938D01*
X80848126Y-145216632D01*
X81041000Y-145329338D01*
X81249692Y-145409030D01*
X81254760Y-145410061D01*
X81254763Y-145410062D01*
X81349862Y-145429410D01*
X81468597Y-145453567D01*
X81473772Y-145453757D01*
X81473774Y-145453757D01*
X81686673Y-145461564D01*
X81686677Y-145461564D01*
X81691837Y-145461753D01*
X81696957Y-145461097D01*
X81696959Y-145461097D01*
X81908288Y-145434025D01*
X81908289Y-145434025D01*
X81913416Y-145433368D01*
X81918366Y-145431883D01*
X82122429Y-145370661D01*
X82122434Y-145370659D01*
X82127384Y-145369174D01*
X82327994Y-145270896D01*
X82509860Y-145141173D01*
X82522576Y-145128502D01*
X82618219Y-145033192D01*
X82668096Y-144983489D01*
X82697836Y-144942102D01*
X82798453Y-144802077D01*
X82799776Y-144803028D01*
X82846645Y-144759857D01*
X82916580Y-144747625D01*
X82982026Y-144775144D01*
X83009875Y-144806994D01*
X83069987Y-144905088D01*
X83216250Y-145073938D01*
X83388126Y-145216632D01*
X83581000Y-145329338D01*
X83789692Y-145409030D01*
X83794760Y-145410061D01*
X83794763Y-145410062D01*
X83889862Y-145429410D01*
X84008597Y-145453567D01*
X84013772Y-145453757D01*
X84013774Y-145453757D01*
X84226673Y-145461564D01*
X84226677Y-145461564D01*
X84231837Y-145461753D01*
X84236957Y-145461097D01*
X84236959Y-145461097D01*
X84448288Y-145434025D01*
X84448289Y-145434025D01*
X84453416Y-145433368D01*
X84458366Y-145431883D01*
X84662429Y-145370661D01*
X84662434Y-145370659D01*
X84667384Y-145369174D01*
X84867994Y-145270896D01*
X85049860Y-145141173D01*
X85062576Y-145128502D01*
X85158219Y-145033192D01*
X85208096Y-144983489D01*
X85237836Y-144942102D01*
X85338453Y-144802077D01*
X85339776Y-144803028D01*
X85386645Y-144759857D01*
X85456580Y-144747625D01*
X85522026Y-144775144D01*
X85549875Y-144806994D01*
X85609987Y-144905088D01*
X85756250Y-145073938D01*
X85928126Y-145216632D01*
X86121000Y-145329338D01*
X86329692Y-145409030D01*
X86334760Y-145410061D01*
X86334763Y-145410062D01*
X86429862Y-145429410D01*
X86548597Y-145453567D01*
X86553772Y-145453757D01*
X86553774Y-145453757D01*
X86766673Y-145461564D01*
X86766677Y-145461564D01*
X86771837Y-145461753D01*
X86776957Y-145461097D01*
X86776959Y-145461097D01*
X86988288Y-145434025D01*
X86988289Y-145434025D01*
X86993416Y-145433368D01*
X86998366Y-145431883D01*
X87202429Y-145370661D01*
X87202434Y-145370659D01*
X87207384Y-145369174D01*
X87407994Y-145270896D01*
X87589860Y-145141173D01*
X87602576Y-145128502D01*
X87698219Y-145033192D01*
X87748096Y-144983489D01*
X87777836Y-144942102D01*
X87878453Y-144802077D01*
X87879640Y-144802930D01*
X87926960Y-144759362D01*
X87996897Y-144747145D01*
X88062338Y-144774678D01*
X88090166Y-144806511D01*
X88147694Y-144900388D01*
X88153777Y-144908699D01*
X88293213Y-145069667D01*
X88300580Y-145076883D01*
X88464434Y-145212916D01*
X88472881Y-145218831D01*
X88656756Y-145326279D01*
X88666042Y-145330729D01*
X88865001Y-145406703D01*
X88874899Y-145409579D01*
X88978250Y-145430606D01*
X88992299Y-145429410D01*
X88996000Y-145419065D01*
X88996000Y-145418517D01*
X89504000Y-145418517D01*
X89508064Y-145432359D01*
X89521478Y-145434393D01*
X89528184Y-145433534D01*
X89538262Y-145431392D01*
X89742255Y-145370191D01*
X89751842Y-145366433D01*
X89943095Y-145272739D01*
X89951945Y-145267464D01*
X90125328Y-145143792D01*
X90133200Y-145137139D01*
X90284052Y-144986812D01*
X90290730Y-144978965D01*
X90415003Y-144806020D01*
X90420313Y-144797183D01*
X90514670Y-144606267D01*
X90518469Y-144596672D01*
X90580377Y-144392910D01*
X90582555Y-144382837D01*
X90583986Y-144371962D01*
X90581775Y-144357778D01*
X90568617Y-144354000D01*
X89522115Y-144354000D01*
X89506876Y-144358475D01*
X89505671Y-144359865D01*
X89504000Y-144367548D01*
X89504000Y-145418517D01*
X88996000Y-145418517D01*
X88996000Y-143827885D01*
X89504000Y-143827885D01*
X89508475Y-143843124D01*
X89509865Y-143844329D01*
X89517548Y-143846000D01*
X90568344Y-143846000D01*
X90581875Y-143842027D01*
X90583180Y-143832947D01*
X90541214Y-143665875D01*
X90537894Y-143656124D01*
X90452972Y-143460814D01*
X90448105Y-143451739D01*
X90332426Y-143272926D01*
X90326136Y-143264757D01*
X90182806Y-143107240D01*
X90175273Y-143100215D01*
X90008139Y-142968222D01*
X89999552Y-142962517D01*
X89813117Y-142859599D01*
X89803705Y-142855369D01*
X89602959Y-142784280D01*
X89592988Y-142781646D01*
X89521837Y-142768972D01*
X89508540Y-142770432D01*
X89504000Y-142784989D01*
X89504000Y-143827885D01*
X88996000Y-143827885D01*
X88996000Y-142783102D01*
X88992082Y-142769758D01*
X88977806Y-142767771D01*
X88939324Y-142773660D01*
X88929288Y-142776051D01*
X88726868Y-142842212D01*
X88717359Y-142846209D01*
X88528463Y-142944542D01*
X88519738Y-142950036D01*
X88349433Y-143077905D01*
X88341726Y-143084748D01*
X88194590Y-143238717D01*
X88188109Y-143246722D01*
X88083498Y-143400074D01*
X88028587Y-143445076D01*
X87958062Y-143453247D01*
X87894315Y-143421993D01*
X87873618Y-143397509D01*
X87792822Y-143272617D01*
X87792820Y-143272614D01*
X87790014Y-143268277D01*
X87639670Y-143103051D01*
X87635619Y-143099852D01*
X87635615Y-143099848D01*
X87468414Y-142967800D01*
X87468410Y-142967798D01*
X87464359Y-142964598D01*
X87436216Y-142949062D01*
X87368516Y-142911690D01*
X87268789Y-142856638D01*
X87263920Y-142854914D01*
X87263916Y-142854912D01*
X87063087Y-142783795D01*
X87063083Y-142783794D01*
X87058212Y-142782069D01*
X87053119Y-142781162D01*
X87053116Y-142781161D01*
X86843373Y-142743800D01*
X86843367Y-142743799D01*
X86838284Y-142742894D01*
X86764452Y-142741992D01*
X86620081Y-142740228D01*
X86620079Y-142740228D01*
X86614911Y-142740165D01*
X86394091Y-142773955D01*
X86181756Y-142843357D01*
X85983607Y-142946507D01*
X85979474Y-142949610D01*
X85979471Y-142949612D01*
X85886289Y-143019575D01*
X85804965Y-143080635D01*
X85801393Y-143084373D01*
X85693729Y-143197037D01*
X85650629Y-143242138D01*
X85543201Y-143399621D01*
X85488293Y-143444621D01*
X85417768Y-143452792D01*
X85354021Y-143421538D01*
X85333324Y-143397054D01*
X85252822Y-143272617D01*
X85252820Y-143272614D01*
X85250014Y-143268277D01*
X85099670Y-143103051D01*
X85095619Y-143099852D01*
X85095615Y-143099848D01*
X84928414Y-142967800D01*
X84928410Y-142967798D01*
X84924359Y-142964598D01*
X84896216Y-142949062D01*
X84828516Y-142911690D01*
X84728789Y-142856638D01*
X84723920Y-142854914D01*
X84723916Y-142854912D01*
X84523087Y-142783795D01*
X84523083Y-142783794D01*
X84518212Y-142782069D01*
X84513119Y-142781162D01*
X84513116Y-142781161D01*
X84303373Y-142743800D01*
X84303367Y-142743799D01*
X84298284Y-142742894D01*
X84224452Y-142741992D01*
X84080081Y-142740228D01*
X84080079Y-142740228D01*
X84074911Y-142740165D01*
X83854091Y-142773955D01*
X83641756Y-142843357D01*
X83443607Y-142946507D01*
X83439474Y-142949610D01*
X83439471Y-142949612D01*
X83346289Y-143019575D01*
X83264965Y-143080635D01*
X83261393Y-143084373D01*
X83153729Y-143197037D01*
X83110629Y-143242138D01*
X83003201Y-143399621D01*
X82948293Y-143444621D01*
X82877768Y-143452792D01*
X82814021Y-143421538D01*
X82793324Y-143397054D01*
X82712822Y-143272617D01*
X82712820Y-143272614D01*
X82710014Y-143268277D01*
X82559670Y-143103051D01*
X82555619Y-143099852D01*
X82555615Y-143099848D01*
X82388414Y-142967800D01*
X82388410Y-142967798D01*
X82384359Y-142964598D01*
X82356216Y-142949062D01*
X82288516Y-142911690D01*
X82188789Y-142856638D01*
X82183920Y-142854914D01*
X82183916Y-142854912D01*
X81983087Y-142783795D01*
X81983083Y-142783794D01*
X81978212Y-142782069D01*
X81973119Y-142781162D01*
X81973116Y-142781161D01*
X81763373Y-142743800D01*
X81763367Y-142743799D01*
X81758284Y-142742894D01*
X81684452Y-142741992D01*
X81540081Y-142740228D01*
X81540079Y-142740228D01*
X81534911Y-142740165D01*
X81314091Y-142773955D01*
X81101756Y-142843357D01*
X80903607Y-142946507D01*
X80899474Y-142949610D01*
X80899471Y-142949612D01*
X80806289Y-143019575D01*
X80724965Y-143080635D01*
X80721393Y-143084373D01*
X80613729Y-143197037D01*
X80570629Y-143242138D01*
X80463201Y-143399621D01*
X80408293Y-143444621D01*
X80337768Y-143452792D01*
X80274021Y-143421538D01*
X80253324Y-143397054D01*
X80172822Y-143272617D01*
X80172820Y-143272614D01*
X80170014Y-143268277D01*
X80019670Y-143103051D01*
X80015619Y-143099852D01*
X80015615Y-143099848D01*
X79848414Y-142967800D01*
X79848410Y-142967798D01*
X79844359Y-142964598D01*
X79816216Y-142949062D01*
X79748516Y-142911690D01*
X79648789Y-142856638D01*
X79643920Y-142854914D01*
X79643916Y-142854912D01*
X79443087Y-142783795D01*
X79443083Y-142783794D01*
X79438212Y-142782069D01*
X79433119Y-142781162D01*
X79433116Y-142781161D01*
X79223373Y-142743800D01*
X79223367Y-142743799D01*
X79218284Y-142742894D01*
X79144452Y-142741992D01*
X79000081Y-142740228D01*
X79000079Y-142740228D01*
X78994911Y-142740165D01*
X78774091Y-142773955D01*
X78561756Y-142843357D01*
X78363607Y-142946507D01*
X78359474Y-142949610D01*
X78359471Y-142949612D01*
X78266289Y-143019575D01*
X78184965Y-143080635D01*
X78128537Y-143139684D01*
X78104283Y-143165064D01*
X78042759Y-143200494D01*
X77971846Y-143197037D01*
X77914060Y-143155791D01*
X77895207Y-143122243D01*
X77853767Y-143011703D01*
X77850615Y-143003295D01*
X77763261Y-142886739D01*
X77646705Y-142799385D01*
X77510316Y-142748255D01*
X77448134Y-142741500D01*
X75651866Y-142741500D01*
X75589684Y-142748255D01*
X75453295Y-142799385D01*
X75336739Y-142886739D01*
X75249385Y-143003295D01*
X75246233Y-143011703D01*
X75241923Y-143019575D01*
X75240259Y-143018664D01*
X75204337Y-143066490D01*
X75137776Y-143091193D01*
X75128991Y-143091500D01*
X62819925Y-143091500D01*
X62751804Y-143071498D01*
X62730830Y-143054595D01*
X61530405Y-141854171D01*
X61496380Y-141791859D01*
X61493500Y-141765076D01*
X61493500Y-140551993D01*
X61513502Y-140483872D01*
X61567158Y-140437379D01*
X61588763Y-140429957D01*
X61595316Y-140429245D01*
X61602711Y-140426473D01*
X61602714Y-140426472D01*
X61723297Y-140381267D01*
X61731705Y-140378115D01*
X61848261Y-140290761D01*
X61872473Y-140258455D01*
X61930229Y-140181392D01*
X61930230Y-140181390D01*
X61935615Y-140174205D01*
X61935673Y-140174050D01*
X61982791Y-140127037D01*
X62052182Y-140112022D01*
X62118675Y-140136906D01*
X62124886Y-140141881D01*
X62132117Y-140148057D01*
X62140101Y-140153857D01*
X62334042Y-140272705D01*
X62342837Y-140277187D01*
X62552988Y-140364234D01*
X62562373Y-140367283D01*
X62783554Y-140420385D01*
X62793301Y-140421928D01*
X63020070Y-140439775D01*
X63029930Y-140439775D01*
X63256699Y-140421928D01*
X63266446Y-140420385D01*
X63487627Y-140367283D01*
X63497012Y-140364234D01*
X63707163Y-140277187D01*
X63715958Y-140272705D01*
X63883445Y-140170068D01*
X63892907Y-140159610D01*
X63889124Y-140150834D01*
X62754885Y-139016595D01*
X62720859Y-138954283D01*
X62722694Y-138928632D01*
X63389408Y-138928632D01*
X63389539Y-138930465D01*
X63393790Y-138937080D01*
X64245290Y-139788580D01*
X64262102Y-139797760D01*
X64325350Y-139811520D01*
X64360775Y-139840276D01*
X64456675Y-139952560D01*
X64495031Y-139997469D01*
X64675584Y-140151676D01*
X64679792Y-140154255D01*
X64679798Y-140154259D01*
X64778860Y-140214964D01*
X64878037Y-140275740D01*
X64882607Y-140277633D01*
X64882611Y-140277635D01*
X65092833Y-140364711D01*
X65097406Y-140366605D01*
X65145349Y-140378115D01*
X65323476Y-140420880D01*
X65323482Y-140420881D01*
X65328289Y-140422035D01*
X65565000Y-140440665D01*
X65801711Y-140422035D01*
X65806518Y-140420881D01*
X65806524Y-140420880D01*
X65984651Y-140378115D01*
X66032594Y-140366605D01*
X66037167Y-140364711D01*
X66247389Y-140277635D01*
X66247393Y-140277633D01*
X66251963Y-140275740D01*
X66351140Y-140214964D01*
X66450202Y-140154259D01*
X66450208Y-140154255D01*
X66454416Y-140151676D01*
X66634969Y-139997469D01*
X66638177Y-139993713D01*
X66638182Y-139993708D01*
X66739189Y-139875444D01*
X66798639Y-139836634D01*
X66869634Y-139836128D01*
X66930811Y-139875444D01*
X67031818Y-139993708D01*
X67031823Y-139993713D01*
X67035031Y-139997469D01*
X67215584Y-140151676D01*
X67219792Y-140154255D01*
X67219798Y-140154259D01*
X67318860Y-140214964D01*
X67418037Y-140275740D01*
X67422607Y-140277633D01*
X67422611Y-140277635D01*
X67632833Y-140364711D01*
X67637406Y-140366605D01*
X67685349Y-140378115D01*
X67863476Y-140420880D01*
X67863482Y-140420881D01*
X67868289Y-140422035D01*
X68105000Y-140440665D01*
X68341711Y-140422035D01*
X68346518Y-140420881D01*
X68346524Y-140420880D01*
X68524651Y-140378115D01*
X68572594Y-140366605D01*
X68577167Y-140364711D01*
X68787389Y-140277635D01*
X68787393Y-140277633D01*
X68791963Y-140275740D01*
X68891140Y-140214964D01*
X68990202Y-140154259D01*
X68990208Y-140154255D01*
X68994416Y-140151676D01*
X69174969Y-139997469D01*
X69178177Y-139993713D01*
X69178182Y-139993708D01*
X69279189Y-139875444D01*
X69338639Y-139836634D01*
X69409634Y-139836128D01*
X69470811Y-139875444D01*
X69571818Y-139993708D01*
X69571823Y-139993713D01*
X69575031Y-139997469D01*
X69755584Y-140151676D01*
X69759792Y-140154255D01*
X69759798Y-140154259D01*
X69858860Y-140214964D01*
X69958037Y-140275740D01*
X69962607Y-140277633D01*
X69962611Y-140277635D01*
X70172833Y-140364711D01*
X70177406Y-140366605D01*
X70225349Y-140378115D01*
X70403476Y-140420880D01*
X70403482Y-140420881D01*
X70408289Y-140422035D01*
X70645000Y-140440665D01*
X70881711Y-140422035D01*
X70886518Y-140420881D01*
X70886524Y-140420880D01*
X71064651Y-140378115D01*
X71112594Y-140366605D01*
X71117167Y-140364711D01*
X71327389Y-140277635D01*
X71327393Y-140277633D01*
X71331963Y-140275740D01*
X71431140Y-140214964D01*
X71530202Y-140154259D01*
X71530208Y-140154255D01*
X71534416Y-140151676D01*
X71714969Y-139997469D01*
X71718177Y-139993713D01*
X71718182Y-139993708D01*
X71819189Y-139875444D01*
X71878639Y-139836634D01*
X71949634Y-139836128D01*
X72010811Y-139875444D01*
X72111818Y-139993708D01*
X72111823Y-139993713D01*
X72115031Y-139997469D01*
X72295584Y-140151676D01*
X72299792Y-140154255D01*
X72299798Y-140154259D01*
X72398860Y-140214964D01*
X72498037Y-140275740D01*
X72502607Y-140277633D01*
X72502611Y-140277635D01*
X72712833Y-140364711D01*
X72717406Y-140366605D01*
X72765349Y-140378115D01*
X72943476Y-140420880D01*
X72943482Y-140420881D01*
X72948289Y-140422035D01*
X73185000Y-140440665D01*
X73421711Y-140422035D01*
X73426518Y-140420881D01*
X73426524Y-140420880D01*
X73604651Y-140378115D01*
X73652594Y-140366605D01*
X73657167Y-140364711D01*
X73867389Y-140277635D01*
X73867393Y-140277633D01*
X73871963Y-140275740D01*
X73971140Y-140214964D01*
X74070202Y-140154259D01*
X74070208Y-140154255D01*
X74074416Y-140151676D01*
X74254969Y-139997469D01*
X74258177Y-139993713D01*
X74258182Y-139993708D01*
X74359189Y-139875444D01*
X74418639Y-139836634D01*
X74489634Y-139836128D01*
X74550811Y-139875444D01*
X74651818Y-139993708D01*
X74651823Y-139993713D01*
X74655031Y-139997469D01*
X74835584Y-140151676D01*
X74839792Y-140154255D01*
X74839798Y-140154259D01*
X74938860Y-140214964D01*
X75038037Y-140275740D01*
X75042607Y-140277633D01*
X75042611Y-140277635D01*
X75252833Y-140364711D01*
X75257406Y-140366605D01*
X75305349Y-140378115D01*
X75483476Y-140420880D01*
X75483482Y-140420881D01*
X75488289Y-140422035D01*
X75725000Y-140440665D01*
X75961711Y-140422035D01*
X75966518Y-140420881D01*
X75966524Y-140420880D01*
X76144651Y-140378115D01*
X76192594Y-140366605D01*
X76197167Y-140364711D01*
X76407389Y-140277635D01*
X76407393Y-140277633D01*
X76411963Y-140275740D01*
X76511140Y-140214964D01*
X76610202Y-140154259D01*
X76610208Y-140154255D01*
X76614416Y-140151676D01*
X76794969Y-139997469D01*
X76798177Y-139993713D01*
X76798182Y-139993708D01*
X76899189Y-139875444D01*
X76958639Y-139836634D01*
X77029634Y-139836128D01*
X77090811Y-139875444D01*
X77191818Y-139993708D01*
X77191823Y-139993713D01*
X77195031Y-139997469D01*
X77375584Y-140151676D01*
X77379792Y-140154255D01*
X77379798Y-140154259D01*
X77478860Y-140214964D01*
X77578037Y-140275740D01*
X77582607Y-140277633D01*
X77582611Y-140277635D01*
X77792833Y-140364711D01*
X77797406Y-140366605D01*
X77845349Y-140378115D01*
X78023476Y-140420880D01*
X78023482Y-140420881D01*
X78028289Y-140422035D01*
X78265000Y-140440665D01*
X78501711Y-140422035D01*
X78506518Y-140420881D01*
X78506524Y-140420880D01*
X78684651Y-140378115D01*
X78732594Y-140366605D01*
X78737167Y-140364711D01*
X78947389Y-140277635D01*
X78947393Y-140277633D01*
X78951963Y-140275740D01*
X79051140Y-140214964D01*
X79150202Y-140154259D01*
X79150208Y-140154255D01*
X79154416Y-140151676D01*
X79334969Y-139997469D01*
X79338177Y-139993713D01*
X79338182Y-139993708D01*
X79439189Y-139875444D01*
X79498639Y-139836634D01*
X79569634Y-139836128D01*
X79630811Y-139875444D01*
X79731818Y-139993708D01*
X79731823Y-139993713D01*
X79735031Y-139997469D01*
X79915584Y-140151676D01*
X79919792Y-140154255D01*
X79919798Y-140154259D01*
X80018860Y-140214964D01*
X80118037Y-140275740D01*
X80122607Y-140277633D01*
X80122611Y-140277635D01*
X80332833Y-140364711D01*
X80337406Y-140366605D01*
X80385349Y-140378115D01*
X80563476Y-140420880D01*
X80563482Y-140420881D01*
X80568289Y-140422035D01*
X80805000Y-140440665D01*
X81041711Y-140422035D01*
X81046518Y-140420881D01*
X81046524Y-140420880D01*
X81224651Y-140378115D01*
X81272594Y-140366605D01*
X81277167Y-140364711D01*
X81487389Y-140277635D01*
X81487393Y-140277633D01*
X81491963Y-140275740D01*
X81591140Y-140214964D01*
X81690202Y-140154259D01*
X81690208Y-140154255D01*
X81694416Y-140151676D01*
X81874969Y-139997469D01*
X81878177Y-139993713D01*
X81878182Y-139993708D01*
X81979189Y-139875444D01*
X82038639Y-139836634D01*
X82109634Y-139836128D01*
X82170811Y-139875444D01*
X82271818Y-139993708D01*
X82271823Y-139993713D01*
X82275031Y-139997469D01*
X82455584Y-140151676D01*
X82459792Y-140154255D01*
X82459798Y-140154259D01*
X82558860Y-140214964D01*
X82658037Y-140275740D01*
X82662607Y-140277633D01*
X82662611Y-140277635D01*
X82872833Y-140364711D01*
X82877406Y-140366605D01*
X82925349Y-140378115D01*
X83103476Y-140420880D01*
X83103482Y-140420881D01*
X83108289Y-140422035D01*
X83345000Y-140440665D01*
X83581711Y-140422035D01*
X83586518Y-140420881D01*
X83586524Y-140420880D01*
X83764651Y-140378115D01*
X83812594Y-140366605D01*
X83817167Y-140364711D01*
X84027389Y-140277635D01*
X84027393Y-140277633D01*
X84031963Y-140275740D01*
X84131140Y-140214964D01*
X84230202Y-140154259D01*
X84230208Y-140154255D01*
X84234416Y-140151676D01*
X84414969Y-139997469D01*
X84418177Y-139993713D01*
X84418182Y-139993708D01*
X84519189Y-139875444D01*
X84578639Y-139836634D01*
X84649634Y-139836128D01*
X84710811Y-139875444D01*
X84811818Y-139993708D01*
X84811823Y-139993713D01*
X84815031Y-139997469D01*
X84995584Y-140151676D01*
X84999792Y-140154255D01*
X84999798Y-140154259D01*
X85098860Y-140214964D01*
X85198037Y-140275740D01*
X85202607Y-140277633D01*
X85202611Y-140277635D01*
X85412833Y-140364711D01*
X85417406Y-140366605D01*
X85465349Y-140378115D01*
X85643476Y-140420880D01*
X85643482Y-140420881D01*
X85648289Y-140422035D01*
X85885000Y-140440665D01*
X86121711Y-140422035D01*
X86126518Y-140420881D01*
X86126524Y-140420880D01*
X86304651Y-140378115D01*
X86352594Y-140366605D01*
X86357167Y-140364711D01*
X86567389Y-140277635D01*
X86567393Y-140277633D01*
X86571963Y-140275740D01*
X86671140Y-140214964D01*
X86770202Y-140154259D01*
X86770208Y-140154255D01*
X86774416Y-140151676D01*
X86954969Y-139997469D01*
X86958177Y-139993713D01*
X86958182Y-139993708D01*
X87059189Y-139875444D01*
X87118639Y-139836634D01*
X87189634Y-139836128D01*
X87250811Y-139875444D01*
X87351818Y-139993708D01*
X87351823Y-139993713D01*
X87355031Y-139997469D01*
X87535584Y-140151676D01*
X87539792Y-140154255D01*
X87539798Y-140154259D01*
X87638860Y-140214964D01*
X87738037Y-140275740D01*
X87742607Y-140277633D01*
X87742611Y-140277635D01*
X87952833Y-140364711D01*
X87957406Y-140366605D01*
X88005349Y-140378115D01*
X88183476Y-140420880D01*
X88183482Y-140420881D01*
X88188289Y-140422035D01*
X88425000Y-140440665D01*
X88661711Y-140422035D01*
X88666518Y-140420881D01*
X88666524Y-140420880D01*
X88844651Y-140378115D01*
X88892594Y-140366605D01*
X88897167Y-140364711D01*
X89107389Y-140277635D01*
X89107393Y-140277633D01*
X89111963Y-140275740D01*
X89211140Y-140214964D01*
X89310202Y-140154259D01*
X89310208Y-140154255D01*
X89314416Y-140151676D01*
X89494969Y-139997469D01*
X89498177Y-139993713D01*
X89498182Y-139993708D01*
X89599189Y-139875444D01*
X89658639Y-139836634D01*
X89729634Y-139836128D01*
X89790811Y-139875444D01*
X89891818Y-139993708D01*
X89891823Y-139993713D01*
X89895031Y-139997469D01*
X90075584Y-140151676D01*
X90079792Y-140154255D01*
X90079798Y-140154259D01*
X90178860Y-140214964D01*
X90278037Y-140275740D01*
X90282607Y-140277633D01*
X90282611Y-140277635D01*
X90492833Y-140364711D01*
X90497406Y-140366605D01*
X90545349Y-140378115D01*
X90723476Y-140420880D01*
X90723482Y-140420881D01*
X90728289Y-140422035D01*
X90965000Y-140440665D01*
X91201711Y-140422035D01*
X91206518Y-140420881D01*
X91206524Y-140420880D01*
X91384651Y-140378115D01*
X91432594Y-140366605D01*
X91437167Y-140364711D01*
X91647389Y-140277635D01*
X91647393Y-140277633D01*
X91651963Y-140275740D01*
X91751140Y-140214964D01*
X91850202Y-140154259D01*
X91850208Y-140154255D01*
X91854416Y-140151676D01*
X92034969Y-139997469D01*
X92038177Y-139993713D01*
X92038182Y-139993708D01*
X92139189Y-139875444D01*
X92198639Y-139836634D01*
X92269634Y-139836128D01*
X92330811Y-139875444D01*
X92431818Y-139993708D01*
X92431823Y-139993713D01*
X92435031Y-139997469D01*
X92615584Y-140151676D01*
X92619792Y-140154255D01*
X92619798Y-140154259D01*
X92718860Y-140214964D01*
X92818037Y-140275740D01*
X92822607Y-140277633D01*
X92822611Y-140277635D01*
X93032833Y-140364711D01*
X93037406Y-140366605D01*
X93085349Y-140378115D01*
X93263476Y-140420880D01*
X93263482Y-140420881D01*
X93268289Y-140422035D01*
X93505000Y-140440665D01*
X93741711Y-140422035D01*
X93746518Y-140420881D01*
X93746524Y-140420880D01*
X93924651Y-140378115D01*
X93972594Y-140366605D01*
X93977167Y-140364711D01*
X94187389Y-140277635D01*
X94187393Y-140277633D01*
X94191963Y-140275740D01*
X94291140Y-140214964D01*
X94390202Y-140154259D01*
X94390208Y-140154255D01*
X94394416Y-140151676D01*
X94574969Y-139997469D01*
X94578177Y-139993713D01*
X94578182Y-139993708D01*
X94679189Y-139875444D01*
X94738639Y-139836634D01*
X94809634Y-139836128D01*
X94870811Y-139875444D01*
X94971818Y-139993708D01*
X94971823Y-139993713D01*
X94975031Y-139997469D01*
X95155584Y-140151676D01*
X95159792Y-140154255D01*
X95159798Y-140154259D01*
X95258860Y-140214964D01*
X95358037Y-140275740D01*
X95362607Y-140277633D01*
X95362611Y-140277635D01*
X95572833Y-140364711D01*
X95577406Y-140366605D01*
X95625349Y-140378115D01*
X95803476Y-140420880D01*
X95803482Y-140420881D01*
X95808289Y-140422035D01*
X96045000Y-140440665D01*
X96281711Y-140422035D01*
X96286518Y-140420881D01*
X96286524Y-140420880D01*
X96464651Y-140378115D01*
X96512594Y-140366605D01*
X96517167Y-140364711D01*
X96727389Y-140277635D01*
X96727393Y-140277633D01*
X96731963Y-140275740D01*
X96831140Y-140214964D01*
X96930202Y-140154259D01*
X96930208Y-140154255D01*
X96934416Y-140151676D01*
X97114969Y-139997469D01*
X97269176Y-139816916D01*
X97271755Y-139812708D01*
X97271759Y-139812702D01*
X97390654Y-139618683D01*
X97393240Y-139614463D01*
X97463927Y-139443808D01*
X97508475Y-139388527D01*
X97575838Y-139366106D01*
X97644630Y-139383664D01*
X97693584Y-139436791D01*
X97731340Y-139514202D01*
X97733795Y-139517841D01*
X97733798Y-139517847D01*
X97795881Y-139609889D01*
X97888415Y-139747076D01*
X98076371Y-139955822D01*
X98291550Y-140136379D01*
X98529764Y-140285231D01*
X98663484Y-140344767D01*
X98745464Y-140381267D01*
X98786375Y-140399482D01*
X99056390Y-140476907D01*
X99060740Y-140477518D01*
X99060743Y-140477519D01*
X99163690Y-140491987D01*
X99334552Y-140516000D01*
X99545146Y-140516000D01*
X99547332Y-140515847D01*
X99547336Y-140515847D01*
X99750827Y-140501618D01*
X99750832Y-140501617D01*
X99755212Y-140501311D01*
X100029970Y-140442909D01*
X100034099Y-140441406D01*
X100034103Y-140441405D01*
X100289781Y-140348346D01*
X100289785Y-140348344D01*
X100293926Y-140346837D01*
X100541942Y-140214964D01*
X100588150Y-140181392D01*
X100765629Y-140052447D01*
X100765632Y-140052444D01*
X100769192Y-140049858D01*
X100820121Y-140000677D01*
X100968087Y-139857787D01*
X100971252Y-139854731D01*
X101144188Y-139633382D01*
X101146384Y-139629578D01*
X101146389Y-139629571D01*
X101282435Y-139393931D01*
X101284636Y-139390119D01*
X101389862Y-139129676D01*
X101404096Y-139072588D01*
X101456753Y-138861393D01*
X101456754Y-138861388D01*
X101457817Y-138857124D01*
X101459785Y-138838405D01*
X101486719Y-138582136D01*
X101486719Y-138582133D01*
X101487178Y-138577767D01*
X101487025Y-138573373D01*
X101477529Y-138301439D01*
X101477528Y-138301433D01*
X101477375Y-138297042D01*
X101475834Y-138288297D01*
X101442302Y-138098134D01*
X109788849Y-138098134D01*
X109795604Y-138160316D01*
X109846734Y-138296705D01*
X109934088Y-138413261D01*
X110050644Y-138500615D01*
X110187033Y-138551745D01*
X110249215Y-138558500D01*
X111945483Y-138558500D01*
X112007665Y-138551745D01*
X112144054Y-138500615D01*
X112260610Y-138413261D01*
X112318468Y-138336062D01*
X113875842Y-138336062D01*
X113885138Y-138348077D01*
X113936343Y-138383931D01*
X113945838Y-138389414D01*
X114143296Y-138481490D01*
X114153588Y-138485236D01*
X114364037Y-138541625D01*
X114374830Y-138543528D01*
X114591874Y-138562517D01*
X114602824Y-138562517D01*
X114819868Y-138543528D01*
X114830661Y-138541625D01*
X115041110Y-138485236D01*
X115051402Y-138481490D01*
X115248860Y-138389414D01*
X115258355Y-138383931D01*
X115310397Y-138347491D01*
X115318773Y-138337012D01*
X115311705Y-138323566D01*
X114610161Y-137622022D01*
X114596217Y-137614408D01*
X114594384Y-137614539D01*
X114587769Y-137618790D01*
X113882272Y-138324287D01*
X113875842Y-138336062D01*
X112318468Y-138336062D01*
X112347964Y-138296705D01*
X112399094Y-138160316D01*
X112405849Y-138098134D01*
X112405849Y-137255475D01*
X113284832Y-137255475D01*
X113303821Y-137472519D01*
X113305724Y-137483312D01*
X113362113Y-137693761D01*
X113365859Y-137704053D01*
X113457935Y-137901511D01*
X113463418Y-137911006D01*
X113499858Y-137963048D01*
X113510337Y-137971424D01*
X113523783Y-137964356D01*
X114225327Y-137262812D01*
X114231705Y-137251132D01*
X114961757Y-137251132D01*
X114961888Y-137252965D01*
X114966139Y-137259580D01*
X115671636Y-137965077D01*
X115683411Y-137971507D01*
X115695426Y-137962211D01*
X115731280Y-137911006D01*
X115736763Y-137901511D01*
X115828839Y-137704053D01*
X115832585Y-137693761D01*
X115888974Y-137483312D01*
X115890877Y-137472519D01*
X115909866Y-137255475D01*
X115909866Y-137244525D01*
X115890877Y-137027481D01*
X115888974Y-137016688D01*
X115832585Y-136806239D01*
X115828839Y-136795947D01*
X115736763Y-136598489D01*
X115731280Y-136588994D01*
X115694840Y-136536952D01*
X115684361Y-136528576D01*
X115670915Y-136535644D01*
X114969371Y-137237188D01*
X114961757Y-137251132D01*
X114231705Y-137251132D01*
X114232941Y-137248868D01*
X114232810Y-137247035D01*
X114228559Y-137240420D01*
X113523062Y-136534923D01*
X113511287Y-136528493D01*
X113499272Y-136537789D01*
X113463418Y-136588994D01*
X113457935Y-136598489D01*
X113365859Y-136795947D01*
X113362113Y-136806239D01*
X113305724Y-137016688D01*
X113303821Y-137027481D01*
X113284832Y-137244525D01*
X113284832Y-137255475D01*
X112405849Y-137255475D01*
X112405849Y-136401866D01*
X112399094Y-136339684D01*
X112347964Y-136203295D01*
X112317756Y-136162988D01*
X113875925Y-136162988D01*
X113882993Y-136176434D01*
X114584537Y-136877978D01*
X114598481Y-136885592D01*
X114600314Y-136885461D01*
X114606929Y-136881210D01*
X115312426Y-136175713D01*
X115318856Y-136163938D01*
X115309560Y-136151923D01*
X115258355Y-136116069D01*
X115248860Y-136110586D01*
X115051402Y-136018510D01*
X115041110Y-136014764D01*
X114830661Y-135958375D01*
X114819868Y-135956472D01*
X114602824Y-135937483D01*
X114591874Y-135937483D01*
X114374830Y-135956472D01*
X114364037Y-135958375D01*
X114153588Y-136014764D01*
X114143296Y-136018510D01*
X113945838Y-136110586D01*
X113936343Y-136116069D01*
X113884301Y-136152509D01*
X113875925Y-136162988D01*
X112317756Y-136162988D01*
X112260610Y-136086739D01*
X112144054Y-135999385D01*
X112007665Y-135948255D01*
X111945483Y-135941500D01*
X110249215Y-135941500D01*
X110187033Y-135948255D01*
X110050644Y-135999385D01*
X109934088Y-136086739D01*
X109846734Y-136203295D01*
X109795604Y-136339684D01*
X109788849Y-136401866D01*
X109788849Y-138098134D01*
X101442302Y-138098134D01*
X101429360Y-138024736D01*
X101428598Y-138020413D01*
X101341797Y-137753265D01*
X101336377Y-137742151D01*
X101274135Y-137614539D01*
X101218660Y-137500798D01*
X101216205Y-137497159D01*
X101216202Y-137497153D01*
X101131197Y-137371128D01*
X101061585Y-137267924D01*
X101046466Y-137251132D01*
X100876566Y-137062440D01*
X100873629Y-137059178D01*
X100822992Y-137016688D01*
X100758476Y-136962553D01*
X100658450Y-136878621D01*
X100420236Y-136729769D01*
X100163625Y-136615518D01*
X99893610Y-136538093D01*
X99889260Y-136537482D01*
X99889257Y-136537481D01*
X99786310Y-136523013D01*
X99615448Y-136499000D01*
X99404854Y-136499000D01*
X99402668Y-136499153D01*
X99402664Y-136499153D01*
X99199173Y-136513382D01*
X99199168Y-136513383D01*
X99194788Y-136513689D01*
X98920030Y-136572091D01*
X98915901Y-136573594D01*
X98915897Y-136573595D01*
X98660219Y-136666654D01*
X98660215Y-136666656D01*
X98656074Y-136668163D01*
X98408058Y-136800036D01*
X98404499Y-136802622D01*
X98404497Y-136802623D01*
X98290300Y-136885592D01*
X98180808Y-136965142D01*
X98177644Y-136968198D01*
X98177641Y-136968200D01*
X98116254Y-137027481D01*
X97978748Y-137160269D01*
X97805812Y-137381618D01*
X97803616Y-137385422D01*
X97803611Y-137385429D01*
X97729992Y-137512942D01*
X97665364Y-137624881D01*
X97560138Y-137885324D01*
X97559073Y-137889597D01*
X97559072Y-137889599D01*
X97521611Y-138039847D01*
X97485723Y-138101106D01*
X97422414Y-138133237D01*
X97351783Y-138126040D01*
X97296256Y-138081799D01*
X97291922Y-138075200D01*
X97271765Y-138042307D01*
X97271758Y-138042297D01*
X97269176Y-138038084D01*
X97114969Y-137857531D01*
X96934416Y-137703324D01*
X96930208Y-137700745D01*
X96930202Y-137700741D01*
X96736183Y-137581846D01*
X96731963Y-137579260D01*
X96727393Y-137577367D01*
X96727389Y-137577365D01*
X96517167Y-137490289D01*
X96517165Y-137490288D01*
X96512594Y-137488395D01*
X96432391Y-137469140D01*
X96286524Y-137434120D01*
X96286518Y-137434119D01*
X96281711Y-137432965D01*
X96045000Y-137414335D01*
X95808289Y-137432965D01*
X95803482Y-137434119D01*
X95803476Y-137434120D01*
X95657609Y-137469140D01*
X95577406Y-137488395D01*
X95572835Y-137490288D01*
X95572833Y-137490289D01*
X95362611Y-137577365D01*
X95362607Y-137577367D01*
X95358037Y-137579260D01*
X95353817Y-137581846D01*
X95159798Y-137700741D01*
X95159792Y-137700745D01*
X95155584Y-137703324D01*
X94975031Y-137857531D01*
X94971823Y-137861287D01*
X94971818Y-137861292D01*
X94870811Y-137979556D01*
X94811361Y-138018366D01*
X94740366Y-138018872D01*
X94679189Y-137979556D01*
X94578182Y-137861292D01*
X94578177Y-137861287D01*
X94574969Y-137857531D01*
X94394416Y-137703324D01*
X94390208Y-137700745D01*
X94390202Y-137700741D01*
X94196183Y-137581846D01*
X94191963Y-137579260D01*
X94187393Y-137577367D01*
X94187389Y-137577365D01*
X93977167Y-137490289D01*
X93977165Y-137490288D01*
X93972594Y-137488395D01*
X93892391Y-137469140D01*
X93746524Y-137434120D01*
X93746518Y-137434119D01*
X93741711Y-137432965D01*
X93505000Y-137414335D01*
X93268289Y-137432965D01*
X93263482Y-137434119D01*
X93263476Y-137434120D01*
X93117609Y-137469140D01*
X93037406Y-137488395D01*
X93032835Y-137490288D01*
X93032833Y-137490289D01*
X92822611Y-137577365D01*
X92822607Y-137577367D01*
X92818037Y-137579260D01*
X92813817Y-137581846D01*
X92619798Y-137700741D01*
X92619792Y-137700745D01*
X92615584Y-137703324D01*
X92435031Y-137857531D01*
X92431823Y-137861287D01*
X92431818Y-137861292D01*
X92330811Y-137979556D01*
X92271361Y-138018366D01*
X92200366Y-138018872D01*
X92139189Y-137979556D01*
X92038182Y-137861292D01*
X92038177Y-137861287D01*
X92034969Y-137857531D01*
X91854416Y-137703324D01*
X91850208Y-137700745D01*
X91850202Y-137700741D01*
X91656183Y-137581846D01*
X91651963Y-137579260D01*
X91647393Y-137577367D01*
X91647389Y-137577365D01*
X91437167Y-137490289D01*
X91437165Y-137490288D01*
X91432594Y-137488395D01*
X91352391Y-137469140D01*
X91206524Y-137434120D01*
X91206518Y-137434119D01*
X91201711Y-137432965D01*
X90965000Y-137414335D01*
X90728289Y-137432965D01*
X90723482Y-137434119D01*
X90723476Y-137434120D01*
X90577609Y-137469140D01*
X90497406Y-137488395D01*
X90492835Y-137490288D01*
X90492833Y-137490289D01*
X90282611Y-137577365D01*
X90282607Y-137577367D01*
X90278037Y-137579260D01*
X90273817Y-137581846D01*
X90079798Y-137700741D01*
X90079792Y-137700745D01*
X90075584Y-137703324D01*
X89895031Y-137857531D01*
X89891823Y-137861287D01*
X89891818Y-137861292D01*
X89790811Y-137979556D01*
X89731361Y-138018366D01*
X89660366Y-138018872D01*
X89599189Y-137979556D01*
X89498182Y-137861292D01*
X89498177Y-137861287D01*
X89494969Y-137857531D01*
X89314416Y-137703324D01*
X89310208Y-137700745D01*
X89310202Y-137700741D01*
X89116183Y-137581846D01*
X89111963Y-137579260D01*
X89107393Y-137577367D01*
X89107389Y-137577365D01*
X88897167Y-137490289D01*
X88897165Y-137490288D01*
X88892594Y-137488395D01*
X88812391Y-137469140D01*
X88666524Y-137434120D01*
X88666518Y-137434119D01*
X88661711Y-137432965D01*
X88425000Y-137414335D01*
X88188289Y-137432965D01*
X88183482Y-137434119D01*
X88183476Y-137434120D01*
X88037609Y-137469140D01*
X87957406Y-137488395D01*
X87952835Y-137490288D01*
X87952833Y-137490289D01*
X87742611Y-137577365D01*
X87742607Y-137577367D01*
X87738037Y-137579260D01*
X87733817Y-137581846D01*
X87539798Y-137700741D01*
X87539792Y-137700745D01*
X87535584Y-137703324D01*
X87355031Y-137857531D01*
X87351823Y-137861287D01*
X87351818Y-137861292D01*
X87250811Y-137979556D01*
X87191361Y-138018366D01*
X87120366Y-138018872D01*
X87059189Y-137979556D01*
X86958182Y-137861292D01*
X86958177Y-137861287D01*
X86954969Y-137857531D01*
X86774416Y-137703324D01*
X86770208Y-137700745D01*
X86770202Y-137700741D01*
X86576183Y-137581846D01*
X86571963Y-137579260D01*
X86567393Y-137577367D01*
X86567389Y-137577365D01*
X86357167Y-137490289D01*
X86357165Y-137490288D01*
X86352594Y-137488395D01*
X86272391Y-137469140D01*
X86126524Y-137434120D01*
X86126518Y-137434119D01*
X86121711Y-137432965D01*
X85885000Y-137414335D01*
X85648289Y-137432965D01*
X85643482Y-137434119D01*
X85643476Y-137434120D01*
X85497609Y-137469140D01*
X85417406Y-137488395D01*
X85412835Y-137490288D01*
X85412833Y-137490289D01*
X85202611Y-137577365D01*
X85202607Y-137577367D01*
X85198037Y-137579260D01*
X85193817Y-137581846D01*
X84999798Y-137700741D01*
X84999792Y-137700745D01*
X84995584Y-137703324D01*
X84815031Y-137857531D01*
X84811823Y-137861287D01*
X84811818Y-137861292D01*
X84710811Y-137979556D01*
X84651361Y-138018366D01*
X84580366Y-138018872D01*
X84519189Y-137979556D01*
X84418182Y-137861292D01*
X84418177Y-137861287D01*
X84414969Y-137857531D01*
X84234416Y-137703324D01*
X84230208Y-137700745D01*
X84230202Y-137700741D01*
X84036183Y-137581846D01*
X84031963Y-137579260D01*
X84027393Y-137577367D01*
X84027389Y-137577365D01*
X83817167Y-137490289D01*
X83817165Y-137490288D01*
X83812594Y-137488395D01*
X83732391Y-137469140D01*
X83586524Y-137434120D01*
X83586518Y-137434119D01*
X83581711Y-137432965D01*
X83345000Y-137414335D01*
X83108289Y-137432965D01*
X83103482Y-137434119D01*
X83103476Y-137434120D01*
X82957609Y-137469140D01*
X82877406Y-137488395D01*
X82872835Y-137490288D01*
X82872833Y-137490289D01*
X82662611Y-137577365D01*
X82662607Y-137577367D01*
X82658037Y-137579260D01*
X82653817Y-137581846D01*
X82459798Y-137700741D01*
X82459792Y-137700745D01*
X82455584Y-137703324D01*
X82275031Y-137857531D01*
X82271823Y-137861287D01*
X82271818Y-137861292D01*
X82170811Y-137979556D01*
X82111361Y-138018366D01*
X82040366Y-138018872D01*
X81979189Y-137979556D01*
X81878182Y-137861292D01*
X81878177Y-137861287D01*
X81874969Y-137857531D01*
X81694416Y-137703324D01*
X81690208Y-137700745D01*
X81690202Y-137700741D01*
X81496183Y-137581846D01*
X81491963Y-137579260D01*
X81487393Y-137577367D01*
X81487389Y-137577365D01*
X81277167Y-137490289D01*
X81277165Y-137490288D01*
X81272594Y-137488395D01*
X81192391Y-137469140D01*
X81046524Y-137434120D01*
X81046518Y-137434119D01*
X81041711Y-137432965D01*
X80805000Y-137414335D01*
X80568289Y-137432965D01*
X80563482Y-137434119D01*
X80563476Y-137434120D01*
X80417609Y-137469140D01*
X80337406Y-137488395D01*
X80332835Y-137490288D01*
X80332833Y-137490289D01*
X80122611Y-137577365D01*
X80122607Y-137577367D01*
X80118037Y-137579260D01*
X80113817Y-137581846D01*
X79919798Y-137700741D01*
X79919792Y-137700745D01*
X79915584Y-137703324D01*
X79735031Y-137857531D01*
X79731823Y-137861287D01*
X79731818Y-137861292D01*
X79630811Y-137979556D01*
X79571361Y-138018366D01*
X79500366Y-138018872D01*
X79439189Y-137979556D01*
X79338182Y-137861292D01*
X79338177Y-137861287D01*
X79334969Y-137857531D01*
X79154416Y-137703324D01*
X79150208Y-137700745D01*
X79150202Y-137700741D01*
X78956183Y-137581846D01*
X78951963Y-137579260D01*
X78947393Y-137577367D01*
X78947389Y-137577365D01*
X78737167Y-137490289D01*
X78737165Y-137490288D01*
X78732594Y-137488395D01*
X78652391Y-137469140D01*
X78506524Y-137434120D01*
X78506518Y-137434119D01*
X78501711Y-137432965D01*
X78265000Y-137414335D01*
X78028289Y-137432965D01*
X78023482Y-137434119D01*
X78023476Y-137434120D01*
X77877609Y-137469140D01*
X77797406Y-137488395D01*
X77792835Y-137490288D01*
X77792833Y-137490289D01*
X77582611Y-137577365D01*
X77582607Y-137577367D01*
X77578037Y-137579260D01*
X77573817Y-137581846D01*
X77379798Y-137700741D01*
X77379792Y-137700745D01*
X77375584Y-137703324D01*
X77195031Y-137857531D01*
X77191823Y-137861287D01*
X77191818Y-137861292D01*
X77090811Y-137979556D01*
X77031361Y-138018366D01*
X76960366Y-138018872D01*
X76899189Y-137979556D01*
X76798182Y-137861292D01*
X76798177Y-137861287D01*
X76794969Y-137857531D01*
X76614416Y-137703324D01*
X76610208Y-137700745D01*
X76610202Y-137700741D01*
X76416183Y-137581846D01*
X76411963Y-137579260D01*
X76407393Y-137577367D01*
X76407389Y-137577365D01*
X76197167Y-137490289D01*
X76197165Y-137490288D01*
X76192594Y-137488395D01*
X76112391Y-137469140D01*
X75966524Y-137434120D01*
X75966518Y-137434119D01*
X75961711Y-137432965D01*
X75725000Y-137414335D01*
X75488289Y-137432965D01*
X75483482Y-137434119D01*
X75483476Y-137434120D01*
X75337609Y-137469140D01*
X75257406Y-137488395D01*
X75252835Y-137490288D01*
X75252833Y-137490289D01*
X75042611Y-137577365D01*
X75042607Y-137577367D01*
X75038037Y-137579260D01*
X75033817Y-137581846D01*
X74839798Y-137700741D01*
X74839792Y-137700745D01*
X74835584Y-137703324D01*
X74655031Y-137857531D01*
X74651823Y-137861287D01*
X74651818Y-137861292D01*
X74550811Y-137979556D01*
X74491361Y-138018366D01*
X74420366Y-138018872D01*
X74359189Y-137979556D01*
X74258182Y-137861292D01*
X74258177Y-137861287D01*
X74254969Y-137857531D01*
X74074416Y-137703324D01*
X74070208Y-137700745D01*
X74070202Y-137700741D01*
X73876183Y-137581846D01*
X73871963Y-137579260D01*
X73867393Y-137577367D01*
X73867389Y-137577365D01*
X73657167Y-137490289D01*
X73657165Y-137490288D01*
X73652594Y-137488395D01*
X73572391Y-137469140D01*
X73426524Y-137434120D01*
X73426518Y-137434119D01*
X73421711Y-137432965D01*
X73185000Y-137414335D01*
X72948289Y-137432965D01*
X72943482Y-137434119D01*
X72943476Y-137434120D01*
X72797609Y-137469140D01*
X72717406Y-137488395D01*
X72712835Y-137490288D01*
X72712833Y-137490289D01*
X72502611Y-137577365D01*
X72502607Y-137577367D01*
X72498037Y-137579260D01*
X72493817Y-137581846D01*
X72299798Y-137700741D01*
X72299792Y-137700745D01*
X72295584Y-137703324D01*
X72115031Y-137857531D01*
X72111823Y-137861287D01*
X72111818Y-137861292D01*
X72010811Y-137979556D01*
X71951361Y-138018366D01*
X71880366Y-138018872D01*
X71819189Y-137979556D01*
X71718182Y-137861292D01*
X71718177Y-137861287D01*
X71714969Y-137857531D01*
X71534416Y-137703324D01*
X71530208Y-137700745D01*
X71530202Y-137700741D01*
X71336183Y-137581846D01*
X71331963Y-137579260D01*
X71327393Y-137577367D01*
X71327389Y-137577365D01*
X71117167Y-137490289D01*
X71117165Y-137490288D01*
X71112594Y-137488395D01*
X71032391Y-137469140D01*
X70886524Y-137434120D01*
X70886518Y-137434119D01*
X70881711Y-137432965D01*
X70645000Y-137414335D01*
X70408289Y-137432965D01*
X70403482Y-137434119D01*
X70403476Y-137434120D01*
X70257609Y-137469140D01*
X70177406Y-137488395D01*
X70172835Y-137490288D01*
X70172833Y-137490289D01*
X69962611Y-137577365D01*
X69962607Y-137577367D01*
X69958037Y-137579260D01*
X69953817Y-137581846D01*
X69759798Y-137700741D01*
X69759792Y-137700745D01*
X69755584Y-137703324D01*
X69575031Y-137857531D01*
X69571823Y-137861287D01*
X69571818Y-137861292D01*
X69470811Y-137979556D01*
X69411361Y-138018366D01*
X69340366Y-138018872D01*
X69279189Y-137979556D01*
X69178182Y-137861292D01*
X69178177Y-137861287D01*
X69174969Y-137857531D01*
X68994416Y-137703324D01*
X68990208Y-137700745D01*
X68990202Y-137700741D01*
X68796183Y-137581846D01*
X68791963Y-137579260D01*
X68787393Y-137577367D01*
X68787389Y-137577365D01*
X68577167Y-137490289D01*
X68577165Y-137490288D01*
X68572594Y-137488395D01*
X68492391Y-137469140D01*
X68346524Y-137434120D01*
X68346518Y-137434119D01*
X68341711Y-137432965D01*
X68105000Y-137414335D01*
X67868289Y-137432965D01*
X67863482Y-137434119D01*
X67863476Y-137434120D01*
X67717609Y-137469140D01*
X67637406Y-137488395D01*
X67632835Y-137490288D01*
X67632833Y-137490289D01*
X67422611Y-137577365D01*
X67422607Y-137577367D01*
X67418037Y-137579260D01*
X67413817Y-137581846D01*
X67219798Y-137700741D01*
X67219792Y-137700745D01*
X67215584Y-137703324D01*
X67035031Y-137857531D01*
X67031823Y-137861287D01*
X67031818Y-137861292D01*
X66930811Y-137979556D01*
X66871361Y-138018366D01*
X66800366Y-138018872D01*
X66739189Y-137979556D01*
X66638182Y-137861292D01*
X66638177Y-137861287D01*
X66634969Y-137857531D01*
X66454416Y-137703324D01*
X66450208Y-137700745D01*
X66450202Y-137700741D01*
X66256183Y-137581846D01*
X66251963Y-137579260D01*
X66247393Y-137577367D01*
X66247389Y-137577365D01*
X66037167Y-137490289D01*
X66037165Y-137490288D01*
X66032594Y-137488395D01*
X65952391Y-137469140D01*
X65806524Y-137434120D01*
X65806518Y-137434119D01*
X65801711Y-137432965D01*
X65565000Y-137414335D01*
X65328289Y-137432965D01*
X65323482Y-137434119D01*
X65323476Y-137434120D01*
X65177609Y-137469140D01*
X65097406Y-137488395D01*
X65092835Y-137490288D01*
X65092833Y-137490289D01*
X64882611Y-137577365D01*
X64882607Y-137577367D01*
X64878037Y-137579260D01*
X64873817Y-137581846D01*
X64679798Y-137700741D01*
X64679792Y-137700745D01*
X64675584Y-137703324D01*
X64495031Y-137857531D01*
X64491823Y-137861287D01*
X64491818Y-137861292D01*
X64361294Y-138014116D01*
X64301844Y-138052926D01*
X64267442Y-138055140D01*
X64248333Y-138063377D01*
X63397022Y-138914688D01*
X63389408Y-138928632D01*
X62722694Y-138928632D01*
X62725924Y-138883468D01*
X62754885Y-138838405D01*
X63886080Y-137707210D01*
X63892840Y-137694830D01*
X63887113Y-137687180D01*
X63715958Y-137582295D01*
X63707163Y-137577813D01*
X63497012Y-137490766D01*
X63487627Y-137487717D01*
X63266446Y-137434615D01*
X63256699Y-137433072D01*
X63029930Y-137415225D01*
X63020070Y-137415225D01*
X62793301Y-137433072D01*
X62783554Y-137434615D01*
X62562373Y-137487717D01*
X62552988Y-137490766D01*
X62342837Y-137577813D01*
X62334042Y-137582295D01*
X62140101Y-137701143D01*
X62132117Y-137706943D01*
X62124886Y-137713119D01*
X62060096Y-137742151D01*
X61989896Y-137731547D01*
X61937312Y-137685323D01*
X61935615Y-137680795D01*
X61930230Y-137673610D01*
X61930229Y-137673608D01*
X61853642Y-137571419D01*
X61848261Y-137564239D01*
X61731705Y-137476885D01*
X61717022Y-137471380D01*
X61602714Y-137428528D01*
X61602711Y-137428527D01*
X61595316Y-137425755D01*
X61589547Y-137425128D01*
X61528709Y-137390374D01*
X61495887Y-137327419D01*
X61493500Y-137303007D01*
X61493500Y-135137500D01*
X94985000Y-135137500D01*
X101475000Y-135137500D01*
X101475000Y-117447500D01*
X94985000Y-117447500D01*
X94985000Y-135137500D01*
X61493500Y-135137500D01*
X61493500Y-120546843D01*
X61494237Y-120533236D01*
X61497659Y-120501738D01*
X61497659Y-120501733D01*
X61498324Y-120495612D01*
X61493950Y-120445612D01*
X61493621Y-120440786D01*
X61493500Y-120438314D01*
X61493500Y-120435231D01*
X61492326Y-120423262D01*
X61489310Y-120392494D01*
X61489188Y-120391181D01*
X61481623Y-120304718D01*
X61481087Y-120298587D01*
X61479600Y-120293468D01*
X61479080Y-120288167D01*
X61452209Y-120199166D01*
X61451874Y-120198033D01*
X61427630Y-120114586D01*
X61427628Y-120114582D01*
X61425909Y-120108664D01*
X61423456Y-120103932D01*
X61421916Y-120098831D01*
X61378269Y-120016740D01*
X61377657Y-120015574D01*
X61337729Y-119938547D01*
X61334892Y-119933074D01*
X61331569Y-119928911D01*
X61329066Y-119924204D01*
X61270245Y-119852082D01*
X61269554Y-119851226D01*
X61238262Y-119812027D01*
X61235758Y-119809523D01*
X61235116Y-119808805D01*
X61231415Y-119804472D01*
X61204065Y-119770938D01*
X61168737Y-119741712D01*
X61159958Y-119733723D01*
X57545405Y-116119171D01*
X57511379Y-116056859D01*
X57508500Y-116030076D01*
X57508500Y-104469925D01*
X57528502Y-104401804D01*
X57545405Y-104380830D01*
X59669379Y-102256855D01*
X59679522Y-102247753D01*
X59704218Y-102227897D01*
X59709025Y-102224032D01*
X59741292Y-102185578D01*
X59744472Y-102181931D01*
X59746115Y-102180119D01*
X59748309Y-102177925D01*
X59775642Y-102144651D01*
X59776348Y-102143800D01*
X59786011Y-102132285D01*
X59836154Y-102072526D01*
X59838722Y-102067856D01*
X59842103Y-102063739D01*
X59873140Y-102005855D01*
X59885977Y-101981914D01*
X59886606Y-101980755D01*
X59928462Y-101904619D01*
X59928465Y-101904611D01*
X59931433Y-101899213D01*
X59933045Y-101894131D01*
X59935562Y-101889437D01*
X59962747Y-101800523D01*
X59963139Y-101799265D01*
X59989372Y-101716567D01*
X59991235Y-101710694D01*
X59991829Y-101705403D01*
X59993388Y-101700302D01*
X60002790Y-101607737D01*
X60002925Y-101606470D01*
X60008108Y-101560270D01*
X60008108Y-101560265D01*
X60008500Y-101556773D01*
X60008500Y-101553248D01*
X60008555Y-101552263D01*
X60009004Y-101546559D01*
X60012752Y-101509666D01*
X60012752Y-101509661D01*
X60013374Y-101503538D01*
X60009059Y-101457891D01*
X60008500Y-101446033D01*
X60008500Y-92811843D01*
X60009237Y-92798236D01*
X60012659Y-92766738D01*
X60012659Y-92766733D01*
X60013324Y-92760612D01*
X60008950Y-92710612D01*
X60008621Y-92705786D01*
X60008500Y-92703314D01*
X60008500Y-92700231D01*
X60007326Y-92688262D01*
X60004310Y-92657494D01*
X60004188Y-92656181D01*
X59996623Y-92569718D01*
X59996087Y-92563587D01*
X59994600Y-92558468D01*
X59994080Y-92553167D01*
X59967209Y-92464166D01*
X59966874Y-92463033D01*
X59942630Y-92379586D01*
X59942628Y-92379582D01*
X59940909Y-92373664D01*
X59938456Y-92368932D01*
X59936916Y-92363831D01*
X59904746Y-92303326D01*
X59893269Y-92281740D01*
X59892657Y-92280574D01*
X59852729Y-92203547D01*
X59849892Y-92198074D01*
X59846569Y-92193911D01*
X59844066Y-92189204D01*
X59785245Y-92117082D01*
X59784554Y-92116226D01*
X59753262Y-92077027D01*
X59750758Y-92074523D01*
X59750116Y-92073805D01*
X59746415Y-92069472D01*
X59719065Y-92035938D01*
X59708907Y-92027534D01*
X59683738Y-92006713D01*
X59674958Y-91998723D01*
X57996855Y-90320621D01*
X57987753Y-90310478D01*
X57967897Y-90285782D01*
X57964032Y-90280975D01*
X57925578Y-90248708D01*
X57921931Y-90245528D01*
X57920119Y-90243885D01*
X57917925Y-90241691D01*
X57884651Y-90214358D01*
X57883853Y-90213696D01*
X57812526Y-90153846D01*
X57807856Y-90151278D01*
X57803739Y-90147897D01*
X57721914Y-90104023D01*
X57720755Y-90103394D01*
X57644619Y-90061538D01*
X57644611Y-90061535D01*
X57639213Y-90058567D01*
X57634131Y-90056955D01*
X57629437Y-90054438D01*
X57540469Y-90027238D01*
X57539441Y-90026918D01*
X57450694Y-89998765D01*
X57445398Y-89998171D01*
X57440302Y-89996613D01*
X57347743Y-89987210D01*
X57346607Y-89987089D01*
X57312992Y-89983319D01*
X57300270Y-89981892D01*
X57300266Y-89981892D01*
X57296773Y-89981500D01*
X57293246Y-89981500D01*
X57292261Y-89981445D01*
X57286581Y-89980998D01*
X57257175Y-89978011D01*
X57249663Y-89977248D01*
X57249661Y-89977248D01*
X57243538Y-89976626D01*
X57201259Y-89980623D01*
X57197891Y-89980941D01*
X57186033Y-89981500D01*
X56311633Y-89981500D01*
X56243512Y-89961498D01*
X56208546Y-89927950D01*
X56067014Y-89726569D01*
X56067008Y-89726562D01*
X56064545Y-89723057D01*
X55878125Y-89522445D01*
X55874810Y-89519731D01*
X55874806Y-89519728D01*
X55669523Y-89351706D01*
X55666205Y-89348990D01*
X55432704Y-89205901D01*
X55428768Y-89204173D01*
X55185873Y-89097549D01*
X55185869Y-89097548D01*
X55181945Y-89095825D01*
X54918566Y-89020800D01*
X54914324Y-89020196D01*
X54914318Y-89020195D01*
X54696086Y-88989136D01*
X54647443Y-88982213D01*
X54503589Y-88981460D01*
X54377877Y-88980802D01*
X54377871Y-88980802D01*
X54373591Y-88980780D01*
X54369347Y-88981339D01*
X54369343Y-88981339D01*
X54250302Y-88997011D01*
X54102078Y-89016525D01*
X54097938Y-89017658D01*
X54097936Y-89017658D01*
X54025008Y-89037609D01*
X53837928Y-89088788D01*
X53833980Y-89090472D01*
X53589982Y-89194546D01*
X53589978Y-89194548D01*
X53586030Y-89196232D01*
X53566125Y-89208145D01*
X53354725Y-89334664D01*
X53354721Y-89334667D01*
X53351043Y-89336868D01*
X53137318Y-89508094D01*
X52948808Y-89706742D01*
X52789002Y-89929136D01*
X52660857Y-90171161D01*
X52659385Y-90175184D01*
X52659383Y-90175188D01*
X52607930Y-90315790D01*
X52566743Y-90428337D01*
X52508404Y-90695907D01*
X52486917Y-90968918D01*
X52502682Y-91242320D01*
X52503507Y-91246525D01*
X52503508Y-91246533D01*
X52514094Y-91300490D01*
X52555405Y-91511053D01*
X52556792Y-91515103D01*
X52556793Y-91515108D01*
X52642723Y-91766088D01*
X52644112Y-91770144D01*
X52646039Y-91773975D01*
X52759075Y-91998723D01*
X52767160Y-92014799D01*
X52769586Y-92018328D01*
X52769589Y-92018334D01*
X52901161Y-92209771D01*
X52922274Y-92240490D01*
X52925161Y-92243663D01*
X52925162Y-92243664D01*
X53039722Y-92369564D01*
X53106582Y-92443043D01*
X53316675Y-92618707D01*
X53320316Y-92620991D01*
X53545024Y-92761951D01*
X53545028Y-92761953D01*
X53548664Y-92764234D01*
X53654106Y-92811843D01*
X53794345Y-92875164D01*
X53794349Y-92875166D01*
X53798257Y-92876930D01*
X53802377Y-92878150D01*
X53802376Y-92878150D01*
X54056723Y-92953491D01*
X54056727Y-92953492D01*
X54060836Y-92954709D01*
X54065070Y-92955357D01*
X54065075Y-92955358D01*
X54327298Y-92995483D01*
X54327300Y-92995483D01*
X54331540Y-92996132D01*
X54470912Y-92998322D01*
X54601071Y-93000367D01*
X54601077Y-93000367D01*
X54605362Y-93000434D01*
X54877235Y-92967534D01*
X55142127Y-92898041D01*
X55146087Y-92896401D01*
X55146092Y-92896399D01*
X55268632Y-92845641D01*
X55395136Y-92793241D01*
X55513359Y-92724157D01*
X55627879Y-92657237D01*
X55627880Y-92657236D01*
X55631582Y-92655073D01*
X55847089Y-92486094D01*
X55866221Y-92466352D01*
X56034686Y-92292509D01*
X56037669Y-92289431D01*
X56040202Y-92285983D01*
X56040206Y-92285978D01*
X56196062Y-92073805D01*
X56199795Y-92068723D01*
X56201839Y-92064959D01*
X56201845Y-92064949D01*
X56202153Y-92064381D01*
X56202297Y-92064237D01*
X56204140Y-92061332D01*
X56204782Y-92061739D01*
X56252234Y-92014058D01*
X56312885Y-91998500D01*
X56770075Y-91998500D01*
X56838196Y-92018502D01*
X56859170Y-92035405D01*
X57954595Y-93130829D01*
X57988620Y-93193141D01*
X57991500Y-93219924D01*
X57991500Y-101030075D01*
X57971498Y-101098196D01*
X57954595Y-101119170D01*
X55830621Y-103243145D01*
X55820478Y-103252247D01*
X55790975Y-103275968D01*
X55787008Y-103280696D01*
X55758709Y-103314421D01*
X55755528Y-103318069D01*
X55753885Y-103319881D01*
X55751691Y-103322075D01*
X55724358Y-103355349D01*
X55723696Y-103356147D01*
X55663846Y-103427474D01*
X55661278Y-103432144D01*
X55657897Y-103436261D01*
X55633492Y-103481777D01*
X55614023Y-103518086D01*
X55613394Y-103519245D01*
X55571538Y-103595381D01*
X55571535Y-103595389D01*
X55568567Y-103600787D01*
X55566955Y-103605869D01*
X55564438Y-103610563D01*
X55537238Y-103699531D01*
X55536918Y-103700559D01*
X55508765Y-103789306D01*
X55508171Y-103794602D01*
X55506613Y-103799698D01*
X55505990Y-103805834D01*
X55497218Y-103892187D01*
X55497089Y-103893393D01*
X55493319Y-103927008D01*
X55492203Y-103936963D01*
X55491500Y-103943227D01*
X55491500Y-103946754D01*
X55491445Y-103947739D01*
X55490998Y-103953419D01*
X55486626Y-103996462D01*
X55487206Y-104002593D01*
X55490941Y-104042109D01*
X55491500Y-104053967D01*
X55491500Y-116438157D01*
X55490763Y-116451764D01*
X55486676Y-116489388D01*
X55487213Y-116495523D01*
X55491050Y-116539388D01*
X55491379Y-116544214D01*
X55491500Y-116546686D01*
X55491500Y-116549769D01*
X55491801Y-116552837D01*
X55495690Y-116592506D01*
X55495812Y-116593819D01*
X55499685Y-116638084D01*
X55503913Y-116686413D01*
X55505400Y-116691532D01*
X55505920Y-116696833D01*
X55532791Y-116785834D01*
X55533126Y-116786967D01*
X55555239Y-116863077D01*
X55559091Y-116876336D01*
X55561544Y-116881068D01*
X55563084Y-116886169D01*
X55565978Y-116891612D01*
X55606731Y-116968260D01*
X55607343Y-116969426D01*
X55650108Y-117051926D01*
X55653431Y-117056089D01*
X55655934Y-117060796D01*
X55714755Y-117132918D01*
X55715446Y-117133774D01*
X55746738Y-117172973D01*
X55749242Y-117175477D01*
X55749884Y-117176195D01*
X55753585Y-117180528D01*
X55780935Y-117214062D01*
X55785682Y-117217989D01*
X55785684Y-117217991D01*
X55816262Y-117243287D01*
X55825042Y-117251277D01*
X59439595Y-120865829D01*
X59473621Y-120928141D01*
X59476500Y-120954924D01*
X59476500Y-137303007D01*
X59456498Y-137371128D01*
X59402842Y-137417621D01*
X59381237Y-137425043D01*
X59374684Y-137425755D01*
X59367289Y-137428527D01*
X59367286Y-137428528D01*
X59252978Y-137471380D01*
X59238295Y-137476885D01*
X59121739Y-137564239D01*
X59034385Y-137680795D01*
X58983255Y-137817184D01*
X58976500Y-137879366D01*
X58976500Y-139975634D01*
X58983255Y-140037816D01*
X59034385Y-140174205D01*
X59121739Y-140290761D01*
X59238295Y-140378115D01*
X59246703Y-140381267D01*
X59367286Y-140426472D01*
X59367289Y-140426473D01*
X59374684Y-140429245D01*
X59380453Y-140429872D01*
X59441291Y-140464626D01*
X59474113Y-140527581D01*
X59476500Y-140551993D01*
X59476500Y-140874000D01*
X59456498Y-140942121D01*
X59402842Y-140988614D01*
X59350500Y-141000000D01*
X50634500Y-141000000D01*
X50566379Y-140979998D01*
X50519886Y-140926342D01*
X50508500Y-140874000D01*
X50508500Y-139500564D01*
X50528502Y-139432443D01*
X50582158Y-139385950D01*
X50652432Y-139375846D01*
X50717012Y-139405340D01*
X50747748Y-139445329D01*
X50781340Y-139514202D01*
X50783795Y-139517841D01*
X50783798Y-139517847D01*
X50845881Y-139609889D01*
X50938415Y-139747076D01*
X51126371Y-139955822D01*
X51341550Y-140136379D01*
X51579764Y-140285231D01*
X51713484Y-140344767D01*
X51795464Y-140381267D01*
X51836375Y-140399482D01*
X52106390Y-140476907D01*
X52110740Y-140477518D01*
X52110743Y-140477519D01*
X52213690Y-140491987D01*
X52384552Y-140516000D01*
X52595146Y-140516000D01*
X52597332Y-140515847D01*
X52597336Y-140515847D01*
X52800827Y-140501618D01*
X52800832Y-140501617D01*
X52805212Y-140501311D01*
X53079970Y-140442909D01*
X53084099Y-140441406D01*
X53084103Y-140441405D01*
X53339781Y-140348346D01*
X53339785Y-140348344D01*
X53343926Y-140346837D01*
X53591942Y-140214964D01*
X53638150Y-140181392D01*
X53815629Y-140052447D01*
X53815632Y-140052444D01*
X53819192Y-140049858D01*
X53870121Y-140000677D01*
X54018087Y-139857787D01*
X54021252Y-139854731D01*
X54194188Y-139633382D01*
X54196384Y-139629578D01*
X54196389Y-139629571D01*
X54332435Y-139393931D01*
X54334636Y-139390119D01*
X54439862Y-139129676D01*
X54454096Y-139072588D01*
X54506753Y-138861393D01*
X54506754Y-138861388D01*
X54507817Y-138857124D01*
X54509785Y-138838405D01*
X54536719Y-138582136D01*
X54536719Y-138582133D01*
X54537178Y-138577767D01*
X54537025Y-138573373D01*
X54527529Y-138301439D01*
X54527528Y-138301433D01*
X54527375Y-138297042D01*
X54525834Y-138288297D01*
X54479360Y-138024736D01*
X54478598Y-138020413D01*
X54391797Y-137753265D01*
X54386377Y-137742151D01*
X54324135Y-137614539D01*
X54268660Y-137500798D01*
X54266205Y-137497159D01*
X54266202Y-137497153D01*
X54181197Y-137371128D01*
X54111585Y-137267924D01*
X54096466Y-137251132D01*
X53926566Y-137062440D01*
X53923629Y-137059178D01*
X53872992Y-137016688D01*
X53808476Y-136962553D01*
X53708450Y-136878621D01*
X53470236Y-136729769D01*
X53213625Y-136615518D01*
X52943610Y-136538093D01*
X52939260Y-136537482D01*
X52939257Y-136537481D01*
X52836310Y-136523013D01*
X52665448Y-136499000D01*
X52454854Y-136499000D01*
X52452668Y-136499153D01*
X52452664Y-136499153D01*
X52249173Y-136513382D01*
X52249168Y-136513383D01*
X52244788Y-136513689D01*
X51970030Y-136572091D01*
X51965901Y-136573594D01*
X51965897Y-136573595D01*
X51710219Y-136666654D01*
X51710215Y-136666656D01*
X51706074Y-136668163D01*
X51458058Y-136800036D01*
X51454499Y-136802622D01*
X51454497Y-136802623D01*
X51340300Y-136885592D01*
X51230808Y-136965142D01*
X51227644Y-136968198D01*
X51227641Y-136968200D01*
X51166254Y-137027481D01*
X51028748Y-137160269D01*
X50855812Y-137381618D01*
X50853616Y-137385422D01*
X50853611Y-137385429D01*
X50743619Y-137575942D01*
X50692237Y-137624935D01*
X50622523Y-137638371D01*
X50556612Y-137611985D01*
X50515430Y-137554153D01*
X50508500Y-137512942D01*
X50508500Y-114990564D01*
X50528502Y-114922443D01*
X50582158Y-114875950D01*
X50652432Y-114865846D01*
X50717012Y-114895340D01*
X50747748Y-114935329D01*
X50756398Y-114953064D01*
X50781340Y-115004202D01*
X50783795Y-115007841D01*
X50783798Y-115007847D01*
X50856890Y-115116210D01*
X50938415Y-115237076D01*
X51126371Y-115445822D01*
X51341550Y-115626379D01*
X51579764Y-115775231D01*
X51836375Y-115889482D01*
X52106390Y-115966907D01*
X52110740Y-115967518D01*
X52110743Y-115967519D01*
X52213690Y-115981987D01*
X52384552Y-116006000D01*
X52595146Y-116006000D01*
X52597332Y-116005847D01*
X52597336Y-116005847D01*
X52800827Y-115991618D01*
X52800832Y-115991617D01*
X52805212Y-115991311D01*
X53079970Y-115932909D01*
X53084099Y-115931406D01*
X53084103Y-115931405D01*
X53339781Y-115838346D01*
X53339785Y-115838344D01*
X53343926Y-115836837D01*
X53591942Y-115704964D01*
X53696896Y-115628711D01*
X53815629Y-115542447D01*
X53815632Y-115542444D01*
X53819192Y-115539858D01*
X54021252Y-115344731D01*
X54194188Y-115123382D01*
X54196384Y-115119578D01*
X54196389Y-115119571D01*
X54332435Y-114883931D01*
X54334636Y-114880119D01*
X54439862Y-114619676D01*
X54441686Y-114612359D01*
X54506753Y-114351393D01*
X54506754Y-114351388D01*
X54507817Y-114347124D01*
X54520269Y-114228656D01*
X54536719Y-114072136D01*
X54536719Y-114072133D01*
X54537178Y-114067767D01*
X54535156Y-114009864D01*
X54527529Y-113791439D01*
X54527528Y-113791433D01*
X54527375Y-113787042D01*
X54523350Y-113764211D01*
X54482480Y-113532430D01*
X54478598Y-113510413D01*
X54391797Y-113243265D01*
X54268660Y-112990798D01*
X54266205Y-112987159D01*
X54266202Y-112987153D01*
X54167308Y-112840537D01*
X54111585Y-112757924D01*
X53923629Y-112549178D01*
X53708450Y-112368621D01*
X53470236Y-112219769D01*
X53213625Y-112105518D01*
X52943610Y-112028093D01*
X52939260Y-112027482D01*
X52939257Y-112027481D01*
X52836310Y-112013013D01*
X52665448Y-111989000D01*
X52454854Y-111989000D01*
X52452668Y-111989153D01*
X52452664Y-111989153D01*
X52249173Y-112003382D01*
X52249168Y-112003383D01*
X52244788Y-112003689D01*
X51970030Y-112062091D01*
X51965901Y-112063594D01*
X51965897Y-112063595D01*
X51710219Y-112156654D01*
X51710215Y-112156656D01*
X51706074Y-112158163D01*
X51458058Y-112290036D01*
X51454499Y-112292622D01*
X51454497Y-112292623D01*
X51349895Y-112368621D01*
X51230808Y-112455142D01*
X51227644Y-112458198D01*
X51227641Y-112458200D01*
X51224439Y-112461292D01*
X51028748Y-112650269D01*
X50855812Y-112871618D01*
X50853616Y-112875422D01*
X50853611Y-112875429D01*
X50743619Y-113065942D01*
X50692237Y-113114935D01*
X50622523Y-113128371D01*
X50556612Y-113101985D01*
X50515430Y-113044153D01*
X50508500Y-113002942D01*
X50508500Y-96048918D01*
X52486917Y-96048918D01*
X52502682Y-96322320D01*
X52503507Y-96326525D01*
X52503508Y-96326533D01*
X52514127Y-96380657D01*
X52555405Y-96591053D01*
X52556792Y-96595103D01*
X52556793Y-96595108D01*
X52577605Y-96655895D01*
X52644112Y-96850144D01*
X52767160Y-97094799D01*
X52769586Y-97098328D01*
X52769589Y-97098334D01*
X52919843Y-97316953D01*
X52922274Y-97320490D01*
X53106582Y-97523043D01*
X53316675Y-97698707D01*
X53320316Y-97700991D01*
X53545024Y-97841951D01*
X53545028Y-97841953D01*
X53548664Y-97844234D01*
X53616544Y-97874883D01*
X53794345Y-97955164D01*
X53794349Y-97955166D01*
X53798257Y-97956930D01*
X53802377Y-97958150D01*
X53802376Y-97958150D01*
X54056723Y-98033491D01*
X54056727Y-98033492D01*
X54060836Y-98034709D01*
X54065070Y-98035357D01*
X54065075Y-98035358D01*
X54327298Y-98075483D01*
X54327300Y-98075483D01*
X54331540Y-98076132D01*
X54470912Y-98078322D01*
X54601071Y-98080367D01*
X54601077Y-98080367D01*
X54605362Y-98080434D01*
X54877235Y-98047534D01*
X55142127Y-97978041D01*
X55146087Y-97976401D01*
X55146092Y-97976399D01*
X55268632Y-97925641D01*
X55395136Y-97873241D01*
X55631582Y-97735073D01*
X55847089Y-97566094D01*
X55888809Y-97523043D01*
X56034686Y-97372509D01*
X56037669Y-97369431D01*
X56040202Y-97365983D01*
X56040206Y-97365978D01*
X56197257Y-97152178D01*
X56199795Y-97148723D01*
X56227154Y-97098334D01*
X56328418Y-96911830D01*
X56328419Y-96911828D01*
X56330468Y-96908054D01*
X56427269Y-96651877D01*
X56488407Y-96384933D01*
X56512751Y-96112161D01*
X56513193Y-96070000D01*
X56494567Y-95796778D01*
X56439032Y-95528612D01*
X56347617Y-95270465D01*
X56244005Y-95069721D01*
X56223978Y-95030919D01*
X56223978Y-95030918D01*
X56222013Y-95027112D01*
X56212040Y-95012921D01*
X56067008Y-94806562D01*
X56064545Y-94803057D01*
X55878125Y-94602445D01*
X55874810Y-94599731D01*
X55874806Y-94599728D01*
X55669523Y-94431706D01*
X55666205Y-94428990D01*
X55432704Y-94285901D01*
X55428768Y-94284173D01*
X55185873Y-94177549D01*
X55185869Y-94177548D01*
X55181945Y-94175825D01*
X54918566Y-94100800D01*
X54914324Y-94100196D01*
X54914318Y-94100195D01*
X54713834Y-94071662D01*
X54647443Y-94062213D01*
X54503589Y-94061460D01*
X54377877Y-94060802D01*
X54377871Y-94060802D01*
X54373591Y-94060780D01*
X54369347Y-94061339D01*
X54369343Y-94061339D01*
X54250302Y-94077011D01*
X54102078Y-94096525D01*
X54097938Y-94097658D01*
X54097936Y-94097658D01*
X54025008Y-94117609D01*
X53837928Y-94168788D01*
X53833980Y-94170472D01*
X53589982Y-94274546D01*
X53589978Y-94274548D01*
X53586030Y-94276232D01*
X53566125Y-94288145D01*
X53354725Y-94414664D01*
X53354721Y-94414667D01*
X53351043Y-94416868D01*
X53137318Y-94588094D01*
X52948808Y-94786742D01*
X52789002Y-95009136D01*
X52660857Y-95251161D01*
X52659385Y-95255184D01*
X52659383Y-95255188D01*
X52568214Y-95504317D01*
X52566743Y-95508337D01*
X52508404Y-95775907D01*
X52486917Y-96048918D01*
X50508500Y-96048918D01*
X50508500Y-85888918D01*
X52486917Y-85888918D01*
X52502682Y-86162320D01*
X52503507Y-86166525D01*
X52503508Y-86166533D01*
X52533917Y-86321526D01*
X52555405Y-86431053D01*
X52556792Y-86435103D01*
X52556793Y-86435108D01*
X52607225Y-86582406D01*
X52644112Y-86690144D01*
X52767160Y-86934799D01*
X52769586Y-86938328D01*
X52769589Y-86938334D01*
X52846336Y-87050000D01*
X52922274Y-87160490D01*
X53106582Y-87363043D01*
X53316675Y-87538707D01*
X53320316Y-87540991D01*
X53545024Y-87681951D01*
X53545028Y-87681953D01*
X53548664Y-87684234D01*
X53616544Y-87714883D01*
X53794345Y-87795164D01*
X53794349Y-87795166D01*
X53798257Y-87796930D01*
X53802377Y-87798150D01*
X53802376Y-87798150D01*
X54056723Y-87873491D01*
X54056727Y-87873492D01*
X54060836Y-87874709D01*
X54065070Y-87875357D01*
X54065075Y-87875358D01*
X54327298Y-87915483D01*
X54327300Y-87915483D01*
X54331540Y-87916132D01*
X54470912Y-87918322D01*
X54601071Y-87920367D01*
X54601077Y-87920367D01*
X54605362Y-87920434D01*
X54877235Y-87887534D01*
X55142127Y-87818041D01*
X55146087Y-87816401D01*
X55146092Y-87816399D01*
X55337866Y-87736963D01*
X55395136Y-87713241D01*
X55631582Y-87575073D01*
X55847089Y-87406094D01*
X55888809Y-87363043D01*
X56034686Y-87212509D01*
X56037669Y-87209431D01*
X56040202Y-87205983D01*
X56040206Y-87205978D01*
X56197257Y-86992178D01*
X56199795Y-86988723D01*
X56227154Y-86938334D01*
X56328418Y-86751830D01*
X56328419Y-86751828D01*
X56330468Y-86748054D01*
X56427269Y-86491877D01*
X56488407Y-86224933D01*
X56501271Y-86080800D01*
X56512531Y-85954627D01*
X56512531Y-85954625D01*
X56512751Y-85952161D01*
X56513193Y-85910000D01*
X56494567Y-85636778D01*
X56439032Y-85368612D01*
X56347617Y-85110465D01*
X56222013Y-84867112D01*
X56212040Y-84852921D01*
X56067008Y-84646562D01*
X56064545Y-84643057D01*
X55878125Y-84442445D01*
X55874810Y-84439731D01*
X55874806Y-84439728D01*
X55669523Y-84271706D01*
X55666205Y-84268990D01*
X55432704Y-84125901D01*
X55428768Y-84124173D01*
X55185873Y-84017549D01*
X55185869Y-84017548D01*
X55181945Y-84015825D01*
X54918566Y-83940800D01*
X54914324Y-83940196D01*
X54914318Y-83940195D01*
X54713834Y-83911662D01*
X54647443Y-83902213D01*
X54503589Y-83901460D01*
X54377877Y-83900802D01*
X54377871Y-83900802D01*
X54373591Y-83900780D01*
X54369347Y-83901339D01*
X54369343Y-83901339D01*
X54250302Y-83917011D01*
X54102078Y-83936525D01*
X54097938Y-83937658D01*
X54097936Y-83937658D01*
X54025008Y-83957609D01*
X53837928Y-84008788D01*
X53833980Y-84010472D01*
X53589982Y-84114546D01*
X53589978Y-84114548D01*
X53586030Y-84116232D01*
X53566125Y-84128145D01*
X53354725Y-84254664D01*
X53354721Y-84254667D01*
X53351043Y-84256868D01*
X53137318Y-84428094D01*
X52948808Y-84626742D01*
X52789002Y-84849136D01*
X52660857Y-85091161D01*
X52659385Y-85095184D01*
X52659383Y-85095188D01*
X52652314Y-85114506D01*
X52566743Y-85348337D01*
X52508404Y-85615907D01*
X52486917Y-85888918D01*
X50508500Y-85888918D01*
X50508500Y-80808918D01*
X52486917Y-80808918D01*
X52502682Y-81082320D01*
X52503507Y-81086525D01*
X52503508Y-81086533D01*
X52514127Y-81140657D01*
X52555405Y-81351053D01*
X52556792Y-81355103D01*
X52556793Y-81355108D01*
X52577605Y-81415895D01*
X52644112Y-81610144D01*
X52767160Y-81854799D01*
X52769586Y-81858328D01*
X52769589Y-81858334D01*
X52919843Y-82076953D01*
X52922274Y-82080490D01*
X53106582Y-82283043D01*
X53316675Y-82458707D01*
X53320316Y-82460991D01*
X53545024Y-82601951D01*
X53545028Y-82601953D01*
X53548664Y-82604234D01*
X53616544Y-82634883D01*
X53794345Y-82715164D01*
X53794349Y-82715166D01*
X53798257Y-82716930D01*
X53802377Y-82718150D01*
X53802376Y-82718150D01*
X54056723Y-82793491D01*
X54056727Y-82793492D01*
X54060836Y-82794709D01*
X54065070Y-82795357D01*
X54065075Y-82795358D01*
X54327298Y-82835483D01*
X54327300Y-82835483D01*
X54331540Y-82836132D01*
X54470912Y-82838322D01*
X54601071Y-82840367D01*
X54601077Y-82840367D01*
X54605362Y-82840434D01*
X54877235Y-82807534D01*
X55142127Y-82738041D01*
X55146087Y-82736401D01*
X55146092Y-82736399D01*
X55268632Y-82685641D01*
X55395136Y-82633241D01*
X55631582Y-82495073D01*
X55847089Y-82326094D01*
X55888809Y-82283043D01*
X56034686Y-82132509D01*
X56037669Y-82129431D01*
X56040202Y-82125983D01*
X56040206Y-82125978D01*
X56197257Y-81912178D01*
X56199795Y-81908723D01*
X56227154Y-81858334D01*
X56328418Y-81671830D01*
X56328419Y-81671828D01*
X56330468Y-81668054D01*
X56427269Y-81411877D01*
X56488407Y-81144933D01*
X56512751Y-80872161D01*
X56513193Y-80830000D01*
X56494567Y-80556778D01*
X56439032Y-80288612D01*
X56347617Y-80030465D01*
X56222013Y-79787112D01*
X56212040Y-79772921D01*
X56067008Y-79566562D01*
X56064545Y-79563057D01*
X55878125Y-79362445D01*
X55874810Y-79359731D01*
X55874806Y-79359728D01*
X55669523Y-79191706D01*
X55666205Y-79188990D01*
X55432704Y-79045901D01*
X55428768Y-79044173D01*
X55185873Y-78937549D01*
X55185869Y-78937548D01*
X55181945Y-78935825D01*
X54918566Y-78860800D01*
X54914324Y-78860196D01*
X54914318Y-78860195D01*
X54713834Y-78831662D01*
X54647443Y-78822213D01*
X54503589Y-78821460D01*
X54377877Y-78820802D01*
X54377871Y-78820802D01*
X54373591Y-78820780D01*
X54369347Y-78821339D01*
X54369343Y-78821339D01*
X54250302Y-78837011D01*
X54102078Y-78856525D01*
X54097938Y-78857658D01*
X54097936Y-78857658D01*
X54025008Y-78877609D01*
X53837928Y-78928788D01*
X53833980Y-78930472D01*
X53589982Y-79034546D01*
X53589978Y-79034548D01*
X53586030Y-79036232D01*
X53566125Y-79048145D01*
X53354725Y-79174664D01*
X53354721Y-79174667D01*
X53351043Y-79176868D01*
X53137318Y-79348094D01*
X53054687Y-79435169D01*
X52979888Y-79513991D01*
X52948808Y-79546742D01*
X52789002Y-79769136D01*
X52660857Y-80011161D01*
X52659385Y-80015184D01*
X52659383Y-80015188D01*
X52568214Y-80264317D01*
X52566743Y-80268337D01*
X52508404Y-80535907D01*
X52486917Y-80808918D01*
X50508500Y-80808918D01*
X50508500Y-77294669D01*
X52492001Y-77294669D01*
X52492371Y-77301490D01*
X52497895Y-77352352D01*
X52501521Y-77367604D01*
X52546676Y-77488054D01*
X52555214Y-77503649D01*
X52631715Y-77605724D01*
X52644276Y-77618285D01*
X52746351Y-77694786D01*
X52761946Y-77703324D01*
X52882394Y-77748478D01*
X52897649Y-77752105D01*
X52948514Y-77757631D01*
X52955328Y-77758000D01*
X54227885Y-77758000D01*
X54243124Y-77753525D01*
X54244329Y-77752135D01*
X54246000Y-77744452D01*
X54246000Y-77739884D01*
X54754000Y-77739884D01*
X54758475Y-77755123D01*
X54759865Y-77756328D01*
X54767548Y-77757999D01*
X56044669Y-77757999D01*
X56051490Y-77757629D01*
X56102352Y-77752105D01*
X56117604Y-77748479D01*
X56238054Y-77703324D01*
X56253649Y-77694786D01*
X56355724Y-77618285D01*
X56368285Y-77605724D01*
X56444786Y-77503649D01*
X56453324Y-77488054D01*
X56498478Y-77367606D01*
X56502105Y-77352351D01*
X56507631Y-77301486D01*
X56508000Y-77294672D01*
X56508000Y-76022115D01*
X56503525Y-76006876D01*
X56502135Y-76005671D01*
X56494452Y-76004000D01*
X54772115Y-76004000D01*
X54756876Y-76008475D01*
X54755671Y-76009865D01*
X54754000Y-76017548D01*
X54754000Y-77739884D01*
X54246000Y-77739884D01*
X54246000Y-76022115D01*
X54241525Y-76006876D01*
X54240135Y-76005671D01*
X54232452Y-76004000D01*
X52510116Y-76004000D01*
X52494877Y-76008475D01*
X52493672Y-76009865D01*
X52492001Y-76017548D01*
X52492001Y-77294669D01*
X50508500Y-77294669D01*
X50508500Y-75477885D01*
X52492000Y-75477885D01*
X52496475Y-75493124D01*
X52497865Y-75494329D01*
X52505548Y-75496000D01*
X54227885Y-75496000D01*
X54243124Y-75491525D01*
X54244329Y-75490135D01*
X54246000Y-75482452D01*
X54246000Y-75477885D01*
X54754000Y-75477885D01*
X54758475Y-75493124D01*
X54759865Y-75494329D01*
X54767548Y-75496000D01*
X56489884Y-75496000D01*
X56505123Y-75491525D01*
X56506328Y-75490135D01*
X56507999Y-75482452D01*
X56507999Y-74205331D01*
X56507629Y-74198510D01*
X56502105Y-74147648D01*
X56498479Y-74132396D01*
X56453324Y-74011946D01*
X56444786Y-73996351D01*
X56368285Y-73894276D01*
X56355724Y-73881715D01*
X56253649Y-73805214D01*
X56238054Y-73796676D01*
X56117606Y-73751522D01*
X56102351Y-73747895D01*
X56051486Y-73742369D01*
X56044672Y-73742000D01*
X54772115Y-73742000D01*
X54756876Y-73746475D01*
X54755671Y-73747865D01*
X54754000Y-73755548D01*
X54754000Y-75477885D01*
X54246000Y-75477885D01*
X54246000Y-73760116D01*
X54241525Y-73744877D01*
X54240135Y-73743672D01*
X54232452Y-73742001D01*
X52955331Y-73742001D01*
X52948510Y-73742371D01*
X52897648Y-73747895D01*
X52882396Y-73751521D01*
X52761946Y-73796676D01*
X52746351Y-73805214D01*
X52644276Y-73881715D01*
X52631715Y-73894276D01*
X52555214Y-73996351D01*
X52546676Y-74011946D01*
X52501522Y-74132394D01*
X52497895Y-74147649D01*
X52492369Y-74198514D01*
X52492000Y-74205328D01*
X52492000Y-75477885D01*
X50508500Y-75477885D01*
X50508500Y-71126000D01*
X50528502Y-71057879D01*
X50582158Y-71011386D01*
X50634500Y-71000000D01*
X65874000Y-71000000D01*
X65942121Y-71020002D01*
G37*
%TD.AperFunction*%
%TD*%
%TA.AperFunction,Conductor*%
%TO.N,Earth_Clean*%
G36*
X116459652Y-61860502D02*
G01*
X116506145Y-61914158D01*
X116516249Y-61984432D01*
X116487342Y-62048330D01*
X116342361Y-62218081D01*
X116138459Y-62516989D01*
X116084599Y-62617860D01*
X115999527Y-62777186D01*
X115968032Y-62836170D01*
X115966757Y-62839342D01*
X115966755Y-62839346D01*
X115840882Y-63152467D01*
X115796916Y-63208212D01*
X115729791Y-63231337D01*
X115660819Y-63214500D01*
X115620888Y-63177922D01*
X115520031Y-63034417D01*
X115509509Y-63026037D01*
X115496121Y-63033089D01*
X114292022Y-64237188D01*
X114284408Y-64251132D01*
X114284539Y-64252965D01*
X114288790Y-64259580D01*
X115495730Y-65466520D01*
X115507939Y-65473187D01*
X115519439Y-65464497D01*
X115616834Y-65331909D01*
X115619176Y-65328219D01*
X115672566Y-65281422D01*
X115742782Y-65270919D01*
X115807529Y-65300044D01*
X115842792Y-65349557D01*
X115958236Y-65642628D01*
X115959819Y-65645643D01*
X116124846Y-65959975D01*
X116124851Y-65959983D01*
X116126430Y-65962991D01*
X116328240Y-66263316D01*
X116561304Y-66540088D01*
X116822896Y-66790071D01*
X117109956Y-67010340D01*
X117168401Y-67045875D01*
X117416211Y-67196546D01*
X117416216Y-67196549D01*
X117419126Y-67198318D01*
X117746789Y-67351806D01*
X117750007Y-67352908D01*
X117750010Y-67352909D01*
X118085889Y-67467907D01*
X118085897Y-67467909D01*
X118089112Y-67469010D01*
X118442091Y-67548557D01*
X118494866Y-67554570D01*
X118798213Y-67589133D01*
X118798221Y-67589133D01*
X118801596Y-67589518D01*
X118805000Y-67589536D01*
X118805003Y-67589536D01*
X119001070Y-67590562D01*
X119163422Y-67591412D01*
X119166808Y-67591062D01*
X119166810Y-67591062D01*
X119519945Y-67554570D01*
X119519954Y-67554569D01*
X119523337Y-67554219D01*
X119526670Y-67553505D01*
X119526673Y-67553504D01*
X119667784Y-67523252D01*
X119877129Y-67478372D01*
X120220661Y-67364760D01*
X120549913Y-67214711D01*
X120717458Y-67115230D01*
X120858090Y-67031729D01*
X120858095Y-67031726D01*
X120861035Y-67029980D01*
X120884835Y-67012111D01*
X120923397Y-66983157D01*
X121001986Y-66924152D01*
X121068470Y-66899246D01*
X121137866Y-66914238D01*
X121178594Y-66949521D01*
X121180577Y-66952176D01*
X121185131Y-66958274D01*
X121272526Y-67045516D01*
X121368816Y-67141638D01*
X121374163Y-67146976D01*
X121377823Y-67149699D01*
X121377824Y-67149700D01*
X121584638Y-67303574D01*
X121588455Y-67306414D01*
X121823519Y-67433247D01*
X121827812Y-67434814D01*
X121827817Y-67434816D01*
X122070132Y-67523252D01*
X122070135Y-67523253D01*
X122074429Y-67524820D01*
X122335931Y-67579212D01*
X122340289Y-67579501D01*
X122340293Y-67579502D01*
X122478940Y-67588711D01*
X122505880Y-67590500D01*
X125654120Y-67590500D01*
X125751432Y-67583915D01*
X125822875Y-67579080D01*
X125822878Y-67579080D01*
X125827261Y-67578783D01*
X125971316Y-67548557D01*
X126084204Y-67524871D01*
X126084209Y-67524870D01*
X126088668Y-67523934D01*
X126215745Y-67477305D01*
X126335132Y-67433498D01*
X126335136Y-67433496D01*
X126339418Y-67431925D01*
X126343427Y-67429753D01*
X126343431Y-67429751D01*
X126562300Y-67311161D01*
X126574260Y-67304681D01*
X126599585Y-67285770D01*
X126784616Y-67147601D01*
X126784620Y-67147598D01*
X126788274Y-67144869D01*
X126887454Y-67045516D01*
X126973753Y-66959066D01*
X126973755Y-66959063D01*
X126976976Y-66955837D01*
X127069367Y-66831660D01*
X127133685Y-66745213D01*
X127133685Y-66745212D01*
X127136414Y-66741545D01*
X127263247Y-66506481D01*
X127299136Y-66408147D01*
X127353252Y-66259868D01*
X127353253Y-66259865D01*
X127354820Y-66255571D01*
X127409212Y-65994069D01*
X127411089Y-65965817D01*
X127420361Y-65826212D01*
X127420500Y-65824120D01*
X127420500Y-62675880D01*
X127412740Y-62561215D01*
X127409080Y-62507125D01*
X127409080Y-62507122D01*
X127408783Y-62502739D01*
X127376342Y-62348127D01*
X127354871Y-62245796D01*
X127354870Y-62245791D01*
X127353934Y-62241332D01*
X127269015Y-62009904D01*
X127264327Y-61939062D01*
X127298683Y-61876932D01*
X127361175Y-61843239D01*
X127387303Y-61840500D01*
X132889152Y-61840500D01*
X132957273Y-61860502D01*
X133003766Y-61914158D01*
X133013870Y-61984432D01*
X132994825Y-62035124D01*
X132908996Y-62167290D01*
X132886269Y-62202286D01*
X132884774Y-62205220D01*
X132884770Y-62205227D01*
X132773544Y-62423522D01*
X132715414Y-62537608D01*
X132661517Y-62678016D01*
X132589069Y-62866750D01*
X132580546Y-62888952D01*
X132483142Y-63252469D01*
X132471328Y-63327058D01*
X132430820Y-63582817D01*
X132424269Y-63624176D01*
X132404573Y-64000000D01*
X132424269Y-64375824D01*
X132483142Y-64747531D01*
X132580546Y-65111048D01*
X132715414Y-65462392D01*
X132716912Y-65465332D01*
X132882648Y-65790606D01*
X132886269Y-65797713D01*
X132888065Y-65800479D01*
X132888067Y-65800482D01*
X133016562Y-65998348D01*
X133091238Y-66113339D01*
X133328077Y-66405810D01*
X133594190Y-66671923D01*
X133596748Y-66673995D01*
X133596752Y-66673998D01*
X133708954Y-66764857D01*
X133886661Y-66908762D01*
X133889424Y-66910557D01*
X133889425Y-66910557D01*
X134197848Y-67110848D01*
X134202287Y-67113731D01*
X134205221Y-67115226D01*
X134205228Y-67115230D01*
X134375516Y-67201996D01*
X134537608Y-67284586D01*
X134888952Y-67419454D01*
X135252469Y-67516858D01*
X135447866Y-67547806D01*
X135620928Y-67575217D01*
X135620936Y-67575218D01*
X135624176Y-67575731D01*
X135905987Y-67590500D01*
X136094013Y-67590500D01*
X136375824Y-67575731D01*
X136379064Y-67575218D01*
X136379072Y-67575217D01*
X136552134Y-67547806D01*
X136747531Y-67516858D01*
X137111048Y-67419454D01*
X137462392Y-67284586D01*
X137624484Y-67201996D01*
X137794772Y-67115230D01*
X137794779Y-67115226D01*
X137797713Y-67113731D01*
X137800482Y-67111933D01*
X137964876Y-67005175D01*
X138032901Y-66984849D01*
X138101116Y-67004527D01*
X138147863Y-67057961D01*
X138159500Y-67110848D01*
X138159500Y-73291728D01*
X138139498Y-73359849D01*
X138085842Y-73406342D01*
X138015568Y-73416446D01*
X137950988Y-73386952D01*
X137928955Y-73362058D01*
X137881642Y-73291728D01*
X134014308Y-67542988D01*
X134012718Y-67540443D01*
X134011944Y-67538861D01*
X133997064Y-67516858D01*
X133933885Y-67423440D01*
X133933712Y-67423183D01*
X133931204Y-67419454D01*
X133895582Y-67366503D01*
X133894502Y-67365117D01*
X133892710Y-67362558D01*
X133891431Y-67360667D01*
X133852820Y-67303574D01*
X133809899Y-67256022D01*
X133804049Y-67249050D01*
X133764680Y-67198532D01*
X133761524Y-67195477D01*
X133761517Y-67195469D01*
X133714857Y-67150299D01*
X133708962Y-67144195D01*
X133665445Y-67095984D01*
X133662501Y-67092722D01*
X133613356Y-67051588D01*
X133606635Y-67045536D01*
X133560599Y-67000970D01*
X133504554Y-66960146D01*
X133497870Y-66954924D01*
X133448061Y-66913233D01*
X133448059Y-66913231D01*
X133444688Y-66910410D01*
X133390327Y-66876534D01*
X133382780Y-66871443D01*
X133334565Y-66836322D01*
X133334562Y-66836320D01*
X133331009Y-66833732D01*
X133327133Y-66831665D01*
X133327125Y-66831660D01*
X133269811Y-66801096D01*
X133262488Y-66796869D01*
X133203621Y-66760185D01*
X133145051Y-66734194D01*
X133136912Y-66730224D01*
X133080377Y-66700075D01*
X133015227Y-66676272D01*
X133007371Y-66673097D01*
X132987531Y-66664293D01*
X132948022Y-66646760D01*
X132948016Y-66646758D01*
X132943994Y-66644973D01*
X132939764Y-66643766D01*
X132939751Y-66643761D01*
X132882400Y-66627392D01*
X132873748Y-66624582D01*
X132813584Y-66602600D01*
X132745738Y-66588092D01*
X132737545Y-66586049D01*
X132670859Y-66567015D01*
X132631596Y-66561546D01*
X132607423Y-66558179D01*
X132598458Y-66556598D01*
X132540129Y-66544125D01*
X132540126Y-66544125D01*
X132535821Y-66543204D01*
X132531436Y-66542892D01*
X132531429Y-66542891D01*
X132466643Y-66538281D01*
X132458205Y-66537394D01*
X132393900Y-66528437D01*
X132393896Y-66528437D01*
X132389533Y-66527829D01*
X132385134Y-66527834D01*
X132385128Y-66527834D01*
X132325491Y-66527907D01*
X132316395Y-66527589D01*
X132282773Y-66525197D01*
X132252494Y-66523042D01*
X132202650Y-66526466D01*
X132183302Y-66527795D01*
X132174821Y-66528091D01*
X132152751Y-66528118D01*
X132105490Y-66528176D01*
X132042075Y-66537168D01*
X132033034Y-66538118D01*
X132004363Y-66540088D01*
X131973499Y-66542208D01*
X131973496Y-66542208D01*
X131969120Y-66542509D01*
X131941553Y-66548333D01*
X131901259Y-66556846D01*
X131892903Y-66558319D01*
X131828611Y-66567435D01*
X131828608Y-66567436D01*
X131824261Y-66568052D01*
X131820041Y-66569268D01*
X131820030Y-66569270D01*
X131762710Y-66585782D01*
X131753910Y-66587977D01*
X131691212Y-66601224D01*
X131687083Y-66602721D01*
X131687080Y-66602722D01*
X131626019Y-66624862D01*
X131617948Y-66627484D01*
X131555552Y-66645458D01*
X131555535Y-66645464D01*
X131551318Y-66646679D01*
X131547303Y-66648472D01*
X131547296Y-66648475D01*
X131492835Y-66672802D01*
X131484397Y-66676211D01*
X131428319Y-66696545D01*
X131428312Y-66696548D01*
X131424181Y-66698046D01*
X131363499Y-66730216D01*
X131362914Y-66730526D01*
X131355286Y-66734246D01*
X131330735Y-66745213D01*
X131291973Y-66762528D01*
X131237690Y-66796540D01*
X131229826Y-66801080D01*
X131177111Y-66829026D01*
X131177108Y-66829028D01*
X131173222Y-66831088D01*
X131117053Y-66871792D01*
X131110038Y-66876523D01*
X131055005Y-66911005D01*
X131055000Y-66911008D01*
X131051276Y-66913342D01*
X131047912Y-66916172D01*
X131047909Y-66916174D01*
X131002264Y-66954571D01*
X130995097Y-66960170D01*
X130943222Y-66997763D01*
X130893266Y-67045886D01*
X130886987Y-67051541D01*
X130833911Y-67096188D01*
X130791189Y-67143753D01*
X130791114Y-67143836D01*
X130784793Y-67150381D01*
X130738658Y-67194825D01*
X130735945Y-67198289D01*
X130735943Y-67198291D01*
X130695905Y-67249408D01*
X130690450Y-67255909D01*
X130644107Y-67307505D01*
X130641651Y-67311156D01*
X130641647Y-67311161D01*
X130608343Y-67360667D01*
X130602998Y-67368024D01*
X130563510Y-67418439D01*
X130556961Y-67429751D01*
X130528770Y-67478440D01*
X130524273Y-67485636D01*
X125908615Y-74346750D01*
X125903367Y-74353984D01*
X125863113Y-74405506D01*
X125827501Y-74467188D01*
X125826737Y-74468462D01*
X125826251Y-74469184D01*
X125825157Y-74471084D01*
X125825149Y-74471097D01*
X125791841Y-74528952D01*
X125791764Y-74529086D01*
X125721092Y-74651494D01*
X125720623Y-74652655D01*
X125720000Y-74653737D01*
X125667522Y-74784086D01*
X125614688Y-74914854D01*
X125614385Y-74916070D01*
X125613919Y-74917227D01*
X125580040Y-75053819D01*
X125545972Y-75190459D01*
X125545842Y-75191700D01*
X125545540Y-75192916D01*
X125531005Y-75332859D01*
X125516281Y-75472946D01*
X125516325Y-75474199D01*
X125516196Y-75475439D01*
X125516352Y-75479757D01*
X125516352Y-75479759D01*
X125521263Y-75615600D01*
X125521268Y-75615755D01*
X125526044Y-75752523D01*
X125526194Y-75756816D01*
X125526412Y-75758053D01*
X125526457Y-75759296D01*
X125551008Y-75897541D01*
X125575518Y-76036543D01*
X125575904Y-76037732D01*
X125576123Y-76038963D01*
X125577447Y-76043021D01*
X125577448Y-76043025D01*
X125579031Y-76047877D01*
X125619875Y-76173062D01*
X125663292Y-76306684D01*
X125663838Y-76307803D01*
X125664227Y-76308996D01*
X125726343Y-76435956D01*
X125787808Y-76561979D01*
X125788504Y-76563011D01*
X125789056Y-76564139D01*
X125791466Y-76567703D01*
X125791468Y-76567706D01*
X125867898Y-76680719D01*
X125867985Y-76680847D01*
X125922252Y-76761302D01*
X125943762Y-76828962D01*
X125925278Y-76897510D01*
X125872668Y-76945183D01*
X125809552Y-76957490D01*
X125768159Y-76954777D01*
X125764375Y-76954529D01*
X125760595Y-76954737D01*
X125760594Y-76954737D01*
X125667334Y-76959869D01*
X125434439Y-76972686D01*
X125109074Y-77030350D01*
X125105458Y-77031452D01*
X125105450Y-77031454D01*
X124796616Y-77125579D01*
X124796609Y-77125582D01*
X124792992Y-77126684D01*
X124490774Y-77260293D01*
X124487520Y-77262229D01*
X124487514Y-77262232D01*
X124247621Y-77404954D01*
X124206795Y-77429243D01*
X124203794Y-77431558D01*
X124203790Y-77431561D01*
X124075041Y-77530890D01*
X123945170Y-77631085D01*
X123942469Y-77633744D01*
X123942462Y-77633750D01*
X123847268Y-77727461D01*
X123709689Y-77862896D01*
X123707325Y-77865863D01*
X123707322Y-77865866D01*
X123690196Y-77887358D01*
X123503763Y-78121318D01*
X123330373Y-78402608D01*
X123192033Y-78702690D01*
X123190874Y-78706290D01*
X123190871Y-78706297D01*
X123121025Y-78923194D01*
X123090746Y-79017220D01*
X123090027Y-79020936D01*
X123090025Y-79020944D01*
X123028698Y-79337920D01*
X123028697Y-79337929D01*
X123027979Y-79341639D01*
X123027712Y-79345415D01*
X123027711Y-79345420D01*
X123008082Y-79622659D01*
X123004642Y-79671250D01*
X123021071Y-80001277D01*
X123021712Y-80005008D01*
X123021713Y-80005016D01*
X123048516Y-80160997D01*
X123077030Y-80326939D01*
X123078118Y-80330578D01*
X123078119Y-80330581D01*
X123155313Y-80588699D01*
X123171708Y-80643521D01*
X123303734Y-80946435D01*
X123305657Y-80949707D01*
X123305659Y-80949710D01*
X123347213Y-81020395D01*
X123471194Y-81231294D01*
X123473495Y-81234309D01*
X123669363Y-81490959D01*
X123669368Y-81490965D01*
X123671663Y-81493972D01*
X123902238Y-81730664D01*
X124159578Y-81937941D01*
X124439956Y-82112800D01*
X124739311Y-82252710D01*
X125053305Y-82355642D01*
X125377392Y-82420107D01*
X125381164Y-82420394D01*
X125381172Y-82420395D01*
X125703098Y-82444883D01*
X125703103Y-82444883D01*
X125706875Y-82445170D01*
X126036984Y-82430469D01*
X126040733Y-82429845D01*
X126359194Y-82376839D01*
X126359199Y-82376838D01*
X126362935Y-82376216D01*
X126680008Y-82283197D01*
X126683475Y-82281707D01*
X126683479Y-82281706D01*
X126980125Y-82154256D01*
X126980127Y-82154255D01*
X126983609Y-82152759D01*
X127269341Y-81986793D01*
X127533065Y-81787701D01*
X127770961Y-81558369D01*
X127979583Y-81302118D01*
X128150874Y-81030638D01*
X128153881Y-81025872D01*
X128153883Y-81025869D01*
X128155908Y-81022659D01*
X128297383Y-80724041D01*
X128300597Y-80714409D01*
X128400761Y-80414177D01*
X128401958Y-80410590D01*
X128468119Y-80086846D01*
X128494907Y-79757498D01*
X128495509Y-79700000D01*
X128494005Y-79675042D01*
X128475852Y-79373941D01*
X128475852Y-79373937D01*
X128475624Y-79370163D01*
X128469736Y-79337920D01*
X128416941Y-79048845D01*
X128416258Y-79045104D01*
X128318270Y-78729532D01*
X128183080Y-78428017D01*
X128012646Y-78144927D01*
X127879298Y-77973941D01*
X127811774Y-77887358D01*
X127811770Y-77887353D01*
X127809437Y-77884362D01*
X127715430Y-77789861D01*
X127681568Y-77727461D01*
X127686818Y-77656659D01*
X127729513Y-77599935D01*
X127796098Y-77575298D01*
X127804758Y-77575000D01*
X136872358Y-77575000D01*
X136881301Y-77575318D01*
X136946505Y-77579958D01*
X136990494Y-77576936D01*
X137017561Y-77575077D01*
X137019045Y-77575000D01*
X137019916Y-77575000D01*
X137068119Y-77571629D01*
X137088940Y-77570173D01*
X137089095Y-77570162D01*
X137225577Y-77560787D01*
X137225583Y-77560786D01*
X137229880Y-77560491D01*
X137231105Y-77560232D01*
X137232351Y-77560145D01*
X137236569Y-77559248D01*
X137236572Y-77559248D01*
X137369834Y-77530922D01*
X137369985Y-77530890D01*
X137507788Y-77501775D01*
X137508963Y-77501349D01*
X137510186Y-77501089D01*
X137514224Y-77499619D01*
X137514232Y-77499617D01*
X137642473Y-77452940D01*
X137642619Y-77452887D01*
X137701436Y-77431561D01*
X137774819Y-77404954D01*
X137775921Y-77404370D01*
X137777099Y-77403941D01*
X137901241Y-77337934D01*
X137901397Y-77337902D01*
X137901376Y-77337862D01*
X137967721Y-77302690D01*
X137974484Y-77299105D01*
X138044038Y-77284870D01*
X138110247Y-77310500D01*
X138152090Y-77367855D01*
X138159500Y-77410429D01*
X138159500Y-91374000D01*
X138139498Y-91442121D01*
X138085842Y-91488614D01*
X138033500Y-91500000D01*
X137868222Y-91500000D01*
X137800101Y-91479998D01*
X137751438Y-91421302D01*
X137714343Y-91329719D01*
X137713300Y-91327058D01*
X137675496Y-91227275D01*
X137675493Y-91227269D01*
X137673880Y-91223011D01*
X137667432Y-91211402D01*
X137660806Y-91197542D01*
X137655821Y-91185235D01*
X137599606Y-91089228D01*
X137598207Y-91086775D01*
X137546400Y-90993504D01*
X137544184Y-90989514D01*
X137536132Y-90978964D01*
X137527566Y-90966192D01*
X137520861Y-90954741D01*
X137518005Y-90951169D01*
X137518001Y-90951164D01*
X137451381Y-90867859D01*
X137449621Y-90865607D01*
X137384911Y-90780817D01*
X137382140Y-90777186D01*
X137372662Y-90767921D01*
X137362335Y-90756512D01*
X137356894Y-90749708D01*
X137356886Y-90749699D01*
X137354042Y-90746143D01*
X137272727Y-90670183D01*
X137270660Y-90668207D01*
X137194408Y-90593666D01*
X137191142Y-90590473D01*
X137180411Y-90582662D01*
X137168551Y-90572868D01*
X137162193Y-90566928D01*
X137162190Y-90566926D01*
X137158857Y-90563812D01*
X137067411Y-90500374D01*
X137065115Y-90498741D01*
X136978888Y-90435978D01*
X136978886Y-90435977D01*
X136975192Y-90433288D01*
X136963445Y-90427107D01*
X136950302Y-90419132D01*
X136943139Y-90414163D01*
X136939397Y-90411567D01*
X136839772Y-90362005D01*
X136837284Y-90360731D01*
X136738813Y-90308923D01*
X136733823Y-90307161D01*
X136726298Y-90304503D01*
X136712141Y-90298509D01*
X136700257Y-90292597D01*
X136594542Y-90257942D01*
X136591867Y-90257031D01*
X136486957Y-90219984D01*
X136478264Y-90218271D01*
X136473943Y-90217419D01*
X136459059Y-90213528D01*
X136446448Y-90209394D01*
X136336830Y-90190362D01*
X136334044Y-90189845D01*
X136224900Y-90168333D01*
X136220344Y-90168106D01*
X136220343Y-90168106D01*
X136211648Y-90167673D01*
X136196365Y-90165972D01*
X136187081Y-90164360D01*
X136187070Y-90164359D01*
X136183287Y-90163702D01*
X136134865Y-90161291D01*
X136100456Y-90159578D01*
X136100447Y-90159578D01*
X136098885Y-90159500D01*
X136050608Y-90159500D01*
X136044343Y-90159344D01*
X135962701Y-90155279D01*
X135962695Y-90155279D01*
X135958132Y-90155052D01*
X135920989Y-90158596D01*
X135917485Y-90158930D01*
X135905518Y-90159500D01*
X110966500Y-90159500D01*
X110898379Y-90139498D01*
X110851886Y-90085842D01*
X110840500Y-90033500D01*
X110840500Y-86960627D01*
X115756090Y-86960627D01*
X115756185Y-86964257D01*
X115756185Y-86964258D01*
X115764570Y-87284465D01*
X115764665Y-87288090D01*
X115810821Y-87612397D01*
X115893946Y-87929250D01*
X116012938Y-88234450D01*
X116166220Y-88523950D01*
X116168270Y-88526933D01*
X116168272Y-88526936D01*
X116349704Y-88790921D01*
X116349710Y-88790928D01*
X116351761Y-88793913D01*
X116354149Y-88796650D01*
X116531765Y-89000255D01*
X116567101Y-89040762D01*
X116809386Y-89261224D01*
X116812324Y-89263335D01*
X116812330Y-89263340D01*
X116997706Y-89396545D01*
X117075405Y-89452378D01*
X117361631Y-89611690D01*
X117664271Y-89737047D01*
X117667765Y-89738042D01*
X117667767Y-89738043D01*
X117975813Y-89825793D01*
X117975818Y-89825794D01*
X117979314Y-89826790D01*
X118177632Y-89859265D01*
X118299004Y-89879141D01*
X118299008Y-89879141D01*
X118302584Y-89879727D01*
X118306210Y-89879898D01*
X118626169Y-89894987D01*
X118626170Y-89894987D01*
X118629796Y-89895158D01*
X118639843Y-89894473D01*
X118952981Y-89873126D01*
X118952989Y-89873125D01*
X118956612Y-89872878D01*
X118960188Y-89872215D01*
X118960190Y-89872215D01*
X119275138Y-89813843D01*
X119275142Y-89813842D01*
X119278703Y-89813182D01*
X119591797Y-89716862D01*
X119731228Y-89655656D01*
X119888419Y-89586654D01*
X119888427Y-89586650D01*
X119891746Y-89585193D01*
X120174573Y-89419922D01*
X120436530Y-89223240D01*
X120674145Y-88997751D01*
X120884268Y-88746447D01*
X120886256Y-88743421D01*
X121062127Y-88475683D01*
X121062132Y-88475674D01*
X121064114Y-88472657D01*
X121185624Y-88231061D01*
X121209673Y-88183246D01*
X121209676Y-88183238D01*
X121211300Y-88180010D01*
X121323875Y-87872386D01*
X121324720Y-87868864D01*
X121324723Y-87868856D01*
X121399499Y-87557391D01*
X121399500Y-87557387D01*
X121400346Y-87553862D01*
X121439699Y-87228659D01*
X121445314Y-87050000D01*
X121440161Y-86960627D01*
X123556090Y-86960627D01*
X123556185Y-86964257D01*
X123556185Y-86964258D01*
X123564570Y-87284465D01*
X123564665Y-87288090D01*
X123610821Y-87612397D01*
X123693946Y-87929250D01*
X123812938Y-88234450D01*
X123966220Y-88523950D01*
X123968270Y-88526933D01*
X123968272Y-88526936D01*
X124149704Y-88790921D01*
X124149710Y-88790928D01*
X124151761Y-88793913D01*
X124154149Y-88796650D01*
X124331765Y-89000255D01*
X124367101Y-89040762D01*
X124609386Y-89261224D01*
X124612324Y-89263335D01*
X124612330Y-89263340D01*
X124797706Y-89396545D01*
X124875405Y-89452378D01*
X125161631Y-89611690D01*
X125464271Y-89737047D01*
X125467765Y-89738042D01*
X125467767Y-89738043D01*
X125775813Y-89825793D01*
X125775818Y-89825794D01*
X125779314Y-89826790D01*
X125977632Y-89859265D01*
X126099004Y-89879141D01*
X126099008Y-89879141D01*
X126102584Y-89879727D01*
X126106210Y-89879898D01*
X126426169Y-89894987D01*
X126426170Y-89894987D01*
X126429796Y-89895158D01*
X126439843Y-89894473D01*
X126752981Y-89873126D01*
X126752989Y-89873125D01*
X126756612Y-89872878D01*
X126760188Y-89872215D01*
X126760190Y-89872215D01*
X127075138Y-89813843D01*
X127075142Y-89813842D01*
X127078703Y-89813182D01*
X127391797Y-89716862D01*
X127531228Y-89655656D01*
X127688419Y-89586654D01*
X127688427Y-89586650D01*
X127691746Y-89585193D01*
X127974573Y-89419922D01*
X128236530Y-89223240D01*
X128474145Y-88997751D01*
X128684268Y-88746447D01*
X128686256Y-88743421D01*
X128862127Y-88475683D01*
X128862132Y-88475674D01*
X128864114Y-88472657D01*
X128985624Y-88231061D01*
X129009673Y-88183246D01*
X129009676Y-88183238D01*
X129011300Y-88180010D01*
X129123875Y-87872386D01*
X129124720Y-87868864D01*
X129124723Y-87868856D01*
X129199499Y-87557391D01*
X129199500Y-87557387D01*
X129200346Y-87553862D01*
X129239699Y-87228659D01*
X129245314Y-87050000D01*
X129226457Y-86722968D01*
X129170138Y-86400270D01*
X129077101Y-86086184D01*
X128948581Y-85784873D01*
X128786281Y-85500331D01*
X128592352Y-85236329D01*
X128369365Y-84996366D01*
X128120274Y-84783622D01*
X127848383Y-84600919D01*
X127557293Y-84450676D01*
X127250865Y-84334887D01*
X127247353Y-84334005D01*
X127247344Y-84334002D01*
X127092012Y-84294986D01*
X126933159Y-84255084D01*
X126796402Y-84237080D01*
X126611990Y-84212801D01*
X126611982Y-84212800D01*
X126608386Y-84212327D01*
X126472881Y-84210198D01*
X126284493Y-84207239D01*
X126284489Y-84207239D01*
X126280851Y-84207182D01*
X126277237Y-84207543D01*
X126277231Y-84207543D01*
X126048782Y-84230346D01*
X125954895Y-84239717D01*
X125886589Y-84254610D01*
X125638383Y-84308727D01*
X125638378Y-84308728D01*
X125634839Y-84309500D01*
X125324924Y-84415607D01*
X125029260Y-84556632D01*
X124751763Y-84730705D01*
X124496113Y-84935520D01*
X124265698Y-85168360D01*
X124263457Y-85171217D01*
X124263457Y-85171218D01*
X124214486Y-85233674D01*
X124063573Y-85426141D01*
X124061680Y-85429230D01*
X124061678Y-85429233D01*
X124019896Y-85497416D01*
X123892415Y-85705445D01*
X123754494Y-86002570D01*
X123651638Y-86313579D01*
X123585210Y-86634348D01*
X123556090Y-86960627D01*
X121440161Y-86960627D01*
X121426457Y-86722968D01*
X121370138Y-86400270D01*
X121277101Y-86086184D01*
X121148581Y-85784873D01*
X120986281Y-85500331D01*
X120792352Y-85236329D01*
X120569365Y-84996366D01*
X120320274Y-84783622D01*
X120048383Y-84600919D01*
X119757293Y-84450676D01*
X119450865Y-84334887D01*
X119447353Y-84334005D01*
X119447344Y-84334002D01*
X119292012Y-84294986D01*
X119133159Y-84255084D01*
X118996402Y-84237080D01*
X118811990Y-84212801D01*
X118811982Y-84212800D01*
X118808386Y-84212327D01*
X118672881Y-84210198D01*
X118484493Y-84207239D01*
X118484489Y-84207239D01*
X118480851Y-84207182D01*
X118477237Y-84207543D01*
X118477231Y-84207543D01*
X118248782Y-84230346D01*
X118154895Y-84239717D01*
X118086589Y-84254610D01*
X117838383Y-84308727D01*
X117838378Y-84308728D01*
X117834839Y-84309500D01*
X117524924Y-84415607D01*
X117229260Y-84556632D01*
X116951763Y-84730705D01*
X116696113Y-84935520D01*
X116465698Y-85168360D01*
X116463457Y-85171217D01*
X116463457Y-85171218D01*
X116414486Y-85233674D01*
X116263573Y-85426141D01*
X116261680Y-85429230D01*
X116261678Y-85429233D01*
X116219896Y-85497416D01*
X116092415Y-85705445D01*
X115954494Y-86002570D01*
X115851638Y-86313579D01*
X115785210Y-86634348D01*
X115756090Y-86960627D01*
X110840500Y-86960627D01*
X110840500Y-78271250D01*
X115504642Y-78271250D01*
X115521071Y-78601277D01*
X115521712Y-78605008D01*
X115521713Y-78605016D01*
X115542514Y-78726066D01*
X115577030Y-78926939D01*
X115578118Y-78930578D01*
X115578119Y-78930581D01*
X115613488Y-79048845D01*
X115671708Y-79243521D01*
X115803734Y-79546435D01*
X115971194Y-79831294D01*
X115973495Y-79834309D01*
X116169363Y-80090959D01*
X116169368Y-80090965D01*
X116171663Y-80093972D01*
X116402238Y-80330664D01*
X116659578Y-80537941D01*
X116939956Y-80712800D01*
X117239311Y-80852710D01*
X117553305Y-80955642D01*
X117877392Y-81020107D01*
X117881164Y-81020394D01*
X117881172Y-81020395D01*
X118203098Y-81044883D01*
X118203103Y-81044883D01*
X118206875Y-81045170D01*
X118536984Y-81030469D01*
X118564603Y-81025872D01*
X118859194Y-80976839D01*
X118859199Y-80976838D01*
X118862935Y-80976216D01*
X119180008Y-80883197D01*
X119183475Y-80881707D01*
X119183479Y-80881706D01*
X119480125Y-80754256D01*
X119480127Y-80754255D01*
X119483609Y-80752759D01*
X119769341Y-80586793D01*
X119997994Y-80414177D01*
X120030041Y-80389984D01*
X120030042Y-80389983D01*
X120033065Y-80387701D01*
X120270961Y-80158369D01*
X120479583Y-79902118D01*
X120622857Y-79675042D01*
X120653881Y-79625872D01*
X120653883Y-79625869D01*
X120655908Y-79622659D01*
X120797383Y-79324041D01*
X120824247Y-79243521D01*
X120891657Y-79041466D01*
X120901958Y-79010590D01*
X120968119Y-78686846D01*
X120994907Y-78357498D01*
X120995509Y-78300000D01*
X120994005Y-78275042D01*
X120975852Y-77973941D01*
X120975852Y-77973937D01*
X120975624Y-77970163D01*
X120969736Y-77937920D01*
X120916941Y-77648845D01*
X120916258Y-77645104D01*
X120818270Y-77329532D01*
X120683080Y-77028017D01*
X120512646Y-76744927D01*
X120491919Y-76718350D01*
X120311774Y-76487358D01*
X120311770Y-76487353D01*
X120309437Y-76484362D01*
X120076396Y-76250098D01*
X119978677Y-76173062D01*
X119819880Y-76047877D01*
X119816899Y-76045527D01*
X119534706Y-75873614D01*
X119502039Y-75858761D01*
X119475328Y-75846617D01*
X119233902Y-75736847D01*
X118918847Y-75637208D01*
X118698385Y-75595750D01*
X118597827Y-75576840D01*
X118597825Y-75576840D01*
X118594104Y-75576140D01*
X118264375Y-75554529D01*
X118260595Y-75554737D01*
X118260594Y-75554737D01*
X118167334Y-75559869D01*
X117934439Y-75572686D01*
X117609074Y-75630350D01*
X117605458Y-75631452D01*
X117605450Y-75631454D01*
X117296616Y-75725579D01*
X117296609Y-75725582D01*
X117292992Y-75726684D01*
X116990774Y-75860293D01*
X116987520Y-75862229D01*
X116987514Y-75862232D01*
X116710054Y-76027304D01*
X116706795Y-76029243D01*
X116703794Y-76031558D01*
X116703790Y-76031561D01*
X116541853Y-76156495D01*
X116445170Y-76231085D01*
X116442469Y-76233744D01*
X116442462Y-76233750D01*
X116212397Y-76460230D01*
X116209689Y-76462896D01*
X116207325Y-76465863D01*
X116207322Y-76465866D01*
X116126170Y-76567706D01*
X116003763Y-76721318D01*
X115830373Y-77002608D01*
X115692033Y-77302690D01*
X115690874Y-77306290D01*
X115690871Y-77306297D01*
X115602745Y-77579958D01*
X115590746Y-77617220D01*
X115590027Y-77620936D01*
X115590025Y-77620944D01*
X115528698Y-77937920D01*
X115528697Y-77937929D01*
X115527979Y-77941639D01*
X115527712Y-77945415D01*
X115527711Y-77945420D01*
X115513798Y-78141930D01*
X115504642Y-78271250D01*
X110840500Y-78271250D01*
X110840500Y-65839654D01*
X112695618Y-65839654D01*
X112702673Y-65849627D01*
X112733679Y-65875551D01*
X112740598Y-65880579D01*
X112965272Y-66021515D01*
X112972807Y-66025556D01*
X113214520Y-66134694D01*
X113222551Y-66137680D01*
X113476832Y-66213002D01*
X113485184Y-66214869D01*
X113747340Y-66254984D01*
X113755874Y-66255700D01*
X114021045Y-66259867D01*
X114029596Y-66259418D01*
X114292883Y-66227557D01*
X114301284Y-66225955D01*
X114557824Y-66158653D01*
X114565926Y-66155926D01*
X114810949Y-66054434D01*
X114818617Y-66050628D01*
X115047598Y-65916822D01*
X115054679Y-65912009D01*
X115134655Y-65849301D01*
X115143125Y-65837442D01*
X115136608Y-65825818D01*
X113932812Y-64622022D01*
X113918868Y-64614408D01*
X113917035Y-64614539D01*
X113910420Y-64618790D01*
X112702910Y-65826300D01*
X112695618Y-65839654D01*
X110840500Y-65839654D01*
X110840500Y-64233204D01*
X111907665Y-64233204D01*
X111922932Y-64497969D01*
X111924005Y-64506470D01*
X111975065Y-64766722D01*
X111977276Y-64774974D01*
X112063184Y-65025894D01*
X112066499Y-65033779D01*
X112185664Y-65270713D01*
X112190020Y-65278079D01*
X112319347Y-65466250D01*
X112329601Y-65474594D01*
X112343342Y-65467448D01*
X113547978Y-64262812D01*
X113555592Y-64248868D01*
X113555461Y-64247035D01*
X113551210Y-64240420D01*
X112343814Y-63033024D01*
X112331804Y-63026466D01*
X112320064Y-63035434D01*
X112211935Y-63185911D01*
X112207418Y-63193196D01*
X112083325Y-63427567D01*
X112079839Y-63435395D01*
X111988700Y-63684446D01*
X111986311Y-63692670D01*
X111929812Y-63951795D01*
X111928563Y-63960250D01*
X111907754Y-64224653D01*
X111907665Y-64233204D01*
X110840500Y-64233204D01*
X110840500Y-64050608D01*
X110840656Y-64044343D01*
X110844721Y-63962701D01*
X110844721Y-63962695D01*
X110844948Y-63958132D01*
X110834385Y-63847411D01*
X110834147Y-63844588D01*
X110826424Y-63738154D01*
X110826094Y-63733602D01*
X110823232Y-63720638D01*
X110820840Y-63705447D01*
X110820014Y-63696789D01*
X110820014Y-63696788D01*
X110819580Y-63692241D01*
X110793143Y-63584201D01*
X110792495Y-63581417D01*
X110769496Y-63477244D01*
X110769495Y-63477240D01*
X110768511Y-63472784D01*
X110763807Y-63460368D01*
X110759247Y-63445680D01*
X110757181Y-63437236D01*
X110757178Y-63437226D01*
X110756094Y-63432797D01*
X110714340Y-63329711D01*
X110713300Y-63327058D01*
X110675496Y-63227275D01*
X110675493Y-63227269D01*
X110673880Y-63223011D01*
X110667432Y-63211402D01*
X110660806Y-63197542D01*
X110655821Y-63185235D01*
X110599606Y-63089228D01*
X110598207Y-63086775D01*
X110568388Y-63033089D01*
X110544184Y-62989514D01*
X110536132Y-62978964D01*
X110527566Y-62966192D01*
X110520861Y-62954741D01*
X110518005Y-62951169D01*
X110518001Y-62951164D01*
X110451381Y-62867859D01*
X110449621Y-62865607D01*
X110384911Y-62780817D01*
X110382140Y-62777186D01*
X110372662Y-62767921D01*
X110362335Y-62756512D01*
X110356894Y-62749708D01*
X110356886Y-62749699D01*
X110354042Y-62746143D01*
X110281112Y-62678016D01*
X110272727Y-62670183D01*
X110270660Y-62668207D01*
X110264822Y-62662500D01*
X112696584Y-62662500D01*
X112702980Y-62673770D01*
X113907188Y-63877978D01*
X113921132Y-63885592D01*
X113922965Y-63885461D01*
X113929580Y-63881210D01*
X115136604Y-62674186D01*
X115143795Y-62661017D01*
X115136473Y-62650780D01*
X115089233Y-62612115D01*
X115082261Y-62607160D01*
X114856122Y-62468582D01*
X114848552Y-62464624D01*
X114605704Y-62358022D01*
X114597644Y-62355120D01*
X114342592Y-62282467D01*
X114334214Y-62280685D01*
X114071656Y-62243318D01*
X114063111Y-62242691D01*
X113797908Y-62241302D01*
X113789374Y-62241839D01*
X113526433Y-62276456D01*
X113518035Y-62278149D01*
X113262238Y-62348127D01*
X113254143Y-62350946D01*
X113010199Y-62454997D01*
X113002577Y-62458881D01*
X112775013Y-62595075D01*
X112767981Y-62599962D01*
X112705053Y-62650377D01*
X112696584Y-62662500D01*
X110264822Y-62662500D01*
X110219157Y-62617860D01*
X110191142Y-62590473D01*
X110180411Y-62582662D01*
X110168551Y-62572868D01*
X110162193Y-62566928D01*
X110162190Y-62566926D01*
X110158857Y-62563812D01*
X110067411Y-62500374D01*
X110065115Y-62498741D01*
X109978888Y-62435978D01*
X109978886Y-62435977D01*
X109975192Y-62433288D01*
X109963445Y-62427107D01*
X109950302Y-62419132D01*
X109943139Y-62414163D01*
X109939397Y-62411567D01*
X109839802Y-62362019D01*
X109837271Y-62360724D01*
X109817330Y-62350232D01*
X109766359Y-62300812D01*
X109750000Y-62238725D01*
X109750000Y-61966500D01*
X109770002Y-61898379D01*
X109823658Y-61851886D01*
X109876000Y-61840500D01*
X116391531Y-61840500D01*
X116459652Y-61860502D01*
G37*
%TD.AperFunction*%
%TD*%
M02*
