M48
; DRILL file {KiCad (6.0.7)} date Sat Nov 19 09:32:55 2022
; FORMAT={-:-/ absolute / inch / decimal}
; #@! TF.CreationDate,2022-11-19T09:32:55+05:30
; #@! TF.GenerationSoftware,Kicad,Pcbnew,(6.0.7)
; #@! TF.FileFunction,Plated,1,2,PTH
FMAT,2
INCH
; #@! TA.AperFunction,Plated,PTH,ViaDrill
T1C0.0157
; #@! TA.AperFunction,Plated,PTH,ComponentDrill
T2C0.0315
; #@! TA.AperFunction,Plated,PTH,ComponentDrill
T3C0.0394
; #@! TA.AperFunction,Plated,PTH,ComponentDrill
T4C0.0402
; #@! TA.AperFunction,Plated,PTH,ComponentDrill
T5C0.0512
; #@! TA.AperFunction,Plated,PTH,ComponentDrill
T6C0.0598
%
G90
G05
T1
X3.4843Y-3.9272
T2
X4.3739Y-5.4035
X4.5117Y-5.4035
X4.6555Y-3.0827
X4.9508Y-3.1378
T3
X3.0138Y-5.6732
X3.1138Y-5.6732
X3.2138Y-5.6732
X3.3138Y-5.6732
X3.4138Y-5.6732
X3.5138Y-5.6732
X3.7067Y-4.065
X4.0059Y-4.065
X4.374Y-5.1004
X4.6693Y-3.4272
X4.9764Y-3.4272
X5.2717Y-5.1004
T4
X2.3813Y-4.4696
X2.3813Y-5.4696
X2.4813Y-4.4696
X2.4813Y-5.4696
X2.5813Y-4.4696
X2.5813Y-5.4696
X2.6813Y-4.4696
X2.6813Y-5.4696
X2.7813Y-4.4696
X2.7813Y-5.4696
X2.8813Y-4.4696
X2.8813Y-5.4696
X2.9813Y-4.4696
X2.9813Y-5.4696
X3.0813Y-4.4696
X3.0813Y-5.4696
X3.1813Y-4.4696
X3.1813Y-5.4696
X3.2813Y-4.4696
X3.2813Y-5.4696
X3.3813Y-4.4696
X3.3813Y-5.4696
X3.4813Y-4.4696
X3.4813Y-5.4696
X3.5813Y-4.4696
X3.5813Y-5.4696
X3.6813Y-4.4696
X3.6813Y-5.4696
X3.7813Y-4.4696
X3.7813Y-5.4696
T5
X2.7559Y-2.9862
X2.7559Y-3.4665
X2.9921Y-3.5453
X3.2283Y-2.9862
X3.2283Y-3.4665
X3.4843Y-2.9862
X3.4843Y-3.4665
X3.7205Y-3.5453
X3.9567Y-2.9862
X3.9567Y-3.4665
T6
X2.1457Y-2.9823
X2.1457Y-3.1823
X2.1457Y-3.3823
X2.1457Y-3.5823
X2.1457Y-3.7823
X2.8921Y-2.5295
X3.0921Y-2.5295
X3.6205Y-2.5295
X3.8205Y-2.5295
X4.485Y-2.5295
X4.685Y-2.5295
X4.885Y-2.5295
T0
M30
